ISO-10303-21;
HEADER;
FILE_DESCRIPTION(('STEP AP242'),
    '1');
FILE_NAME('itemPillContainerCapMon',
    '',
    ('UNSPECIFIED'),
    ('UNSPECIFIED'),
    'C3D Converter',
    'C3D Toolkit',
    '');
FILE_SCHEMA(('AP242_MANAGED_MODEL_BASED_3D_ENGINEERING_MIM_LF { 1 0 10303 442 1 1 4 }'));
ENDSEC;

DATA;
#1=PRODUCT_DEFINITION('','UNSPECIFIED',#28,#31);
#2=SHAPE_DEFINITION_REPRESENTATION(#26,#3);
#3=SHAPE_REPRESENTATION('NONE',(#4),#8);
#4=AXIS2_PLACEMENT_3D('',#5,#6,#7);
#5=CARTESIAN_POINT('',(0.,0.,0.));
#6=DIRECTION('',(0.,0.,1.));
#7=DIRECTION('',(1.,0.,0.));
#8=(GEOMETRIC_REPRESENTATION_CONTEXT(3)GLOBAL_UNCERTAINTY_ASSIGNED_CONTEXT((#10))
GLOBAL_UNIT_ASSIGNED_CONTEXT((#9,#11,#12))REPRESENTATION_CONTEXT('NONE','NONE'));
#9=(LENGTH_UNIT()NAMED_UNIT(*)SI_UNIT(.MILLI.,.METRE.));
#10=UNCERTAINTY_MEASURE_WITH_UNIT(LENGTH_MEASURE(1.E-5),#9,'NONE','NONE');
#11=(NAMED_UNIT(*)PLANE_ANGLE_UNIT()SI_UNIT($,.RADIAN.));
#12=(NAMED_UNIT(*)SI_UNIT($,.STERADIAN.)SOLID_ANGLE_UNIT());
#13=MANIFOLD_SOLID_BREP('',#14);
#14=CLOSED_SHELL('',(#48,#49,#50,#51,#52,#53,#54,#55,#56,#57,#58,#59,#60,#61,#62,
#63,#64,#65,#66,#67,#68,#69,#70,#71,#72,#73,#74,#75,#76,#77,#78,#79,#80,#81,#82,
#83,#84,#85,#86,#87,#88,#89,#90,#91,#92,#93,#94,#95,#96,#97,#98,#99,#100,#101,#102,
#103,#104,#105,#106,#107,#108,#109,#110,#111,#112));
#15=COLOUR_RGB('',0.564705882352941,0.564705882352941,0.564705882352941);
#16=FILL_AREA_STYLE_COLOUR('',#15);
#17=FILL_AREA_STYLE($,(#16));
#18=SURFACE_STYLE_FILL_AREA(#17);
#19=SURFACE_SIDE_STYLE('',(#18));
#20=SURFACE_STYLE_USAGE(.BOTH.,#19);
#21=PRESENTATION_STYLE_ASSIGNMENT((#20));
#22=MECHANICAL_DESIGN_GEOMETRIC_PRESENTATION_REPRESENTATION('NONE',(#23),#8);
#23=STYLED_ITEM('',(#21),#13);
#24=ADVANCED_BREP_SHAPE_REPRESENTATION('NONE',(#13),#8);
#25=SHAPE_REPRESENTATION_RELATIONSHIP('','',#3,#24);
#26=PRODUCT_DEFINITION_SHAPE('NONE','NONE',#1);
#27=MECHANICAL_CONTEXT('NONE',#32,'mechanical');
#28=PRODUCT_DEFINITION_FORMATION_WITH_SPECIFIED_SOURCE('ANY','UNSPECIFIED',#29,.NOT_KNOWN.);
#29=PRODUCT('','itemPillContainerCapMon','NONE',(#27));
#30=PRODUCT_RELATED_PRODUCT_CATEGORY('detail','',(#29));
#31=DESIGN_CONTEXT('detailed design',#32,'design');
#32=APPLICATION_CONTEXT('configuration controlled 3d designs of mechanical parts and assemblies');
#33=APPLICATION_PROTOCOL_DEFINITION('international standard','config_control_design',
1994,#32);
#34=CC_DESIGN_DATE_AND_TIME_ASSIGNMENT(#35,#39,(#1));
#35=DATE_AND_TIME(#36,#37);
#36=CALENDAR_DATE(0,1,1);
#37=LOCAL_TIME(0,0,0.,#38);
#38=COORDINATED_UNIVERSAL_TIME_OFFSET(0,0,.AHEAD.);
#39=DATE_TIME_ROLE('creation_date');
#40=CC_DESIGN_APPROVAL(#41,(#1));
#41=APPROVAL(#42,'UNSPECIFIED');
#42=APPROVAL_STATUS('not_yet_approved');
#43=APPROVAL_DATE_TIME(#44,#41);
#44=DATE_AND_TIME(#45,#46);
#45=CALENDAR_DATE(0,1,1);
#46=LOCAL_TIME(0,0,0.,#47);
#47=COORDINATED_UNIVERSAL_TIME_OFFSET(0,0,.AHEAD.);
#48=ADVANCED_FACE('',(#113,#115,#117),#119,.T.);
#49=ADVANCED_FACE('',(#124),#126,.T.);
#50=ADVANCED_FACE('',(#131),#133,.T.);
#51=ADVANCED_FACE('',(#138),#140,.T.);
#52=ADVANCED_FACE('',(#145),#147,.T.);
#53=ADVANCED_FACE('',(#152),#154,.T.);
#54=ADVANCED_FACE('',(#159),#161,.T.);
#55=ADVANCED_FACE('',(#166),#168,.T.);
#56=ADVANCED_FACE('',(#173),#175,.T.);
#57=ADVANCED_FACE('',(#180),#182,.T.);
#58=ADVANCED_FACE('',(#187),#189,.T.);
#59=ADVANCED_FACE('',(#194),#196,.T.);
#60=ADVANCED_FACE('',(#201),#203,.T.);
#61=ADVANCED_FACE('',(#208),#210,.T.);
#62=ADVANCED_FACE('',(#215),#217,.T.);
#63=ADVANCED_FACE('',(#222),#224,.T.);
#64=ADVANCED_FACE('',(#229),#231,.T.);
#65=ADVANCED_FACE('',(#236),#238,.T.);
#66=ADVANCED_FACE('',(#243),#245,.T.);
#67=ADVANCED_FACE('',(#250),#252,.T.);
#68=ADVANCED_FACE('',(#257),#259,.T.);
#69=ADVANCED_FACE('',(#264),#266,.T.);
#70=ADVANCED_FACE('',(#271),#273,.T.);
#71=ADVANCED_FACE('',(#278),#280,.T.);
#72=ADVANCED_FACE('',(#285),#287,.T.);
#73=ADVANCED_FACE('',(#292),#294,.T.);
#74=ADVANCED_FACE('',(#299),#301,.T.);
#75=ADVANCED_FACE('',(#306),#308,.T.);
#76=ADVANCED_FACE('',(#313),#315,.T.);
#77=ADVANCED_FACE('',(#320),#322,.T.);
#78=ADVANCED_FACE('',(#327),#329,.T.);
#79=ADVANCED_FACE('',(#334),#336,.T.);
#80=ADVANCED_FACE('',(#341),#343,.T.);
#81=ADVANCED_FACE('',(#348),#350,.T.);
#82=ADVANCED_FACE('',(#355),#357,.T.);
#83=ADVANCED_FACE('',(#362),#364,.F.);
#84=ADVANCED_FACE('',(#369),#371,.F.);
#85=ADVANCED_FACE('',(#376),#378,.F.);
#86=ADVANCED_FACE('',(#383),#385,.F.);
#87=ADVANCED_FACE('',(#390),#392,.F.);
#88=ADVANCED_FACE('',(#397),#399,.F.);
#89=ADVANCED_FACE('',(#404,#406),#408,.F.);
#90=ADVANCED_FACE('',(#413,#415),#417,.T.);
#91=ADVANCED_FACE('',(#422,#424),#426,.T.);
#92=ADVANCED_FACE('',(#431),#433,.F.);
#93=ADVANCED_FACE('',(#438),#440,.T.);
#94=ADVANCED_FACE('',(#445),#447,.F.);
#95=ADVANCED_FACE('',(#452),#454,.F.);
#96=ADVANCED_FACE('',(#459),#461,.T.);
#97=ADVANCED_FACE('',(#466),#468,.T.);
#98=ADVANCED_FACE('',(#473),#475,.T.);
#99=ADVANCED_FACE('',(#480),#482,.T.);
#100=ADVANCED_FACE('',(#487),#489,.F.);
#101=ADVANCED_FACE('',(#494),#496,.F.);
#102=ADVANCED_FACE('',(#501),#503,.T.);
#103=ADVANCED_FACE('',(#508),#510,.T.);
#104=ADVANCED_FACE('',(#515),#517,.T.);
#105=ADVANCED_FACE('',(#522),#524,.T.);
#106=ADVANCED_FACE('',(#529),#531,.T.);
#107=ADVANCED_FACE('',(#536),#538,.T.);
#108=ADVANCED_FACE('',(#543),#545,.F.);
#109=ADVANCED_FACE('',(#550),#552,.F.);
#110=ADVANCED_FACE('',(#557),#559,.T.);
#111=ADVANCED_FACE('',(#564),#566,.T.);
#112=ADVANCED_FACE('',(#571),#573,.T.);
#113=FACE_BOUND('',#114,.T.);
#114=EDGE_LOOP('',(#578,#579,#580,#581,#582,#583));
#115=FACE_BOUND('',#116,.T.);
#116=EDGE_LOOP('',(#584,#585,#586,#587,#588,#589,#590,#591,#592,#593,#594,#595,#596,
#597,#598,#599));
#117=FACE_BOUND('',#118,.T.);
#118=EDGE_LOOP('',(#600,#601,#602,#603,#604,#605,#606,#607,#608,#609,#610,#611,#612,
#613,#614,#615,#616,#617,#618,#619,#620,#621,#622,#623));
#119=PLANE('',#120);
#120=AXIS2_PLACEMENT_3D('',#121,#122,#123);
#121=CARTESIAN_POINT('',(0.,0.,7.));
#122=DIRECTION('',(0.,0.,1.));
#123=DIRECTION('',(-1.,1.22464679914735E-16,0.));
#124=FACE_BOUND('',#125,.T.);
#125=EDGE_LOOP('',(#624,#625,#626,#627));
#126=PLANE('',#127);
#127=AXIS2_PLACEMENT_3D('',#128,#129,#130);
#128=CARTESIAN_POINT('',(-5.01706570027669,0.436216666666667,7.));
#129=DIRECTION('',(-1.,0.,0.));
#130=DIRECTION('',(0.,-1.,0.));
#131=FACE_BOUND('',#132,.T.);
#132=EDGE_LOOP('',(#628,#629,#630,#631));
#133=PLANE('',#134);
#134=AXIS2_PLACEMENT_3D('',#135,#136,#137);
#135=CARTESIAN_POINT('',(-8.93977820027669,0.436216666666668,7.));
#136=DIRECTION('',(-1.27360942480827E-16,-1.,0.));
#137=DIRECTION('',(1.,-1.27360942480827E-16,0.));
#138=FACE_BOUND('',#139,.T.);
#139=EDGE_LOOP('',(#632,#633,#634,#635));
#140=PLANE('',#141);
#141=AXIS2_PLACEMENT_3D('',#142,#143,#144);
#142=CARTESIAN_POINT('',(-8.93977820027669,-3.2790625,7.));
#143=DIRECTION('',(1.,0.,0.));
#144=DIRECTION('',(0.,1.,0.));
#145=FACE_BOUND('',#146,.T.);
#146=EDGE_LOOP('',(#636,#637,#638,#639));
#147=PLANE('',#148);
#148=AXIS2_PLACEMENT_3D('',#149,#150,#151);
#149=CARTESIAN_POINT('',(-11.5993698669434,-3.2790625,7.));
#150=DIRECTION('',(-1.66976463122495E-16,-1.,0.));
#151=DIRECTION('',(1.,-1.66976463122495E-16,0.));
#152=FACE_BOUND('',#153,.T.);
#153=EDGE_LOOP('',(#640,#641,#642,#643));
#154=PLANE('',#155);
#155=AXIS2_PLACEMENT_3D('',#156,#157,#158);
#156=CARTESIAN_POINT('',(-11.5993698669434,7.,7.));
#157=DIRECTION('',(-1.,0.,0.));
#158=DIRECTION('',(0.,-1.,0.));
#159=FACE_BOUND('',#160,.T.);
#160=EDGE_LOOP('',(#644,#645,#646,#647));
#161=PLANE('',#162);
#162=AXIS2_PLACEMENT_3D('',#163,#164,#165);
#163=CARTESIAN_POINT('',(-8.93977820027669,7.,7.));
#164=DIRECTION('',(3.33952926244991E-16,1.,0.));
#165=DIRECTION('',(-1.,3.33952926244991E-16,0.));
#166=FACE_BOUND('',#167,.T.);
#167=EDGE_LOOP('',(#648,#649,#650,#651));
#168=PLANE('',#169);
#169=AXIS2_PLACEMENT_3D('',#170,#171,#172);
#170=CARTESIAN_POINT('',(-8.93977820027669,2.59574583333333,7.));
#171=DIRECTION('',(1.,0.,0.));
#172=DIRECTION('',(0.,1.,0.));
#173=FACE_BOUND('',#174,.T.);
#174=EDGE_LOOP('',(#652,#653,#654,#655));
#175=PLANE('',#176);
#176=AXIS2_PLACEMENT_3D('',#177,#178,#179);
#177=CARTESIAN_POINT('',(-5.01706570027669,2.59574583333333,7.));
#178=DIRECTION('',(1.13209726649624E-16,1.,0.));
#179=DIRECTION('',(-1.,1.13209726649624E-16,0.));
#180=FACE_BOUND('',#181,.T.);
#181=EDGE_LOOP('',(#656,#657,#658,#659));
#182=PLANE('',#183);
#183=AXIS2_PLACEMENT_3D('',#184,#185,#186);
#184=CARTESIAN_POINT('',(-5.01706570027669,7.,7.));
#185=DIRECTION('',(-1.,2.01663751929271E-16,0.));
#186=DIRECTION('',(-2.01663751929271E-16,-1.,0.));
#187=FACE_BOUND('',#188,.T.);
#188=EDGE_LOOP('',(#660,#661,#662,#663));
#189=PLANE('',#190);
#190=AXIS2_PLACEMENT_3D('',#191,#192,#193);
#191=CARTESIAN_POINT('',(-2.35006570027669,7.,7.));
#192=DIRECTION('',(3.33025279227644E-16,1.,0.));
#193=DIRECTION('',(-1.,3.33025279227644E-16,0.));
#194=FACE_BOUND('',#195,.T.);
#195=EDGE_LOOP('',(#664,#665,#666,#667));
#196=PLANE('',#197);
#197=AXIS2_PLACEMENT_3D('',#198,#199,#200);
#198=CARTESIAN_POINT('',(-2.35006570027669,-3.2790625,7.));
#199=DIRECTION('',(1.,-1.2960983840211E-16,0.));
#200=DIRECTION('',(1.2960983840211E-16,1.,0.));
#201=FACE_BOUND('',#202,.T.);
#202=EDGE_LOOP('',(#668,#669,#670,#671));
#203=PLANE('',#204);
#204=AXIS2_PLACEMENT_3D('',#205,#206,#207);
#205=CARTESIAN_POINT('',(-5.01706570027669,-3.2790625,7.));
#206=DIRECTION('',(0.,-1.,0.));
#207=DIRECTION('',(1.,0.,0.));
#208=FACE_BOUND('',#209,.T.);
#209=EDGE_LOOP('',(#672,#673,#674,#675));
#210=PLANE('',#211);
#211=AXIS2_PLACEMENT_3D('',#212,#213,#214);
#212=CARTESIAN_POINT('',(0.409537500000002,7.,7.));
#213=DIRECTION('',(-1.,1.20145410731512E-16,0.));
#214=DIRECTION('',(-1.20145410731512E-16,-1.,0.));
#215=FACE_BOUND('',#216,.T.);
#216=EDGE_LOOP('',(#676,#677,#678,#679));
#217=PLANE('',#218);
#218=AXIS2_PLACEMENT_3D('',#219,#220,#221);
#219=CARTESIAN_POINT('',(3.30619583333333,7.,7.));
#220=DIRECTION('',(0.,1.,0.));
#221=DIRECTION('',(-1.,0.,0.));
#222=FACE_BOUND('',#223,.T.);
#223=EDGE_LOOP('',(#680,#681,#682,#683));
#224=PLANE('',#225);
#225=AXIS2_PLACEMENT_3D('',#226,#227,#228);
#226=CARTESIAN_POINT('',(3.30619583333333,-4.47550833333333,7.));
#227=DIRECTION('',(1.,-1.16096611222032E-16,0.));
#228=DIRECTION('',(1.16096611222032E-16,1.,0.));
#229=FACE_BOUND('',#230,.T.);
#230=EDGE_LOOP('',(#684,#685,#686,#687));
#231=PLANE('',#232);
#232=AXIS2_PLACEMENT_3D('',#233,#234,#235);
#233=CARTESIAN_POINT('',(8.74761666666667,-4.47550833333333,7.));
#234=DIRECTION('',(1.63225460206878E-16,1.,0.));
#235=DIRECTION('',(-1.,1.63225460206878E-16,0.));
#236=FACE_BOUND('',#237,.T.);
#237=EDGE_LOOP('',(#688,#689,#690,#691));
#238=PLANE('',#239);
#239=AXIS2_PLACEMENT_3D('',#240,#241,#242);
#240=CARTESIAN_POINT('',(8.74761666666667,7.,7.));
#241=DIRECTION('',(-1.,0.,0.));
#242=DIRECTION('',(0.,-1.,0.));
#243=FACE_BOUND('',#244,.T.);
#244=EDGE_LOOP('',(#692,#693,#694,#695));
#245=PLANE('',#246);
#246=AXIS2_PLACEMENT_3D('',#247,#248,#249);
#247=CARTESIAN_POINT('',(11.6516833333333,7.,7.));
#248=DIRECTION('',(3.05839542147836E-16,1.,0.));
#249=DIRECTION('',(-1.,3.05839542147836E-16,0.));
#250=FACE_BOUND('',#251,.T.);
#251=EDGE_LOOP('',(#696,#697,#698,#699));
#252=PLANE('',#253);
#253=AXIS2_PLACEMENT_3D('',#254,#255,#256);
#254=CARTESIAN_POINT('',(11.6516833333333,-6.86099166666667,7.));
#255=DIRECTION('',(1.,0.,0.));
#256=DIRECTION('',(0.,1.,0.));
#257=FACE_BOUND('',#258,.T.);
#258=EDGE_LOOP('',(#700,#701,#702,#703));
#259=PLANE('',#260);
#260=AXIS2_PLACEMENT_3D('',#261,#262,#263);
#261=CARTESIAN_POINT('',(0.4095375,-6.86099166666667,7.));
#262=DIRECTION('',(-1.58008699205208E-16,-1.,0.));
#263=DIRECTION('',(1.,-1.58008699205208E-16,0.));
#264=FACE_BOUND('',#265,.T.);
#265=EDGE_LOOP('',(#704,#705,#706,#707));
#266=PLANE('',#267);
#267=AXIS2_PLACEMENT_3D('',#268,#269,#270);
#268=CARTESIAN_POINT('',(14.5,-12.3715789032496,6.));
#269=DIRECTION('',(0.70710678118655,-5.58409469982367E-16,0.707106781186546));
#270=DIRECTION('',(7.89710245806633E-16,1.,0.));
#271=FACE_BOUND('',#272,.T.);
#272=EDGE_LOOP('',(#708,#709,#710,#711));
#273=PLANE('',#274);
#274=AXIS2_PLACEMENT_3D('',#275,#276,#277);
#275=CARTESIAN_POINT('',(17.9641016151378,6.37157890324956,6.));
#276=DIRECTION('',(0.353553390593274,0.612372435695794,0.707106781186548));
#277=DIRECTION('',(-0.866025403784438,0.500000000000001,2.53822486355621E-17));
#278=FACE_BOUND('',#279,.T.);
#279=EDGE_LOOP('',(#712,#713,#714,#715));
#280=PLANE('',#281);
#281=AXIS2_PLACEMENT_3D('',#282,#283,#284);
#282=CARTESIAN_POINT('',(3.46410161513777,18.7431578064991,6.));
#283=DIRECTION('',(-0.353553390593274,0.612372435695795,0.707106781186547));
#284=DIRECTION('',(-0.866025403784439,-0.499999999999999,2.53822486355621E-17));
#285=FACE_BOUND('',#286,.T.);
#286=EDGE_LOOP('',(#716,#717,#718,#719));
#287=PLANE('',#288);
#288=AXIS2_PLACEMENT_3D('',#289,#290,#291);
#289=CARTESIAN_POINT('',(-14.5,12.3715789032496,6.));
#290=DIRECTION('',(-0.707106781186549,5.58409469982366E-16,0.707106781186546));
#291=DIRECTION('',(-7.89710245806633E-16,-1.,0.));
#292=FACE_BOUND('',#293,.T.);
#293=EDGE_LOOP('',(#720,#721,#722,#723));
#294=PLANE('',#295);
#295=AXIS2_PLACEMENT_3D('',#296,#297,#298);
#296=CARTESIAN_POINT('',(-17.9641016151378,-6.37157890324957,6.));
#297=DIRECTION('',(-0.353553390593274,-0.612372435695794,0.707106781186548));
#298=DIRECTION('',(0.866025403784439,-0.5,2.53822486355621E-17));
#299=FACE_BOUND('',#300,.T.);
#300=EDGE_LOOP('',(#724,#725,#726,#727));
#301=PLANE('',#302);
#302=AXIS2_PLACEMENT_3D('',#303,#304,#305);
#303=CARTESIAN_POINT('',(-3.46410161513776,-18.7431578064991,6.));
#304=DIRECTION('',(0.353553390593273,-0.612372435695794,0.707106781186548));
#305=DIRECTION('',(0.866025403784439,0.5,0.));
#306=FACE_BOUND('',#307,.T.);
#307=EDGE_LOOP('',(#728,#729,#730,#731,#732,#733,#734,#735,#736,#737,#738,#739,#740,
#741,#742,#743,#744,#745,#746,#747,#748,#749,#750,#751));
#308=PLANE('',#309);
#309=AXIS2_PLACEMENT_3D('',#310,#311,#312);
#310=CARTESIAN_POINT('',(0.,0.,8.));
#311=DIRECTION('',(0.,0.,1.));
#312=DIRECTION('',(-1.,1.22464679914735E-16,0.));
#313=FACE_BOUND('',#314,.T.);
#314=EDGE_LOOP('',(#752,#753,#754,#755,#756,#757,#758,#759,#760,#761,#762,#763,#764,
#765,#766,#767));
#315=PLANE('',#316);
#316=AXIS2_PLACEMENT_3D('',#317,#318,#319);
#317=CARTESIAN_POINT('',(0.,0.,8.));
#318=DIRECTION('',(0.,0.,1.));
#319=DIRECTION('',(-1.,1.22464679914735E-16,0.));
#320=FACE_BOUND('',#321,.T.);
#321=EDGE_LOOP('',(#768,#769,#770,#771));
#322=PLANE('',#323);
#323=AXIS2_PLACEMENT_3D('',#324,#325,#326);
#324=CARTESIAN_POINT('',(14.5,-8.37157890324958,2.));
#325=DIRECTION('',(1.,-7.42661451292963E-16,0.));
#326=DIRECTION('',(7.42661451292963E-16,1.,0.));
#327=FACE_BOUND('',#328,.T.);
#328=EDGE_LOOP('',(#772,#773,#774,#775));
#329=PLANE('',#330);
#330=AXIS2_PLACEMENT_3D('',#331,#332,#333);
#331=CARTESIAN_POINT('',(14.5,8.37157890324956,2.));
#332=DIRECTION('',(0.500000000000001,0.866025403784438,0.));
#333=DIRECTION('',(-0.866025403784438,0.500000000000001,0.));
#334=FACE_BOUND('',#335,.T.);
#335=EDGE_LOOP('',(#776,#777,#778,#779));
#336=PLANE('',#337);
#337=AXIS2_PLACEMENT_3D('',#338,#339,#340);
#338=CARTESIAN_POINT('',(1.44849433373366E-14,16.7431578064991,2.));
#339=DIRECTION('',(-0.499999999999999,0.866025403784439,0.));
#340=DIRECTION('',(-0.866025403784439,-0.499999999999999,0.));
#341=FACE_BOUND('',#342,.T.);
#342=EDGE_LOOP('',(#780,#781,#782,#783));
#343=PLANE('',#344);
#344=AXIS2_PLACEMENT_3D('',#345,#346,#347);
#345=CARTESIAN_POINT('',(-14.5,8.37157890324959,2.));
#346=DIRECTION('',(-1.,7.42661451292962E-16,0.));
#347=DIRECTION('',(-7.42661451292962E-16,-1.,0.));
#348=FACE_BOUND('',#349,.T.);
#349=EDGE_LOOP('',(#784,#785,#786,#787));
#350=PLANE('',#351);
#351=AXIS2_PLACEMENT_3D('',#352,#353,#354);
#352=CARTESIAN_POINT('',(-14.5,-8.37157890324957,2.));
#353=DIRECTION('',(-0.5,-0.866025403784439,0.));
#354=DIRECTION('',(0.866025403784439,-0.5,0.));
#355=FACE_BOUND('',#356,.T.);
#356=EDGE_LOOP('',(#788,#789,#790,#791));
#357=PLANE('',#358);
#358=AXIS2_PLACEMENT_3D('',#359,#360,#361);
#359=CARTESIAN_POINT('',(-5.60315914033532E-15,-16.7431578064991,2.));
#360=DIRECTION('',(0.5,-0.866025403784439,0.));
#361=DIRECTION('',(0.866025403784439,0.5,0.));
#362=FACE_BOUND('',#363,.T.);
#363=EDGE_LOOP('',(#792,#793,#794,#795));
#364=PLANE('',#365);
#365=AXIS2_PLACEMENT_3D('',#366,#367,#368);
#366=CARTESIAN_POINT('',(14.5,-12.3715789032496,3.));
#367=DIRECTION('',(-0.70710678118655,5.58409469982367E-16,0.707106781186546));
#368=DIRECTION('',(7.89710245806633E-16,1.,0.));
#369=FACE_BOUND('',#370,.T.);
#370=EDGE_LOOP('',(#796,#797,#798,#799));
#371=PLANE('',#372);
#372=AXIS2_PLACEMENT_3D('',#373,#374,#375);
#373=CARTESIAN_POINT('',(17.9641016151378,6.37157890324956,3.));
#374=DIRECTION('',(-0.353553390593274,-0.612372435695794,0.707106781186548));
#375=DIRECTION('',(-0.866025403784438,0.500000000000001,-2.53822486355621E-17));
#376=FACE_BOUND('',#377,.T.);
#377=EDGE_LOOP('',(#800,#801,#802,#803));
#378=PLANE('',#379);
#379=AXIS2_PLACEMENT_3D('',#380,#381,#382);
#380=CARTESIAN_POINT('',(3.46410161513777,18.7431578064991,3.));
#381=DIRECTION('',(0.353553390593274,-0.612372435695795,0.707106781186547));
#382=DIRECTION('',(-0.866025403784439,-0.499999999999999,-2.53822486355621E-17));
#383=FACE_BOUND('',#384,.T.);
#384=EDGE_LOOP('',(#804,#805,#806,#807));
#385=PLANE('',#386);
#386=AXIS2_PLACEMENT_3D('',#387,#388,#389);
#387=CARTESIAN_POINT('',(-14.5,12.3715789032496,3.));
#388=DIRECTION('',(0.707106781186549,-5.58409469982366E-16,0.707106781186546));
#389=DIRECTION('',(-7.89710245806633E-16,-1.,0.));
#390=FACE_BOUND('',#391,.T.);
#391=EDGE_LOOP('',(#808,#809,#810,#811));
#392=PLANE('',#393);
#393=AXIS2_PLACEMENT_3D('',#394,#395,#396);
#394=CARTESIAN_POINT('',(-17.9641016151378,-6.37157890324957,3.));
#395=DIRECTION('',(0.353553390593274,0.612372435695794,0.707106781186548));
#396=DIRECTION('',(0.866025403784439,-0.5,-2.53822486355621E-17));
#397=FACE_BOUND('',#398,.T.);
#398=EDGE_LOOP('',(#812,#813,#814,#815));
#399=PLANE('',#400);
#400=AXIS2_PLACEMENT_3D('',#401,#402,#403);
#401=CARTESIAN_POINT('',(-3.46410161513776,-18.7431578064991,3.));
#402=DIRECTION('',(-0.353553390593273,0.612372435695794,0.707106781186548));
#403=DIRECTION('',(0.866025403784439,0.5,0.));
#404=FACE_BOUND('',#405,.T.);
#405=EDGE_LOOP('',(#816,#817,#818,#819,#820,#821));
#406=FACE_BOUND('',#407,.T.);
#407=EDGE_LOOP('',(#822));
#408=PLANE('',#409);
#409=AXIS2_PLACEMENT_3D('',#410,#411,#412);
#410=CARTESIAN_POINT('',(0.,0.,2.));
#411=DIRECTION('',(0.,0.,1.));
#412=DIRECTION('',(-1.,1.22464679914735E-16,0.));
#413=FACE_OUTER_BOUND('',#414,.T.);
#414=EDGE_LOOP('',(#823));
#415=FACE_OUTER_BOUND('',#416,.T.);
#416=EDGE_LOOP('',(#824));
#417=CONICAL_SURFACE('',#418,12.9,0.785398163397448);
#418=AXIS2_PLACEMENT_3D('',#419,#420,#421);
#419=CARTESIAN_POINT('',(0.,0.,1.5));
#420=DIRECTION('',(0.,0.,1.));
#421=DIRECTION('',(-1.,1.22464679914735E-16,0.));
#422=FACE_OUTER_BOUND('',#423,.T.);
#423=EDGE_LOOP('',(#825));
#424=FACE_OUTER_BOUND('',#425,.T.);
#425=EDGE_LOOP('',(#826));
#426=CYLINDRICAL_SURFACE('',#427,12.4);
#427=AXIS2_PLACEMENT_3D('',#428,#429,#430);
#428=CARTESIAN_POINT('',(0.,0.,0.));
#429=DIRECTION('',(0.,0.,1.));
#430=DIRECTION('',(-1.,1.22464679914735E-16,0.));
#431=FACE_BOUND('',#432,.T.);
#432=EDGE_LOOP('',(#827));
#433=PLANE('',#434);
#434=AXIS2_PLACEMENT_3D('',#435,#436,#437);
#435=CARTESIAN_POINT('',(0.,0.,0.));
#436=DIRECTION('',(0.,0.,1.));
#437=DIRECTION('',(-1.,1.22464679914735E-16,0.));
#438=FACE_BOUND('',#439,.T.);
#439=EDGE_LOOP('',(#828,#829,#830,#831));
#440=CYLINDRICAL_SURFACE('',#441,1.);
#441=AXIS2_PLACEMENT_3D('',#442,#443,#444);
#442=CARTESIAN_POINT('',(-4.01706570027669,-2.2790625,3.));
#443=DIRECTION('',(0.,0.,-1.));
#444=DIRECTION('',(0.,-1.,0.));
#445=FACE_BOUND('',#446,.T.);
#446=EDGE_LOOP('',(#832,#833,#834,#835));
#447=CYLINDRICAL_SURFACE('',#448,1.);
#448=AXIS2_PLACEMENT_3D('',#449,#450,#451);
#449=CARTESIAN_POINT('',(-6.01706570027669,-0.563783333333333,3.));
#450=DIRECTION('',(0.,0.,1.));
#451=DIRECTION('',(1.,0.,0.));
#452=FACE_BOUND('',#453,.T.);
#453=EDGE_LOOP('',(#836,#837,#838,#839));
#454=CYLINDRICAL_SURFACE('',#455,1.);
#455=AXIS2_PLACEMENT_3D('',#456,#457,#458);
#456=CARTESIAN_POINT('',(-7.93977820027669,-0.563783333333332,3.));
#457=DIRECTION('',(0.,0.,1.));
#458=DIRECTION('',(0.,1.,0.));
#459=FACE_BOUND('',#460,.T.);
#460=EDGE_LOOP('',(#840,#841,#842,#843));
#461=CYLINDRICAL_SURFACE('',#462,1.);
#462=AXIS2_PLACEMENT_3D('',#463,#464,#465);
#463=CARTESIAN_POINT('',(-9.93977820027669,-2.2790625,3.));
#464=DIRECTION('',(0.,0.,-1.));
#465=DIRECTION('',(1.,0.,0.));
#466=FACE_BOUND('',#467,.T.);
#467=EDGE_LOOP('',(#844,#845,#846,#847));
#468=CYLINDRICAL_SURFACE('',#469,1.);
#469=AXIS2_PLACEMENT_3D('',#470,#471,#472);
#470=CARTESIAN_POINT('',(-10.5993698669434,-2.2790625,3.));
#471=DIRECTION('',(0.,0.,-1.));
#472=DIRECTION('',(0.,-1.,0.));
#473=FACE_BOUND('',#474,.T.);
#474=EDGE_LOOP('',(#848,#849,#850,#851));
#475=CYLINDRICAL_SURFACE('',#476,1.);
#476=AXIS2_PLACEMENT_3D('',#477,#478,#479);
#477=CARTESIAN_POINT('',(-10.5993698669434,6.,3.));
#478=DIRECTION('',(0.,0.,-1.));
#479=DIRECTION('',(-1.,0.,0.));
#480=FACE_BOUND('',#481,.T.);
#481=EDGE_LOOP('',(#852,#853,#854,#855));
#482=CYLINDRICAL_SURFACE('',#483,1.);
#483=AXIS2_PLACEMENT_3D('',#484,#485,#486);
#484=CARTESIAN_POINT('',(-9.93977820027669,6.,3.));
#485=DIRECTION('',(0.,0.,-1.));
#486=DIRECTION('',(0.,1.,0.));
#487=FACE_BOUND('',#488,.T.);
#488=EDGE_LOOP('',(#856,#857,#858,#859));
#489=CYLINDRICAL_SURFACE('',#490,1.);
#490=AXIS2_PLACEMENT_3D('',#491,#492,#493);
#491=CARTESIAN_POINT('',(-7.93977820027669,3.59574583333333,3.));
#492=DIRECTION('',(0.,0.,1.));
#493=DIRECTION('',(-1.,0.,0.));
#494=FACE_BOUND('',#495,.T.);
#495=EDGE_LOOP('',(#860,#861,#862,#863));
#496=CYLINDRICAL_SURFACE('',#497,1.);
#497=AXIS2_PLACEMENT_3D('',#498,#499,#500);
#498=CARTESIAN_POINT('',(-6.01706570027669,3.59574583333333,3.));
#499=DIRECTION('',(0.,0.,1.));
#500=DIRECTION('',(0.,-1.,0.));
#501=FACE_BOUND('',#502,.T.);
#502=EDGE_LOOP('',(#864,#865,#866,#867));
#503=CYLINDRICAL_SURFACE('',#504,1.);
#504=AXIS2_PLACEMENT_3D('',#505,#506,#507);
#505=CARTESIAN_POINT('',(-4.01706570027669,6.,3.));
#506=DIRECTION('',(0.,0.,-1.));
#507=DIRECTION('',(-1.,0.,0.));
#508=FACE_BOUND('',#509,.T.);
#509=EDGE_LOOP('',(#868,#869,#870,#871));
#510=CYLINDRICAL_SURFACE('',#511,1.);
#511=AXIS2_PLACEMENT_3D('',#512,#513,#514);
#512=CARTESIAN_POINT('',(-3.35006570027669,6.,3.));
#513=DIRECTION('',(0.,0.,-1.));
#514=DIRECTION('',(4.44089209850063E-16,1.,0.));
#515=FACE_BOUND('',#516,.T.);
#516=EDGE_LOOP('',(#872,#873,#874,#875));
#517=CYLINDRICAL_SURFACE('',#518,1.);
#518=AXIS2_PLACEMENT_3D('',#519,#520,#521);
#519=CARTESIAN_POINT('',(-3.35006570027669,-2.2790625,3.));
#520=DIRECTION('',(0.,0.,-1.));
#521=DIRECTION('',(1.,0.,0.));
#522=FACE_BOUND('',#523,.T.);
#523=EDGE_LOOP('',(#876,#877,#878,#879));
#524=CYLINDRICAL_SURFACE('',#525,1.);
#525=AXIS2_PLACEMENT_3D('',#526,#527,#528);
#526=CARTESIAN_POINT('',(1.4095375,-5.86099166666667,3.));
#527=DIRECTION('',(0.,0.,-1.));
#528=DIRECTION('',(-4.44089209850062E-16,-1.,0.));
#529=FACE_BOUND('',#530,.T.);
#530=EDGE_LOOP('',(#880,#881,#882,#883));
#531=CYLINDRICAL_SURFACE('',#532,1.);
#532=AXIS2_PLACEMENT_3D('',#533,#534,#535);
#533=CARTESIAN_POINT('',(1.4095375,6.,3.));
#534=DIRECTION('',(0.,0.,-1.));
#535=DIRECTION('',(-1.,0.,0.));
#536=FACE_BOUND('',#537,.T.);
#537=EDGE_LOOP('',(#884,#885,#886,#887));
#538=CYLINDRICAL_SURFACE('',#539,1.);
#539=AXIS2_PLACEMENT_3D('',#540,#541,#542);
#540=CARTESIAN_POINT('',(2.30619583333333,6.,3.));
#541=DIRECTION('',(0.,0.,-1.));
#542=DIRECTION('',(0.,1.,0.));
#543=FACE_BOUND('',#544,.T.);
#544=EDGE_LOOP('',(#888,#889,#890,#891));
#545=CYLINDRICAL_SURFACE('',#546,1.);
#546=AXIS2_PLACEMENT_3D('',#547,#548,#549);
#547=CARTESIAN_POINT('',(4.30619583333333,-3.47550833333333,3.));
#548=DIRECTION('',(0.,0.,1.));
#549=DIRECTION('',(-1.,-4.44089209850062E-16,0.));
#550=FACE_BOUND('',#551,.T.);
#551=EDGE_LOOP('',(#892,#893,#894,#895));
#552=CYLINDRICAL_SURFACE('',#553,1.);
#553=AXIS2_PLACEMENT_3D('',#554,#555,#556);
#554=CARTESIAN_POINT('',(7.74761666666667,-3.47550833333334,3.));
#555=DIRECTION('',(0.,0.,1.));
#556=DIRECTION('',(0.,-1.,0.));
#557=FACE_BOUND('',#558,.T.);
#558=EDGE_LOOP('',(#896,#897,#898,#899));
#559=CYLINDRICAL_SURFACE('',#560,1.);
#560=AXIS2_PLACEMENT_3D('',#561,#562,#563);
#561=CARTESIAN_POINT('',(9.74761666666667,6.,3.));
#562=DIRECTION('',(0.,0.,-1.));
#563=DIRECTION('',(-1.,0.,0.));
#564=FACE_BOUND('',#565,.T.);
#565=EDGE_LOOP('',(#900,#901,#902,#903));
#566=CYLINDRICAL_SURFACE('',#567,1.);
#567=AXIS2_PLACEMENT_3D('',#568,#569,#570);
#568=CARTESIAN_POINT('',(10.6516833333333,6.,3.));
#569=DIRECTION('',(0.,0.,-1.));
#570=DIRECTION('',(0.,1.,0.));
#571=FACE_BOUND('',#572,.T.);
#572=EDGE_LOOP('',(#904,#905,#906,#907));
#573=CYLINDRICAL_SURFACE('',#574,1.);
#574=AXIS2_PLACEMENT_3D('',#575,#576,#577);
#575=CARTESIAN_POINT('',(10.6516833333333,-5.86099166666667,3.));
#576=DIRECTION('',(0.,0.,-1.));
#577=DIRECTION('',(1.,0.,0.));
#578=ORIENTED_EDGE('',*,*,#908,.T.);
#579=ORIENTED_EDGE('',*,*,#909,.T.);
#580=ORIENTED_EDGE('',*,*,#910,.T.);
#581=ORIENTED_EDGE('',*,*,#911,.T.);
#582=ORIENTED_EDGE('',*,*,#912,.T.);
#583=ORIENTED_EDGE('',*,*,#913,.T.);
#584=ORIENTED_EDGE('',*,*,#914,.F.);
#585=ORIENTED_EDGE('',*,*,#915,.F.);
#586=ORIENTED_EDGE('',*,*,#916,.F.);
#587=ORIENTED_EDGE('',*,*,#917,.F.);
#588=ORIENTED_EDGE('',*,*,#918,.F.);
#589=ORIENTED_EDGE('',*,*,#919,.F.);
#590=ORIENTED_EDGE('',*,*,#920,.F.);
#591=ORIENTED_EDGE('',*,*,#921,.F.);
#592=ORIENTED_EDGE('',*,*,#922,.F.);
#593=ORIENTED_EDGE('',*,*,#923,.F.);
#594=ORIENTED_EDGE('',*,*,#924,.F.);
#595=ORIENTED_EDGE('',*,*,#925,.F.);
#596=ORIENTED_EDGE('',*,*,#926,.F.);
#597=ORIENTED_EDGE('',*,*,#927,.F.);
#598=ORIENTED_EDGE('',*,*,#928,.F.);
#599=ORIENTED_EDGE('',*,*,#929,.F.);
#600=ORIENTED_EDGE('',*,*,#930,.F.);
#601=ORIENTED_EDGE('',*,*,#931,.F.);
#602=ORIENTED_EDGE('',*,*,#932,.F.);
#603=ORIENTED_EDGE('',*,*,#933,.F.);
#604=ORIENTED_EDGE('',*,*,#934,.F.);
#605=ORIENTED_EDGE('',*,*,#935,.F.);
#606=ORIENTED_EDGE('',*,*,#936,.F.);
#607=ORIENTED_EDGE('',*,*,#937,.F.);
#608=ORIENTED_EDGE('',*,*,#938,.F.);
#609=ORIENTED_EDGE('',*,*,#939,.F.);
#610=ORIENTED_EDGE('',*,*,#940,.F.);
#611=ORIENTED_EDGE('',*,*,#941,.F.);
#612=ORIENTED_EDGE('',*,*,#942,.F.);
#613=ORIENTED_EDGE('',*,*,#943,.F.);
#614=ORIENTED_EDGE('',*,*,#944,.F.);
#615=ORIENTED_EDGE('',*,*,#945,.F.);
#616=ORIENTED_EDGE('',*,*,#946,.F.);
#617=ORIENTED_EDGE('',*,*,#947,.F.);
#618=ORIENTED_EDGE('',*,*,#948,.F.);
#619=ORIENTED_EDGE('',*,*,#949,.F.);
#620=ORIENTED_EDGE('',*,*,#950,.F.);
#621=ORIENTED_EDGE('',*,*,#951,.F.);
#622=ORIENTED_EDGE('',*,*,#952,.F.);
#623=ORIENTED_EDGE('',*,*,#953,.F.);
#624=ORIENTED_EDGE('',*,*,#954,.F.);
#625=ORIENTED_EDGE('',*,*,#933,.T.);
#626=ORIENTED_EDGE('',*,*,#955,.T.);
#627=ORIENTED_EDGE('',*,*,#956,.F.);
#628=ORIENTED_EDGE('',*,*,#957,.F.);
#629=ORIENTED_EDGE('',*,*,#935,.T.);
#630=ORIENTED_EDGE('',*,*,#958,.T.);
#631=ORIENTED_EDGE('',*,*,#959,.F.);
#632=ORIENTED_EDGE('',*,*,#960,.F.);
#633=ORIENTED_EDGE('',*,*,#937,.T.);
#634=ORIENTED_EDGE('',*,*,#961,.T.);
#635=ORIENTED_EDGE('',*,*,#962,.F.);
#636=ORIENTED_EDGE('',*,*,#963,.F.);
#637=ORIENTED_EDGE('',*,*,#939,.T.);
#638=ORIENTED_EDGE('',*,*,#964,.T.);
#639=ORIENTED_EDGE('',*,*,#965,.F.);
#640=ORIENTED_EDGE('',*,*,#966,.F.);
#641=ORIENTED_EDGE('',*,*,#941,.T.);
#642=ORIENTED_EDGE('',*,*,#967,.T.);
#643=ORIENTED_EDGE('',*,*,#968,.F.);
#644=ORIENTED_EDGE('',*,*,#969,.F.);
#645=ORIENTED_EDGE('',*,*,#943,.T.);
#646=ORIENTED_EDGE('',*,*,#970,.T.);
#647=ORIENTED_EDGE('',*,*,#971,.F.);
#648=ORIENTED_EDGE('',*,*,#972,.F.);
#649=ORIENTED_EDGE('',*,*,#945,.T.);
#650=ORIENTED_EDGE('',*,*,#973,.T.);
#651=ORIENTED_EDGE('',*,*,#974,.F.);
#652=ORIENTED_EDGE('',*,*,#975,.F.);
#653=ORIENTED_EDGE('',*,*,#947,.T.);
#654=ORIENTED_EDGE('',*,*,#976,.T.);
#655=ORIENTED_EDGE('',*,*,#977,.F.);
#656=ORIENTED_EDGE('',*,*,#978,.F.);
#657=ORIENTED_EDGE('',*,*,#949,.T.);
#658=ORIENTED_EDGE('',*,*,#979,.T.);
#659=ORIENTED_EDGE('',*,*,#980,.F.);
#660=ORIENTED_EDGE('',*,*,#981,.F.);
#661=ORIENTED_EDGE('',*,*,#951,.T.);
#662=ORIENTED_EDGE('',*,*,#982,.T.);
#663=ORIENTED_EDGE('',*,*,#983,.F.);
#664=ORIENTED_EDGE('',*,*,#984,.F.);
#665=ORIENTED_EDGE('',*,*,#953,.T.);
#666=ORIENTED_EDGE('',*,*,#985,.T.);
#667=ORIENTED_EDGE('',*,*,#986,.F.);
#668=ORIENTED_EDGE('',*,*,#987,.T.);
#669=ORIENTED_EDGE('',*,*,#988,.F.);
#670=ORIENTED_EDGE('',*,*,#989,.F.);
#671=ORIENTED_EDGE('',*,*,#931,.T.);
#672=ORIENTED_EDGE('',*,*,#990,.F.);
#673=ORIENTED_EDGE('',*,*,#917,.T.);
#674=ORIENTED_EDGE('',*,*,#991,.T.);
#675=ORIENTED_EDGE('',*,*,#992,.F.);
#676=ORIENTED_EDGE('',*,*,#993,.F.);
#677=ORIENTED_EDGE('',*,*,#919,.T.);
#678=ORIENTED_EDGE('',*,*,#994,.T.);
#679=ORIENTED_EDGE('',*,*,#995,.F.);
#680=ORIENTED_EDGE('',*,*,#996,.F.);
#681=ORIENTED_EDGE('',*,*,#921,.T.);
#682=ORIENTED_EDGE('',*,*,#997,.T.);
#683=ORIENTED_EDGE('',*,*,#998,.F.);
#684=ORIENTED_EDGE('',*,*,#999,.F.);
#685=ORIENTED_EDGE('',*,*,#923,.T.);
#686=ORIENTED_EDGE('',*,*,#1000,.T.);
#687=ORIENTED_EDGE('',*,*,#1001,.F.);
#688=ORIENTED_EDGE('',*,*,#1002,.F.);
#689=ORIENTED_EDGE('',*,*,#925,.T.);
#690=ORIENTED_EDGE('',*,*,#1003,.T.);
#691=ORIENTED_EDGE('',*,*,#1004,.F.);
#692=ORIENTED_EDGE('',*,*,#1005,.F.);
#693=ORIENTED_EDGE('',*,*,#927,.T.);
#694=ORIENTED_EDGE('',*,*,#1006,.T.);
#695=ORIENTED_EDGE('',*,*,#1007,.F.);
#696=ORIENTED_EDGE('',*,*,#1008,.F.);
#697=ORIENTED_EDGE('',*,*,#929,.T.);
#698=ORIENTED_EDGE('',*,*,#1009,.T.);
#699=ORIENTED_EDGE('',*,*,#1010,.F.);
#700=ORIENTED_EDGE('',*,*,#1011,.T.);
#701=ORIENTED_EDGE('',*,*,#1012,.F.);
#702=ORIENTED_EDGE('',*,*,#1013,.F.);
#703=ORIENTED_EDGE('',*,*,#915,.T.);
#704=ORIENTED_EDGE('',*,*,#1014,.T.);
#705=ORIENTED_EDGE('',*,*,#1015,.T.);
#706=ORIENTED_EDGE('',*,*,#908,.F.);
#707=ORIENTED_EDGE('',*,*,#1016,.F.);
#708=ORIENTED_EDGE('',*,*,#1017,.T.);
#709=ORIENTED_EDGE('',*,*,#1018,.T.);
#710=ORIENTED_EDGE('',*,*,#909,.F.);
#711=ORIENTED_EDGE('',*,*,#1015,.F.);
#712=ORIENTED_EDGE('',*,*,#1019,.T.);
#713=ORIENTED_EDGE('',*,*,#1020,.T.);
#714=ORIENTED_EDGE('',*,*,#910,.F.);
#715=ORIENTED_EDGE('',*,*,#1018,.F.);
#716=ORIENTED_EDGE('',*,*,#1021,.T.);
#717=ORIENTED_EDGE('',*,*,#1022,.T.);
#718=ORIENTED_EDGE('',*,*,#911,.F.);
#719=ORIENTED_EDGE('',*,*,#1020,.F.);
#720=ORIENTED_EDGE('',*,*,#1023,.T.);
#721=ORIENTED_EDGE('',*,*,#1024,.T.);
#722=ORIENTED_EDGE('',*,*,#912,.F.);
#723=ORIENTED_EDGE('',*,*,#1022,.F.);
#724=ORIENTED_EDGE('',*,*,#1025,.T.);
#725=ORIENTED_EDGE('',*,*,#1016,.T.);
#726=ORIENTED_EDGE('',*,*,#913,.F.);
#727=ORIENTED_EDGE('',*,*,#1024,.F.);
#728=ORIENTED_EDGE('',*,*,#1026,.F.);
#729=ORIENTED_EDGE('',*,*,#986,.T.);
#730=ORIENTED_EDGE('',*,*,#1027,.F.);
#731=ORIENTED_EDGE('',*,*,#983,.T.);
#732=ORIENTED_EDGE('',*,*,#1028,.F.);
#733=ORIENTED_EDGE('',*,*,#980,.T.);
#734=ORIENTED_EDGE('',*,*,#1029,.F.);
#735=ORIENTED_EDGE('',*,*,#977,.T.);
#736=ORIENTED_EDGE('',*,*,#1030,.F.);
#737=ORIENTED_EDGE('',*,*,#974,.T.);
#738=ORIENTED_EDGE('',*,*,#1031,.F.);
#739=ORIENTED_EDGE('',*,*,#971,.T.);
#740=ORIENTED_EDGE('',*,*,#1032,.F.);
#741=ORIENTED_EDGE('',*,*,#968,.T.);
#742=ORIENTED_EDGE('',*,*,#1033,.F.);
#743=ORIENTED_EDGE('',*,*,#965,.T.);
#744=ORIENTED_EDGE('',*,*,#1034,.F.);
#745=ORIENTED_EDGE('',*,*,#962,.T.);
#746=ORIENTED_EDGE('',*,*,#1035,.F.);
#747=ORIENTED_EDGE('',*,*,#959,.T.);
#748=ORIENTED_EDGE('',*,*,#1036,.F.);
#749=ORIENTED_EDGE('',*,*,#956,.T.);
#750=ORIENTED_EDGE('',*,*,#1037,.F.);
#751=ORIENTED_EDGE('',*,*,#988,.T.);
#752=ORIENTED_EDGE('',*,*,#1038,.F.);
#753=ORIENTED_EDGE('',*,*,#1010,.T.);
#754=ORIENTED_EDGE('',*,*,#1039,.F.);
#755=ORIENTED_EDGE('',*,*,#1007,.T.);
#756=ORIENTED_EDGE('',*,*,#1040,.F.);
#757=ORIENTED_EDGE('',*,*,#1004,.T.);
#758=ORIENTED_EDGE('',*,*,#1041,.F.);
#759=ORIENTED_EDGE('',*,*,#1001,.T.);
#760=ORIENTED_EDGE('',*,*,#1042,.F.);
#761=ORIENTED_EDGE('',*,*,#998,.T.);
#762=ORIENTED_EDGE('',*,*,#1043,.F.);
#763=ORIENTED_EDGE('',*,*,#995,.T.);
#764=ORIENTED_EDGE('',*,*,#1044,.F.);
#765=ORIENTED_EDGE('',*,*,#992,.T.);
#766=ORIENTED_EDGE('',*,*,#1045,.F.);
#767=ORIENTED_EDGE('',*,*,#1012,.T.);
#768=ORIENTED_EDGE('',*,*,#1014,.F.);
#769=ORIENTED_EDGE('',*,*,#1046,.F.);
#770=ORIENTED_EDGE('',*,*,#1047,.T.);
#771=ORIENTED_EDGE('',*,*,#1048,.T.);
#772=ORIENTED_EDGE('',*,*,#1017,.F.);
#773=ORIENTED_EDGE('',*,*,#1048,.F.);
#774=ORIENTED_EDGE('',*,*,#1049,.T.);
#775=ORIENTED_EDGE('',*,*,#1050,.T.);
#776=ORIENTED_EDGE('',*,*,#1019,.F.);
#777=ORIENTED_EDGE('',*,*,#1050,.F.);
#778=ORIENTED_EDGE('',*,*,#1051,.T.);
#779=ORIENTED_EDGE('',*,*,#1052,.T.);
#780=ORIENTED_EDGE('',*,*,#1021,.F.);
#781=ORIENTED_EDGE('',*,*,#1052,.F.);
#782=ORIENTED_EDGE('',*,*,#1053,.T.);
#783=ORIENTED_EDGE('',*,*,#1054,.T.);
#784=ORIENTED_EDGE('',*,*,#1023,.F.);
#785=ORIENTED_EDGE('',*,*,#1054,.F.);
#786=ORIENTED_EDGE('',*,*,#1055,.T.);
#787=ORIENTED_EDGE('',*,*,#1056,.T.);
#788=ORIENTED_EDGE('',*,*,#1025,.F.);
#789=ORIENTED_EDGE('',*,*,#1056,.F.);
#790=ORIENTED_EDGE('',*,*,#1057,.T.);
#791=ORIENTED_EDGE('',*,*,#1046,.T.);
#792=ORIENTED_EDGE('',*,*,#1047,.F.);
#793=ORIENTED_EDGE('',*,*,#1058,.F.);
#794=ORIENTED_EDGE('',*,*,#1059,.T.);
#795=ORIENTED_EDGE('',*,*,#1060,.T.);
#796=ORIENTED_EDGE('',*,*,#1049,.F.);
#797=ORIENTED_EDGE('',*,*,#1060,.F.);
#798=ORIENTED_EDGE('',*,*,#1061,.T.);
#799=ORIENTED_EDGE('',*,*,#1062,.T.);
#800=ORIENTED_EDGE('',*,*,#1051,.F.);
#801=ORIENTED_EDGE('',*,*,#1062,.F.);
#802=ORIENTED_EDGE('',*,*,#1063,.T.);
#803=ORIENTED_EDGE('',*,*,#1064,.T.);
#804=ORIENTED_EDGE('',*,*,#1053,.F.);
#805=ORIENTED_EDGE('',*,*,#1064,.F.);
#806=ORIENTED_EDGE('',*,*,#1065,.T.);
#807=ORIENTED_EDGE('',*,*,#1066,.T.);
#808=ORIENTED_EDGE('',*,*,#1055,.F.);
#809=ORIENTED_EDGE('',*,*,#1066,.F.);
#810=ORIENTED_EDGE('',*,*,#1067,.T.);
#811=ORIENTED_EDGE('',*,*,#1068,.T.);
#812=ORIENTED_EDGE('',*,*,#1057,.F.);
#813=ORIENTED_EDGE('',*,*,#1068,.F.);
#814=ORIENTED_EDGE('',*,*,#1069,.T.);
#815=ORIENTED_EDGE('',*,*,#1058,.T.);
#816=ORIENTED_EDGE('',*,*,#1059,.F.);
#817=ORIENTED_EDGE('',*,*,#1069,.F.);
#818=ORIENTED_EDGE('',*,*,#1067,.F.);
#819=ORIENTED_EDGE('',*,*,#1065,.F.);
#820=ORIENTED_EDGE('',*,*,#1063,.F.);
#821=ORIENTED_EDGE('',*,*,#1061,.F.);
#822=ORIENTED_EDGE('',*,*,#1070,.T.);
#823=ORIENTED_EDGE('',*,*,#1071,.T.);
#824=ORIENTED_EDGE('',*,*,#1070,.F.);
#825=ORIENTED_EDGE('',*,*,#1071,.F.);
#826=ORIENTED_EDGE('',*,*,#1072,.T.);
#827=ORIENTED_EDGE('',*,*,#1072,.F.);
#828=ORIENTED_EDGE('',*,*,#955,.F.);
#829=ORIENTED_EDGE('',*,*,#932,.T.);
#830=ORIENTED_EDGE('',*,*,#989,.T.);
#831=ORIENTED_EDGE('',*,*,#1037,.T.);
#832=ORIENTED_EDGE('',*,*,#958,.F.);
#833=ORIENTED_EDGE('',*,*,#934,.T.);
#834=ORIENTED_EDGE('',*,*,#954,.T.);
#835=ORIENTED_EDGE('',*,*,#1036,.T.);
#836=ORIENTED_EDGE('',*,*,#961,.F.);
#837=ORIENTED_EDGE('',*,*,#936,.T.);
#838=ORIENTED_EDGE('',*,*,#957,.T.);
#839=ORIENTED_EDGE('',*,*,#1035,.T.);
#840=ORIENTED_EDGE('',*,*,#964,.F.);
#841=ORIENTED_EDGE('',*,*,#938,.T.);
#842=ORIENTED_EDGE('',*,*,#960,.T.);
#843=ORIENTED_EDGE('',*,*,#1034,.T.);
#844=ORIENTED_EDGE('',*,*,#967,.F.);
#845=ORIENTED_EDGE('',*,*,#940,.T.);
#846=ORIENTED_EDGE('',*,*,#963,.T.);
#847=ORIENTED_EDGE('',*,*,#1033,.T.);
#848=ORIENTED_EDGE('',*,*,#970,.F.);
#849=ORIENTED_EDGE('',*,*,#942,.T.);
#850=ORIENTED_EDGE('',*,*,#966,.T.);
#851=ORIENTED_EDGE('',*,*,#1032,.T.);
#852=ORIENTED_EDGE('',*,*,#973,.F.);
#853=ORIENTED_EDGE('',*,*,#944,.T.);
#854=ORIENTED_EDGE('',*,*,#969,.T.);
#855=ORIENTED_EDGE('',*,*,#1031,.T.);
#856=ORIENTED_EDGE('',*,*,#976,.F.);
#857=ORIENTED_EDGE('',*,*,#946,.T.);
#858=ORIENTED_EDGE('',*,*,#972,.T.);
#859=ORIENTED_EDGE('',*,*,#1030,.T.);
#860=ORIENTED_EDGE('',*,*,#979,.F.);
#861=ORIENTED_EDGE('',*,*,#948,.T.);
#862=ORIENTED_EDGE('',*,*,#975,.T.);
#863=ORIENTED_EDGE('',*,*,#1029,.T.);
#864=ORIENTED_EDGE('',*,*,#982,.F.);
#865=ORIENTED_EDGE('',*,*,#950,.T.);
#866=ORIENTED_EDGE('',*,*,#978,.T.);
#867=ORIENTED_EDGE('',*,*,#1028,.T.);
#868=ORIENTED_EDGE('',*,*,#985,.F.);
#869=ORIENTED_EDGE('',*,*,#952,.T.);
#870=ORIENTED_EDGE('',*,*,#981,.T.);
#871=ORIENTED_EDGE('',*,*,#1027,.T.);
#872=ORIENTED_EDGE('',*,*,#987,.F.);
#873=ORIENTED_EDGE('',*,*,#930,.T.);
#874=ORIENTED_EDGE('',*,*,#984,.T.);
#875=ORIENTED_EDGE('',*,*,#1026,.T.);
#876=ORIENTED_EDGE('',*,*,#991,.F.);
#877=ORIENTED_EDGE('',*,*,#916,.T.);
#878=ORIENTED_EDGE('',*,*,#1013,.T.);
#879=ORIENTED_EDGE('',*,*,#1045,.T.);
#880=ORIENTED_EDGE('',*,*,#994,.F.);
#881=ORIENTED_EDGE('',*,*,#918,.T.);
#882=ORIENTED_EDGE('',*,*,#990,.T.);
#883=ORIENTED_EDGE('',*,*,#1044,.T.);
#884=ORIENTED_EDGE('',*,*,#997,.F.);
#885=ORIENTED_EDGE('',*,*,#920,.T.);
#886=ORIENTED_EDGE('',*,*,#993,.T.);
#887=ORIENTED_EDGE('',*,*,#1043,.T.);
#888=ORIENTED_EDGE('',*,*,#1000,.F.);
#889=ORIENTED_EDGE('',*,*,#922,.T.);
#890=ORIENTED_EDGE('',*,*,#996,.T.);
#891=ORIENTED_EDGE('',*,*,#1042,.T.);
#892=ORIENTED_EDGE('',*,*,#1003,.F.);
#893=ORIENTED_EDGE('',*,*,#924,.T.);
#894=ORIENTED_EDGE('',*,*,#999,.T.);
#895=ORIENTED_EDGE('',*,*,#1041,.T.);
#896=ORIENTED_EDGE('',*,*,#1006,.F.);
#897=ORIENTED_EDGE('',*,*,#926,.T.);
#898=ORIENTED_EDGE('',*,*,#1002,.T.);
#899=ORIENTED_EDGE('',*,*,#1040,.T.);
#900=ORIENTED_EDGE('',*,*,#1009,.F.);
#901=ORIENTED_EDGE('',*,*,#928,.T.);
#902=ORIENTED_EDGE('',*,*,#1005,.T.);
#903=ORIENTED_EDGE('',*,*,#1039,.T.);
#904=ORIENTED_EDGE('',*,*,#1011,.F.);
#905=ORIENTED_EDGE('',*,*,#914,.T.);
#906=ORIENTED_EDGE('',*,*,#1008,.T.);
#907=ORIENTED_EDGE('',*,*,#1038,.T.);
#908=EDGE_CURVE('',#1073,#1074,#1075,.T.);
#909=EDGE_CURVE('',#1074,#1076,#1077,.T.);
#910=EDGE_CURVE('',#1076,#1078,#1079,.T.);
#911=EDGE_CURVE('',#1078,#1080,#1081,.T.);
#912=EDGE_CURVE('',#1080,#1082,#1083,.T.);
#913=EDGE_CURVE('',#1082,#1073,#1084,.T.);
#914=EDGE_CURVE('',#1085,#1086,#1087,.F.);
#915=EDGE_CURVE('',#1088,#1085,#1089,.T.);
#916=EDGE_CURVE('',#1090,#1088,#1091,.F.);
#917=EDGE_CURVE('',#1092,#1090,#1093,.T.);
#918=EDGE_CURVE('',#1094,#1092,#1095,.F.);
#919=EDGE_CURVE('',#1096,#1094,#1097,.T.);
#920=EDGE_CURVE('',#1098,#1096,#1099,.F.);
#921=EDGE_CURVE('',#1100,#1098,#1101,.T.);
#922=EDGE_CURVE('',#1102,#1100,#1103,.F.);
#923=EDGE_CURVE('',#1104,#1102,#1105,.T.);
#924=EDGE_CURVE('',#1106,#1104,#1107,.F.);
#925=EDGE_CURVE('',#1108,#1106,#1109,.T.);
#926=EDGE_CURVE('',#1110,#1108,#1111,.F.);
#927=EDGE_CURVE('',#1112,#1110,#1113,.T.);
#928=EDGE_CURVE('',#1114,#1112,#1115,.F.);
#929=EDGE_CURVE('',#1086,#1114,#1116,.T.);
#930=EDGE_CURVE('',#1117,#1118,#1119,.F.);
#931=EDGE_CURVE('',#1120,#1117,#1121,.T.);
#932=EDGE_CURVE('',#1122,#1120,#1123,.F.);
#933=EDGE_CURVE('',#1124,#1122,#1125,.T.);
#934=EDGE_CURVE('',#1126,#1124,#1127,.F.);
#935=EDGE_CURVE('',#1128,#1126,#1129,.T.);
#936=EDGE_CURVE('',#1130,#1128,#1131,.F.);
#937=EDGE_CURVE('',#1132,#1130,#1133,.T.);
#938=EDGE_CURVE('',#1134,#1132,#1135,.F.);
#939=EDGE_CURVE('',#1136,#1134,#1137,.T.);
#940=EDGE_CURVE('',#1138,#1136,#1139,.F.);
#941=EDGE_CURVE('',#1140,#1138,#1141,.T.);
#942=EDGE_CURVE('',#1142,#1140,#1143,.F.);
#943=EDGE_CURVE('',#1144,#1142,#1145,.T.);
#944=EDGE_CURVE('',#1146,#1144,#1147,.F.);
#945=EDGE_CURVE('',#1148,#1146,#1149,.T.);
#946=EDGE_CURVE('',#1150,#1148,#1151,.F.);
#947=EDGE_CURVE('',#1152,#1150,#1153,.T.);
#948=EDGE_CURVE('',#1154,#1152,#1155,.F.);
#949=EDGE_CURVE('',#1156,#1154,#1157,.T.);
#950=EDGE_CURVE('',#1158,#1156,#1159,.F.);
#951=EDGE_CURVE('',#1160,#1158,#1161,.T.);
#952=EDGE_CURVE('',#1162,#1160,#1163,.F.);
#953=EDGE_CURVE('',#1118,#1162,#1164,.T.);
#954=EDGE_CURVE('',#1124,#1165,#1166,.T.);
#955=EDGE_CURVE('',#1122,#1167,#1168,.T.);
#956=EDGE_CURVE('',#1165,#1167,#1169,.T.);
#957=EDGE_CURVE('',#1128,#1170,#1171,.T.);
#958=EDGE_CURVE('',#1126,#1172,#1173,.T.);
#959=EDGE_CURVE('',#1170,#1172,#1174,.T.);
#960=EDGE_CURVE('',#1132,#1175,#1176,.T.);
#961=EDGE_CURVE('',#1130,#1177,#1178,.T.);
#962=EDGE_CURVE('',#1175,#1177,#1179,.T.);
#963=EDGE_CURVE('',#1136,#1180,#1181,.T.);
#964=EDGE_CURVE('',#1134,#1182,#1183,.T.);
#965=EDGE_CURVE('',#1180,#1182,#1184,.T.);
#966=EDGE_CURVE('',#1140,#1185,#1186,.T.);
#967=EDGE_CURVE('',#1138,#1187,#1188,.T.);
#968=EDGE_CURVE('',#1185,#1187,#1189,.T.);
#969=EDGE_CURVE('',#1144,#1190,#1191,.T.);
#970=EDGE_CURVE('',#1142,#1192,#1193,.T.);
#971=EDGE_CURVE('',#1190,#1192,#1194,.T.);
#972=EDGE_CURVE('',#1148,#1195,#1196,.T.);
#973=EDGE_CURVE('',#1146,#1197,#1198,.T.);
#974=EDGE_CURVE('',#1195,#1197,#1199,.T.);
#975=EDGE_CURVE('',#1152,#1200,#1201,.T.);
#976=EDGE_CURVE('',#1150,#1202,#1203,.T.);
#977=EDGE_CURVE('',#1200,#1202,#1204,.T.);
#978=EDGE_CURVE('',#1156,#1205,#1206,.T.);
#979=EDGE_CURVE('',#1154,#1207,#1208,.T.);
#980=EDGE_CURVE('',#1205,#1207,#1209,.T.);
#981=EDGE_CURVE('',#1160,#1210,#1211,.T.);
#982=EDGE_CURVE('',#1158,#1212,#1213,.T.);
#983=EDGE_CURVE('',#1210,#1212,#1214,.T.);
#984=EDGE_CURVE('',#1118,#1215,#1216,.T.);
#985=EDGE_CURVE('',#1162,#1217,#1218,.T.);
#986=EDGE_CURVE('',#1215,#1217,#1219,.T.);
#987=EDGE_CURVE('',#1117,#1220,#1221,.T.);
#988=EDGE_CURVE('',#1222,#1220,#1223,.T.);
#989=EDGE_CURVE('',#1120,#1222,#1224,.T.);
#990=EDGE_CURVE('',#1092,#1225,#1226,.T.);
#991=EDGE_CURVE('',#1090,#1227,#1228,.T.);
#992=EDGE_CURVE('',#1225,#1227,#1229,.T.);
#993=EDGE_CURVE('',#1096,#1230,#1231,.T.);
#994=EDGE_CURVE('',#1094,#1232,#1233,.T.);
#995=EDGE_CURVE('',#1230,#1232,#1234,.T.);
#996=EDGE_CURVE('',#1100,#1235,#1236,.T.);
#997=EDGE_CURVE('',#1098,#1237,#1238,.T.);
#998=EDGE_CURVE('',#1235,#1237,#1239,.T.);
#999=EDGE_CURVE('',#1104,#1240,#1241,.T.);
#1000=EDGE_CURVE('',#1102,#1242,#1243,.T.);
#1001=EDGE_CURVE('',#1240,#1242,#1244,.T.);
#1002=EDGE_CURVE('',#1108,#1245,#1246,.T.);
#1003=EDGE_CURVE('',#1106,#1247,#1248,.T.);
#1004=EDGE_CURVE('',#1245,#1247,#1249,.T.);
#1005=EDGE_CURVE('',#1112,#1250,#1251,.T.);
#1006=EDGE_CURVE('',#1110,#1252,#1253,.T.);
#1007=EDGE_CURVE('',#1250,#1252,#1254,.T.);
#1008=EDGE_CURVE('',#1086,#1255,#1256,.T.);
#1009=EDGE_CURVE('',#1114,#1257,#1258,.T.);
#1010=EDGE_CURVE('',#1255,#1257,#1259,.T.);
#1011=EDGE_CURVE('',#1085,#1260,#1261,.T.);
#1012=EDGE_CURVE('',#1262,#1260,#1263,.T.);
#1013=EDGE_CURVE('',#1088,#1262,#1264,.T.);
#1014=EDGE_CURVE('',#1265,#1266,#1267,.T.);
#1015=EDGE_CURVE('',#1266,#1074,#1268,.T.);
#1016=EDGE_CURVE('',#1265,#1073,#1269,.T.);
#1017=EDGE_CURVE('',#1266,#1270,#1271,.T.);
#1018=EDGE_CURVE('',#1270,#1076,#1272,.T.);
#1019=EDGE_CURVE('',#1270,#1273,#1274,.T.);
#1020=EDGE_CURVE('',#1273,#1078,#1275,.T.);
#1021=EDGE_CURVE('',#1273,#1276,#1277,.T.);
#1022=EDGE_CURVE('',#1276,#1080,#1278,.T.);
#1023=EDGE_CURVE('',#1276,#1279,#1280,.T.);
#1024=EDGE_CURVE('',#1279,#1082,#1281,.T.);
#1025=EDGE_CURVE('',#1279,#1265,#1282,.T.);
#1026=EDGE_CURVE('',#1215,#1220,#1283,.F.);
#1027=EDGE_CURVE('',#1210,#1217,#1284,.F.);
#1028=EDGE_CURVE('',#1205,#1212,#1285,.F.);
#1029=EDGE_CURVE('',#1200,#1207,#1286,.F.);
#1030=EDGE_CURVE('',#1195,#1202,#1287,.F.);
#1031=EDGE_CURVE('',#1190,#1197,#1288,.F.);
#1032=EDGE_CURVE('',#1185,#1192,#1289,.F.);
#1033=EDGE_CURVE('',#1180,#1187,#1290,.F.);
#1034=EDGE_CURVE('',#1175,#1182,#1291,.F.);
#1035=EDGE_CURVE('',#1170,#1177,#1292,.F.);
#1036=EDGE_CURVE('',#1165,#1172,#1293,.F.);
#1037=EDGE_CURVE('',#1222,#1167,#1294,.F.);
#1038=EDGE_CURVE('',#1255,#1260,#1295,.F.);
#1039=EDGE_CURVE('',#1250,#1257,#1296,.F.);
#1040=EDGE_CURVE('',#1245,#1252,#1297,.F.);
#1041=EDGE_CURVE('',#1240,#1247,#1298,.F.);
#1042=EDGE_CURVE('',#1235,#1242,#1299,.F.);
#1043=EDGE_CURVE('',#1230,#1237,#1300,.F.);
#1044=EDGE_CURVE('',#1225,#1232,#1301,.F.);
#1045=EDGE_CURVE('',#1262,#1227,#1302,.F.);
#1046=EDGE_CURVE('',#1303,#1265,#1304,.T.);
#1047=EDGE_CURVE('',#1303,#1305,#1306,.T.);
#1048=EDGE_CURVE('',#1305,#1266,#1307,.T.);
#1049=EDGE_CURVE('',#1305,#1308,#1309,.T.);
#1050=EDGE_CURVE('',#1308,#1270,#1310,.T.);
#1051=EDGE_CURVE('',#1308,#1311,#1312,.T.);
#1052=EDGE_CURVE('',#1311,#1273,#1313,.T.);
#1053=EDGE_CURVE('',#1311,#1314,#1315,.T.);
#1054=EDGE_CURVE('',#1314,#1276,#1316,.T.);
#1055=EDGE_CURVE('',#1314,#1317,#1318,.T.);
#1056=EDGE_CURVE('',#1317,#1279,#1319,.T.);
#1057=EDGE_CURVE('',#1317,#1303,#1320,.T.);
#1058=EDGE_CURVE('',#1321,#1303,#1322,.F.);
#1059=EDGE_CURVE('',#1321,#1323,#1324,.T.);
#1060=EDGE_CURVE('',#1323,#1305,#1325,.F.);
#1061=EDGE_CURVE('',#1323,#1326,#1327,.T.);
#1062=EDGE_CURVE('',#1326,#1308,#1328,.F.);
#1063=EDGE_CURVE('',#1326,#1329,#1330,.T.);
#1064=EDGE_CURVE('',#1329,#1311,#1331,.F.);
#1065=EDGE_CURVE('',#1329,#1332,#1333,.T.);
#1066=EDGE_CURVE('',#1332,#1314,#1334,.F.);
#1067=EDGE_CURVE('',#1332,#1335,#1336,.T.);
#1068=EDGE_CURVE('',#1335,#1317,#1337,.F.);
#1069=EDGE_CURVE('',#1335,#1321,#1338,.T.);
#1070=EDGE_CURVE('',#1339,#1339,#1340,.T.);
#1071=EDGE_CURVE('',#1341,#1341,#1342,.T.);
#1072=EDGE_CURVE('',#1343,#1343,#1344,.T.);
#1073=VERTEX_POINT('',#1345);
#1074=VERTEX_POINT('',#1346);
#1075=LINE('',#1347,#1348);
#1076=VERTEX_POINT('',#1350);
#1077=LINE('',#1351,#1352);
#1078=VERTEX_POINT('',#1354);
#1079=LINE('',#1355,#1356);
#1080=VERTEX_POINT('',#1358);
#1081=LINE('',#1359,#1360);
#1082=VERTEX_POINT('',#1362);
#1083=LINE('',#1363,#1364);
#1084=LINE('',#1366,#1367);
#1085=VERTEX_POINT('',#1369);
#1086=VERTEX_POINT('',#1370);
#1087=CIRCLE('',#1371,1.);
#1088=VERTEX_POINT('',#1375);
#1089=LINE('',#1376,#1377);
#1090=VERTEX_POINT('',#1379);
#1091=CIRCLE('',#1380,1.);
#1092=VERTEX_POINT('',#1384);
#1093=LINE('',#1385,#1386);
#1094=VERTEX_POINT('',#1388);
#1095=CIRCLE('',#1389,1.);
#1096=VERTEX_POINT('',#1393);
#1097=LINE('',#1394,#1395);
#1098=VERTEX_POINT('',#1397);
#1099=CIRCLE('',#1398,0.999999999999998);
#1100=VERTEX_POINT('',#1402);
#1101=LINE('',#1403,#1404);
#1102=VERTEX_POINT('',#1406);
#1103=CIRCLE('',#1407,1.);
#1104=VERTEX_POINT('',#1411);
#1105=LINE('',#1412,#1413);
#1106=VERTEX_POINT('',#1415);
#1107=CIRCLE('',#1416,0.999999999999998);
#1108=VERTEX_POINT('',#1420);
#1109=LINE('',#1421,#1422);
#1110=VERTEX_POINT('',#1424);
#1111=CIRCLE('',#1425,1.);
#1112=VERTEX_POINT('',#1429);
#1113=LINE('',#1430,#1431);
#1114=VERTEX_POINT('',#1433);
#1115=CIRCLE('',#1434,1.);
#1116=LINE('',#1438,#1439);
#1117=VERTEX_POINT('',#1441);
#1118=VERTEX_POINT('',#1442);
#1119=CIRCLE('',#1443,1.);
#1120=VERTEX_POINT('',#1447);
#1121=LINE('',#1448,#1449);
#1122=VERTEX_POINT('',#1451);
#1123=CIRCLE('',#1452,1.);
#1124=VERTEX_POINT('',#1456);
#1125=LINE('',#1457,#1458);
#1126=VERTEX_POINT('',#1460);
#1127=CIRCLE('',#1461,1.);
#1128=VERTEX_POINT('',#1465);
#1129=LINE('',#1466,#1467);
#1130=VERTEX_POINT('',#1469);
#1131=CIRCLE('',#1470,1.);
#1132=VERTEX_POINT('',#1474);
#1133=LINE('',#1475,#1476);
#1134=VERTEX_POINT('',#1478);
#1135=CIRCLE('',#1479,1.);
#1136=VERTEX_POINT('',#1483);
#1137=LINE('',#1484,#1485);
#1138=VERTEX_POINT('',#1487);
#1139=CIRCLE('',#1488,1.);
#1140=VERTEX_POINT('',#1492);
#1141=LINE('',#1493,#1494);
#1142=VERTEX_POINT('',#1496);
#1143=CIRCLE('',#1497,1.);
#1144=VERTEX_POINT('',#1501);
#1145=LINE('',#1502,#1503);
#1146=VERTEX_POINT('',#1505);
#1147=CIRCLE('',#1506,0.999999999999999);
#1148=VERTEX_POINT('',#1510);
#1149=LINE('',#1511,#1512);
#1150=VERTEX_POINT('',#1514);
#1151=CIRCLE('',#1515,1.);
#1152=VERTEX_POINT('',#1519);
#1153=LINE('',#1520,#1521);
#1154=VERTEX_POINT('',#1523);
#1155=CIRCLE('',#1524,1.);
#1156=VERTEX_POINT('',#1528);
#1157=LINE('',#1529,#1530);
#1158=VERTEX_POINT('',#1532);
#1159=CIRCLE('',#1533,1.);
#1160=VERTEX_POINT('',#1537);
#1161=LINE('',#1538,#1539);
#1162=VERTEX_POINT('',#1541);
#1163=CIRCLE('',#1542,0.999999999999999);
#1164=LINE('',#1546,#1547);
#1165=VERTEX_POINT('',#1549);
#1166=LINE('',#1550,#1551);
#1167=VERTEX_POINT('',#1553);
#1168=LINE('',#1554,#1555);
#1169=LINE('',#1557,#1558);
#1170=VERTEX_POINT('',#1560);
#1171=LINE('',#1561,#1562);
#1172=VERTEX_POINT('',#1564);
#1173=LINE('',#1565,#1566);
#1174=LINE('',#1568,#1569);
#1175=VERTEX_POINT('',#1571);
#1176=LINE('',#1572,#1573);
#1177=VERTEX_POINT('',#1575);
#1178=LINE('',#1576,#1577);
#1179=LINE('',#1579,#1580);
#1180=VERTEX_POINT('',#1582);
#1181=LINE('',#1583,#1584);
#1182=VERTEX_POINT('',#1586);
#1183=LINE('',#1587,#1588);
#1184=LINE('',#1590,#1591);
#1185=VERTEX_POINT('',#1593);
#1186=LINE('',#1594,#1595);
#1187=VERTEX_POINT('',#1597);
#1188=LINE('',#1598,#1599);
#1189=LINE('',#1601,#1602);
#1190=VERTEX_POINT('',#1604);
#1191=LINE('',#1605,#1606);
#1192=VERTEX_POINT('',#1608);
#1193=LINE('',#1609,#1610);
#1194=LINE('',#1612,#1613);
#1195=VERTEX_POINT('',#1615);
#1196=LINE('',#1616,#1617);
#1197=VERTEX_POINT('',#1619);
#1198=LINE('',#1620,#1621);
#1199=LINE('',#1623,#1624);
#1200=VERTEX_POINT('',#1626);
#1201=LINE('',#1627,#1628);
#1202=VERTEX_POINT('',#1630);
#1203=LINE('',#1631,#1632);
#1204=LINE('',#1634,#1635);
#1205=VERTEX_POINT('',#1637);
#1206=LINE('',#1638,#1639);
#1207=VERTEX_POINT('',#1641);
#1208=LINE('',#1642,#1643);
#1209=LINE('',#1645,#1646);
#1210=VERTEX_POINT('',#1648);
#1211=LINE('',#1649,#1650);
#1212=VERTEX_POINT('',#1652);
#1213=LINE('',#1653,#1654);
#1214=LINE('',#1656,#1657);
#1215=VERTEX_POINT('',#1659);
#1216=LINE('',#1660,#1661);
#1217=VERTEX_POINT('',#1663);
#1218=LINE('',#1664,#1665);
#1219=LINE('',#1667,#1668);
#1220=VERTEX_POINT('',#1670);
#1221=LINE('',#1671,#1672);
#1222=VERTEX_POINT('',#1674);
#1223=LINE('',#1675,#1676);
#1224=LINE('',#1678,#1679);
#1225=VERTEX_POINT('',#1681);
#1226=LINE('',#1682,#1683);
#1227=VERTEX_POINT('',#1685);
#1228=LINE('',#1686,#1687);
#1229=LINE('',#1689,#1690);
#1230=VERTEX_POINT('',#1692);
#1231=LINE('',#1693,#1694);
#1232=VERTEX_POINT('',#1696);
#1233=LINE('',#1697,#1698);
#1234=LINE('',#1700,#1701);
#1235=VERTEX_POINT('',#1703);
#1236=LINE('',#1704,#1705);
#1237=VERTEX_POINT('',#1707);
#1238=LINE('',#1708,#1709);
#1239=LINE('',#1711,#1712);
#1240=VERTEX_POINT('',#1714);
#1241=LINE('',#1715,#1716);
#1242=VERTEX_POINT('',#1718);
#1243=LINE('',#1719,#1720);
#1244=LINE('',#1722,#1723);
#1245=VERTEX_POINT('',#1725);
#1246=LINE('',#1726,#1727);
#1247=VERTEX_POINT('',#1729);
#1248=LINE('',#1730,#1731);
#1249=LINE('',#1733,#1734);
#1250=VERTEX_POINT('',#1736);
#1251=LINE('',#1737,#1738);
#1252=VERTEX_POINT('',#1740);
#1253=LINE('',#1741,#1742);
#1254=LINE('',#1744,#1745);
#1255=VERTEX_POINT('',#1747);
#1256=LINE('',#1748,#1749);
#1257=VERTEX_POINT('',#1751);
#1258=LINE('',#1752,#1753);
#1259=LINE('',#1755,#1756);
#1260=VERTEX_POINT('',#1758);
#1261=LINE('',#1759,#1760);
#1262=VERTEX_POINT('',#1762);
#1263=LINE('',#1763,#1764);
#1264=LINE('',#1766,#1767);
#1265=VERTEX_POINT('',#1769);
#1266=VERTEX_POINT('',#1770);
#1267=LINE('',#1771,#1772);
#1268=LINE('',#1774,#1775);
#1269=LINE('',#1777,#1778);
#1270=VERTEX_POINT('',#1780);
#1271=LINE('',#1781,#1782);
#1272=LINE('',#1784,#1785);
#1273=VERTEX_POINT('',#1787);
#1274=LINE('',#1788,#1789);
#1275=LINE('',#1791,#1792);
#1276=VERTEX_POINT('',#1794);
#1277=LINE('',#1795,#1796);
#1278=LINE('',#1798,#1799);
#1279=VERTEX_POINT('',#1801);
#1280=LINE('',#1802,#1803);
#1281=LINE('',#1805,#1806);
#1282=LINE('',#1808,#1809);
#1283=CIRCLE('',#1811,1.);
#1284=CIRCLE('',#1815,1.);
#1285=CIRCLE('',#1819,1.);
#1286=CIRCLE('',#1823,1.);
#1287=CIRCLE('',#1827,1.);
#1288=CIRCLE('',#1831,1.);
#1289=CIRCLE('',#1835,0.999999999999999);
#1290=CIRCLE('',#1839,1.);
#1291=CIRCLE('',#1843,1.);
#1292=CIRCLE('',#1847,1.);
#1293=CIRCLE('',#1851,1.);
#1294=CIRCLE('',#1855,1.);
#1295=CIRCLE('',#1859,0.999999999999999);
#1296=CIRCLE('',#1863,1.);
#1297=CIRCLE('',#1867,1.);
#1298=CIRCLE('',#1871,1.);
#1299=CIRCLE('',#1875,1.);
#1300=CIRCLE('',#1879,1.);
#1301=CIRCLE('',#1883,1.);
#1302=CIRCLE('',#1887,1.);
#1303=VERTEX_POINT('',#1891);
#1304=LINE('',#1892,#1893);
#1305=VERTEX_POINT('',#1895);
#1306=LINE('',#1896,#1897);
#1307=LINE('',#1899,#1900);
#1308=VERTEX_POINT('',#1902);
#1309=LINE('',#1903,#1904);
#1310=LINE('',#1906,#1907);
#1311=VERTEX_POINT('',#1909);
#1312=LINE('',#1910,#1911);
#1313=LINE('',#1913,#1914);
#1314=VERTEX_POINT('',#1916);
#1315=LINE('',#1917,#1918);
#1316=LINE('',#1920,#1921);
#1317=VERTEX_POINT('',#1923);
#1318=LINE('',#1924,#1925);
#1319=LINE('',#1927,#1928);
#1320=LINE('',#1930,#1931);
#1321=VERTEX_POINT('',#1933);
#1322=LINE('',#1934,#1935);
#1323=VERTEX_POINT('',#1937);
#1324=LINE('',#1938,#1939);
#1325=LINE('',#1941,#1942);
#1326=VERTEX_POINT('',#1944);
#1327=LINE('',#1945,#1946);
#1328=LINE('',#1948,#1949);
#1329=VERTEX_POINT('',#1951);
#1330=LINE('',#1952,#1953);
#1331=LINE('',#1955,#1956);
#1332=VERTEX_POINT('',#1958);
#1333=LINE('',#1959,#1960);
#1334=LINE('',#1962,#1963);
#1335=VERTEX_POINT('',#1965);
#1336=LINE('',#1966,#1967);
#1337=LINE('',#1969,#1970);
#1338=LINE('',#1972,#1973);
#1339=VERTEX_POINT('',#1975);
#1340=CIRCLE('',#1976,13.4);
#1341=VERTEX_POINT('',#1980);
#1342=CIRCLE('',#1981,12.4);
#1343=VERTEX_POINT('',#1985);
#1344=CIRCLE('',#1986,12.4);
#1345=CARTESIAN_POINT('',(13.5,-7.79422863405995,7.));
#1346=CARTESIAN_POINT('',(13.5,7.79422863405994,7.));
#1347=CARTESIAN_POINT('',(13.5,-7.79422863405995,7.));
#1348=VECTOR('',#1349,1.);
#1349=DIRECTION('',(6.83720066269712E-16,1.,0.));
#1350=CARTESIAN_POINT('',(9.33309216946534E-15,15.5884572681199,7.));
#1351=CARTESIAN_POINT('',(13.5,7.79422863405994,7.));
#1352=VECTOR('',#1353,1.);
#1353=DIRECTION('',(-0.866025403784438,0.500000000000001,0.));
#1354=CARTESIAN_POINT('',(-13.5,7.79422863405996,7.));
#1355=CARTESIAN_POINT('',(1.07244803315538E-14,15.5884572681199,7.));
#1356=VECTOR('',#1357,1.);
#1357=DIRECTION('',(-0.866025403784439,-0.499999999999999,0.));
#1358=CARTESIAN_POINT('',(-13.5,-7.79422863405994,7.));
#1359=CARTESIAN_POINT('',(-13.5,7.79422863405996,7.));
#1360=VECTOR('',#1361,1.);
#1361=DIRECTION('',(-6.83720066269711E-16,-1.,0.));
#1362=CARTESIAN_POINT('',(-3.24536925110406E-15,-15.5884572681199,7.));
#1363=CARTESIAN_POINT('',(-13.5,-7.79422863405994,7.));
#1364=VECTOR('',#1365,1.);
#1365=DIRECTION('',(0.866025403784438,-0.5,0.));
#1366=CARTESIAN_POINT('',(-3.61905297395279E-15,-15.5884572681199,7.));
#1367=VECTOR('',#1368,1.);
#1368=DIRECTION('',(0.866025403784439,0.5,0.));
#1369=CARTESIAN_POINT('',(10.6516833333333,-6.86099166666667,7.));
#1370=CARTESIAN_POINT('',(11.6516833333333,-5.86099166666667,7.));
#1371=AXIS2_PLACEMENT_3D('',#1372,#1373,#1374);
#1372=CARTESIAN_POINT('',(10.6516833333333,-5.86099166666667,7.));
#1373=DIRECTION('',(0.,0.,-1.));
#1374=DIRECTION('',(1.,8.88178419700125E-16,0.));
#1375=CARTESIAN_POINT('',(1.4095375,-6.86099166666667,7.));
#1376=CARTESIAN_POINT('',(1.4095375,-6.86099166666667,7.));
#1377=VECTOR('',#1378,1.);
#1378=DIRECTION('',(1.,-1.92201775586956E-16,0.));
#1379=CARTESIAN_POINT('',(0.4095375,-5.86099166666666,7.));
#1380=AXIS2_PLACEMENT_3D('',#1381,#1382,#1383);
#1381=CARTESIAN_POINT('',(1.4095375,-5.86099166666667,7.));
#1382=DIRECTION('',(0.,0.,-1.));
#1383=DIRECTION('',(-4.44089209850062E-16,-1.,0.));
#1384=CARTESIAN_POINT('',(0.409537500000001,6.,7.));
#1385=CARTESIAN_POINT('',(0.409537500000001,6.,7.));
#1386=VECTOR('',#1387,1.);
#1387=DIRECTION('',(-1.21683748928753E-16,-1.,0.));
#1388=CARTESIAN_POINT('',(1.4095375,7.,7.));
#1389=AXIS2_PLACEMENT_3D('',#1390,#1391,#1392);
#1390=CARTESIAN_POINT('',(1.4095375,6.,7.));
#1391=DIRECTION('',(0.,0.,-1.));
#1392=DIRECTION('',(-1.,0.,0.));
#1393=CARTESIAN_POINT('',(2.30619583333333,7.,7.));
#1394=CARTESIAN_POINT('',(2.30619583333333,7.,7.));
#1395=VECTOR('',#1396,1.);
#1396=DIRECTION('',(-1.,0.,0.));
#1397=CARTESIAN_POINT('',(3.30619583333333,6.,7.));
#1398=AXIS2_PLACEMENT_3D('',#1399,#1400,#1401);
#1399=CARTESIAN_POINT('',(2.30619583333333,6.,7.));
#1400=DIRECTION('',(0.,0.,-1.));
#1401=DIRECTION('',(4.44089209850063E-16,1.,0.));
#1402=CARTESIAN_POINT('',(3.30619583333333,-3.47550833333333,7.));
#1403=CARTESIAN_POINT('',(3.30619583333333,-3.47550833333333,7.));
#1404=VECTOR('',#1405,1.);
#1405=DIRECTION('',(9.3734118366574E-17,1.,0.));
#1406=CARTESIAN_POINT('',(4.30619583333333,-4.47550833333333,7.));
#1407=AXIS2_PLACEMENT_3D('',#1408,#1409,#1410);
#1408=CARTESIAN_POINT('',(4.30619583333333,-3.47550833333333,7.));
#1409=DIRECTION('',(0.,0.,1.));
#1410=DIRECTION('',(-1.,0.,0.));
#1411=CARTESIAN_POINT('',(7.74761666666667,-4.47550833333334,7.));
#1412=CARTESIAN_POINT('',(7.74761666666667,-4.47550833333333,7.));
#1413=VECTOR('',#1414,1.);
#1414=DIRECTION('',(-1.,2.58084803548958E-16,0.));
#1415=CARTESIAN_POINT('',(8.74761666666667,-3.47550833333334,7.));
#1416=AXIS2_PLACEMENT_3D('',#1417,#1418,#1419);
#1417=CARTESIAN_POINT('',(7.74761666666667,-3.47550833333334,7.));
#1418=DIRECTION('',(0.,0.,1.));
#1419=DIRECTION('',(8.88178419700127E-16,-1.,0.));
#1420=CARTESIAN_POINT('',(8.74761666666667,6.,7.));
#1421=CARTESIAN_POINT('',(8.74761666666667,6.,7.));
#1422=VECTOR('',#1423,1.);
#1423=DIRECTION('',(0.,-1.,0.));
#1424=CARTESIAN_POINT('',(9.74761666666667,7.,7.));
#1425=AXIS2_PLACEMENT_3D('',#1426,#1427,#1428);
#1426=CARTESIAN_POINT('',(9.74761666666667,6.,7.));
#1427=DIRECTION('',(0.,0.,-1.));
#1428=DIRECTION('',(-1.,0.,0.));
#1429=CARTESIAN_POINT('',(10.6516833333333,7.,7.));
#1430=CARTESIAN_POINT('',(10.6516833333333,7.,7.));
#1431=VECTOR('',#1432,1.);
#1432=DIRECTION('',(-1.,9.82425801600315E-16,0.));
#1433=CARTESIAN_POINT('',(11.6516833333333,5.99999999999999,7.));
#1434=AXIS2_PLACEMENT_3D('',#1435,#1436,#1437);
#1435=CARTESIAN_POINT('',(10.6516833333333,6.,7.));
#1436=DIRECTION('',(0.,0.,-1.));
#1437=DIRECTION('',(-1.77635683940025E-15,1.,0.));
#1438=CARTESIAN_POINT('',(11.6516833333333,-5.86099166666667,7.));
#1439=VECTOR('',#1440,1.);
#1440=DIRECTION('',(-1.49764614066158E-16,1.,0.));
#1441=CARTESIAN_POINT('',(-3.35006570027669,-3.2790625,7.));
#1442=CARTESIAN_POINT('',(-2.35006570027669,-2.2790625,7.));
#1443=AXIS2_PLACEMENT_3D('',#1444,#1445,#1446);
#1444=CARTESIAN_POINT('',(-3.35006570027669,-2.2790625,7.));
#1445=DIRECTION('',(0.,0.,-1.));
#1446=DIRECTION('',(1.,0.,0.));
#1447=CARTESIAN_POINT('',(-4.01706570027669,-3.2790625,7.));
#1448=CARTESIAN_POINT('',(-4.01706570027669,-3.2790625,7.));
#1449=VECTOR('',#1450,1.);
#1450=DIRECTION('',(1.,6.65800914317935E-16,0.));
#1451=CARTESIAN_POINT('',(-5.01706570027669,-2.2790625,7.));
#1452=AXIS2_PLACEMENT_3D('',#1453,#1454,#1455);
#1453=CARTESIAN_POINT('',(-4.01706570027669,-2.2790625,7.));
#1454=DIRECTION('',(0.,0.,-1.));
#1455=DIRECTION('',(0.,-1.,0.));
#1456=CARTESIAN_POINT('',(-5.01706570027669,-0.563783333333333,7.));
#1457=CARTESIAN_POINT('',(-5.01706570027669,-0.563783333333333,7.));
#1458=VECTOR('',#1459,1.);
#1459=DIRECTION('',(0.,-1.,0.));
#1460=CARTESIAN_POINT('',(-6.01706570027669,0.436216666666667,7.));
#1461=AXIS2_PLACEMENT_3D('',#1462,#1463,#1464);
#1462=CARTESIAN_POINT('',(-6.01706570027669,-0.563783333333333,7.));
#1463=DIRECTION('',(0.,0.,1.));
#1464=DIRECTION('',(1.,-2.22044604925031E-16,0.));
#1465=CARTESIAN_POINT('',(-7.93977820027669,0.436216666666668,7.));
#1466=CARTESIAN_POINT('',(-7.93977820027669,0.436216666666668,7.));
#1467=VECTOR('',#1468,1.);
#1468=DIRECTION('',(1.,-1.44356348729355E-16,0.));
#1469=CARTESIAN_POINT('',(-8.93977820027669,-0.563783333333332,7.));
#1470=AXIS2_PLACEMENT_3D('',#1471,#1472,#1473);
#1471=CARTESIAN_POINT('',(-7.93977820027669,-0.563783333333332,7.));
#1472=DIRECTION('',(0.,0.,1.));
#1473=DIRECTION('',(0.,1.,0.));
#1474=CARTESIAN_POINT('',(-8.93977820027669,-2.2790625,7.));
#1475=CARTESIAN_POINT('',(-8.93977820027669,-2.2790625,7.));
#1476=VECTOR('',#1477,1.);
#1477=DIRECTION('',(0.,1.,0.));
#1478=CARTESIAN_POINT('',(-9.93977820027669,-3.2790625,7.));
#1479=AXIS2_PLACEMENT_3D('',#1480,#1481,#1482);
#1480=CARTESIAN_POINT('',(-9.93977820027669,-2.2790625,7.));
#1481=DIRECTION('',(0.,0.,-1.));
#1482=DIRECTION('',(1.,-4.44089209850063E-16,0.));
#1483=CARTESIAN_POINT('',(-10.5993698669434,-3.2790625,7.));
#1484=CARTESIAN_POINT('',(-10.5993698669434,-3.2790625,7.));
#1485=VECTOR('',#1486,1.);
#1486=DIRECTION('',(1.,-6.73278988035621E-16,0.));
#1487=CARTESIAN_POINT('',(-11.5993698669434,-2.2790625,7.));
#1488=AXIS2_PLACEMENT_3D('',#1489,#1490,#1491);
#1489=CARTESIAN_POINT('',(-10.5993698669434,-2.2790625,7.));
#1490=DIRECTION('',(0.,0.,-1.));
#1491=DIRECTION('',(0.,-1.,0.));
#1492=CARTESIAN_POINT('',(-11.5993698669434,6.,7.));
#1493=CARTESIAN_POINT('',(-11.5993698669434,6.,7.));
#1494=VECTOR('',#1495,1.);
#1495=DIRECTION('',(0.,-1.,0.));
#1496=CARTESIAN_POINT('',(-10.5993698669434,7.,7.));
#1497=AXIS2_PLACEMENT_3D('',#1498,#1499,#1500);
#1498=CARTESIAN_POINT('',(-10.5993698669434,6.,7.));
#1499=DIRECTION('',(0.,0.,-1.));
#1500=DIRECTION('',(-1.,0.,0.));
#1501=CARTESIAN_POINT('',(-9.93977820027669,7.,7.));
#1502=CARTESIAN_POINT('',(-9.93977820027669,7.,7.));
#1503=VECTOR('',#1504,1.);
#1504=DIRECTION('',(-1.,1.34655797607124E-15,0.));
#1505=CARTESIAN_POINT('',(-8.93977820027669,6.,7.));
#1506=AXIS2_PLACEMENT_3D('',#1507,#1508,#1509);
#1507=CARTESIAN_POINT('',(-9.93977820027669,6.,7.));
#1508=DIRECTION('',(0.,0.,-1.));
#1509=DIRECTION('',(0.,1.,0.));
#1510=CARTESIAN_POINT('',(-8.93977820027669,3.59574583333333,7.));
#1511=CARTESIAN_POINT('',(-8.93977820027669,3.59574583333333,7.));
#1512=VECTOR('',#1513,1.);
#1513=DIRECTION('',(0.,1.,0.));
#1514=CARTESIAN_POINT('',(-7.93977820027669,2.59574583333333,7.));
#1515=AXIS2_PLACEMENT_3D('',#1516,#1517,#1518);
#1516=CARTESIAN_POINT('',(-7.93977820027669,3.59574583333333,7.));
#1517=DIRECTION('',(0.,0.,1.));
#1518=DIRECTION('',(-1.,0.,0.));
#1519=CARTESIAN_POINT('',(-6.01706570027669,2.59574583333333,7.));
#1520=CARTESIAN_POINT('',(-6.01706570027669,2.59574583333333,7.));
#1521=VECTOR('',#1522,1.);
#1522=DIRECTION('',(-1.,2.30970157966967E-16,0.));
#1523=CARTESIAN_POINT('',(-5.01706570027669,3.59574583333333,7.));
#1524=AXIS2_PLACEMENT_3D('',#1525,#1526,#1527);
#1525=CARTESIAN_POINT('',(-6.01706570027669,3.59574583333333,7.));
#1526=DIRECTION('',(0.,0.,1.));
#1527=DIRECTION('',(0.,-1.,0.));
#1528=CARTESIAN_POINT('',(-5.01706570027669,6.,7.));
#1529=CARTESIAN_POINT('',(-5.01706570027669,6.,7.));
#1530=VECTOR('',#1531,1.);
#1531=DIRECTION('',(-3.6941951978876E-16,-1.,0.));
#1532=CARTESIAN_POINT('',(-4.01706570027669,7.,7.));
#1533=AXIS2_PLACEMENT_3D('',#1534,#1535,#1536);
#1534=CARTESIAN_POINT('',(-4.01706570027669,6.,7.));
#1535=DIRECTION('',(0.,0.,-1.));
#1536=DIRECTION('',(-1.,0.,0.));
#1537=CARTESIAN_POINT('',(-3.35006570027669,7.,7.));
#1538=CARTESIAN_POINT('',(-3.35006570027669,7.,7.));
#1539=VECTOR('',#1540,1.);
#1540=DIRECTION('',(-1.,2.66320365727174E-15,0.));
#1541=CARTESIAN_POINT('',(-2.35006570027669,6.,7.));
#1542=AXIS2_PLACEMENT_3D('',#1543,#1544,#1545);
#1543=CARTESIAN_POINT('',(-3.35006570027669,6.,7.));
#1544=DIRECTION('',(0.,0.,-1.));
#1545=DIRECTION('',(4.44089209850063E-16,1.,0.));
#1546=CARTESIAN_POINT('',(-2.35006570027669,-2.2790625,7.));
#1547=VECTOR('',#1548,1.);
#1548=DIRECTION('',(1.6092010774773E-16,1.,0.));
#1549=CARTESIAN_POINT('',(-5.01706570027669,-0.563783333333333,8.));
#1550=CARTESIAN_POINT('',(-5.01706570027669,-0.563783333333333,7.));
#1551=VECTOR('',#1552,1.);
#1552=DIRECTION('',(0.,0.,1.));
#1553=CARTESIAN_POINT('',(-5.01706570027669,-2.2790625,8.));
#1554=CARTESIAN_POINT('',(-5.01706570027669,-2.2790625,7.));
#1555=VECTOR('',#1556,1.);
#1556=DIRECTION('',(0.,0.,1.));
#1557=CARTESIAN_POINT('',(-5.01706570027669,-0.563783333333333,8.));
#1558=VECTOR('',#1559,1.);
#1559=DIRECTION('',(0.,-1.,0.));
#1560=CARTESIAN_POINT('',(-7.93977820027669,0.436216666666668,8.));
#1561=CARTESIAN_POINT('',(-7.93977820027669,0.436216666666668,7.));
#1562=VECTOR('',#1563,1.);
#1563=DIRECTION('',(0.,0.,1.));
#1564=CARTESIAN_POINT('',(-6.01706570027669,0.436216666666667,8.));
#1565=CARTESIAN_POINT('',(-6.01706570027669,0.436216666666667,7.));
#1566=VECTOR('',#1567,1.);
#1567=DIRECTION('',(0.,0.,1.));
#1568=CARTESIAN_POINT('',(-7.93977820027669,0.436216666666668,8.));
#1569=VECTOR('',#1570,1.);
#1570=DIRECTION('',(1.,-1.44356348729355E-16,0.));
#1571=CARTESIAN_POINT('',(-8.93977820027669,-2.2790625,8.));
#1572=CARTESIAN_POINT('',(-8.93977820027669,-2.2790625,7.));
#1573=VECTOR('',#1574,1.);
#1574=DIRECTION('',(0.,0.,1.));
#1575=CARTESIAN_POINT('',(-8.93977820027669,-0.563783333333332,8.));
#1576=CARTESIAN_POINT('',(-8.93977820027669,-0.563783333333332,7.));
#1577=VECTOR('',#1578,1.);
#1578=DIRECTION('',(0.,0.,1.));
#1579=CARTESIAN_POINT('',(-8.93977820027669,-2.2790625,8.));
#1580=VECTOR('',#1581,1.);
#1581=DIRECTION('',(0.,1.,0.));
#1582=CARTESIAN_POINT('',(-10.5993698669434,-3.2790625,8.));
#1583=CARTESIAN_POINT('',(-10.5993698669434,-3.2790625,7.));
#1584=VECTOR('',#1585,1.);
#1585=DIRECTION('',(0.,0.,1.));
#1586=CARTESIAN_POINT('',(-9.93977820027669,-3.2790625,8.));
#1587=CARTESIAN_POINT('',(-9.93977820027669,-3.2790625,7.));
#1588=VECTOR('',#1589,1.);
#1589=DIRECTION('',(0.,0.,1.));
#1590=CARTESIAN_POINT('',(-10.5993698669434,-3.2790625,8.));
#1591=VECTOR('',#1592,1.);
#1592=DIRECTION('',(1.,-6.73278988035621E-16,0.));
#1593=CARTESIAN_POINT('',(-11.5993698669434,6.,8.));
#1594=CARTESIAN_POINT('',(-11.5993698669434,6.,7.));
#1595=VECTOR('',#1596,1.);
#1596=DIRECTION('',(0.,0.,1.));
#1597=CARTESIAN_POINT('',(-11.5993698669434,-2.2790625,8.));
#1598=CARTESIAN_POINT('',(-11.5993698669434,-2.2790625,7.));
#1599=VECTOR('',#1600,1.);
#1600=DIRECTION('',(0.,0.,1.));
#1601=CARTESIAN_POINT('',(-11.5993698669434,6.,8.));
#1602=VECTOR('',#1603,1.);
#1603=DIRECTION('',(0.,-1.,0.));
#1604=CARTESIAN_POINT('',(-9.93977820027669,7.,8.));
#1605=CARTESIAN_POINT('',(-9.93977820027669,7.,7.));
#1606=VECTOR('',#1607,1.);
#1607=DIRECTION('',(0.,0.,1.));
#1608=CARTESIAN_POINT('',(-10.5993698669434,7.,8.));
#1609=CARTESIAN_POINT('',(-10.5993698669434,7.,7.));
#1610=VECTOR('',#1611,1.);
#1611=DIRECTION('',(0.,0.,1.));
#1612=CARTESIAN_POINT('',(-9.93977820027669,7.,8.));
#1613=VECTOR('',#1614,1.);
#1614=DIRECTION('',(-1.,1.34655797607124E-15,0.));
#1615=CARTESIAN_POINT('',(-8.93977820027669,3.59574583333333,8.));
#1616=CARTESIAN_POINT('',(-8.93977820027669,3.59574583333333,7.));
#1617=VECTOR('',#1618,1.);
#1618=DIRECTION('',(0.,0.,1.));
#1619=CARTESIAN_POINT('',(-8.93977820027669,6.,8.));
#1620=CARTESIAN_POINT('',(-8.93977820027669,6.,7.));
#1621=VECTOR('',#1622,1.);
#1622=DIRECTION('',(0.,0.,1.));
#1623=CARTESIAN_POINT('',(-8.93977820027669,3.59574583333333,8.));
#1624=VECTOR('',#1625,1.);
#1625=DIRECTION('',(0.,1.,0.));
#1626=CARTESIAN_POINT('',(-6.01706570027669,2.59574583333333,8.));
#1627=CARTESIAN_POINT('',(-6.01706570027669,2.59574583333333,7.));
#1628=VECTOR('',#1629,1.);
#1629=DIRECTION('',(0.,0.,1.));
#1630=CARTESIAN_POINT('',(-7.93977820027669,2.59574583333333,8.));
#1631=CARTESIAN_POINT('',(-7.93977820027669,2.59574583333333,7.));
#1632=VECTOR('',#1633,1.);
#1633=DIRECTION('',(0.,0.,1.));
#1634=CARTESIAN_POINT('',(-6.01706570027669,2.59574583333333,8.));
#1635=VECTOR('',#1636,1.);
#1636=DIRECTION('',(-1.,0.,0.));
#1637=CARTESIAN_POINT('',(-5.01706570027669,6.,8.));
#1638=CARTESIAN_POINT('',(-5.01706570027669,6.,7.));
#1639=VECTOR('',#1640,1.);
#1640=DIRECTION('',(0.,0.,1.));
#1641=CARTESIAN_POINT('',(-5.01706570027669,3.59574583333333,8.));
#1642=CARTESIAN_POINT('',(-5.01706570027669,3.59574583333333,7.));
#1643=VECTOR('',#1644,1.);
#1644=DIRECTION('',(0.,0.,1.));
#1645=CARTESIAN_POINT('',(-5.01706570027669,6.,8.));
#1646=VECTOR('',#1647,1.);
#1647=DIRECTION('',(-3.6941951978876E-16,-1.,0.));
#1648=CARTESIAN_POINT('',(-3.35006570027669,7.,8.));
#1649=CARTESIAN_POINT('',(-3.35006570027669,7.,7.));
#1650=VECTOR('',#1651,1.);
#1651=DIRECTION('',(0.,0.,1.));
#1652=CARTESIAN_POINT('',(-4.01706570027669,7.,8.));
#1653=CARTESIAN_POINT('',(-4.01706570027669,7.,7.));
#1654=VECTOR('',#1655,1.);
#1655=DIRECTION('',(0.,0.,1.));
#1656=CARTESIAN_POINT('',(-3.35006570027669,7.,8.));
#1657=VECTOR('',#1658,1.);
#1658=DIRECTION('',(-1.,1.33160182863587E-15,0.));
#1659=CARTESIAN_POINT('',(-2.35006570027669,-2.2790625,8.));
#1660=CARTESIAN_POINT('',(-2.35006570027669,-2.2790625,7.));
#1661=VECTOR('',#1662,1.);
#1662=DIRECTION('',(0.,0.,1.));
#1663=CARTESIAN_POINT('',(-2.35006570027669,6.,8.));
#1664=CARTESIAN_POINT('',(-2.35006570027669,6.,7.));
#1665=VECTOR('',#1666,1.);
#1666=DIRECTION('',(0.,0.,1.));
#1667=CARTESIAN_POINT('',(-2.35006570027669,-2.2790625,8.));
#1668=VECTOR('',#1669,1.);
#1669=DIRECTION('',(1.6092010774773E-16,1.,0.));
#1670=CARTESIAN_POINT('',(-3.35006570027669,-3.2790625,8.));
#1671=CARTESIAN_POINT('',(-3.35006570027669,-3.2790625,7.));
#1672=VECTOR('',#1673,1.);
#1673=DIRECTION('',(0.,0.,1.));
#1674=CARTESIAN_POINT('',(-4.01706570027669,-3.2790625,8.));
#1675=CARTESIAN_POINT('',(-4.01706570027669,-3.2790625,8.));
#1676=VECTOR('',#1677,1.);
#1677=DIRECTION('',(1.,0.,0.));
#1678=CARTESIAN_POINT('',(-4.01706570027669,-3.2790625,7.));
#1679=VECTOR('',#1680,1.);
#1680=DIRECTION('',(0.,0.,1.));
#1681=CARTESIAN_POINT('',(0.409537500000001,6.,8.));
#1682=CARTESIAN_POINT('',(0.409537500000001,6.,7.));
#1683=VECTOR('',#1684,1.);
#1684=DIRECTION('',(0.,0.,1.));
#1685=CARTESIAN_POINT('',(0.4095375,-5.86099166666666,8.));
#1686=CARTESIAN_POINT('',(0.4095375,-5.86099166666666,7.));
#1687=VECTOR('',#1688,1.);
#1688=DIRECTION('',(0.,0.,1.));
#1689=CARTESIAN_POINT('',(0.409537500000001,6.,8.));
#1690=VECTOR('',#1691,1.);
#1691=DIRECTION('',(-1.21683748928753E-16,-1.,0.));
#1692=CARTESIAN_POINT('',(2.30619583333333,7.,8.));
#1693=CARTESIAN_POINT('',(2.30619583333333,7.,7.));
#1694=VECTOR('',#1695,1.);
#1695=DIRECTION('',(0.,0.,1.));
#1696=CARTESIAN_POINT('',(1.4095375,7.,8.));
#1697=CARTESIAN_POINT('',(1.4095375,7.,7.));
#1698=VECTOR('',#1699,1.);
#1699=DIRECTION('',(0.,0.,1.));
#1700=CARTESIAN_POINT('',(2.30619583333333,7.,8.));
#1701=VECTOR('',#1702,1.);
#1702=DIRECTION('',(-1.,0.,0.));
#1703=CARTESIAN_POINT('',(3.30619583333333,-3.47550833333333,8.));
#1704=CARTESIAN_POINT('',(3.30619583333333,-3.47550833333333,7.));
#1705=VECTOR('',#1706,1.);
#1706=DIRECTION('',(0.,0.,1.));
#1707=CARTESIAN_POINT('',(3.30619583333333,6.,8.));
#1708=CARTESIAN_POINT('',(3.30619583333333,6.,7.));
#1709=VECTOR('',#1710,1.);
#1710=DIRECTION('',(0.,0.,1.));
#1711=CARTESIAN_POINT('',(3.30619583333333,-3.47550833333333,8.));
#1712=VECTOR('',#1713,1.);
#1713=DIRECTION('',(1.40601177549861E-16,1.,0.));
#1714=CARTESIAN_POINT('',(7.74761666666667,-4.47550833333334,8.));
#1715=CARTESIAN_POINT('',(7.74761666666667,-4.47550833333334,7.));
#1716=VECTOR('',#1717,1.);
#1717=DIRECTION('',(0.,0.,1.));
#1718=CARTESIAN_POINT('',(4.30619583333333,-4.47550833333333,8.));
#1719=CARTESIAN_POINT('',(4.30619583333333,-4.47550833333333,7.));
#1720=VECTOR('',#1721,1.);
#1721=DIRECTION('',(0.,0.,1.));
#1722=CARTESIAN_POINT('',(7.74761666666667,-4.47550833333333,8.));
#1723=VECTOR('',#1724,1.);
#1724=DIRECTION('',(-1.,2.58084803548958E-16,0.));
#1725=CARTESIAN_POINT('',(8.74761666666667,6.,8.));
#1726=CARTESIAN_POINT('',(8.74761666666667,6.,7.));
#1727=VECTOR('',#1728,1.);
#1728=DIRECTION('',(0.,0.,1.));
#1729=CARTESIAN_POINT('',(8.74761666666667,-3.47550833333334,8.));
#1730=CARTESIAN_POINT('',(8.74761666666667,-3.47550833333334,7.));
#1731=VECTOR('',#1732,1.);
#1732=DIRECTION('',(0.,0.,1.));
#1733=CARTESIAN_POINT('',(8.74761666666667,6.,8.));
#1734=VECTOR('',#1735,1.);
#1735=DIRECTION('',(0.,-1.,0.));
#1736=CARTESIAN_POINT('',(10.6516833333333,7.,8.));
#1737=CARTESIAN_POINT('',(10.6516833333333,7.,7.));
#1738=VECTOR('',#1739,1.);
#1739=DIRECTION('',(0.,0.,1.));
#1740=CARTESIAN_POINT('',(9.74761666666667,7.,8.));
#1741=CARTESIAN_POINT('',(9.74761666666667,7.,7.));
#1742=VECTOR('',#1743,1.);
#1743=DIRECTION('',(0.,0.,1.));
#1744=CARTESIAN_POINT('',(10.6516833333333,7.,8.));
#1745=VECTOR('',#1746,1.);
#1746=DIRECTION('',(-1.,9.82425801600313E-16,0.));
#1747=CARTESIAN_POINT('',(11.6516833333333,-5.86099166666667,8.));
#1748=CARTESIAN_POINT('',(11.6516833333333,-5.86099166666667,7.));
#1749=VECTOR('',#1750,1.);
#1750=DIRECTION('',(0.,0.,1.));
#1751=CARTESIAN_POINT('',(11.6516833333333,5.99999999999999,8.));
#1752=CARTESIAN_POINT('',(11.6516833333333,6.,7.));
#1753=VECTOR('',#1754,1.);
#1754=DIRECTION('',(0.,0.,1.));
#1755=CARTESIAN_POINT('',(11.6516833333333,-5.86099166666667,8.));
#1756=VECTOR('',#1757,1.);
#1757=DIRECTION('',(0.,1.,0.));
#1758=CARTESIAN_POINT('',(10.6516833333333,-6.86099166666667,8.));
#1759=CARTESIAN_POINT('',(10.6516833333333,-6.86099166666667,7.));
#1760=VECTOR('',#1761,1.);
#1761=DIRECTION('',(0.,0.,1.));
#1762=CARTESIAN_POINT('',(1.4095375,-6.86099166666667,8.));
#1763=CARTESIAN_POINT('',(1.4095375,-6.86099166666667,8.));
#1764=VECTOR('',#1765,1.);
#1765=DIRECTION('',(1.,-1.92201775586956E-16,0.));
#1766=CARTESIAN_POINT('',(1.4095375,-6.86099166666667,7.));
#1767=VECTOR('',#1768,1.);
#1768=DIRECTION('',(0.,0.,1.));
#1769=CARTESIAN_POINT('',(14.5,-8.37157890324958,6.));
#1770=CARTESIAN_POINT('',(14.5,8.37157890324956,6.));
#1771=CARTESIAN_POINT('',(14.5,-8.37157890324958,6.));
#1772=VECTOR('',#1773,1.);
#1773=DIRECTION('',(7.42661451292963E-16,1.,0.));
#1774=CARTESIAN_POINT('',(14.5,8.37157890324956,6.));
#1775=VECTOR('',#1776,1.);
#1776=DIRECTION('',(-0.654653670707976,-0.377964473009228,0.654653670707977));
#1777=CARTESIAN_POINT('',(14.5,-8.37157890324958,6.));
#1778=VECTOR('',#1779,1.);
#1779=DIRECTION('',(-0.654653670707977,0.377964473009228,0.654653670707977));
#1780=CARTESIAN_POINT('',(1.31691538461105E-14,16.7431578064991,6.));
#1781=CARTESIAN_POINT('',(14.5,8.37157890324956,6.));
#1782=VECTOR('',#1783,1.);
#1783=DIRECTION('',(-0.866025403784438,0.500000000000001,0.));
#1784=CARTESIAN_POINT('',(1.19904086659517E-14,16.7431578064991,6.));
#1785=VECTOR('',#1786,1.);
#1786=DIRECTION('',(-2.65286226107011E-15,-0.755928946018454,0.654653670707978));
#1787=CARTESIAN_POINT('',(-14.5,8.37157890324958,6.));
#1788=CARTESIAN_POINT('',(1.39038098164192E-14,16.7431578064991,6.));
#1789=VECTOR('',#1790,1.);
#1790=DIRECTION('',(-0.866025403784439,-0.499999999999999,0.));
#1791=CARTESIAN_POINT('',(-14.5,8.37157890324958,6.));
#1792=VECTOR('',#1793,1.);
#1793=DIRECTION('',(0.654653670707976,-0.377964473009229,0.654653670707977));
#1794=CARTESIAN_POINT('',(-14.5,-8.37157890324957,6.));
#1795=CARTESIAN_POINT('',(-14.5,8.37157890324959,6.));
#1796=VECTOR('',#1797,1.);
#1797=DIRECTION('',(-7.42661451292962E-16,-1.,0.));
#1798=CARTESIAN_POINT('',(-14.5,-8.37157890324957,6.));
#1799=VECTOR('',#1800,1.);
#1800=DIRECTION('',(0.654653670707976,0.377964473009228,0.654653670707978));
#1801=CARTESIAN_POINT('',(-5.84168188358446E-15,-16.7431578064991,6.));
#1802=CARTESIAN_POINT('',(-14.5,-8.37157890324957,6.));
#1803=VECTOR('',#1804,1.);
#1804=DIRECTION('',(0.866025403784439,-0.5,0.));
#1805=CARTESIAN_POINT('',(-6.21724893790088E-15,-16.7431578064991,6.));
#1806=VECTOR('',#1807,1.);
#1807=DIRECTION('',(1.99873184053227E-15,0.755928946018455,0.654653670707977));
#1808=CARTESIAN_POINT('',(-5.46611482926804E-15,-16.7431578064991,6.));
#1809=VECTOR('',#1810,1.);
#1810=DIRECTION('',(0.866025403784439,0.5,0.));
#1811=AXIS2_PLACEMENT_3D('',#1812,#1813,#1814);
#1812=CARTESIAN_POINT('',(-3.35006570027669,-2.2790625,8.));
#1813=DIRECTION('',(0.,0.,1.));
#1814=DIRECTION('',(-4.44089209850063E-16,-1.,0.));
#1815=AXIS2_PLACEMENT_3D('',#1816,#1817,#1818);
#1816=CARTESIAN_POINT('',(-3.35006570027669,6.,8.));
#1817=DIRECTION('',(0.,0.,1.));
#1818=DIRECTION('',(1.,8.88178419700125E-16,0.));
#1819=AXIS2_PLACEMENT_3D('',#1820,#1821,#1822);
#1820=CARTESIAN_POINT('',(-4.01706570027669,6.,8.));
#1821=DIRECTION('',(0.,0.,1.));
#1822=DIRECTION('',(0.,1.,0.));
#1823=AXIS2_PLACEMENT_3D('',#1824,#1825,#1826);
#1824=CARTESIAN_POINT('',(-6.01706570027669,3.59574583333333,8.));
#1825=DIRECTION('',(0.,0.,-1.));
#1826=DIRECTION('',(1.,1.33226762955019E-15,0.));
#1827=AXIS2_PLACEMENT_3D('',#1828,#1829,#1830);
#1828=CARTESIAN_POINT('',(-7.93977820027669,3.59574583333333,8.));
#1829=DIRECTION('',(0.,0.,-1.));
#1830=DIRECTION('',(0.,-1.,0.));
#1831=AXIS2_PLACEMENT_3D('',#1832,#1833,#1834);
#1832=CARTESIAN_POINT('',(-9.93977820027669,6.,8.));
#1833=DIRECTION('',(0.,0.,1.));
#1834=DIRECTION('',(1.,0.,0.));
#1835=AXIS2_PLACEMENT_3D('',#1836,#1837,#1838);
#1836=CARTESIAN_POINT('',(-10.5993698669434,6.,8.));
#1837=DIRECTION('',(0.,0.,1.));
#1838=DIRECTION('',(0.,1.,0.));
#1839=AXIS2_PLACEMENT_3D('',#1840,#1841,#1842);
#1840=CARTESIAN_POINT('',(-10.5993698669434,-2.2790625,8.));
#1841=DIRECTION('',(0.,0.,1.));
#1842=DIRECTION('',(-1.,0.,0.));
#1843=AXIS2_PLACEMENT_3D('',#1844,#1845,#1846);
#1844=CARTESIAN_POINT('',(-9.93977820027669,-2.2790625,8.));
#1845=DIRECTION('',(0.,0.,1.));
#1846=DIRECTION('',(0.,-1.,0.));
#1847=AXIS2_PLACEMENT_3D('',#1848,#1849,#1850);
#1848=CARTESIAN_POINT('',(-7.93977820027669,-0.563783333333332,8.));
#1849=DIRECTION('',(0.,0.,-1.));
#1850=DIRECTION('',(-1.,2.22044604925031E-16,0.));
#1851=AXIS2_PLACEMENT_3D('',#1852,#1853,#1854);
#1852=CARTESIAN_POINT('',(-6.01706570027669,-0.563783333333333,8.));
#1853=DIRECTION('',(0.,0.,-1.));
#1854=DIRECTION('',(0.,1.,0.));
#1855=AXIS2_PLACEMENT_3D('',#1856,#1857,#1858);
#1856=CARTESIAN_POINT('',(-4.01706570027669,-2.2790625,8.));
#1857=DIRECTION('',(0.,0.,1.));
#1858=DIRECTION('',(-1.,0.,0.));
#1859=AXIS2_PLACEMENT_3D('',#1860,#1861,#1862);
#1860=CARTESIAN_POINT('',(10.6516833333333,-5.86099166666667,8.));
#1861=DIRECTION('',(0.,0.,1.));
#1862=DIRECTION('',(-1.77635683940025E-15,-1.,0.));
#1863=AXIS2_PLACEMENT_3D('',#1864,#1865,#1866);
#1864=CARTESIAN_POINT('',(10.6516833333333,6.,8.));
#1865=DIRECTION('',(0.,0.,1.));
#1866=DIRECTION('',(1.,-8.88178419700125E-16,0.));
#1867=AXIS2_PLACEMENT_3D('',#1868,#1869,#1870);
#1868=CARTESIAN_POINT('',(9.74761666666667,6.,8.));
#1869=DIRECTION('',(0.,0.,1.));
#1870=DIRECTION('',(-1.77635683940025E-15,1.,0.));
#1871=AXIS2_PLACEMENT_3D('',#1872,#1873,#1874);
#1872=CARTESIAN_POINT('',(7.74761666666667,-3.47550833333334,8.));
#1873=DIRECTION('',(0.,0.,-1.));
#1874=DIRECTION('',(1.,-1.33226762955019E-15,0.));
#1875=AXIS2_PLACEMENT_3D('',#1876,#1877,#1878);
#1876=CARTESIAN_POINT('',(4.30619583333333,-3.47550833333333,8.));
#1877=DIRECTION('',(0.,0.,-1.));
#1878=DIRECTION('',(0.,-1.,0.));
#1879=AXIS2_PLACEMENT_3D('',#1880,#1881,#1882);
#1880=CARTESIAN_POINT('',(2.30619583333333,6.,8.));
#1881=DIRECTION('',(0.,0.,1.));
#1882=DIRECTION('',(1.,8.88178419700125E-16,0.));
#1883=AXIS2_PLACEMENT_3D('',#1884,#1885,#1886);
#1884=CARTESIAN_POINT('',(1.4095375,6.,8.));
#1885=DIRECTION('',(0.,0.,1.));
#1886=DIRECTION('',(-4.44089209850063E-16,1.,0.));
#1887=AXIS2_PLACEMENT_3D('',#1888,#1889,#1890);
#1888=CARTESIAN_POINT('',(1.4095375,-5.86099166666667,8.));
#1889=DIRECTION('',(0.,0.,1.));
#1890=DIRECTION('',(-1.,0.,0.));
#1891=CARTESIAN_POINT('',(14.5,-8.37157890324958,3.));
#1892=CARTESIAN_POINT('',(14.5,-8.37157890324958,3.));
#1893=VECTOR('',#1894,1.);
#1894=DIRECTION('',(0.,0.,1.));
#1895=CARTESIAN_POINT('',(14.5,8.37157890324956,3.));
#1896=CARTESIAN_POINT('',(14.5,-8.37157890324958,3.));
#1897=VECTOR('',#1898,1.);
#1898=DIRECTION('',(7.42661451292963E-16,1.,0.));
#1899=CARTESIAN_POINT('',(14.5,8.37157890324956,3.));
#1900=VECTOR('',#1901,1.);
#1901=DIRECTION('',(0.,0.,1.));
#1902=CARTESIAN_POINT('',(1.31691538461105E-14,16.7431578064991,3.));
#1903=CARTESIAN_POINT('',(14.5,8.37157890324956,3.));
#1904=VECTOR('',#1905,1.);
#1905=DIRECTION('',(-0.866025403784438,0.500000000000001,0.));
#1906=CARTESIAN_POINT('',(1.43478990262693E-14,16.7431578064991,3.));
#1907=VECTOR('',#1908,1.);
#1908=DIRECTION('',(0.,0.,1.));
#1909=CARTESIAN_POINT('',(-14.5,8.37157890324958,3.));
#1910=CARTESIAN_POINT('',(1.39038098164192E-14,16.7431578064991,3.));
#1911=VECTOR('',#1912,1.);
#1912=DIRECTION('',(-0.866025403784439,-0.499999999999999,0.));
#1913=CARTESIAN_POINT('',(-14.5,8.37157890324959,3.));
#1914=VECTOR('',#1915,1.);
#1915=DIRECTION('',(0.,0.,1.));
#1916=CARTESIAN_POINT('',(-14.5,-8.37157890324957,3.));
#1917=CARTESIAN_POINT('',(-14.5,8.37157890324959,3.));
#1918=VECTOR('',#1919,1.);
#1919=DIRECTION('',(-7.42661451292962E-16,-1.,0.));
#1920=CARTESIAN_POINT('',(-14.5,-8.37157890324957,3.));
#1921=VECTOR('',#1922,1.);
#1922=DIRECTION('',(0.,0.,1.));
#1923=CARTESIAN_POINT('',(-5.84168188358446E-15,-16.7431578064991,3.));
#1924=CARTESIAN_POINT('',(-14.5,-8.37157890324957,3.));
#1925=VECTOR('',#1926,1.);
#1926=DIRECTION('',(0.866025403784439,-0.5,0.));
#1927=CARTESIAN_POINT('',(-5.46611482926804E-15,-16.7431578064991,3.));
#1928=VECTOR('',#1929,1.);
#1929=DIRECTION('',(0.,0.,1.));
#1930=CARTESIAN_POINT('',(-5.46611482926804E-15,-16.7431578064991,3.));
#1931=VECTOR('',#1932,1.);
#1932=DIRECTION('',(0.866025403784439,0.5,0.));
#1933=CARTESIAN_POINT('',(13.5,-7.79422863405995,2.));
#1934=CARTESIAN_POINT('',(14.5,-8.37157890324958,3.));
#1935=VECTOR('',#1936,1.);
#1936=DIRECTION('',(-0.654653670707977,0.377964473009228,-0.654653670707977));
#1937=CARTESIAN_POINT('',(13.5,7.79422863405994,2.));
#1938=CARTESIAN_POINT('',(13.5,-7.79422863405995,2.));
#1939=VECTOR('',#1940,1.);
#1940=DIRECTION('',(6.83720066269712E-16,1.,0.));
#1941=CARTESIAN_POINT('',(14.5,8.37157890324956,3.));
#1942=VECTOR('',#1943,1.);
#1943=DIRECTION('',(-0.654653670707976,-0.377964473009228,-0.654653670707977));
#1944=CARTESIAN_POINT('',(9.33309216946534E-15,15.5884572681199,2.));
#1945=CARTESIAN_POINT('',(13.5,7.79422863405994,2.));
#1946=VECTOR('',#1947,1.);
#1947=DIRECTION('',(-0.866025403784438,0.500000000000001,-2.84883360945713E-17));
#1948=CARTESIAN_POINT('',(1.19904086659517E-14,16.7431578064991,3.));
#1949=VECTOR('',#1950,1.);
#1950=DIRECTION('',(-2.65286226107011E-15,-0.755928946018454,-0.654653670707978));
#1951=CARTESIAN_POINT('',(-13.5,7.79422863405996,2.));
#1952=CARTESIAN_POINT('',(1.07244803315538E-14,15.5884572681199,2.));
#1953=VECTOR('',#1954,1.);
#1954=DIRECTION('',(-0.866025403784439,-0.499999999999999,-1.42441680472857E-17));
#1955=CARTESIAN_POINT('',(-14.5,8.37157890324958,3.));
#1956=VECTOR('',#1957,1.);
#1957=DIRECTION('',(0.654653670707976,-0.377964473009229,-0.654653670707978));
#1958=CARTESIAN_POINT('',(-13.5,-7.79422863405994,2.));
#1959=CARTESIAN_POINT('',(-13.5,7.79422863405996,2.));
#1960=VECTOR('',#1961,1.);
#1961=DIRECTION('',(-6.83720066269711E-16,-1.,0.));
#1962=CARTESIAN_POINT('',(-14.5,-8.37157890324957,3.));
#1963=VECTOR('',#1964,1.);
#1964=DIRECTION('',(0.654653670707977,0.377964473009228,-0.654653670707977));
#1965=CARTESIAN_POINT('',(-3.24536925110406E-15,-15.5884572681199,2.));
#1966=CARTESIAN_POINT('',(-13.5,-7.79422863405994,2.));
#1967=VECTOR('',#1968,1.);
#1968=DIRECTION('',(0.866025403784438,-0.5,0.));
#1969=CARTESIAN_POINT('',(-6.21724893790088E-15,-16.7431578064991,3.));
#1970=VECTOR('',#1971,1.);
#1971=DIRECTION('',(1.99873184053227E-15,0.755928946018455,-0.654653670707977));
#1972=CARTESIAN_POINT('',(-3.61905297395279E-15,-15.5884572681199,2.));
#1973=VECTOR('',#1974,1.);
#1974=DIRECTION('',(0.866025403784439,0.5,0.));
#1975=CARTESIAN_POINT('',(-13.4,3.28205342171491E-15,2.));
#1976=AXIS2_PLACEMENT_3D('',#1977,#1978,#1979);
#1977=CARTESIAN_POINT('',(0.,0.,2.));
#1978=DIRECTION('',(0.,0.,1.));
#1979=DIRECTION('',(-1.,1.22464679914735E-16,0.));
#1980=CARTESIAN_POINT('',(-12.4,3.03712406188544E-15,1.));
#1981=AXIS2_PLACEMENT_3D('',#1982,#1983,#1984);
#1982=CARTESIAN_POINT('',(0.,0.,1.));
#1983=DIRECTION('',(0.,0.,1.));
#1984=DIRECTION('',(-1.,1.22464679914735E-16,0.));
#1985=CARTESIAN_POINT('',(-12.4,1.51856203094272E-15,0.));
#1986=AXIS2_PLACEMENT_3D('',#1987,#1988,#1989);
#1987=CARTESIAN_POINT('',(0.,0.,0.));
#1988=DIRECTION('',(0.,0.,1.));
#1989=DIRECTION('',(-1.,1.22464679914735E-16,0.));
ENDSEC;
END-ISO-10303-21;
