ISO-10303-21;
HEADER;
FILE_DESCRIPTION(('STEP AP242'),
    '1');
FILE_NAME('itemPillContainerCapFri',
    '',
    ('UNSPECIFIED'),
    ('UNSPECIFIED'),
    'C3D Converter',
    'C3D Toolkit',
    '');
FILE_SCHEMA(('AP242_MANAGED_MODEL_BASED_3D_ENGINEERING_MIM_LF { 1 0 10303 442 1 1 4 }'));
ENDSEC;

DATA;
#1=PRODUCT_DEFINITION('','UNSPECIFIED',#28,#31);
#2=SHAPE_DEFINITION_REPRESENTATION(#26,#3);
#3=SHAPE_REPRESENTATION('NONE',(#4),#8);
#4=AXIS2_PLACEMENT_3D('',#5,#6,#7);
#5=CARTESIAN_POINT('',(0.,0.,0.));
#6=DIRECTION('',(0.,0.,1.));
#7=DIRECTION('',(1.,0.,0.));
#8=(GEOMETRIC_REPRESENTATION_CONTEXT(3)GLOBAL_UNCERTAINTY_ASSIGNED_CONTEXT((#10))
GLOBAL_UNIT_ASSIGNED_CONTEXT((#9,#11,#12))REPRESENTATION_CONTEXT('NONE','NONE'));
#9=(LENGTH_UNIT()NAMED_UNIT(*)SI_UNIT(.MILLI.,.METRE.));
#10=UNCERTAINTY_MEASURE_WITH_UNIT(LENGTH_MEASURE(1.E-5),#9,'NONE','NONE');
#11=(NAMED_UNIT(*)PLANE_ANGLE_UNIT()SI_UNIT($,.RADIAN.));
#12=(NAMED_UNIT(*)SI_UNIT($,.STERADIAN.)SOLID_ANGLE_UNIT());
#13=MANIFOLD_SOLID_BREP('',#14);
#14=CLOSED_SHELL('',(#48,#49,#50,#51,#52,#53,#54,#55,#56,#57,#58,#59,#60,#61,#62,
#63,#64,#65,#66,#67,#68,#69,#70,#71,#72,#73,#74,#75,#76,#77,#78,#79,#80,#81,#82,
#83,#84,#85,#86,#87,#88,#89,#90,#91,#92,#93,#94,#95,#96,#97,#98,#99,#100,#101,#102));
#15=COLOUR_RGB('',0.564705882352941,0.564705882352941,0.564705882352941);
#16=FILL_AREA_STYLE_COLOUR('',#15);
#17=FILL_AREA_STYLE($,(#16));
#18=SURFACE_STYLE_FILL_AREA(#17);
#19=SURFACE_SIDE_STYLE('',(#18));
#20=SURFACE_STYLE_USAGE(.BOTH.,#19);
#21=PRESENTATION_STYLE_ASSIGNMENT((#20));
#22=MECHANICAL_DESIGN_GEOMETRIC_PRESENTATION_REPRESENTATION('NONE',(#23),#8);
#23=STYLED_ITEM('',(#21),#13);
#24=ADVANCED_BREP_SHAPE_REPRESENTATION('NONE',(#13),#8);
#25=SHAPE_REPRESENTATION_RELATIONSHIP('','',#3,#24);
#26=PRODUCT_DEFINITION_SHAPE('NONE','NONE',#1);
#27=MECHANICAL_CONTEXT('NONE',#32,'mechanical');
#28=PRODUCT_DEFINITION_FORMATION_WITH_SPECIFIED_SOURCE('ANY','UNSPECIFIED',#29,.NOT_KNOWN.);
#29=PRODUCT('','itemPillContainerCapFri','NONE',(#27));
#30=PRODUCT_RELATED_PRODUCT_CATEGORY('detail','',(#29));
#31=DESIGN_CONTEXT('detailed design',#32,'design');
#32=APPLICATION_CONTEXT('configuration controlled 3d designs of mechanical parts and assemblies');
#33=APPLICATION_PROTOCOL_DEFINITION('international standard','config_control_design',
1994,#32);
#34=CC_DESIGN_DATE_AND_TIME_ASSIGNMENT(#35,#39,(#1));
#35=DATE_AND_TIME(#36,#37);
#36=CALENDAR_DATE(0,1,1);
#37=LOCAL_TIME(0,0,0.,#38);
#38=COORDINATED_UNIVERSAL_TIME_OFFSET(0,0,.AHEAD.);
#39=DATE_TIME_ROLE('creation_date');
#40=CC_DESIGN_APPROVAL(#41,(#1));
#41=APPROVAL(#42,'UNSPECIFIED');
#42=APPROVAL_STATUS('not_yet_approved');
#43=APPROVAL_DATE_TIME(#44,#41);
#44=DATE_AND_TIME(#45,#46);
#45=CALENDAR_DATE(0,1,1);
#46=LOCAL_TIME(0,0,0.,#47);
#47=COORDINATED_UNIVERSAL_TIME_OFFSET(0,0,.AHEAD.);
#48=ADVANCED_FACE('',(#103,#105,#107),#109,.T.);
#49=ADVANCED_FACE('',(#114),#116,.T.);
#50=ADVANCED_FACE('',(#121),#123,.T.);
#51=ADVANCED_FACE('',(#128),#130,.T.);
#52=ADVANCED_FACE('',(#135),#137,.T.);
#53=ADVANCED_FACE('',(#142),#144,.T.);
#54=ADVANCED_FACE('',(#149),#151,.T.);
#55=ADVANCED_FACE('',(#156),#158,.T.);
#56=ADVANCED_FACE('',(#163),#165,.T.);
#57=ADVANCED_FACE('',(#170),#172,.T.);
#58=ADVANCED_FACE('',(#177),#179,.T.);
#59=ADVANCED_FACE('',(#184),#186,.T.);
#60=ADVANCED_FACE('',(#191),#193,.T.);
#61=ADVANCED_FACE('',(#198),#200,.T.);
#62=ADVANCED_FACE('',(#205),#207,.T.);
#63=ADVANCED_FACE('',(#212),#214,.F.);
#64=ADVANCED_FACE('',(#219),#221,.F.);
#65=ADVANCED_FACE('',(#226),#228,.F.);
#66=ADVANCED_FACE('',(#233),#235,.F.);
#67=ADVANCED_FACE('',(#240),#242,.F.);
#68=ADVANCED_FACE('',(#247),#249,.F.);
#69=ADVANCED_FACE('',(#254,#256),#258,.F.);
#70=ADVANCED_FACE('',(#263,#265),#267,.T.);
#71=ADVANCED_FACE('',(#272,#274),#276,.T.);
#72=ADVANCED_FACE('',(#281),#283,.F.);
#73=ADVANCED_FACE('',(#288),#290,.F.);
#74=ADVANCED_FACE('',(#313),#315,.T.);
#75=ADVANCED_FACE('',(#320),#322,.T.);
#76=ADVANCED_FACE('',(#327),#329,.T.);
#77=ADVANCED_FACE('',(#334),#336,.T.);
#78=ADVANCED_FACE('',(#341),#343,.T.);
#79=ADVANCED_FACE('',(#348),#350,.F.);
#80=ADVANCED_FACE('',(#373),#375,.T.);
#81=ADVANCED_FACE('',(#380),#382,.F.);
#82=ADVANCED_FACE('',(#405),#407,.T.);
#83=ADVANCED_FACE('',(#412),#414,.F.);
#84=ADVANCED_FACE('',(#437),#439,.T.);
#85=ADVANCED_FACE('',(#444),#446,.F.);
#86=ADVANCED_FACE('',(#469),#471,.T.);
#87=ADVANCED_FACE('',(#476),#478,.F.);
#88=ADVANCED_FACE('',(#501),#503,.T.);
#89=ADVANCED_FACE('',(#508),#510,.F.);
#90=ADVANCED_FACE('',(#533),#535,.T.);
#91=ADVANCED_FACE('',(#540),#542,.F.);
#92=ADVANCED_FACE('',(#565),#567,.T.);
#93=ADVANCED_FACE('',(#572),#574,.F.);
#94=ADVANCED_FACE('',(#597),#599,.T.);
#95=ADVANCED_FACE('',(#604),#606,.T.);
#96=ADVANCED_FACE('',(#611),#613,.F.);
#97=ADVANCED_FACE('',(#636),#638,.T.);
#98=ADVANCED_FACE('',(#643),#645,.F.);
#99=ADVANCED_FACE('',(#668),#670,.T.);
#100=ADVANCED_FACE('',(#675),#677,.T.);
#101=ADVANCED_FACE('',(#682),#684,.F.);
#102=ADVANCED_FACE('',(#707),#709,.T.);
#103=FACE_BOUND('',#104,.T.);
#104=EDGE_LOOP('',(#714,#715,#716,#717,#718,#719));
#105=FACE_BOUND('',#106,.T.);
#106=EDGE_LOOP('',(#720,#721,#722,#723,#724,#725,#726,#727,#728,#729,#730,#731,#732,
#733,#734,#735));
#107=FACE_BOUND('',#108,.T.);
#108=EDGE_LOOP('',(#736,#737,#738,#739,#740,#741,#742,#743,#744,#745,#746,#747,#748,
#749));
#109=PLANE('',#110);
#110=AXIS2_PLACEMENT_3D('',#111,#112,#113);
#111=CARTESIAN_POINT('',(0.,0.,10.));
#112=DIRECTION('',(0.,0.,1.));
#113=DIRECTION('',(-1.,1.22464679914735E-16,0.));
#114=FACE_BOUND('',#115,.T.);
#115=EDGE_LOOP('',(#750,#751,#752,#753));
#116=PLANE('',#117);
#117=AXIS2_PLACEMENT_3D('',#118,#119,#120);
#118=CARTESIAN_POINT('',(15.5,-12.9489291724392,9.));
#119=DIRECTION('',(0.707106781186548,-6.79015048390514E-16,0.707106781186548));
#120=DIRECTION('',(9.60272290489288E-16,1.,8.61552160902986E-32));
#121=FACE_BOUND('',#122,.T.);
#122=EDGE_LOOP('',(#754,#755,#756,#757));
#123=PLANE('',#124);
#124=AXIS2_PLACEMENT_3D('',#125,#126,#127);
#125=CARTESIAN_POINT('',(18.9641016151378,6.94892917243919,9.));
#126=DIRECTION('',(0.353553390593274,0.612372435695794,0.707106781186548));
#127=DIRECTION('',(-0.866025403784439,0.5,0.));
#128=FACE_BOUND('',#129,.T.);
#129=EDGE_LOOP('',(#758,#759,#760,#761));
#130=PLANE('',#131);
#131=AXIS2_PLACEMENT_3D('',#132,#133,#134);
#132=CARTESIAN_POINT('',(3.46410161513777,19.8978583448784,9.));
#133=DIRECTION('',(-0.353553390593274,0.612372435695795,0.707106781186547));
#134=DIRECTION('',(-0.866025403784439,-0.499999999999999,2.42505374425183E-17));
#135=FACE_BOUND('',#136,.T.);
#136=EDGE_LOOP('',(#762,#763,#764,#765));
#137=PLANE('',#138);
#138=AXIS2_PLACEMENT_3D('',#139,#140,#141);
#139=CARTESIAN_POINT('',(-15.5,12.9489291724392,9.));
#140=DIRECTION('',(-0.707106781186547,3.39507524195257E-16,0.707106781186548));
#141=DIRECTION('',(-4.80136145244644E-16,-1.,0.));
#142=FACE_BOUND('',#143,.T.);
#143=EDGE_LOOP('',(#766,#767,#768,#769));
#144=PLANE('',#145);
#145=AXIS2_PLACEMENT_3D('',#146,#147,#148);
#146=CARTESIAN_POINT('',(-18.9641016151378,-6.94892917243919,9.));
#147=DIRECTION('',(-0.353553390593274,-0.612372435695794,0.707106781186548));
#148=DIRECTION('',(0.866025403784438,-0.500000000000001,0.));
#149=FACE_BOUND('',#150,.T.);
#150=EDGE_LOOP('',(#770,#771,#772,#773));
#151=PLANE('',#152);
#152=AXIS2_PLACEMENT_3D('',#153,#154,#155);
#153=CARTESIAN_POINT('',(-3.46410161513776,-19.8978583448784,9.));
#154=DIRECTION('',(0.353553390593274,-0.612372435695795,0.707106781186547));
#155=DIRECTION('',(0.866025403784439,0.5,0.));
#156=FACE_BOUND('',#157,.T.);
#157=EDGE_LOOP('',(#774,#775,#776,#777,#778,#779,#780,#781));
#158=PLANE('',#159);
#159=AXIS2_PLACEMENT_3D('',#160,#161,#162);
#160=CARTESIAN_POINT('',(0.,0.,9.));
#161=DIRECTION('',(0.,0.,1.));
#162=DIRECTION('',(-1.,1.22464679914735E-16,0.));
#163=FACE_BOUND('',#164,.T.);
#164=EDGE_LOOP('',(#782,#783,#784,#785,#786,#787,#788,#789,#790,#791));
#165=PLANE('',#166);
#166=AXIS2_PLACEMENT_3D('',#167,#168,#169);
#167=CARTESIAN_POINT('',(0.,0.,9.));
#168=DIRECTION('',(0.,0.,1.));
#169=DIRECTION('',(-1.,1.22464679914735E-16,0.));
#170=FACE_BOUND('',#171,.T.);
#171=EDGE_LOOP('',(#792,#793,#794,#795));
#172=PLANE('',#173);
#173=AXIS2_PLACEMENT_3D('',#174,#175,#176);
#174=CARTESIAN_POINT('',(15.5,-8.94892917243921,5.));
#175=DIRECTION('',(1.,-9.92496870391517E-16,0.));
#176=DIRECTION('',(9.92496870391517E-16,1.,0.));
#177=FACE_BOUND('',#178,.T.);
#178=EDGE_LOOP('',(#796,#797,#798,#799));
#179=PLANE('',#180);
#180=AXIS2_PLACEMENT_3D('',#181,#182,#183);
#181=CARTESIAN_POINT('',(15.5,8.94892917243919,5.));
#182=DIRECTION('',(0.5,0.866025403784439,0.));
#183=DIRECTION('',(-0.866025403784439,0.5,0.));
#184=FACE_BOUND('',#185,.T.);
#185=EDGE_LOOP('',(#800,#801,#802,#803));
#186=PLANE('',#187);
#187=AXIS2_PLACEMENT_3D('',#188,#189,#190);
#188=CARTESIAN_POINT('',(1.06041716114854E-14,17.8978583448784,5.));
#189=DIRECTION('',(-0.499999999999999,0.866025403784439,0.));
#190=DIRECTION('',(-0.866025403784439,-0.499999999999999,0.));
#191=FACE_BOUND('',#192,.T.);
#192=EDGE_LOOP('',(#804,#805,#806,#807));
#193=PLANE('',#194);
#194=AXIS2_PLACEMENT_3D('',#195,#196,#197);
#195=CARTESIAN_POINT('',(-15.5,8.94892917243921,5.));
#196=DIRECTION('',(-1.,4.96248435195758E-16,0.));
#197=DIRECTION('',(-4.96248435195758E-16,-1.,0.));
#198=FACE_BOUND('',#199,.T.);
#199=EDGE_LOOP('',(#808,#809,#810,#811));
#200=PLANE('',#201);
#201=AXIS2_PLACEMENT_3D('',#202,#203,#204);
#202=CARTESIAN_POINT('',(-15.5,-8.94892917243919,5.));
#203=DIRECTION('',(-0.500000000000001,-0.866025403784438,0.));
#204=DIRECTION('',(0.866025403784438,-0.500000000000001,0.));
#205=FACE_BOUND('',#206,.T.);
#206=EDGE_LOOP('',(#812,#813,#814,#815));
#207=PLANE('',#208);
#208=AXIS2_PLACEMENT_3D('',#209,#210,#211);
#209=CARTESIAN_POINT('',(-1.08776687155184E-14,-17.8978583448784,5.));
#210=DIRECTION('',(0.5,-0.866025403784439,0.));
#211=DIRECTION('',(0.866025403784439,0.5,0.));
#212=FACE_BOUND('',#213,.T.);
#213=EDGE_LOOP('',(#816,#817,#818,#819));
#214=PLANE('',#215);
#215=AXIS2_PLACEMENT_3D('',#216,#217,#218);
#216=CARTESIAN_POINT('',(15.5,-12.9489291724392,6.));
#217=DIRECTION('',(-0.707106781186547,6.79015048390513E-16,0.707106781186548));
#218=DIRECTION('',(9.60272290489288E-16,1.,-8.61552160902987E-32));
#219=FACE_BOUND('',#220,.T.);
#220=EDGE_LOOP('',(#820,#821,#822,#823));
#221=PLANE('',#222);
#222=AXIS2_PLACEMENT_3D('',#223,#224,#225);
#223=CARTESIAN_POINT('',(18.9641016151378,6.94892917243919,6.));
#224=DIRECTION('',(-0.353553390593273,-0.612372435695793,0.707106781186549));
#225=DIRECTION('',(-0.866025403784439,0.5,0.));
#226=FACE_BOUND('',#227,.T.);
#227=EDGE_LOOP('',(#824,#825,#826,#827));
#228=PLANE('',#229);
#229=AXIS2_PLACEMENT_3D('',#230,#231,#232);
#230=CARTESIAN_POINT('',(3.46410161513777,19.8978583448784,6.));
#231=DIRECTION('',(0.353553390593274,-0.612372435695795,0.707106781186547));
#232=DIRECTION('',(-0.866025403784439,-0.499999999999999,0.));
#233=FACE_BOUND('',#234,.T.);
#234=EDGE_LOOP('',(#828,#829,#830,#831));
#235=PLANE('',#236);
#236=AXIS2_PLACEMENT_3D('',#237,#238,#239);
#237=CARTESIAN_POINT('',(-15.5,12.9489291724392,6.));
#238=DIRECTION('',(0.707106781186547,-3.39507524195257E-16,0.707106781186548));
#239=DIRECTION('',(-4.80136145244644E-16,-1.,-4.30776080451494E-32));
#240=FACE_BOUND('',#241,.T.);
#241=EDGE_LOOP('',(#832,#833,#834,#835));
#242=PLANE('',#243);
#243=AXIS2_PLACEMENT_3D('',#244,#245,#246);
#244=CARTESIAN_POINT('',(-18.9641016151378,-6.94892917243919,6.));
#245=DIRECTION('',(0.353553390593274,0.612372435695794,0.707106781186548));
#246=DIRECTION('',(0.866025403784438,-0.500000000000001,-2.42505374425184E-17));
#247=FACE_BOUND('',#248,.T.);
#248=EDGE_LOOP('',(#836,#837,#838,#839));
#249=PLANE('',#250);
#250=AXIS2_PLACEMENT_3D('',#251,#252,#253);
#251=CARTESIAN_POINT('',(-3.46410161513776,-19.8978583448784,6.));
#252=DIRECTION('',(-0.353553390593274,0.612372435695795,0.707106781186547));
#253=DIRECTION('',(0.866025403784439,0.5,0.));
#254=FACE_BOUND('',#255,.T.);
#255=EDGE_LOOP('',(#840,#841,#842,#843,#844,#845));
#256=FACE_BOUND('',#257,.T.);
#257=EDGE_LOOP('',(#846));
#258=PLANE('',#259);
#259=AXIS2_PLACEMENT_3D('',#260,#261,#262);
#260=CARTESIAN_POINT('',(0.,0.,5.));
#261=DIRECTION('',(0.,0.,1.));
#262=DIRECTION('',(-1.,1.22464679914735E-16,0.));
#263=FACE_OUTER_BOUND('',#264,.T.);
#264=EDGE_LOOP('',(#847));
#265=FACE_OUTER_BOUND('',#266,.T.);
#266=EDGE_LOOP('',(#848));
#267=CONICAL_SURFACE('',#268,13.,0.785398163397448);
#268=AXIS2_PLACEMENT_3D('',#269,#270,#271);
#269=CARTESIAN_POINT('',(0.,0.,4.5));
#270=DIRECTION('',(0.,0.,1.));
#271=DIRECTION('',(-1.,1.22464679914735E-16,0.));
#272=FACE_OUTER_BOUND('',#273,.T.);
#273=EDGE_LOOP('',(#849));
#274=FACE_OUTER_BOUND('',#275,.T.);
#275=EDGE_LOOP('',(#850));
#276=CYLINDRICAL_SURFACE('',#277,12.5);
#277=AXIS2_PLACEMENT_3D('',#278,#279,#280);
#278=CARTESIAN_POINT('',(0.,0.,0.));
#279=DIRECTION('',(0.,0.,1.));
#280=DIRECTION('',(-1.,1.22464679914735E-16,0.));
#281=FACE_BOUND('',#282,.T.);
#282=EDGE_LOOP('',(#851));
#283=PLANE('',#284);
#284=AXIS2_PLACEMENT_3D('',#285,#286,#287);
#285=CARTESIAN_POINT('',(0.,0.,0.));
#286=DIRECTION('',(0.,0.,1.));
#287=DIRECTION('',(-1.,1.22464679914735E-16,0.));
#288=FACE_BOUND('',#289,.T.);
#289=EDGE_LOOP('',(#852,#853,#854));
#290=B_SPLINE_SURFACE_WITH_KNOTS('',3,1,(
(#291,#292),
(#293,#294),
(#295,#296),
(#297,#298),
(#299,#300),
(#301,#302),
(#303,#304),
(#305,#306),
(#307,#308),
(#309,#310),
(#311,#312)),
.UNSPECIFIED.,.F.,.F.,.F.,
(4,1,1,1,1,1,1,1,4),
(2,2),
(-1.27323954473516E-5,0.239904080976661,0.345394437083018,0.447680860133762,0.551874389801566,
0.657514637198239,0.763820134211851,0.86116008391384,1.00001273239545),
(0.,1.),
.UNSPECIFIED.);
#291=CARTESIAN_POINT('',(8.76573235058875,6.,9.));
#292=CARTESIAN_POINT('',(8.76575235058875,6.9999999998,10.));
#293=CARTESIAN_POINT('',(8.76573235058875,6.,9.));
#294=CARTESIAN_POINT('',(8.64010129890726,7.000164523525,10.));
#295=CARTESIAN_POINT('',(8.76573235058874,6.,8.99999999999999));
#296=CARTESIAN_POINT('',(8.45935307869391,6.96544333165,9.99999999999999));
#297=CARTESIAN_POINT('',(8.76573235058875,6.,9.00000000000001));
#298=CARTESIAN_POINT('',(8.24855671941412,6.86107065095991,10.));
#299=CARTESIAN_POINT('',(8.76573235058874,6.,9.));
#300=CARTESIAN_POINT('',(8.11545651642993,6.76547180599663,10.));
#301=CARTESIAN_POINT('',(8.76573235058875,6.,9.));
#302=CARTESIAN_POINT('',(7.9994689603706,6.6495650206818,10.));
#303=CARTESIAN_POINT('',(8.76573235058875,6.,9.));
#304=CARTESIAN_POINT('',(7.90283025447977,6.51447067936492,10.));
#305=CARTESIAN_POINT('',(8.76573235058875,6.,9.));
#306=CARTESIAN_POINT('',(7.83149172360042,6.36845973005779,10.));
#307=CARTESIAN_POINT('',(8.76573235058874,6.,9.));
#308=CARTESIAN_POINT('',(7.77927789584559,6.19634829840491,10.));
#309=CARTESIAN_POINT('',(8.76573235058875,6.,9.));
#310=CARTESIAN_POINT('',(7.7657192542163,6.07268416723756,10.));
#311=CARTESIAN_POINT('',(8.76573235058875,6.,9.));
#312=CARTESIAN_POINT('',(7.76573235078875,5.99998,10.));
#313=FACE_BOUND('',#314,.T.);
#314=EDGE_LOOP('',(#855,#856,#857,#858));
#315=PLANE('',#316);
#316=AXIS2_PLACEMENT_3D('',#317,#318,#319);
#317=CARTESIAN_POINT('',(7.76573235058875,10.,10.));
#318=DIRECTION('',(0.707106781186546,-1.43509146154337E-16,0.707106781186549));
#319=DIRECTION('',(-2.02952580816046E-16,-1.,0.));
#320=FACE_BOUND('',#321,.T.);
#321=EDGE_LOOP('',(#859,#860,#861,#862));
#322=CONICAL_SURFACE('',#323,1.5,0.785398163397448);
#323=AXIS2_PLACEMENT_3D('',#324,#325,#326);
#324=CARTESIAN_POINT('',(6.76573235058874,-3.50514166666667,9.5));
#325=DIRECTION('',(0.,0.,-1.));
#326=DIRECTION('',(0.707106781186547,0.707106781186548,0.));
#327=FACE_BOUND('',#328,.T.);
#328=EDGE_LOOP('',(#863,#864,#865,#866));
#329=PLANE('',#330);
#330=AXIS2_PLACEMENT_3D('',#331,#332,#333);
#331=CARTESIAN_POINT('',(10.7657323505887,-4.50514166666667,10.));
#332=DIRECTION('',(-1.65083756147984E-16,-0.707106781186547,0.707106781186548));
#333=DIRECTION('',(-1.,2.33463686871971E-16,0.));
#334=FACE_BOUND('',#335,.T.);
#335=EDGE_LOOP('',(#867,#868,#869,#870));
#336=CONICAL_SURFACE('',#337,1.5,0.785398163397448);
#337=AXIS2_PLACEMENT_3D('',#338,#339,#340);
#338=CARTESIAN_POINT('',(3.35267152386765,-3.50514166666667,9.5));
#339=DIRECTION('',(0.,0.,-1.));
#340=DIRECTION('',(0.707106781186548,-0.707106781186548,0.));
#341=FACE_BOUND('',#342,.T.);
#342=EDGE_LOOP('',(#871,#872,#873,#874));
#343=PLANE('',#344);
#344=AXIS2_PLACEMENT_3D('',#345,#346,#347);
#345=CARTESIAN_POINT('',(2.35267152386765,-7.50514166666667,10.));
#346=DIRECTION('',(-0.707106781186548,8.96932163464606E-17,0.707106781186548));
#347=DIRECTION('',(1.26845363010029E-16,1.,-7.96635791524208E-33));
#348=FACE_BOUND('',#349,.T.);
#349=EDGE_LOOP('',(#875,#876,#877));
#350=B_SPLINE_SURFACE_WITH_KNOTS('',3,1,(
(#351,#352),
(#353,#354),
(#355,#356),
(#357,#358),
(#359,#360),
(#361,#362),
(#363,#364),
(#365,#366),
(#367,#368),
(#369,#370),
(#371,#372)),
.UNSPECIFIED.,.F.,.F.,.F.,
(4,1,1,1,1,1,1,1,4),
(2,2),
(-1.27323954473516E-5,0.239904080975928,0.345394437082292,0.447680860133108,0.551874389800974,
0.657514637197631,0.763820134211279,0.861160083913298,1.00001273239545),
(0.,1.),
.UNSPECIFIED.);
#351=CARTESIAN_POINT('',(1.35267152386765,6.,9.));
#352=CARTESIAN_POINT('',(2.35267152366765,5.99998,10.));
#353=CARTESIAN_POINT('',(1.35267152386765,6.,9.));
#354=CARTESIAN_POINT('',(2.35283604739265,6.1256310516811,10.));
#355=CARTESIAN_POINT('',(1.35267152386765,6.,9.));
#356=CARTESIAN_POINT('',(2.31811485551784,6.30637927189407,10.));
#357=CARTESIAN_POINT('',(1.35267152386765,6.,9.));
#358=CARTESIAN_POINT('',(2.21374217482814,6.51717563117368,10.));
#359=CARTESIAN_POINT('',(1.35267152386765,6.,9.));
#360=CARTESIAN_POINT('',(2.11814332986496,6.65027583415803,10.));
#361=CARTESIAN_POINT('',(1.35267152386765,6.,8.99999999999999));
#362=CARTESIAN_POINT('',(2.0022365445502,6.76626339021752,10.));
#363=CARTESIAN_POINT('',(1.35267152386765,6.,9.));
#364=CARTESIAN_POINT('',(1.86714220323337,6.8629020961085,10.));
#365=CARTESIAN_POINT('',(1.35267152386765,6.,9.));
#366=CARTESIAN_POINT('',(1.72113125392629,6.934240626988,10.));
#367=CARTESIAN_POINT('',(1.35267152386765,6.,8.99999999999999));
#368=CARTESIAN_POINT('',(1.54901982227315,6.98645445474307,9.99999999999999));
#369=CARTESIAN_POINT('',(1.35267152386765,6.,9.00000000000001));
#370=CARTESIAN_POINT('',(1.42535569110549,7.00001309637245,10.));
#371=CARTESIAN_POINT('',(1.35267152386765,6.,9.));
#372=CARTESIAN_POINT('',(1.35265152386765,6.9999999998,10.));
#373=FACE_BOUND('',#374,.T.);
#374=EDGE_LOOP('',(#878,#879,#880,#881));
#375=PLANE('',#376);
#376=AXIS2_PLACEMENT_3D('',#377,#378,#379);
#377=CARTESIAN_POINT('',(5.35267152386765,7.,10.));
#378=DIRECTION('',(0.,-0.707106781186547,0.707106781186548));
#379=DIRECTION('',(-1.,0.,0.));
#380=FACE_BOUND('',#381,.T.);
#381=EDGE_LOOP('',(#882,#883,#884));
#382=B_SPLINE_SURFACE_WITH_KNOTS('',3,1,(
(#383,#384),
(#385,#386),
(#387,#388),
(#389,#390),
(#391,#392),
(#393,#394),
(#395,#396),
(#397,#398),
(#399,#400),
(#401,#402),
(#403,#404)),
.UNSPECIFIED.,.F.,.F.,.F.,
(4,1,1,1,1,1,1,1,4),
(2,2),
(-1.27323954473516E-5,0.239904080975778,0.345394437082072,0.447680860132838,0.551874389800656,
0.657514637197306,0.763820134210924,0.861160083913035,1.00001273239545),
(0.,1.),
.UNSPECIFIED.);
#383=CARTESIAN_POINT('',(0.561234697871367,6.,9.));
#384=CARTESIAN_POINT('',(0.561254697871366,6.9999999998,10.));
#385=CARTESIAN_POINT('',(0.561234697871367,6.,9.));
#386=CARTESIAN_POINT('',(0.435603646190349,7.00016452352499,10.));
#387=CARTESIAN_POINT('',(0.561234697871367,6.,9.));
#388=CARTESIAN_POINT('',(0.254855425977492,6.96544333165023,9.99999999999999));
#389=CARTESIAN_POINT('',(0.561234697871367,6.,9.));
#390=CARTESIAN_POINT('',(0.044059066697984,6.86107065096065,10.));
#391=CARTESIAN_POINT('',(0.561234697871367,6.,9.));
#392=CARTESIAN_POINT('',(-0.0890411362863371,6.76547180599758,10.));
#393=CARTESIAN_POINT('',(0.561234697871367,6.,9.));
#394=CARTESIAN_POINT('',(-0.20502869234584,6.64956502068291,10.));
#395=CARTESIAN_POINT('',(0.561234697871367,6.,9.));
#396=CARTESIAN_POINT('',(-0.301667398236857,6.51447067936617,10.));
#397=CARTESIAN_POINT('',(0.561234697871367,6.,9.));
#398=CARTESIAN_POINT('',(-0.373005929116447,6.3684597300591,10.));
#399=CARTESIAN_POINT('',(0.561234697871367,6.,9.));
#400=CARTESIAN_POINT('',(-0.425219756871657,6.19634829840582,10.));
#401=CARTESIAN_POINT('',(0.561234697871367,6.,9.));
#402=CARTESIAN_POINT('',(-0.438778398501083,6.07268416723798,10.));
#403=CARTESIAN_POINT('',(0.561234697871367,6.,9.));
#404=CARTESIAN_POINT('',(-0.438765301928633,5.99998,10.));
#405=FACE_BOUND('',#406,.T.);
#406=EDGE_LOOP('',(#885,#886,#887,#888));
#407=PLANE('',#408);
#408=AXIS2_PLACEMENT_3D('',#409,#410,#411);
#409=CARTESIAN_POINT('',(-0.438765302128632,10.,10.));
#410=DIRECTION('',(0.707106781186547,-8.71173981236908E-17,0.707106781186547));
#411=DIRECTION('',(-1.2320260594518E-16,-1.,-7.03416299944421E-33));
#412=FACE_BOUND('',#413,.T.);
#413=EDGE_LOOP('',(#889,#890,#891));
#414=B_SPLINE_SURFACE_WITH_KNOTS('',3,1,(
(#415,#416),
(#417,#418),
(#419,#420),
(#421,#422),
(#423,#424),
(#425,#426),
(#427,#428),
(#429,#430),
(#431,#432),
(#433,#434),
(#435,#436)),
.UNSPECIFIED.,.F.,.F.,.F.,
(4,1,1,1,1,1,1,1,4),
(2,2),
(-1.27323954473516E-5,0.239904080976034,0.345394437082355,0.447680860133106,0.55187438980091,
0.657514637197547,0.763820134211161,0.86116008391324,1.00001273239545),
(0.,1.),
.UNSPECIFIED.);
#415=CARTESIAN_POINT('',(0.561234697871366,-5.8249918127718,9.));
#416=CARTESIAN_POINT('',(-0.438765301928634,-5.82497181277181,10.));
#417=CARTESIAN_POINT('',(0.561234697871366,-5.8249918127718,9.));
#418=CARTESIAN_POINT('',(-0.438929825653631,-5.95062286445296,10.));
#419=CARTESIAN_POINT('',(0.561234697871366,-5.8249918127718,9.));
#420=CARTESIAN_POINT('',(-0.404208633778801,-6.13137108466596,10.));
#421=CARTESIAN_POINT('',(0.561234697871366,-5.8249918127718,9.));
#422=CARTESIAN_POINT('',(-0.299835953089069,-6.34216744394555,10.));
#423=CARTESIAN_POINT('',(0.561234697871366,-5.8249918127718,9.));
#424=CARTESIAN_POINT('',(-0.204237108125941,-6.47526764692983,10.));
#425=CARTESIAN_POINT('',(0.561234697871366,-5.8249918127718,9.));
#426=CARTESIAN_POINT('',(-0.0883303228112392,-6.59125520298927,10.));
#427=CARTESIAN_POINT('',(0.561234697871366,-5.82499181277181,9.));
#428=CARTESIAN_POINT('',(0.0467640185055261,-6.68789390888023,10.));
#429=CARTESIAN_POINT('',(0.561234697871366,-5.8249918127718,9.));
#430=CARTESIAN_POINT('',(0.192774967812603,-6.75923243975975,10.));
#431=CARTESIAN_POINT('',(0.561234697871366,-5.8249918127718,9.));
#432=CARTESIAN_POINT('',(0.364886399465779,-6.81144626751486,10.));
#433=CARTESIAN_POINT('',(0.561234697871366,-5.8249918127718,9.));
#434=CARTESIAN_POINT('',(0.488550530633496,-6.82500490914425,10.));
#435=CARTESIAN_POINT('',(0.561234697871366,-5.8249918127718,9.));
#436=CARTESIAN_POINT('',(0.561254697871364,-6.8249918125718,10.));
#437=FACE_BOUND('',#438,.T.);
#438=EDGE_LOOP('',(#892,#893,#894,#895));
#439=PLANE('',#440);
#440=AXIS2_PLACEMENT_3D('',#441,#442,#443);
#441=CARTESIAN_POINT('',(-3.43876530212863,-6.8249918127718,10.));
#442=DIRECTION('',(3.69521890226211E-17,0.707106781186548,0.707106781186547));
#443=DIRECTION('',(1.,-5.22582868751649E-17,0.));
#444=FACE_BOUND('',#445,.T.);
#445=EDGE_LOOP('',(#896,#897,#898));
#446=B_SPLINE_SURFACE_WITH_KNOTS('',3,1,(
(#447,#448),
(#449,#450),
(#451,#452),
(#453,#454),
(#455,#456),
(#457,#458),
(#459,#460),
(#461,#462),
(#463,#464),
(#465,#466),
(#467,#468)),
.UNSPECIFIED.,.F.,.F.,.F.,
(4,1,1,1,1,1,1,1,4),
(2,2),
(-1.27323954473516E-5,0.239904080975487,0.345394437081746,0.447680860132501,0.551874389800336,
0.657514637196974,0.763820134210622,0.861160083912749,1.00001273239545),
(0.,1.),
.UNSPECIFIED.);
#447=CARTESIAN_POINT('',(9.55716917658503,-5.8249918127718,9.));
#448=CARTESIAN_POINT('',(9.55714917658503,-6.8249918125718,10.));
#449=CARTESIAN_POINT('',(9.55716917658503,-5.8249918127718,9.));
#450=CARTESIAN_POINT('',(9.68280022826589,-6.82515633629679,10.));
#451=CARTESIAN_POINT('',(9.55716917658503,-5.8249918127718,9.));
#452=CARTESIAN_POINT('',(9.86354844847859,-6.79043514442211,10.));
#453=CARTESIAN_POINT('',(9.55716917658503,-5.8249918127718,9.));
#454=CARTESIAN_POINT('',(10.074344807758,-6.68606246373271,10.));
#455=CARTESIAN_POINT('',(9.55716917658503,-5.8249918127718,9.));
#456=CARTESIAN_POINT('',(10.2074450107423,-6.59046361876972,10.));
#457=CARTESIAN_POINT('',(9.55716917658503,-5.8249918127718,8.99999999999999));
#458=CARTESIAN_POINT('',(10.3234325668019,-6.47455683345511,10.));
#459=CARTESIAN_POINT('',(9.55716917658503,-5.8249918127718,9.));
#460=CARTESIAN_POINT('',(10.420071272693,-6.33946249213841,10.));
#461=CARTESIAN_POINT('',(9.55716917658503,-5.8249918127718,9.));
#462=CARTESIAN_POINT('',(10.4914098035727,-6.19345154283135,10.));
#463=CARTESIAN_POINT('',(9.55716917658504,-5.8249918127718,9.));
#464=CARTESIAN_POINT('',(10.543623631328,-6.02134011117793,10.));
#465=CARTESIAN_POINT('',(9.55716917658503,-5.8249918127718,9.));
#466=CARTESIAN_POINT('',(10.5571822729575,-5.89767598000993,10.));
#467=CARTESIAN_POINT('',(9.55716917658503,-5.8249918127718,9.));
#468=CARTESIAN_POINT('',(10.557169176385,-5.8249718127718,10.));
#469=FACE_BOUND('',#470,.T.);
#470=EDGE_LOOP('',(#899,#900,#901,#902));
#471=PLANE('',#472);
#472=AXIS2_PLACEMENT_3D('',#473,#474,#475);
#473=CARTESIAN_POINT('',(10.557169176585,-9.8249918127718,10.));
#474=DIRECTION('',(-0.707106781186547,0.,0.707106781186548));
#475=DIRECTION('',(0.,1.,0.));
#476=FACE_BOUND('',#477,.T.);
#477=EDGE_LOOP('',(#903,#904,#905));
#478=B_SPLINE_SURFACE_WITH_KNOTS('',3,1,(
(#479,#480),
(#481,#482),
(#483,#484),
(#485,#486),
(#487,#488),
(#489,#490),
(#491,#492),
(#493,#494),
(#495,#496),
(#497,#498),
(#499,#500)),
.UNSPECIFIED.,.F.,.F.,.F.,
(4,1,1,1,1,1,1,1,4),
(2,2),
(-1.27323954473516E-5,0.239904080975733,0.345394437082049,0.44768086013285,0.551874389800674,
0.657514637197341,0.763820134210946,0.861160083913097,1.00001273239545),
(0.,1.),
.UNSPECIFIED.);
#479=CARTESIAN_POINT('',(9.55716917658503,6.,9.));
#480=CARTESIAN_POINT('',(10.557169176385,5.99998,10.));
#481=CARTESIAN_POINT('',(9.55716917658503,6.,9.));
#482=CARTESIAN_POINT('',(10.55733370011,6.12563105168099,10.));
#483=CARTESIAN_POINT('',(9.55716917658503,6.,9.));
#484=CARTESIAN_POINT('',(10.5226125082353,6.30637927189384,10.));
#485=CARTESIAN_POINT('',(9.55716917658503,6.,9.));
#486=CARTESIAN_POINT('',(10.4182398275457,6.51717563117336,10.));
#487=CARTESIAN_POINT('',(9.55716917658503,6.,9.));
#488=CARTESIAN_POINT('',(10.3226409825826,6.65027583415771,10.));
#489=CARTESIAN_POINT('',(9.55716917658503,6.,9.));
#490=CARTESIAN_POINT('',(10.2067341972679,6.76626339021723,10.));
#491=CARTESIAN_POINT('',(9.55716917658503,6.,9.));
#492=CARTESIAN_POINT('',(10.0716398559512,6.86290209610825,10.));
#493=CARTESIAN_POINT('',(9.55716917658503,6.,9.));
#494=CARTESIAN_POINT('',(9.92562890664407,6.93424062698784,10.));
#495=CARTESIAN_POINT('',(9.55716917658503,6.,9.));
#496=CARTESIAN_POINT('',(9.75351747499081,6.98645445474303,10.));
#497=CARTESIAN_POINT('',(9.55716917658503,6.,9.));
#498=CARTESIAN_POINT('',(9.62985334382298,7.00001309637245,10.));
#499=CARTESIAN_POINT('',(9.55716917658503,6.,9.));
#500=CARTESIAN_POINT('',(9.55714917658503,6.9999999998,10.));
#501=FACE_BOUND('',#502,.T.);
#502=EDGE_LOOP('',(#906,#907,#908,#909));
#503=PLANE('',#504);
#504=AXIS2_PLACEMENT_3D('',#505,#506,#507);
#505=CARTESIAN_POINT('',(13.557169176585,7.,10.));
#506=DIRECTION('',(0.,-0.707106781186547,0.707106781186548));
#507=DIRECTION('',(-1.,0.,0.));
#508=FACE_BOUND('',#509,.T.);
#509=EDGE_LOOP('',(#910,#911,#912));
#510=B_SPLINE_SURFACE_WITH_KNOTS('',3,1,(
(#511,#512),
(#513,#514),
(#515,#516),
(#517,#518),
(#519,#520),
(#521,#522),
(#523,#524),
(#525,#526),
(#527,#528),
(#529,#530),
(#531,#532)),
.UNSPECIFIED.,.F.,.F.,.F.,
(4,1,1,1,1,1,1,1,4),
(2,2),
(-1.27323954473516E-5,0.239904080971372,0.345394437077039,0.447680860127747,0.551874389795553,
0.657514637192206,0.763820134205848,0.861160083908511,1.00001273239545),
(0.,1.),
.UNSPECIFIED.);
#511=CARTESIAN_POINT('',(-9.9661227384856,-2.01514066739147,9.));
#512=CARTESIAN_POINT('',(-10.9661227382856,-2.01512066739147,10.));
#513=CARTESIAN_POINT('',(-9.9661227384856,-2.01514066739147,9.));
#514=CARTESIAN_POINT('',(-10.9662872620106,-2.14077171907018,10.));
#515=CARTESIAN_POINT('',(-9.9661227384856,-2.01514066739147,9.));
#516=CARTESIAN_POINT('',(-10.931566070137,-2.32151993928041,10.));
#517=CARTESIAN_POINT('',(-9.9661227384856,-2.01514066739147,9.));
#518=CARTESIAN_POINT('',(-10.8271933894502,-2.53231629855828,10.));
#519=CARTESIAN_POINT('',(-9.9661227384856,-2.01514066739147,9.));
#520=CARTESIAN_POINT('',(-10.7315945444884,-2.66541650154307,10.));
#521=CARTESIAN_POINT('',(-9.9661227384856,-2.01514066739147,9.));
#522=CARTESIAN_POINT('',(-10.6156877591746,-2.78140405760348,10.));
#523=CARTESIAN_POINT('',(-9.9661227384856,-2.01514066739147,9.));
#524=CARTESIAN_POINT('',(-10.4805934178587,-2.87804276349558,10.));
#525=CARTESIAN_POINT('',(-9.96612273848561,-2.01514066739147,9.));
#526=CARTESIAN_POINT('',(-10.3345824685519,-2.94938129437647,10.));
#527=CARTESIAN_POINT('',(-9.9661227384856,-2.01514066739147,9.));
#528=CARTESIAN_POINT('',(-10.1624710368964,-3.00159512213376,10.));
#529=CARTESIAN_POINT('',(-9.9661227384856,-2.01514066739147,9.));
#530=CARTESIAN_POINT('',(-10.038806905726,-3.01515376376392,10.));
#531=CARTESIAN_POINT('',(-9.9661227384856,-2.01514066739147,9.));
#532=CARTESIAN_POINT('',(-9.9661027384856,-3.01514066719147,10.));
#533=FACE_BOUND('',#534,.T.);
#534=EDGE_LOOP('',(#913,#914,#915,#916));
#535=PLANE('',#536);
#536=AXIS2_PLACEMENT_3D('',#537,#538,#539);
#537=CARTESIAN_POINT('',(-13.9661227384856,-3.01514066739147,10.));
#538=DIRECTION('',(8.33899785948538E-17,0.707106781186548,0.707106781186548));
#539=DIRECTION('',(1.,-1.17931238694844E-16,0.));
#540=FACE_BOUND('',#541,.T.);
#541=EDGE_LOOP('',(#917,#918,#919));
#542=B_SPLINE_SURFACE_WITH_KNOTS('',3,1,(
(#543,#544),
(#545,#546),
(#547,#548),
(#549,#550),
(#551,#552),
(#553,#554),
(#555,#556),
(#557,#558),
(#559,#560),
(#561,#562),
(#563,#564)),
.UNSPECIFIED.,.F.,.F.,.F.,
(4,1,1,1,1,1,1,1,4),
(2,2),
(-1.27323954473516E-5,0.239904080975683,0.345394437081989,0.447680860132788,0.551874389800652,
0.657514637197315,0.763820134210965,0.86116008391305,1.00001273239545),
(0.,1.),
.UNSPECIFIED.);
#543=CARTESIAN_POINT('',(-2.90347386733533,-2.01514066739147,9.));
#544=CARTESIAN_POINT('',(-2.90349386733533,-3.01514066719147,10.));
#545=CARTESIAN_POINT('',(-2.90347386733533,-2.01514066739147,9.));
#546=CARTESIAN_POINT('',(-2.77784281565436,-3.01530519091646,10.));
#547=CARTESIAN_POINT('',(-2.90347386733533,-2.01514066739147,9.));
#548=CARTESIAN_POINT('',(-2.59709459544155,-2.98058399904173,10.));
#549=CARTESIAN_POINT('',(-2.90347386733533,-2.01514066739147,9.));
#550=CARTESIAN_POINT('',(-2.38629823616205,-2.87621131835219,10.));
#551=CARTESIAN_POINT('',(-2.90347386733533,-2.01514066739147,9.));
#552=CARTESIAN_POINT('',(-2.25319803317768,-2.7806124733891,10.));
#553=CARTESIAN_POINT('',(-2.90347386733533,-2.01514066739147,9.));
#554=CARTESIAN_POINT('',(-2.13721047711813,-2.6647056880744,10.));
#555=CARTESIAN_POINT('',(-2.90347386733533,-2.01514066739147,9.));
#556=CARTESIAN_POINT('',(-2.04057177122709,-2.52961134675762,10.));
#557=CARTESIAN_POINT('',(-2.90347386733533,-2.01514066739147,9.));
#558=CARTESIAN_POINT('',(-1.9692332403475,-2.38360039745054,10.));
#559=CARTESIAN_POINT('',(-2.90347386733533,-2.01514066739147,9.));
#560=CARTESIAN_POINT('',(-1.9170194125923,-2.21148896579726,10.));
#561=CARTESIAN_POINT('',(-2.90347386733533,-2.01514066739147,9.));
#562=CARTESIAN_POINT('',(-1.90346077096288,-2.08782483462944,10.));
#563=CARTESIAN_POINT('',(-2.90347386733533,-2.01514066739147,9.));
#564=CARTESIAN_POINT('',(-1.90347386753533,-2.01512066739147,10.));
#565=FACE_BOUND('',#566,.T.);
#566=EDGE_LOOP('',(#920,#921,#922,#923));
#567=PLANE('',#568);
#568=AXIS2_PLACEMENT_3D('',#569,#570,#571);
#569=CARTESIAN_POINT('',(-1.90347386733533,-3.00017325366852,10.));
#570=DIRECTION('',(-0.707106781186548,1.48768644664176E-16,0.707106781186547));
#571=DIRECTION('',(2.10390634939942E-16,1.,0.));
#572=FACE_BOUND('',#573,.T.);
#573=EDGE_LOOP('',(#924,#925,#926));
#574=B_SPLINE_SURFACE_WITH_KNOTS('',3,1,(
(#575,#576),
(#577,#578),
(#579,#580),
(#581,#582),
(#583,#584),
(#585,#586),
(#587,#588),
(#589,#590),
(#591,#592),
(#593,#594),
(#595,#596)),
.UNSPECIFIED.,.F.,.F.,.F.,
(4,1,1,1,1,1,1,1,4),
(2,2),
(-1.27323954473516E-5,0.239904080975634,0.345394437081905,0.44768086013266,0.551874389800475,
0.657514637197116,0.763820134210742,0.861160083912867,1.00001273239545),
(0.,1.),
.UNSPECIFIED.);
#575=CARTESIAN_POINT('',(-2.90347386733533,-1.87442172649475,9.));
#576=CARTESIAN_POINT('',(-1.90347386753533,-1.87444172649475,10.));
#577=CARTESIAN_POINT('',(-2.90347386733533,-1.87442172649475,9.));
#578=CARTESIAN_POINT('',(-1.90330934381033,-1.74879067481381,10.));
#579=CARTESIAN_POINT('',(-2.90347386733533,-1.87442172649475,9.));
#580=CARTESIAN_POINT('',(-1.93803053568506,-1.56804245460103,10.));
#581=CARTESIAN_POINT('',(-2.90347386733533,-1.87442172649475,9.));
#582=CARTESIAN_POINT('',(-2.04240321637454,-1.35724609532159,10.));
#583=CARTESIAN_POINT('',(-2.90347386733533,-1.87442172649475,9.));
#584=CARTESIAN_POINT('',(-2.13800206133757,-1.22414589233726,10.));
#585=CARTESIAN_POINT('',(-2.90347386733533,-1.87442172649475,9.));
#586=CARTESIAN_POINT('',(-2.2539088466522,-1.10815833627773,10.));
#587=CARTESIAN_POINT('',(-2.90347386733533,-1.87442172649475,9.));
#588=CARTESIAN_POINT('',(-2.38900318796891,-1.01151963038667,10.));
#589=CARTESIAN_POINT('',(-2.90347386733533,-1.87442172649475,9.));
#590=CARTESIAN_POINT('',(-2.53501413727596,-0.940181099507038,10.));
#591=CARTESIAN_POINT('',(-2.90347386733533,-1.87442172649475,9.));
#592=CARTESIAN_POINT('',(-2.70712556892932,-0.887967271751751,10.));
#593=CARTESIAN_POINT('',(-2.90347386733533,-1.87442172649475,9.));
#594=CARTESIAN_POINT('',(-2.83078970009726,-0.874408630122298,10.));
#595=CARTESIAN_POINT('',(-2.90347386733533,-1.87442172649475,9.));
#596=CARTESIAN_POINT('',(-2.90349386733533,-0.874421726694748,10.));
#597=FACE_BOUND('',#598,.T.);
#598=EDGE_LOOP('',(#927,#928,#929,#930));
#599=PLANE('',#600);
#600=AXIS2_PLACEMENT_3D('',#601,#602,#603);
#601=CARTESIAN_POINT('',(1.09652613266467,-0.874421726494749,10.));
#602=DIRECTION('',(-9.99931168888038E-17,-0.707106781186547,0.707106781186548));
#603=DIRECTION('',(-1.,1.41411622048105E-16,0.));
#604=FACE_BOUND('',#605,.T.);
#605=EDGE_LOOP('',(#931,#932,#933,#934));
#606=PLANE('',#607);
#607=AXIS2_PLACEMENT_3D('',#608,#609,#610);
#608=CARTESIAN_POINT('',(-5.10977735999828,-4.87442172649475,10.));
#609=DIRECTION('',(-0.707106781186548,8.44452302108434E-17,0.707106781186548));
#610=DIRECTION('',(1.19423589841893E-16,1.,0.));
#611=FACE_BOUND('',#612,.T.);
#612=EDGE_LOOP('',(#935,#936,#937));
#613=B_SPLINE_SURFACE_WITH_KNOTS('',3,1,(
(#614,#615),
(#616,#617),
(#618,#619),
(#620,#621),
(#622,#623),
(#624,#625),
(#626,#627),
(#628,#629),
(#630,#631),
(#632,#633),
(#634,#635)),
.UNSPECIFIED.,.F.,.F.,.F.,
(4,1,1,1,1,1,1,1,4),
(2,2),
(-1.27323954473516E-5,0.239904080975985,0.345394437082281,0.447680860133012,0.551874389800795,
0.657514637197419,0.763820134211019,0.861160083913168,1.00001273239545),
(0.,1.),
.UNSPECIFIED.);
#614=CARTESIAN_POINT('',(-6.10977735999828,6.,9.));
#615=CARTESIAN_POINT('',(-5.10977736019828,5.99998,10.));
#616=CARTESIAN_POINT('',(-6.10977735999828,6.,9.));
#617=CARTESIAN_POINT('',(-5.10961283647328,6.12563105168112,10.));
#618=CARTESIAN_POINT('',(-6.10977735999827,5.99999999999999,8.99999999999999));
#619=CARTESIAN_POINT('',(-5.14433402834809,6.30637927189409,9.99999999999999));
#620=CARTESIAN_POINT('',(-6.10977735999828,6.,9.));
#621=CARTESIAN_POINT('',(-5.24870670903779,6.51717563117365,10.));
#622=CARTESIAN_POINT('',(-6.10977735999828,6.,9.));
#623=CARTESIAN_POINT('',(-5.34430555400088,6.65027583415791,10.));
#624=CARTESIAN_POINT('',(-6.10977735999828,6.,9.));
#625=CARTESIAN_POINT('',(-5.46021233931554,6.76626339021735,10.));
#626=CARTESIAN_POINT('',(-6.10977735999828,6.,9.));
#627=CARTESIAN_POINT('',(-5.59530668063227,6.86290209610832,10.));
#628=CARTESIAN_POINT('',(-6.10977735999828,6.,9.));
#629=CARTESIAN_POINT('',(-5.74131762993935,6.93424062698788,10.));
#630=CARTESIAN_POINT('',(-6.10977735999828,6.,9.));
#631=CARTESIAN_POINT('',(-5.91342906159258,6.98645445474304,10.));
#632=CARTESIAN_POINT('',(-6.10977735999827,6.,9.));
#633=CARTESIAN_POINT('',(-6.03709319276037,7.00001309637245,10.));
#634=CARTESIAN_POINT('',(-6.10977735999828,6.,9.));
#635=CARTESIAN_POINT('',(-6.10979735999828,6.9999999998,10.));
#636=FACE_BOUND('',#637,.T.);
#637=EDGE_LOOP('',(#938,#939,#940,#941));
#638=PLANE('',#639);
#639=AXIS2_PLACEMENT_3D('',#640,#641,#642);
#640=CARTESIAN_POINT('',(-2.10977735999828,7.,10.));
#641=DIRECTION('',(0.,-0.707106781186547,0.707106781186548));
#642=DIRECTION('',(-1.,0.,0.));
#643=FACE_BOUND('',#644,.T.);
#644=EDGE_LOOP('',(#942,#943,#944));
#645=B_SPLINE_SURFACE_WITH_KNOTS('',3,1,(
(#646,#647),
(#648,#649),
(#650,#651),
(#652,#653),
(#654,#655),
(#656,#657),
(#658,#659),
(#660,#661),
(#662,#663),
(#664,#665),
(#666,#667)),
.UNSPECIFIED.,.F.,.F.,.F.,
(4,1,1,1,1,1,1,1,4),
(2,2),
(-1.27323954473516E-5,0.239904080975299,0.345394437081509,0.447680860132264,0.55187438980008,
0.657514637196729,0.763820134210384,0.861160083912517,1.00001273239545),
(0.,1.),
.UNSPECIFIED.);
#646=CARTESIAN_POINT('',(-6.75976136733532,6.,9.));
#647=CARTESIAN_POINT('',(-6.75974136733533,6.9999999998,10.));
#648=CARTESIAN_POINT('',(-6.75976136733532,6.,9.));
#649=CARTESIAN_POINT('',(-6.88539241901609,7.00016452352499,10.));
#650=CARTESIAN_POINT('',(-6.75976136733533,6.,9.));
#651=CARTESIAN_POINT('',(-7.06614063922865,6.96544333165036,10.));
#652=CARTESIAN_POINT('',(-6.75976136733532,6.,9.));
#653=CARTESIAN_POINT('',(-7.27693699850798,6.86107065096109,10.));
#654=CARTESIAN_POINT('',(-6.75976136733532,6.,9.));
#655=CARTESIAN_POINT('',(-7.41003720149234,6.76547180599817,10.));
#656=CARTESIAN_POINT('',(-6.75976136733533,6.,9.));
#657=CARTESIAN_POINT('',(-7.52602475755195,6.6495650206836,10.));
#658=CARTESIAN_POINT('',(-6.75976136733532,6.,9.));
#659=CARTESIAN_POINT('',(-7.62266346344309,6.51447067936694,10.));
#660=CARTESIAN_POINT('',(-6.75976136733533,6.,9.));
#661=CARTESIAN_POINT('',(-7.69400199432283,6.3684597300599,10.));
#662=CARTESIAN_POINT('',(-6.75976136733533,6.,9.));
#663=CARTESIAN_POINT('',(-7.74621582207827,6.19634829840637,10.));
#664=CARTESIAN_POINT('',(-6.75976136733532,6.,8.99999999999999));
#665=CARTESIAN_POINT('',(-7.75977446370777,6.07268416723825,9.99999999999999));
#666=CARTESIAN_POINT('',(-6.75976136733532,6.,9.));
#667=CARTESIAN_POINT('',(-7.75976136713532,5.99998,10.));
#668=FACE_BOUND('',#669,.T.);
#669=EDGE_LOOP('',(#945,#946,#947,#948));
#670=PLANE('',#671);
#671=AXIS2_PLACEMENT_3D('',#672,#673,#674);
#672=CARTESIAN_POINT('',(-7.75976136733532,10.,10.));
#673=DIRECTION('',(0.707106781186548,-8.44452302108434E-17,0.707106781186548));
#674=DIRECTION('',(-1.19423589841893E-16,-1.,0.));
#675=FACE_BOUND('',#676,.T.);
#676=EDGE_LOOP('',(#949,#950,#951,#952));
#677=PLANE('',#678);
#678=AXIS2_PLACEMENT_3D('',#679,#680,#681);
#679=CARTESIAN_POINT('',(-3.75976136733533,-0.874421726494748,10.));
#680=DIRECTION('',(-7.69173460348887E-17,-0.707106781186547,0.707106781186548));
#681=DIRECTION('',(-1.,1.08777553944284E-16,-6.83163268487952E-33));
#682=FACE_BOUND('',#683,.T.);
#683=EDGE_LOOP('',(#953,#954,#955));
#684=B_SPLINE_SURFACE_WITH_KNOTS('',3,1,(
(#685,#686),
(#687,#688),
(#689,#690),
(#691,#692),
(#693,#694),
(#695,#696),
(#697,#698),
(#699,#700),
(#701,#702),
(#703,#704),
(#705,#706)),
.UNSPECIFIED.,.F.,.F.,.F.,
(4,1,1,1,1,1,1,1,4),
(2,2),
(-1.27323954473516E-5,0.239904080975111,0.345394437081266,0.447680860131985,0.551874389799775,
0.657514637196424,0.763820134210038,0.861160083912247,1.00001273239545),
(0.,1.),
.UNSPECIFIED.);
#685=CARTESIAN_POINT('',(-9.9661227384856,-1.87442172649475,9.));
#686=CARTESIAN_POINT('',(-9.9661027384856,-0.874421726694748,10.));
#687=CARTESIAN_POINT('',(-9.9661227384856,-1.87442172649475,9.));
#688=CARTESIAN_POINT('',(-10.0917537901663,-0.874257202969754,10.));
#689=CARTESIAN_POINT('',(-9.9661227384856,-1.87442172649475,9.));
#690=CARTESIAN_POINT('',(-10.2725020103787,-0.908978394844334,10.));
#691=CARTESIAN_POINT('',(-9.9661227384856,-1.87442172649475,9.));
#692=CARTESIAN_POINT('',(-10.4832983696579,-1.01335107553347,10.));
#693=CARTESIAN_POINT('',(-9.9661227384856,-1.87442172649475,9.));
#694=CARTESIAN_POINT('',(-10.6163985726423,-1.1089499204963,10.));
#695=CARTESIAN_POINT('',(-9.9661227384856,-1.87442172649475,9.));
#696=CARTESIAN_POINT('',(-10.7323861287019,-1.22485670581079,10.));
#697=CARTESIAN_POINT('',(-9.9661227384856,-1.87442172649475,9.));
#698=CARTESIAN_POINT('',(-10.8290248345931,-1.35995104712738,10.));
#699=CARTESIAN_POINT('',(-9.9661227384856,-1.87442172649475,9.));
#700=CARTESIAN_POINT('',(-10.9003633654729,-1.5059619964344,10.));
#701=CARTESIAN_POINT('',(-9.96612273848561,-1.87442172649475,9.));
#702=CARTESIAN_POINT('',(-10.9525771932285,-1.67807342808805,10.));
#703=CARTESIAN_POINT('',(-9.9661227384856,-1.87442172649475,9.));
#704=CARTESIAN_POINT('',(-10.9661358348581,-1.80173755925636,10.));
#705=CARTESIAN_POINT('',(-9.9661227384856,-1.87442172649475,9.));
#706=CARTESIAN_POINT('',(-10.9661227382856,-1.87444172649475,10.));
#707=FACE_BOUND('',#708,.T.);
#708=EDGE_LOOP('',(#956,#957,#958,#959));
#709=PLANE('',#710);
#710=AXIS2_PLACEMENT_3D('',#711,#712,#713);
#711=CARTESIAN_POINT('',(-10.9661227384856,-0.889389140217693,10.));
#712=DIRECTION('',(0.70710678118655,0.,0.707106781186545));
#713=DIRECTION('',(0.,-1.,0.));
#714=ORIENTED_EDGE('',*,*,#960,.T.);
#715=ORIENTED_EDGE('',*,*,#961,.T.);
#716=ORIENTED_EDGE('',*,*,#962,.T.);
#717=ORIENTED_EDGE('',*,*,#963,.T.);
#718=ORIENTED_EDGE('',*,*,#964,.T.);
#719=ORIENTED_EDGE('',*,*,#965,.T.);
#720=ORIENTED_EDGE('',*,*,#966,.F.);
#721=ORIENTED_EDGE('',*,*,#967,.T.);
#722=ORIENTED_EDGE('',*,*,#968,.F.);
#723=ORIENTED_EDGE('',*,*,#969,.T.);
#724=ORIENTED_EDGE('',*,*,#970,.F.);
#725=ORIENTED_EDGE('',*,*,#971,.T.);
#726=ORIENTED_EDGE('',*,*,#972,.F.);
#727=ORIENTED_EDGE('',*,*,#973,.T.);
#728=ORIENTED_EDGE('',*,*,#974,.F.);
#729=ORIENTED_EDGE('',*,*,#975,.T.);
#730=ORIENTED_EDGE('',*,*,#976,.F.);
#731=ORIENTED_EDGE('',*,*,#977,.T.);
#732=ORIENTED_EDGE('',*,*,#978,.F.);
#733=ORIENTED_EDGE('',*,*,#979,.T.);
#734=ORIENTED_EDGE('',*,*,#980,.F.);
#735=ORIENTED_EDGE('',*,*,#981,.T.);
#736=ORIENTED_EDGE('',*,*,#982,.F.);
#737=ORIENTED_EDGE('',*,*,#983,.T.);
#738=ORIENTED_EDGE('',*,*,#984,.T.);
#739=ORIENTED_EDGE('',*,*,#985,.F.);
#740=ORIENTED_EDGE('',*,*,#986,.T.);
#741=ORIENTED_EDGE('',*,*,#987,.F.);
#742=ORIENTED_EDGE('',*,*,#988,.T.);
#743=ORIENTED_EDGE('',*,*,#989,.F.);
#744=ORIENTED_EDGE('',*,*,#990,.T.);
#745=ORIENTED_EDGE('',*,*,#991,.F.);
#746=ORIENTED_EDGE('',*,*,#992,.T.);
#747=ORIENTED_EDGE('',*,*,#993,.T.);
#748=ORIENTED_EDGE('',*,*,#994,.F.);
#749=ORIENTED_EDGE('',*,*,#995,.T.);
#750=ORIENTED_EDGE('',*,*,#996,.T.);
#751=ORIENTED_EDGE('',*,*,#997,.T.);
#752=ORIENTED_EDGE('',*,*,#960,.F.);
#753=ORIENTED_EDGE('',*,*,#998,.F.);
#754=ORIENTED_EDGE('',*,*,#999,.T.);
#755=ORIENTED_EDGE('',*,*,#1000,.T.);
#756=ORIENTED_EDGE('',*,*,#961,.F.);
#757=ORIENTED_EDGE('',*,*,#997,.F.);
#758=ORIENTED_EDGE('',*,*,#1001,.T.);
#759=ORIENTED_EDGE('',*,*,#1002,.T.);
#760=ORIENTED_EDGE('',*,*,#962,.F.);
#761=ORIENTED_EDGE('',*,*,#1000,.F.);
#762=ORIENTED_EDGE('',*,*,#1003,.T.);
#763=ORIENTED_EDGE('',*,*,#1004,.T.);
#764=ORIENTED_EDGE('',*,*,#963,.F.);
#765=ORIENTED_EDGE('',*,*,#1002,.F.);
#766=ORIENTED_EDGE('',*,*,#1005,.T.);
#767=ORIENTED_EDGE('',*,*,#1006,.T.);
#768=ORIENTED_EDGE('',*,*,#964,.F.);
#769=ORIENTED_EDGE('',*,*,#1004,.F.);
#770=ORIENTED_EDGE('',*,*,#1007,.T.);
#771=ORIENTED_EDGE('',*,*,#998,.T.);
#772=ORIENTED_EDGE('',*,*,#965,.F.);
#773=ORIENTED_EDGE('',*,*,#1006,.F.);
#774=ORIENTED_EDGE('',*,*,#1008,.T.);
#775=ORIENTED_EDGE('',*,*,#1009,.T.);
#776=ORIENTED_EDGE('',*,*,#1010,.T.);
#777=ORIENTED_EDGE('',*,*,#1011,.T.);
#778=ORIENTED_EDGE('',*,*,#1012,.T.);
#779=ORIENTED_EDGE('',*,*,#1013,.T.);
#780=ORIENTED_EDGE('',*,*,#1014,.T.);
#781=ORIENTED_EDGE('',*,*,#1015,.T.);
#782=ORIENTED_EDGE('',*,*,#1016,.T.);
#783=ORIENTED_EDGE('',*,*,#1017,.F.);
#784=ORIENTED_EDGE('',*,*,#1018,.T.);
#785=ORIENTED_EDGE('',*,*,#1019,.F.);
#786=ORIENTED_EDGE('',*,*,#1020,.T.);
#787=ORIENTED_EDGE('',*,*,#1021,.T.);
#788=ORIENTED_EDGE('',*,*,#1022,.T.);
#789=ORIENTED_EDGE('',*,*,#1023,.T.);
#790=ORIENTED_EDGE('',*,*,#1024,.T.);
#791=ORIENTED_EDGE('',*,*,#1025,.T.);
#792=ORIENTED_EDGE('',*,*,#996,.F.);
#793=ORIENTED_EDGE('',*,*,#1026,.F.);
#794=ORIENTED_EDGE('',*,*,#1027,.T.);
#795=ORIENTED_EDGE('',*,*,#1028,.T.);
#796=ORIENTED_EDGE('',*,*,#999,.F.);
#797=ORIENTED_EDGE('',*,*,#1028,.F.);
#798=ORIENTED_EDGE('',*,*,#1029,.T.);
#799=ORIENTED_EDGE('',*,*,#1030,.T.);
#800=ORIENTED_EDGE('',*,*,#1001,.F.);
#801=ORIENTED_EDGE('',*,*,#1030,.F.);
#802=ORIENTED_EDGE('',*,*,#1031,.T.);
#803=ORIENTED_EDGE('',*,*,#1032,.T.);
#804=ORIENTED_EDGE('',*,*,#1003,.F.);
#805=ORIENTED_EDGE('',*,*,#1032,.F.);
#806=ORIENTED_EDGE('',*,*,#1033,.T.);
#807=ORIENTED_EDGE('',*,*,#1034,.T.);
#808=ORIENTED_EDGE('',*,*,#1005,.F.);
#809=ORIENTED_EDGE('',*,*,#1034,.F.);
#810=ORIENTED_EDGE('',*,*,#1035,.T.);
#811=ORIENTED_EDGE('',*,*,#1036,.T.);
#812=ORIENTED_EDGE('',*,*,#1007,.F.);
#813=ORIENTED_EDGE('',*,*,#1036,.F.);
#814=ORIENTED_EDGE('',*,*,#1037,.T.);
#815=ORIENTED_EDGE('',*,*,#1026,.T.);
#816=ORIENTED_EDGE('',*,*,#1027,.F.);
#817=ORIENTED_EDGE('',*,*,#1038,.F.);
#818=ORIENTED_EDGE('',*,*,#1039,.T.);
#819=ORIENTED_EDGE('',*,*,#1040,.T.);
#820=ORIENTED_EDGE('',*,*,#1029,.F.);
#821=ORIENTED_EDGE('',*,*,#1040,.F.);
#822=ORIENTED_EDGE('',*,*,#1041,.T.);
#823=ORIENTED_EDGE('',*,*,#1042,.T.);
#824=ORIENTED_EDGE('',*,*,#1031,.F.);
#825=ORIENTED_EDGE('',*,*,#1042,.F.);
#826=ORIENTED_EDGE('',*,*,#1043,.T.);
#827=ORIENTED_EDGE('',*,*,#1044,.T.);
#828=ORIENTED_EDGE('',*,*,#1033,.F.);
#829=ORIENTED_EDGE('',*,*,#1044,.F.);
#830=ORIENTED_EDGE('',*,*,#1045,.T.);
#831=ORIENTED_EDGE('',*,*,#1046,.T.);
#832=ORIENTED_EDGE('',*,*,#1035,.F.);
#833=ORIENTED_EDGE('',*,*,#1046,.F.);
#834=ORIENTED_EDGE('',*,*,#1047,.T.);
#835=ORIENTED_EDGE('',*,*,#1048,.T.);
#836=ORIENTED_EDGE('',*,*,#1037,.F.);
#837=ORIENTED_EDGE('',*,*,#1048,.F.);
#838=ORIENTED_EDGE('',*,*,#1049,.T.);
#839=ORIENTED_EDGE('',*,*,#1038,.T.);
#840=ORIENTED_EDGE('',*,*,#1039,.F.);
#841=ORIENTED_EDGE('',*,*,#1049,.F.);
#842=ORIENTED_EDGE('',*,*,#1047,.F.);
#843=ORIENTED_EDGE('',*,*,#1045,.F.);
#844=ORIENTED_EDGE('',*,*,#1043,.F.);
#845=ORIENTED_EDGE('',*,*,#1041,.F.);
#846=ORIENTED_EDGE('',*,*,#1050,.T.);
#847=ORIENTED_EDGE('',*,*,#1051,.T.);
#848=ORIENTED_EDGE('',*,*,#1050,.F.);
#849=ORIENTED_EDGE('',*,*,#1051,.F.);
#850=ORIENTED_EDGE('',*,*,#1052,.T.);
#851=ORIENTED_EDGE('',*,*,#1052,.F.);
#852=ORIENTED_EDGE('',*,*,#966,.T.);
#853=ORIENTED_EDGE('',*,*,#1053,.T.);
#854=ORIENTED_EDGE('',*,*,#1054,.F.);
#855=ORIENTED_EDGE('',*,*,#981,.F.);
#856=ORIENTED_EDGE('',*,*,#1055,.T.);
#857=ORIENTED_EDGE('',*,*,#1016,.F.);
#858=ORIENTED_EDGE('',*,*,#1053,.F.);
#859=ORIENTED_EDGE('',*,*,#1017,.T.);
#860=ORIENTED_EDGE('',*,*,#1055,.F.);
#861=ORIENTED_EDGE('',*,*,#980,.T.);
#862=ORIENTED_EDGE('',*,*,#1056,.T.);
#863=ORIENTED_EDGE('',*,*,#979,.F.);
#864=ORIENTED_EDGE('',*,*,#1057,.T.);
#865=ORIENTED_EDGE('',*,*,#1018,.F.);
#866=ORIENTED_EDGE('',*,*,#1056,.F.);
#867=ORIENTED_EDGE('',*,*,#1019,.T.);
#868=ORIENTED_EDGE('',*,*,#1057,.F.);
#869=ORIENTED_EDGE('',*,*,#978,.T.);
#870=ORIENTED_EDGE('',*,*,#1058,.T.);
#871=ORIENTED_EDGE('',*,*,#977,.F.);
#872=ORIENTED_EDGE('',*,*,#1059,.T.);
#873=ORIENTED_EDGE('',*,*,#1020,.F.);
#874=ORIENTED_EDGE('',*,*,#1058,.F.);
#875=ORIENTED_EDGE('',*,*,#976,.T.);
#876=ORIENTED_EDGE('',*,*,#1060,.T.);
#877=ORIENTED_EDGE('',*,*,#1059,.F.);
#878=ORIENTED_EDGE('',*,*,#975,.F.);
#879=ORIENTED_EDGE('',*,*,#1061,.T.);
#880=ORIENTED_EDGE('',*,*,#1021,.F.);
#881=ORIENTED_EDGE('',*,*,#1060,.F.);
#882=ORIENTED_EDGE('',*,*,#974,.T.);
#883=ORIENTED_EDGE('',*,*,#1062,.T.);
#884=ORIENTED_EDGE('',*,*,#1061,.F.);
#885=ORIENTED_EDGE('',*,*,#973,.F.);
#886=ORIENTED_EDGE('',*,*,#1063,.T.);
#887=ORIENTED_EDGE('',*,*,#1022,.F.);
#888=ORIENTED_EDGE('',*,*,#1062,.F.);
#889=ORIENTED_EDGE('',*,*,#1063,.F.);
#890=ORIENTED_EDGE('',*,*,#972,.T.);
#891=ORIENTED_EDGE('',*,*,#1064,.T.);
#892=ORIENTED_EDGE('',*,*,#971,.F.);
#893=ORIENTED_EDGE('',*,*,#1065,.T.);
#894=ORIENTED_EDGE('',*,*,#1023,.F.);
#895=ORIENTED_EDGE('',*,*,#1064,.F.);
#896=ORIENTED_EDGE('',*,*,#1066,.T.);
#897=ORIENTED_EDGE('',*,*,#1065,.F.);
#898=ORIENTED_EDGE('',*,*,#970,.T.);
#899=ORIENTED_EDGE('',*,*,#969,.F.);
#900=ORIENTED_EDGE('',*,*,#1067,.T.);
#901=ORIENTED_EDGE('',*,*,#1024,.F.);
#902=ORIENTED_EDGE('',*,*,#1066,.F.);
#903=ORIENTED_EDGE('',*,*,#968,.T.);
#904=ORIENTED_EDGE('',*,*,#1068,.T.);
#905=ORIENTED_EDGE('',*,*,#1067,.F.);
#906=ORIENTED_EDGE('',*,*,#967,.F.);
#907=ORIENTED_EDGE('',*,*,#1054,.T.);
#908=ORIENTED_EDGE('',*,*,#1025,.F.);
#909=ORIENTED_EDGE('',*,*,#1068,.F.);
#910=ORIENTED_EDGE('',*,*,#1069,.F.);
#911=ORIENTED_EDGE('',*,*,#989,.T.);
#912=ORIENTED_EDGE('',*,*,#1070,.T.);
#913=ORIENTED_EDGE('',*,*,#988,.F.);
#914=ORIENTED_EDGE('',*,*,#1071,.T.);
#915=ORIENTED_EDGE('',*,*,#1008,.F.);
#916=ORIENTED_EDGE('',*,*,#1070,.F.);
#917=ORIENTED_EDGE('',*,*,#1072,.T.);
#918=ORIENTED_EDGE('',*,*,#1071,.F.);
#919=ORIENTED_EDGE('',*,*,#987,.T.);
#920=ORIENTED_EDGE('',*,*,#986,.F.);
#921=ORIENTED_EDGE('',*,*,#1073,.T.);
#922=ORIENTED_EDGE('',*,*,#1009,.F.);
#923=ORIENTED_EDGE('',*,*,#1072,.F.);
#924=ORIENTED_EDGE('',*,*,#985,.T.);
#925=ORIENTED_EDGE('',*,*,#1074,.T.);
#926=ORIENTED_EDGE('',*,*,#1073,.F.);
#927=ORIENTED_EDGE('',*,*,#984,.F.);
#928=ORIENTED_EDGE('',*,*,#1075,.T.);
#929=ORIENTED_EDGE('',*,*,#1010,.F.);
#930=ORIENTED_EDGE('',*,*,#1074,.F.);
#931=ORIENTED_EDGE('',*,*,#983,.F.);
#932=ORIENTED_EDGE('',*,*,#1076,.T.);
#933=ORIENTED_EDGE('',*,*,#1011,.F.);
#934=ORIENTED_EDGE('',*,*,#1075,.F.);
#935=ORIENTED_EDGE('',*,*,#982,.T.);
#936=ORIENTED_EDGE('',*,*,#1077,.T.);
#937=ORIENTED_EDGE('',*,*,#1076,.F.);
#938=ORIENTED_EDGE('',*,*,#995,.F.);
#939=ORIENTED_EDGE('',*,*,#1078,.T.);
#940=ORIENTED_EDGE('',*,*,#1012,.F.);
#941=ORIENTED_EDGE('',*,*,#1077,.F.);
#942=ORIENTED_EDGE('',*,*,#994,.T.);
#943=ORIENTED_EDGE('',*,*,#1079,.T.);
#944=ORIENTED_EDGE('',*,*,#1078,.F.);
#945=ORIENTED_EDGE('',*,*,#993,.F.);
#946=ORIENTED_EDGE('',*,*,#1080,.T.);
#947=ORIENTED_EDGE('',*,*,#1013,.F.);
#948=ORIENTED_EDGE('',*,*,#1079,.F.);
#949=ORIENTED_EDGE('',*,*,#992,.F.);
#950=ORIENTED_EDGE('',*,*,#1081,.T.);
#951=ORIENTED_EDGE('',*,*,#1014,.F.);
#952=ORIENTED_EDGE('',*,*,#1080,.F.);
#953=ORIENTED_EDGE('',*,*,#991,.T.);
#954=ORIENTED_EDGE('',*,*,#1082,.T.);
#955=ORIENTED_EDGE('',*,*,#1081,.F.);
#956=ORIENTED_EDGE('',*,*,#990,.F.);
#957=ORIENTED_EDGE('',*,*,#1069,.T.);
#958=ORIENTED_EDGE('',*,*,#1015,.F.);
#959=ORIENTED_EDGE('',*,*,#1082,.F.);
#960=EDGE_CURVE('',#1083,#1084,#1085,.T.);
#961=EDGE_CURVE('',#1084,#1086,#1087,.T.);
#962=EDGE_CURVE('',#1086,#1088,#1089,.T.);
#963=EDGE_CURVE('',#1088,#1090,#1091,.T.);
#964=EDGE_CURVE('',#1090,#1092,#1093,.T.);
#965=EDGE_CURVE('',#1092,#1083,#1094,.T.);
#966=EDGE_CURVE('',#1095,#1096,#1097,.F.);
#967=EDGE_CURVE('',#1095,#1098,#1099,.F.);
#968=EDGE_CURVE('',#1100,#1098,#1101,.F.);
#969=EDGE_CURVE('',#1100,#1102,#1103,.F.);
#970=EDGE_CURVE('',#1104,#1102,#1105,.F.);
#971=EDGE_CURVE('',#1104,#1106,#1107,.F.);
#972=EDGE_CURVE('',#1108,#1106,#1109,.F.);
#973=EDGE_CURVE('',#1108,#1110,#1111,.F.);
#974=EDGE_CURVE('',#1112,#1110,#1113,.F.);
#975=EDGE_CURVE('',#1112,#1114,#1115,.F.);
#976=EDGE_CURVE('',#1116,#1114,#1117,.F.);
#977=EDGE_CURVE('',#1116,#1118,#1119,.F.);
#978=EDGE_CURVE('',#1120,#1118,#1121,.F.);
#979=EDGE_CURVE('',#1120,#1122,#1123,.F.);
#980=EDGE_CURVE('',#1124,#1122,#1125,.F.);
#981=EDGE_CURVE('',#1124,#1096,#1126,.F.);
#982=EDGE_CURVE('',#1127,#1128,#1129,.F.);
#983=EDGE_CURVE('',#1127,#1130,#1131,.F.);
#984=EDGE_CURVE('',#1130,#1132,#1133,.F.);
#985=EDGE_CURVE('',#1134,#1132,#1135,.F.);
#986=EDGE_CURVE('',#1134,#1136,#1137,.F.);
#987=EDGE_CURVE('',#1138,#1136,#1139,.F.);
#988=EDGE_CURVE('',#1138,#1140,#1141,.F.);
#989=EDGE_CURVE('',#1142,#1140,#1143,.F.);
#990=EDGE_CURVE('',#1142,#1144,#1145,.F.);
#991=EDGE_CURVE('',#1146,#1144,#1147,.F.);
#992=EDGE_CURVE('',#1146,#1148,#1149,.F.);
#993=EDGE_CURVE('',#1148,#1150,#1151,.F.);
#994=EDGE_CURVE('',#1152,#1150,#1153,.F.);
#995=EDGE_CURVE('',#1152,#1128,#1154,.F.);
#996=EDGE_CURVE('',#1155,#1156,#1157,.T.);
#997=EDGE_CURVE('',#1156,#1084,#1158,.T.);
#998=EDGE_CURVE('',#1155,#1083,#1159,.T.);
#999=EDGE_CURVE('',#1156,#1160,#1161,.T.);
#1000=EDGE_CURVE('',#1160,#1086,#1162,.T.);
#1001=EDGE_CURVE('',#1160,#1163,#1164,.T.);
#1002=EDGE_CURVE('',#1163,#1088,#1165,.T.);
#1003=EDGE_CURVE('',#1163,#1166,#1167,.T.);
#1004=EDGE_CURVE('',#1166,#1090,#1168,.T.);
#1005=EDGE_CURVE('',#1166,#1169,#1170,.T.);
#1006=EDGE_CURVE('',#1169,#1092,#1171,.T.);
#1007=EDGE_CURVE('',#1169,#1155,#1172,.T.);
#1008=EDGE_CURVE('',#1173,#1174,#1175,.T.);
#1009=EDGE_CURVE('',#1174,#1176,#1177,.T.);
#1010=EDGE_CURVE('',#1176,#1178,#1179,.T.);
#1011=EDGE_CURVE('',#1178,#1180,#1181,.T.);
#1012=EDGE_CURVE('',#1180,#1182,#1183,.T.);
#1013=EDGE_CURVE('',#1182,#1184,#1185,.T.);
#1014=EDGE_CURVE('',#1184,#1186,#1187,.T.);
#1015=EDGE_CURVE('',#1186,#1173,#1188,.T.);
#1016=EDGE_CURVE('',#1189,#1190,#1191,.T.);
#1017=EDGE_CURVE('',#1192,#1190,#1193,.F.);
#1018=EDGE_CURVE('',#1192,#1194,#1195,.T.);
#1019=EDGE_CURVE('',#1196,#1194,#1197,.F.);
#1020=EDGE_CURVE('',#1196,#1198,#1199,.T.);
#1021=EDGE_CURVE('',#1198,#1200,#1201,.T.);
#1022=EDGE_CURVE('',#1200,#1202,#1203,.T.);
#1023=EDGE_CURVE('',#1202,#1204,#1205,.T.);
#1024=EDGE_CURVE('',#1204,#1206,#1207,.T.);
#1025=EDGE_CURVE('',#1206,#1189,#1208,.T.);
#1026=EDGE_CURVE('',#1209,#1155,#1210,.T.);
#1027=EDGE_CURVE('',#1209,#1211,#1212,.T.);
#1028=EDGE_CURVE('',#1211,#1156,#1213,.T.);
#1029=EDGE_CURVE('',#1211,#1214,#1215,.T.);
#1030=EDGE_CURVE('',#1214,#1160,#1216,.T.);
#1031=EDGE_CURVE('',#1214,#1217,#1218,.T.);
#1032=EDGE_CURVE('',#1217,#1163,#1219,.T.);
#1033=EDGE_CURVE('',#1217,#1220,#1221,.T.);
#1034=EDGE_CURVE('',#1220,#1166,#1222,.T.);
#1035=EDGE_CURVE('',#1220,#1223,#1224,.T.);
#1036=EDGE_CURVE('',#1223,#1169,#1225,.T.);
#1037=EDGE_CURVE('',#1223,#1209,#1226,.T.);
#1038=EDGE_CURVE('',#1227,#1209,#1228,.F.);
#1039=EDGE_CURVE('',#1227,#1229,#1230,.T.);
#1040=EDGE_CURVE('',#1229,#1211,#1231,.F.);
#1041=EDGE_CURVE('',#1229,#1232,#1233,.T.);
#1042=EDGE_CURVE('',#1232,#1214,#1234,.F.);
#1043=EDGE_CURVE('',#1232,#1235,#1236,.T.);
#1044=EDGE_CURVE('',#1235,#1217,#1237,.F.);
#1045=EDGE_CURVE('',#1235,#1238,#1239,.T.);
#1046=EDGE_CURVE('',#1238,#1220,#1240,.F.);
#1047=EDGE_CURVE('',#1238,#1241,#1242,.T.);
#1048=EDGE_CURVE('',#1241,#1223,#1243,.F.);
#1049=EDGE_CURVE('',#1241,#1227,#1244,.T.);
#1050=EDGE_CURVE('',#1245,#1245,#1246,.T.);
#1051=EDGE_CURVE('',#1247,#1247,#1248,.T.);
#1052=EDGE_CURVE('',#1249,#1249,#1250,.T.);
#1053=EDGE_CURVE('',#1096,#1189,#1251,.F.);
#1054=EDGE_CURVE('',#1095,#1189,#1252,.T.);
#1055=EDGE_CURVE('',#1124,#1190,#1253,.T.);
#1056=EDGE_CURVE('',#1122,#1192,#1254,.F.);
#1057=EDGE_CURVE('',#1120,#1194,#1255,.T.);
#1058=EDGE_CURVE('',#1118,#1196,#1256,.F.);
#1059=EDGE_CURVE('',#1116,#1198,#1257,.T.);
#1060=EDGE_CURVE('',#1114,#1198,#1258,.F.);
#1061=EDGE_CURVE('',#1112,#1200,#1259,.T.);
#1062=EDGE_CURVE('',#1110,#1200,#1260,.F.);
#1063=EDGE_CURVE('',#1108,#1202,#1261,.T.);
#1064=EDGE_CURVE('',#1106,#1202,#1262,.F.);
#1065=EDGE_CURVE('',#1104,#1204,#1263,.T.);
#1066=EDGE_CURVE('',#1102,#1204,#1264,.F.);
#1067=EDGE_CURVE('',#1100,#1206,#1265,.T.);
#1068=EDGE_CURVE('',#1098,#1206,#1266,.F.);
#1069=EDGE_CURVE('',#1142,#1173,#1267,.T.);
#1070=EDGE_CURVE('',#1140,#1173,#1268,.F.);
#1071=EDGE_CURVE('',#1138,#1174,#1269,.T.);
#1072=EDGE_CURVE('',#1136,#1174,#1270,.F.);
#1073=EDGE_CURVE('',#1134,#1176,#1271,.T.);
#1074=EDGE_CURVE('',#1132,#1176,#1272,.F.);
#1075=EDGE_CURVE('',#1130,#1178,#1273,.T.);
#1076=EDGE_CURVE('',#1127,#1180,#1274,.T.);
#1077=EDGE_CURVE('',#1128,#1180,#1275,.F.);
#1078=EDGE_CURVE('',#1152,#1182,#1276,.T.);
#1079=EDGE_CURVE('',#1150,#1182,#1277,.F.);
#1080=EDGE_CURVE('',#1148,#1184,#1278,.T.);
#1081=EDGE_CURVE('',#1146,#1186,#1279,.T.);
#1082=EDGE_CURVE('',#1144,#1186,#1280,.F.);
#1083=VERTEX_POINT('',#1281);
#1084=VERTEX_POINT('',#1282);
#1085=LINE('',#1283,#1284);
#1086=VERTEX_POINT('',#1286);
#1087=LINE('',#1287,#1288);
#1088=VERTEX_POINT('',#1290);
#1089=LINE('',#1291,#1292);
#1090=VERTEX_POINT('',#1294);
#1091=LINE('',#1295,#1296);
#1092=VERTEX_POINT('',#1298);
#1093=LINE('',#1299,#1300);
#1094=LINE('',#1302,#1303);
#1095=VERTEX_POINT('',#1305);
#1096=VERTEX_POINT('',#1306);
#1097=CIRCLE('',#1307,1.);
#1098=VERTEX_POINT('',#1311);
#1099=LINE('',#1312,#1313);
#1100=VERTEX_POINT('',#1315);
#1101=CIRCLE('',#1316,0.999999999999998);
#1102=VERTEX_POINT('',#1320);
#1103=LINE('',#1321,#1322);
#1104=VERTEX_POINT('',#1324);
#1105=CIRCLE('',#1325,1.);
#1106=VERTEX_POINT('',#1329);
#1107=LINE('',#1330,#1331);
#1108=VERTEX_POINT('',#1333);
#1109=CIRCLE('',#1334,0.999999999999997);
#1110=VERTEX_POINT('',#1338);
#1111=LINE('',#1339,#1340);
#1112=VERTEX_POINT('',#1342);
#1113=CIRCLE('',#1343,1.);
#1114=VERTEX_POINT('',#1347);
#1115=LINE('',#1348,#1349);
#1116=VERTEX_POINT('',#1351);
#1117=CIRCLE('',#1352,1.);
#1118=VERTEX_POINT('',#1356);
#1119=LINE('',#1357,#1358);
#1120=VERTEX_POINT('',#1360);
#1121=CIRCLE('',#1361,0.999999999999998);
#1122=VERTEX_POINT('',#1365);
#1123=LINE('',#1366,#1367);
#1124=VERTEX_POINT('',#1369);
#1125=CIRCLE('',#1370,1.);
#1126=LINE('',#1374,#1375);
#1127=VERTEX_POINT('',#1377);
#1128=VERTEX_POINT('',#1378);
#1129=CIRCLE('',#1379,1.);
#1130=VERTEX_POINT('',#1383);
#1131=LINE('',#1384,#1385);
#1132=VERTEX_POINT('',#1387);
#1133=LINE('',#1388,#1389);
#1134=VERTEX_POINT('',#1391);
#1135=CIRCLE('',#1392,1.);
#1136=VERTEX_POINT('',#1396);
#1137=LINE('',#1397,#1398);
#1138=VERTEX_POINT('',#1400);
#1139=CIRCLE('',#1401,1.);
#1140=VERTEX_POINT('',#1405);
#1141=LINE('',#1406,#1407);
#1142=VERTEX_POINT('',#1409);
#1143=CIRCLE('',#1410,1.);
#1144=VERTEX_POINT('',#1414);
#1145=LINE('',#1415,#1416);
#1146=VERTEX_POINT('',#1418);
#1147=CIRCLE('',#1419,1.);
#1148=VERTEX_POINT('',#1423);
#1149=LINE('',#1424,#1425);
#1150=VERTEX_POINT('',#1427);
#1151=LINE('',#1428,#1429);
#1152=VERTEX_POINT('',#1431);
#1153=CIRCLE('',#1432,1.);
#1154=LINE('',#1436,#1437);
#1155=VERTEX_POINT('',#1439);
#1156=VERTEX_POINT('',#1440);
#1157=LINE('',#1441,#1442);
#1158=LINE('',#1444,#1445);
#1159=LINE('',#1447,#1448);
#1160=VERTEX_POINT('',#1450);
#1161=LINE('',#1451,#1452);
#1162=LINE('',#1454,#1455);
#1163=VERTEX_POINT('',#1457);
#1164=LINE('',#1458,#1459);
#1165=LINE('',#1461,#1462);
#1166=VERTEX_POINT('',#1464);
#1167=LINE('',#1465,#1466);
#1168=LINE('',#1468,#1469);
#1169=VERTEX_POINT('',#1471);
#1170=LINE('',#1472,#1473);
#1171=LINE('',#1475,#1476);
#1172=LINE('',#1478,#1479);
#1173=VERTEX_POINT('',#1481);
#1174=VERTEX_POINT('',#1482);
#1175=LINE('',#1483,#1484);
#1176=VERTEX_POINT('',#1486);
#1177=LINE('',#1487,#1488);
#1178=VERTEX_POINT('',#1490);
#1179=LINE('',#1491,#1492);
#1180=VERTEX_POINT('',#1494);
#1181=LINE('',#1495,#1496);
#1182=VERTEX_POINT('',#1498);
#1183=LINE('',#1499,#1500);
#1184=VERTEX_POINT('',#1502);
#1185=LINE('',#1503,#1504);
#1186=VERTEX_POINT('',#1506);
#1187=LINE('',#1507,#1508);
#1188=LINE('',#1510,#1511);
#1189=VERTEX_POINT('',#1513);
#1190=VERTEX_POINT('',#1514);
#1191=LINE('',#1515,#1516);
#1192=VERTEX_POINT('',#1518);
#1193=CIRCLE('',#1519,2.);
#1194=VERTEX_POINT('',#1523);
#1195=LINE('',#1524,#1525);
#1196=VERTEX_POINT('',#1527);
#1197=CIRCLE('',#1528,2.);
#1198=VERTEX_POINT('',#1532);
#1199=LINE('',#1533,#1534);
#1200=VERTEX_POINT('',#1536);
#1201=LINE('',#1537,#1538);
#1202=VERTEX_POINT('',#1540);
#1203=LINE('',#1541,#1542);
#1204=VERTEX_POINT('',#1544);
#1205=LINE('',#1545,#1546);
#1206=VERTEX_POINT('',#1548);
#1207=LINE('',#1549,#1550);
#1208=LINE('',#1552,#1553);
#1209=VERTEX_POINT('',#1555);
#1210=LINE('',#1556,#1557);
#1211=VERTEX_POINT('',#1559);
#1212=LINE('',#1560,#1561);
#1213=LINE('',#1563,#1564);
#1214=VERTEX_POINT('',#1566);
#1215=LINE('',#1567,#1568);
#1216=LINE('',#1570,#1571);
#1217=VERTEX_POINT('',#1573);
#1218=LINE('',#1574,#1575);
#1219=LINE('',#1577,#1578);
#1220=VERTEX_POINT('',#1580);
#1221=LINE('',#1581,#1582);
#1222=LINE('',#1584,#1585);
#1223=VERTEX_POINT('',#1587);
#1224=LINE('',#1588,#1589);
#1225=LINE('',#1591,#1592);
#1226=LINE('',#1594,#1595);
#1227=VERTEX_POINT('',#1597);
#1228=LINE('',#1598,#1599);
#1229=VERTEX_POINT('',#1601);
#1230=LINE('',#1602,#1603);
#1231=LINE('',#1605,#1606);
#1232=VERTEX_POINT('',#1608);
#1233=LINE('',#1609,#1610);
#1234=LINE('',#1612,#1613);
#1235=VERTEX_POINT('',#1615);
#1236=LINE('',#1616,#1617);
#1237=LINE('',#1619,#1620);
#1238=VERTEX_POINT('',#1622);
#1239=LINE('',#1623,#1624);
#1240=LINE('',#1626,#1627);
#1241=VERTEX_POINT('',#1629);
#1242=LINE('',#1630,#1631);
#1243=LINE('',#1633,#1634);
#1244=LINE('',#1636,#1637);
#1245=VERTEX_POINT('',#1639);
#1246=CIRCLE('',#1640,13.5);
#1247=VERTEX_POINT('',#1644);
#1248=CIRCLE('',#1645,12.5);
#1249=VERTEX_POINT('',#1649);
#1250=CIRCLE('',#1650,12.5);
#1251=LINE('',#1654,#1655);
#1252=LINE('',#1657,#1658);
#1253=LINE('',#1660,#1661);
#1254=LINE('',#1663,#1664);
#1255=LINE('',#1666,#1667);
#1256=LINE('',#1669,#1670);
#1257=LINE('',#1672,#1673);
#1258=LINE('',#1675,#1676);
#1259=LINE('',#1678,#1679);
#1260=LINE('',#1681,#1682);
#1261=LINE('',#1684,#1685);
#1262=LINE('',#1687,#1688);
#1263=LINE('',#1690,#1691);
#1264=LINE('',#1693,#1694);
#1265=LINE('',#1696,#1697);
#1266=LINE('',#1699,#1700);
#1267=LINE('',#1702,#1703);
#1268=LINE('',#1705,#1706);
#1269=LINE('',#1708,#1709);
#1270=LINE('',#1711,#1712);
#1271=LINE('',#1714,#1715);
#1272=LINE('',#1717,#1718);
#1273=LINE('',#1720,#1721);
#1274=LINE('',#1723,#1724);
#1275=LINE('',#1726,#1727);
#1276=LINE('',#1729,#1730);
#1277=LINE('',#1732,#1733);
#1278=LINE('',#1735,#1736);
#1279=LINE('',#1738,#1739);
#1280=LINE('',#1741,#1742);
#1281=CARTESIAN_POINT('',(14.5,-8.37157890324958,10.));
#1282=CARTESIAN_POINT('',(14.5,8.37157890324956,10.));
#1283=CARTESIAN_POINT('',(14.5,-8.37157890324958,10.));
#1284=VECTOR('',#1285,1.);
#1285=DIRECTION('',(1.06094493041852E-15,1.,0.));
#1286=CARTESIAN_POINT('',(1.03239184176734E-14,16.7431578064991,10.));
#1287=CARTESIAN_POINT('',(14.5,8.37157890324957,10.));
#1288=VECTOR('',#1289,1.);
#1289=DIRECTION('',(-0.866025403784439,0.5,0.));
#1290=CARTESIAN_POINT('',(-14.5,8.37157890324958,10.));
#1291=CARTESIAN_POINT('',(9.76822904969052E-15,16.7431578064991,10.));
#1292=VECTOR('',#1293,1.);
#1293=DIRECTION('',(-0.866025403784439,-0.499999999999999,0.));
#1294=CARTESIAN_POINT('',(-14.5,-8.37157890324956,10.));
#1295=CARTESIAN_POINT('',(-14.5,8.37157890324959,10.));
#1296=VECTOR('',#1297,1.);
#1297=DIRECTION('',(-5.30472465209259E-16,-1.,0.));
#1298=CARTESIAN_POINT('',(-9.03791008081591E-15,-16.7431578064991,10.));
#1299=CARTESIAN_POINT('',(-14.5,-8.37157890324957,10.));
#1300=VECTOR('',#1301,1.);
#1301=DIRECTION('',(0.866025403784438,-0.500000000000001,0.));
#1302=CARTESIAN_POINT('',(-1.12947857085501E-14,-16.7431578064991,10.));
#1303=VECTOR('',#1304,1.);
#1304=DIRECTION('',(0.866025403784439,0.5,0.));
#1305=CARTESIAN_POINT('',(8.76573235058875,7.,10.));
#1306=CARTESIAN_POINT('',(7.76573235058875,6.,10.));
#1307=AXIS2_PLACEMENT_3D('',#1308,#1309,#1310);
#1308=CARTESIAN_POINT('',(8.76573235058875,6.,10.));
#1309=DIRECTION('',(0.,0.,-1.));
#1310=DIRECTION('',(-1.,0.,0.));
#1311=CARTESIAN_POINT('',(9.55716917658503,7.,10.));
#1312=CARTESIAN_POINT('',(9.55716917658503,7.,10.));
#1313=VECTOR('',#1314,1.);
#1314=DIRECTION('',(-1.,-1.12223539583473E-15,0.));
#1315=CARTESIAN_POINT('',(10.557169176585,6.,10.));
#1316=AXIS2_PLACEMENT_3D('',#1317,#1318,#1319);
#1317=CARTESIAN_POINT('',(9.55716917658503,6.,10.));
#1318=DIRECTION('',(0.,0.,-1.));
#1319=DIRECTION('',(0.,1.,0.));
#1320=CARTESIAN_POINT('',(10.557169176585,-5.8249918127718,10.));
#1321=CARTESIAN_POINT('',(10.557169176585,-5.8249918127718,10.));
#1322=VECTOR('',#1323,1.);
#1323=DIRECTION('',(0.,1.,0.));
#1324=CARTESIAN_POINT('',(9.55716917658503,-6.8249918127718,10.));
#1325=AXIS2_PLACEMENT_3D('',#1326,#1327,#1328);
#1326=CARTESIAN_POINT('',(9.55716917658503,-5.8249918127718,10.));
#1327=DIRECTION('',(0.,0.,-1.));
#1328=DIRECTION('',(1.,0.,0.));
#1329=CARTESIAN_POINT('',(0.561234697871366,-6.8249918127718,10.));
#1330=CARTESIAN_POINT('',(0.561234697871366,-6.8249918127718,10.));
#1331=VECTOR('',#1332,1.);
#1332=DIRECTION('',(1.,0.,0.));
#1333=CARTESIAN_POINT('',(-0.438765302128634,-5.8249918127718,10.));
#1334=AXIS2_PLACEMENT_3D('',#1335,#1336,#1337);
#1335=CARTESIAN_POINT('',(0.561234697871366,-5.8249918127718,10.));
#1336=DIRECTION('',(0.,0.,-1.));
#1337=DIRECTION('',(0.,-1.,0.));
#1338=CARTESIAN_POINT('',(-0.438765302128633,6.,10.));
#1339=CARTESIAN_POINT('',(-0.438765302128633,6.,10.));
#1340=VECTOR('',#1341,1.);
#1341=DIRECTION('',(-1.22054201378292E-16,-1.,0.));
#1342=CARTESIAN_POINT('',(0.561234697871367,7.,10.));
#1343=AXIS2_PLACEMENT_3D('',#1344,#1345,#1346);
#1344=CARTESIAN_POINT('',(0.561234697871367,6.,10.));
#1345=DIRECTION('',(0.,0.,-1.));
#1346=DIRECTION('',(-1.,0.,0.));
#1347=CARTESIAN_POINT('',(1.35267152386765,7.,10.));
#1348=CARTESIAN_POINT('',(1.35267152386765,7.,10.));
#1349=VECTOR('',#1350,1.);
#1350=DIRECTION('',(-1.,0.,0.));
#1351=CARTESIAN_POINT('',(2.35267152386765,6.,10.));
#1352=AXIS2_PLACEMENT_3D('',#1353,#1354,#1355);
#1353=CARTESIAN_POINT('',(1.35267152386765,6.,10.));
#1354=DIRECTION('',(0.,0.,-1.));
#1355=DIRECTION('',(2.22044604925031E-16,1.,0.));
#1356=CARTESIAN_POINT('',(2.35267152386765,-3.50514166666667,10.));
#1357=CARTESIAN_POINT('',(2.35267152386765,-3.50514166666667,10.));
#1358=VECTOR('',#1359,1.);
#1359=DIRECTION('',(9.3441891856789E-17,1.,0.));
#1360=CARTESIAN_POINT('',(3.35267152386765,-4.50514166666667,10.));
#1361=AXIS2_PLACEMENT_3D('',#1362,#1363,#1364);
#1362=CARTESIAN_POINT('',(3.35267152386765,-3.50514166666667,10.));
#1363=DIRECTION('',(0.,0.,1.));
#1364=DIRECTION('',(-1.,0.,0.));
#1365=CARTESIAN_POINT('',(6.76573235058874,-4.50514166666667,10.));
#1366=CARTESIAN_POINT('',(6.76573235058874,-4.50514166666667,10.));
#1367=VECTOR('',#1368,1.);
#1368=DIRECTION('',(-1.,2.60229297042266E-16,0.));
#1369=CARTESIAN_POINT('',(7.76573235058874,-3.50514166666667,10.));
#1370=AXIS2_PLACEMENT_3D('',#1371,#1372,#1373);
#1371=CARTESIAN_POINT('',(6.76573235058874,-3.50514166666667,10.));
#1372=DIRECTION('',(0.,0.,1.));
#1373=DIRECTION('',(8.88178419700125E-16,-1.,0.));
#1374=CARTESIAN_POINT('',(7.76573235058874,6.,10.));
#1375=VECTOR('',#1376,1.);
#1376=DIRECTION('',(-9.3441891856789E-17,-1.,0.));
#1377=CARTESIAN_POINT('',(-5.10977735999828,6.,10.));
#1378=CARTESIAN_POINT('',(-6.10977735999828,7.,10.));
#1379=AXIS2_PLACEMENT_3D('',#1380,#1381,#1382);
#1380=CARTESIAN_POINT('',(-6.10977735999828,6.,10.));
#1381=DIRECTION('',(0.,0.,-1.));
#1382=DIRECTION('',(-8.88178419700123E-16,1.,0.));
#1383=CARTESIAN_POINT('',(-5.10977735999828,-0.874421726494748,10.));
#1384=CARTESIAN_POINT('',(-5.10977735999828,-0.874421726494748,10.));
#1385=VECTOR('',#1386,1.);
#1386=DIRECTION('',(0.,1.,0.));
#1387=CARTESIAN_POINT('',(-2.90347386733533,-0.874421726494748,10.));
#1388=CARTESIAN_POINT('',(-2.90347386733533,-0.874421726494748,10.));
#1389=VECTOR('',#1390,1.);
#1390=DIRECTION('',(-1.,1.50961510279596E-16,0.));
#1391=CARTESIAN_POINT('',(-1.90347386733533,-1.87442172649475,10.));
#1392=AXIS2_PLACEMENT_3D('',#1393,#1394,#1395);
#1393=CARTESIAN_POINT('',(-2.90347386733533,-1.87442172649475,10.));
#1394=DIRECTION('',(0.,0.,-1.));
#1395=DIRECTION('',(4.44089209850063E-16,1.,0.));
#1396=CARTESIAN_POINT('',(-1.90347386733533,-2.01514066739147,10.));
#1397=CARTESIAN_POINT('',(-1.90347386733533,-2.01514066739147,10.));
#1398=VECTOR('',#1399,1.);
#1399=DIRECTION('',(0.,1.,0.));
#1400=CARTESIAN_POINT('',(-2.90347386733533,-3.01514066739147,10.));
#1401=AXIS2_PLACEMENT_3D('',#1402,#1403,#1404);
#1402=CARTESIAN_POINT('',(-2.90347386733533,-2.01514066739147,10.));
#1403=DIRECTION('',(0.,0.,-1.));
#1404=DIRECTION('',(1.,-8.88178419700125E-16,0.));
#1405=CARTESIAN_POINT('',(-9.9661227384856,-3.01514066739147,10.));
#1406=CARTESIAN_POINT('',(-9.9661227384856,-3.01514066739147,10.));
#1407=VECTOR('',#1408,1.);
#1408=DIRECTION('',(1.,-1.88635688090381E-16,0.));
#1409=CARTESIAN_POINT('',(-10.9661227384856,-2.01514066739147,10.));
#1410=AXIS2_PLACEMENT_3D('',#1411,#1412,#1413);
#1411=CARTESIAN_POINT('',(-9.9661227384856,-2.01514066739147,10.));
#1412=DIRECTION('',(0.,0.,-1.));
#1413=DIRECTION('',(0.,-1.,0.));
#1414=CARTESIAN_POINT('',(-10.9661227384856,-1.87442172649475,10.));
#1415=CARTESIAN_POINT('',(-10.9661227384856,-1.87442172649475,10.));
#1416=VECTOR('',#1417,1.);
#1417=DIRECTION('',(0.,-1.,0.));
#1418=CARTESIAN_POINT('',(-9.9661227384856,-0.874421726494747,10.));
#1419=AXIS2_PLACEMENT_3D('',#1420,#1421,#1422);
#1420=CARTESIAN_POINT('',(-9.9661227384856,-1.87442172649475,10.));
#1421=DIRECTION('',(0.,0.,-1.));
#1422=DIRECTION('',(-1.,0.,0.));
#1423=CARTESIAN_POINT('',(-7.75976136733533,-0.874421726494747,10.));
#1424=CARTESIAN_POINT('',(-7.75976136733533,-0.874421726494748,10.));
#1425=VECTOR('',#1426,1.);
#1426=DIRECTION('',(-1.,1.00638366782713E-16,0.));
#1427=CARTESIAN_POINT('',(-7.75976136733533,6.,10.));
#1428=CARTESIAN_POINT('',(-7.75976136733533,6.,10.));
#1429=VECTOR('',#1430,1.);
#1430=DIRECTION('',(0.,-1.,0.));
#1431=CARTESIAN_POINT('',(-6.75976136733532,7.,10.));
#1432=AXIS2_PLACEMENT_3D('',#1433,#1434,#1435);
#1433=CARTESIAN_POINT('',(-6.75976136733532,6.,10.));
#1434=DIRECTION('',(0.,0.,-1.));
#1435=DIRECTION('',(-1.,0.,0.));
#1436=CARTESIAN_POINT('',(-6.10977735999828,7.,10.));
#1437=VECTOR('',#1438,1.);
#1438=DIRECTION('',(-1.,0.,0.));
#1439=CARTESIAN_POINT('',(15.5,-8.94892917243921,9.));
#1440=CARTESIAN_POINT('',(15.5,8.94892917243919,9.));
#1441=CARTESIAN_POINT('',(15.5,-8.94892917243921,9.));
#1442=VECTOR('',#1443,1.);
#1443=DIRECTION('',(9.92496870391517E-16,1.,0.));
#1444=CARTESIAN_POINT('',(15.5,8.94892917243919,9.));
#1445=VECTOR('',#1446,1.);
#1446=DIRECTION('',(-0.654653670707977,-0.377964473009226,0.654653670707977));
#1447=CARTESIAN_POINT('',(15.5,-8.94892917243921,9.));
#1448=VECTOR('',#1449,1.);
#1449=DIRECTION('',(-0.654653670707977,0.377964473009227,0.654653670707977));
#1450=CARTESIAN_POINT('',(1.06927227473321E-14,17.8978583448784,9.));
#1451=CARTESIAN_POINT('',(15.5,8.94892917243919,9.));
#1452=VECTOR('',#1453,1.);
#1453=DIRECTION('',(-0.866025403784439,0.5,0.));
#1454=CARTESIAN_POINT('',(1.06581410364015E-14,17.8978583448784,9.));
#1455=VECTOR('',#1456,1.);
#1456=DIRECTION('',(-6.3596013107845E-16,-0.755928946018455,0.654653670707976));
#1457=CARTESIAN_POINT('',(-15.5,8.94892917243921,9.));
#1458=CARTESIAN_POINT('',(1.08234525925818E-14,17.8978583448784,9.));
#1459=VECTOR('',#1460,1.);
#1460=DIRECTION('',(-0.866025403784439,-0.499999999999999,0.));
#1461=CARTESIAN_POINT('',(-15.5,8.94892917243921,9.));
#1462=VECTOR('',#1463,1.);
#1463=DIRECTION('',(0.654653670707977,-0.377964473009226,0.654653670707977));
#1464=CARTESIAN_POINT('',(-15.5,-8.94892917243919,9.));
#1465=CARTESIAN_POINT('',(-15.5,8.94892917243921,9.));
#1466=VECTOR('',#1467,1.);
#1467=DIRECTION('',(-4.96248435195759E-16,-1.,0.));
#1468=CARTESIAN_POINT('',(-15.5,-8.94892917243918,9.));
#1469=VECTOR('',#1470,1.);
#1470=DIRECTION('',(0.654653670707979,0.377964473009223,0.654653670707978));
#1471=CARTESIAN_POINT('',(-1.16012013758809E-14,-17.8978583448784,9.));
#1472=CARTESIAN_POINT('',(-15.5,-8.94892917243919,9.));
#1473=VECTOR('',#1474,1.);
#1474=DIRECTION('',(0.866025403784438,-0.500000000000001,0.));
#1475=CARTESIAN_POINT('',(-1.24344978758018E-14,-17.8978583448784,9.));
#1476=VECTOR('',#1477,1.);
#1477=DIRECTION('',(2.48932965593565E-15,0.755928946018455,0.654653670707977));
#1478=CARTESIAN_POINT('',(-1.076790487596E-14,-17.8978583448784,9.));
#1479=VECTOR('',#1480,1.);
#1480=DIRECTION('',(0.866025403784439,0.5,0.));
#1481=CARTESIAN_POINT('',(-9.9661227384856,-2.01514066739147,9.));
#1482=CARTESIAN_POINT('',(-2.90347386733533,-2.01514066739147,9.));
#1483=CARTESIAN_POINT('',(-9.9661227384856,-2.01514066739147,9.));
#1484=VECTOR('',#1485,1.);
#1485=DIRECTION('',(1.,-1.25757125393588E-16,0.));
#1486=CARTESIAN_POINT('',(-2.90347386733533,-1.87442172649475,9.));
#1487=CARTESIAN_POINT('',(-2.90347386733533,-2.01514066739147,9.));
#1488=VECTOR('',#1489,1.);
#1489=DIRECTION('',(0.,1.,0.));
#1490=CARTESIAN_POINT('',(-6.10977735999828,-1.87442172649475,9.));
#1491=CARTESIAN_POINT('',(-2.90347386733533,-1.87442172649475,9.));
#1492=VECTOR('',#1493,1.);
#1493=DIRECTION('',(-1.,6.92525225491412E-17,0.));
#1494=CARTESIAN_POINT('',(-6.10977735999828,6.,9.));
#1495=CARTESIAN_POINT('',(-6.10977735999828,-1.87442172649475,9.));
#1496=VECTOR('',#1497,1.);
#1497=DIRECTION('',(0.,1.,0.));
#1498=CARTESIAN_POINT('',(-6.75976136733532,6.,9.));
#1499=CARTESIAN_POINT('',(-6.10977735999828,6.,9.));
#1500=VECTOR('',#1501,1.);
#1501=DIRECTION('',(-1.,0.,0.));
#1502=CARTESIAN_POINT('',(-6.75976136733533,-1.87442172649475,9.));
#1503=CARTESIAN_POINT('',(-6.75976136733533,6.,9.));
#1504=VECTOR('',#1505,1.);
#1505=DIRECTION('',(0.,-1.,0.));
#1506=CARTESIAN_POINT('',(-9.9661227384856,-1.87442172649475,9.));
#1507=CARTESIAN_POINT('',(-6.75976136733533,-1.87442172649475,9.));
#1508=VECTOR('',#1509,1.);
#1509=DIRECTION('',(-1.,2.0775381738588E-16,0.));
#1510=CARTESIAN_POINT('',(-9.96612273848561,-1.87442172649475,9.));
#1511=VECTOR('',#1512,1.);
#1512=DIRECTION('',(0.,-1.,0.));
#1513=CARTESIAN_POINT('',(8.76573235058875,6.,9.));
#1514=CARTESIAN_POINT('',(8.76573235058874,-3.50514166666667,9.));
#1515=CARTESIAN_POINT('',(8.76573235058875,6.,9.));
#1516=VECTOR('',#1517,1.);
#1517=DIRECTION('',(-1.86883783713578E-16,-1.,0.));
#1518=CARTESIAN_POINT('',(6.76573235058874,-5.50514166666667,9.));
#1519=AXIS2_PLACEMENT_3D('',#1520,#1521,#1522);
#1520=CARTESIAN_POINT('',(6.76573235058874,-3.50514166666667,9.));
#1521=DIRECTION('',(0.,0.,-1.));
#1522=DIRECTION('',(1.,2.22044604925031E-16,0.));
#1523=CARTESIAN_POINT('',(3.35267152386765,-5.50514166666667,9.));
#1524=CARTESIAN_POINT('',(6.76573235058874,-5.50514166666667,9.));
#1525=VECTOR('',#1526,1.);
#1526=DIRECTION('',(-1.,0.,0.));
#1527=CARTESIAN_POINT('',(1.35267152386765,-3.50514166666667,9.));
#1528=AXIS2_PLACEMENT_3D('',#1529,#1530,#1531);
#1529=CARTESIAN_POINT('',(3.35267152386765,-3.50514166666667,9.));
#1530=DIRECTION('',(0.,0.,-1.));
#1531=DIRECTION('',(-6.66133814775094E-16,-1.,0.));
#1532=CARTESIAN_POINT('',(1.35267152386765,6.,9.));
#1533=CARTESIAN_POINT('',(1.35267152386765,-3.50514166666667,9.));
#1534=VECTOR('',#1535,1.);
#1535=DIRECTION('',(1.16802364820986E-16,1.,0.));
#1536=CARTESIAN_POINT('',(0.561234697871367,6.,9.));
#1537=CARTESIAN_POINT('',(1.35267152386765,6.,9.));
#1538=VECTOR('',#1539,1.);
#1539=DIRECTION('',(-1.,0.,0.));
#1540=CARTESIAN_POINT('',(0.561234697871366,-5.8249918127718,9.));
#1541=CARTESIAN_POINT('',(0.561234697871367,6.,9.));
#1542=VECTOR('',#1543,1.);
#1543=DIRECTION('',(-1.12665416656885E-16,-1.,0.));
#1544=CARTESIAN_POINT('',(9.55716917658503,-5.8249918127718,9.));
#1545=CARTESIAN_POINT('',(0.561234697871366,-5.8249918127718,9.));
#1546=VECTOR('',#1547,1.);
#1547=DIRECTION('',(1.,-9.87310903388356E-17,0.));
#1548=CARTESIAN_POINT('',(9.55716917658503,6.,9.));
#1549=CARTESIAN_POINT('',(9.55716917658503,-5.8249918127718,9.));
#1550=VECTOR('',#1551,1.);
#1551=DIRECTION('',(0.,1.,0.));
#1552=CARTESIAN_POINT('',(9.55716917658503,6.,9.));
#1553=VECTOR('',#1554,1.);
#1554=DIRECTION('',(-1.,0.,0.));
#1555=CARTESIAN_POINT('',(15.5,-8.94892917243921,6.));
#1556=CARTESIAN_POINT('',(15.5,-8.94892917243921,6.));
#1557=VECTOR('',#1558,1.);
#1558=DIRECTION('',(-5.9211894646675E-16,0.,1.));
#1559=CARTESIAN_POINT('',(15.5,8.9489291724392,6.));
#1560=CARTESIAN_POINT('',(15.5,-8.94892917243921,6.));
#1561=VECTOR('',#1562,1.);
#1562=DIRECTION('',(9.92496870391517E-16,1.,0.));
#1563=CARTESIAN_POINT('',(15.5,8.94892917243919,6.));
#1564=VECTOR('',#1565,1.);
#1565=DIRECTION('',(0.,0.,1.));
#1566=CARTESIAN_POINT('',(8.31318032845965E-15,17.8978583448784,6.));
#1567=CARTESIAN_POINT('',(15.5,8.94892917243919,6.));
#1568=VECTOR('',#1569,1.);
#1569=DIRECTION('',(-0.866025403784438,0.5,0.));
#1570=CARTESIAN_POINT('',(1.06311563239434E-14,17.8978583448784,6.));
#1571=VECTOR('',#1572,1.);
#1572=DIRECTION('',(0.,0.,1.));
#1573=CARTESIAN_POINT('',(-15.5,8.94892917243921,6.));
#1574=CARTESIAN_POINT('',(1.04091117190184E-14,17.8978583448784,6.));
#1575=VECTOR('',#1576,1.);
#1576=DIRECTION('',(-0.866025403784439,-0.499999999999999,0.));
#1577=CARTESIAN_POINT('',(-15.5,8.94892917243921,6.));
#1578=VECTOR('',#1579,1.);
#1579=DIRECTION('',(5.9211894646675E-16,5.9211894646675E-16,1.));
#1580=CARTESIAN_POINT('',(-15.5,-8.94892917243919,6.));
#1581=CARTESIAN_POINT('',(-15.5,8.94892917243921,6.));
#1582=VECTOR('',#1583,1.);
#1583=DIRECTION('',(-4.96248435195758E-16,-1.,0.));
#1584=CARTESIAN_POINT('',(-15.5,-8.94892917243919,6.));
#1585=VECTOR('',#1586,1.);
#1586=DIRECTION('',(0.,0.,1.));
#1587=CARTESIAN_POINT('',(-1.07130229561807E-14,-17.8978583448784,6.));
#1588=CARTESIAN_POINT('',(-15.5,-8.94892917243919,6.));
#1589=VECTOR('',#1590,1.);
#1590=DIRECTION('',(0.866025403784438,-0.500000000000001,0.));
#1591=CARTESIAN_POINT('',(-9.87972645625984E-15,-17.8978583448784,6.));
#1592=VECTOR('',#1593,1.);
#1593=DIRECTION('',(-5.9211894646675E-16,0.,1.));
#1594=CARTESIAN_POINT('',(-1.076790487596E-14,-17.8978583448784,6.));
#1595=VECTOR('',#1596,1.);
#1596=DIRECTION('',(0.866025403784439,0.5,0.));
#1597=CARTESIAN_POINT('',(14.5,-8.37157890324958,5.));
#1598=CARTESIAN_POINT('',(15.5,-8.94892917243921,6.));
#1599=VECTOR('',#1600,1.);
#1600=DIRECTION('',(-0.654653670707976,0.377964473009228,-0.654653670707978));
#1601=CARTESIAN_POINT('',(14.5,8.37157890324956,5.));
#1602=CARTESIAN_POINT('',(14.5,-8.37157890324958,5.));
#1603=VECTOR('',#1604,1.);
#1604=DIRECTION('',(1.06094493041852E-15,1.,0.));
#1605=CARTESIAN_POINT('',(15.5,8.9489291724392,6.));
#1606=VECTOR('',#1607,1.);
#1607=DIRECTION('',(-0.654653670707977,-0.37796447300923,-0.654653670707976));
#1608=CARTESIAN_POINT('',(8.01095378303764E-15,16.7431578064991,5.));
#1609=CARTESIAN_POINT('',(14.5,8.37157890324956,5.));
#1610=VECTOR('',#1611,1.);
#1611=DIRECTION('',(-0.866025403784438,0.500000000000001,0.));
#1612=CARTESIAN_POINT('',(6.88338275267597E-15,17.8978583448784,6.));
#1613=VECTOR('',#1614,1.);
#1614=DIRECTION('',(7.26811578375371E-17,-0.755928946018455,-0.654653670707977));
#1615=CARTESIAN_POINT('',(-14.5,8.37157890324958,5.));
#1616=CARTESIAN_POINT('',(9.40740656668734E-15,16.7431578064991,5.));
#1617=VECTOR('',#1618,1.);
#1618=DIRECTION('',(-0.866025403784439,-0.499999999999999,0.));
#1619=CARTESIAN_POINT('',(-15.5,8.94892917243921,6.));
#1620=VECTOR('',#1621,1.);
#1621=DIRECTION('',(0.654653670707979,-0.377964473009225,-0.654653670707977));
#1622=CARTESIAN_POINT('',(-14.5,-8.37157890324957,5.));
#1623=CARTESIAN_POINT('',(-14.5,8.37157890324958,5.));
#1624=VECTOR('',#1625,1.);
#1625=DIRECTION('',(-5.30472465209259E-16,-1.,0.));
#1626=CARTESIAN_POINT('',(-15.5,-8.94892917243919,6.));
#1627=VECTOR('',#1628,1.);
#1628=DIRECTION('',(0.654653670707978,0.377964473009226,-0.654653670707977));
#1629=CARTESIAN_POINT('',(-1.01018738127484E-14,-16.7431578064991,5.));
#1630=CARTESIAN_POINT('',(-14.5,-8.37157890324957,5.));
#1631=VECTOR('',#1632,1.);
#1632=DIRECTION('',(0.866025403784438,-0.500000000000001,-5.30472465209259E-17));
#1633=CARTESIAN_POINT('',(-1.06581410364015E-14,-17.8978583448784,6.));
#1634=VECTOR('',#1635,1.);
#1635=DIRECTION('',(4.90597815403376E-16,0.755928946018455,-0.654653670707977));
#1636=CARTESIAN_POINT('',(-1.02678294107718E-14,-16.7431578064991,5.));
#1637=VECTOR('',#1638,1.);
#1638=DIRECTION('',(0.866025403784439,0.5,0.));
#1639=CARTESIAN_POINT('',(-13.5,3.30654635769785E-15,5.));
#1640=AXIS2_PLACEMENT_3D('',#1641,#1642,#1643);
#1641=CARTESIAN_POINT('',(0.,0.,5.));
#1642=DIRECTION('',(0.,0.,1.));
#1643=DIRECTION('',(-1.,1.22464679914735E-16,0.));
#1644=CARTESIAN_POINT('',(-12.5,3.06161699786838E-15,4.));
#1645=AXIS2_PLACEMENT_3D('',#1646,#1647,#1648);
#1646=CARTESIAN_POINT('',(0.,0.,4.));
#1647=DIRECTION('',(0.,0.,1.));
#1648=DIRECTION('',(-1.,1.22464679914735E-16,0.));
#1649=CARTESIAN_POINT('',(-12.5,1.53080849893419E-15,0.));
#1650=AXIS2_PLACEMENT_3D('',#1651,#1652,#1653);
#1651=CARTESIAN_POINT('',(0.,0.,0.));
#1652=DIRECTION('',(0.,0.,1.));
#1653=DIRECTION('',(-1.,1.22464679914735E-16,0.));
#1654=CARTESIAN_POINT('',(8.76573235058875,6.,9.));
#1655=VECTOR('',#1656,1.);
#1656=DIRECTION('',(-0.707106781186548,0.,0.707106781186547));
#1657=CARTESIAN_POINT('',(8.76573235058875,7.,10.));
#1658=VECTOR('',#1659,1.);
#1659=DIRECTION('',(0.,-0.707106781186547,-0.707106781186547));
#1660=CARTESIAN_POINT('',(7.76573235058874,-3.50514166666666,10.));
#1661=VECTOR('',#1662,1.);
#1662=DIRECTION('',(0.707106781186548,3.14018491736755E-16,-0.707106781186547));
#1663=CARTESIAN_POINT('',(6.76573235058875,-5.50514166666667,9.));
#1664=VECTOR('',#1665,1.);
#1665=DIRECTION('',(-6.2803698347351E-16,0.707106781186547,0.707106781186547));
#1666=CARTESIAN_POINT('',(3.35267152386765,-4.50514166666667,10.));
#1667=VECTOR('',#1668,1.);
#1668=DIRECTION('',(0.,-0.707106781186547,-0.707106781186547));
#1669=CARTESIAN_POINT('',(1.35267152386765,-3.50514166666667,9.));
#1670=VECTOR('',#1671,1.);
#1671=DIRECTION('',(0.707106781186547,3.14018491736755E-16,0.707106781186547));
#1672=CARTESIAN_POINT('',(2.35267152386765,6.,10.));
#1673=VECTOR('',#1674,1.);
#1674=DIRECTION('',(-0.707106781186547,0.,-0.707106781186548));
#1675=CARTESIAN_POINT('',(1.35267152386765,6.,9.));
#1676=VECTOR('',#1677,1.);
#1677=DIRECTION('',(0.,0.707106781186547,0.707106781186547));
#1678=CARTESIAN_POINT('',(0.561234697871366,7.,10.));
#1679=VECTOR('',#1680,1.);
#1680=DIRECTION('',(7.85046229341887E-17,-0.707106781186547,-0.707106781186547));
#1681=CARTESIAN_POINT('',(0.561234697871367,6.,9.));
#1682=VECTOR('',#1683,1.);
#1683=DIRECTION('',(-0.707106781186547,0.,0.707106781186548));
#1684=CARTESIAN_POINT('',(-0.438765302128634,-5.82499181277181,10.));
#1685=VECTOR('',#1686,1.);
#1686=DIRECTION('',(0.707106781186547,0.,-0.707106781186548));
#1687=CARTESIAN_POINT('',(0.561234697871366,-5.8249918127718,9.));
#1688=VECTOR('',#1689,1.);
#1689=DIRECTION('',(0.,-0.707106781186547,0.707106781186547));
#1690=CARTESIAN_POINT('',(9.55716917658503,-6.8249918127718,10.));
#1691=VECTOR('',#1692,1.);
#1692=DIRECTION('',(0.,0.707106781186547,-0.707106781186548));
#1693=CARTESIAN_POINT('',(9.55716917658503,-5.8249918127718,9.));
#1694=VECTOR('',#1695,1.);
#1695=DIRECTION('',(0.707106781186547,0.,0.707106781186547));
#1696=CARTESIAN_POINT('',(10.557169176585,6.,10.));
#1697=VECTOR('',#1698,1.);
#1698=DIRECTION('',(-0.707106781186547,0.,-0.707106781186547));
#1699=CARTESIAN_POINT('',(9.55716917658503,6.,9.));
#1700=VECTOR('',#1701,1.);
#1701=DIRECTION('',(0.,0.707106781186547,0.707106781186547));
#1702=CARTESIAN_POINT('',(-10.9661227384856,-2.01514066739147,10.));
#1703=VECTOR('',#1704,1.);
#1704=DIRECTION('',(0.707106781186546,0.,-0.707106781186549));
#1705=CARTESIAN_POINT('',(-9.9661227384856,-2.01514066739147,9.));
#1706=VECTOR('',#1707,1.);
#1707=DIRECTION('',(0.,-0.707106781186548,0.707106781186547));
#1708=CARTESIAN_POINT('',(-2.90347386733533,-3.01514066739147,10.));
#1709=VECTOR('',#1710,1.);
#1710=DIRECTION('',(0.,0.707106781186548,-0.707106781186547));
#1711=CARTESIAN_POINT('',(-2.90347386733533,-2.01514066739147,9.));
#1712=VECTOR('',#1713,1.);
#1713=DIRECTION('',(0.707106781186547,0.,0.707106781186548));
#1714=CARTESIAN_POINT('',(-1.90347386733533,-1.87442172649475,10.));
#1715=VECTOR('',#1716,1.);
#1716=DIRECTION('',(-0.707106781186547,0.,-0.707106781186548));
#1717=CARTESIAN_POINT('',(-2.90347386733533,-1.87442172649475,9.));
#1718=VECTOR('',#1719,1.);
#1719=DIRECTION('',(0.,0.707106781186548,0.707106781186547));
#1720=CARTESIAN_POINT('',(-5.10977735999828,-0.874421726494748,10.));
#1721=VECTOR('',#1722,1.);
#1722=DIRECTION('',(-0.577350269189626,-0.577350269189626,-0.577350269189625));
#1723=CARTESIAN_POINT('',(-5.10977735999828,6.,10.));
#1724=VECTOR('',#1725,1.);
#1725=DIRECTION('',(-0.707106781186547,0.,-0.707106781186547));
#1726=CARTESIAN_POINT('',(-6.10977735999828,6.,9.));
#1727=VECTOR('',#1728,1.);
#1728=DIRECTION('',(0.,0.707106781186547,0.707106781186547));
#1729=CARTESIAN_POINT('',(-6.75976136733532,7.,10.));
#1730=VECTOR('',#1731,1.);
#1731=DIRECTION('',(0.,-0.707106781186547,-0.707106781186547));
#1732=CARTESIAN_POINT('',(-6.75976136733533,6.,9.));
#1733=VECTOR('',#1734,1.);
#1734=DIRECTION('',(-0.707106781186547,0.,0.707106781186547));
#1735=CARTESIAN_POINT('',(-7.75976136733533,-0.874421726494747,10.));
#1736=VECTOR('',#1737,1.);
#1737=DIRECTION('',(0.577350269189626,-0.577350269189626,-0.577350269189626));
#1738=CARTESIAN_POINT('',(-9.9661227384856,-0.874421726494747,10.));
#1739=VECTOR('',#1740,1.);
#1740=DIRECTION('',(0.,-0.707106781186547,-0.707106781186547));
#1741=CARTESIAN_POINT('',(-9.96612273848561,-1.87442172649475,9.));
#1742=VECTOR('',#1743,1.);
#1743=DIRECTION('',(-0.707106781186546,0.,0.707106781186549));
ENDSEC;
END-ISO-10303-21;
