ISO-10303-21;
HEADER;
FILE_DESCRIPTION(('STEP AP242'),
    '1');
FILE_NAME('itemPillContainerCap',
    '',
    ('UNSPECIFIED'),
    ('UNSPECIFIED'),
    'C3D Converter',
    'C3D Toolkit',
    '');
FILE_SCHEMA(('AP242_MANAGED_MODEL_BASED_3D_ENGINEERING_MIM_LF { 1 0 10303 442 1 1 4 }'));
ENDSEC;

DATA;
#1=PRODUCT_DEFINITION('','UNSPECIFIED',#28,#31);
#2=SHAPE_DEFINITION_REPRESENTATION(#26,#3);
#3=SHAPE_REPRESENTATION('NONE',(#4),#8);
#4=AXIS2_PLACEMENT_3D('',#5,#6,#7);
#5=CARTESIAN_POINT('',(0.,0.,0.));
#6=DIRECTION('',(0.,0.,1.));
#7=DIRECTION('',(1.,0.,0.));
#8=(GEOMETRIC_REPRESENTATION_CONTEXT(3)GLOBAL_UNCERTAINTY_ASSIGNED_CONTEXT((#10))
GLOBAL_UNIT_ASSIGNED_CONTEXT((#9,#11,#12))REPRESENTATION_CONTEXT('NONE','NONE'));
#9=(LENGTH_UNIT()NAMED_UNIT(*)SI_UNIT(.MILLI.,.METRE.));
#10=UNCERTAINTY_MEASURE_WITH_UNIT(LENGTH_MEASURE(1.E-5),#9,'NONE','NONE');
#11=(NAMED_UNIT(*)PLANE_ANGLE_UNIT()SI_UNIT($,.RADIAN.));
#12=(NAMED_UNIT(*)SI_UNIT($,.STERADIAN.)SOLID_ANGLE_UNIT());
#13=MANIFOLD_SOLID_BREP('',#14);
#14=CLOSED_SHELL('',(#48,#49,#50,#51,#52,#53,#54,#55,#56,#57,#58,#59,#60,#61,#62,
#63,#64,#65,#66,#67,#68,#69,#70));
#15=COLOUR_RGB('',0.564705882352941,0.564705882352941,0.564705882352941);
#16=FILL_AREA_STYLE_COLOUR('',#15);
#17=FILL_AREA_STYLE($,(#16));
#18=SURFACE_STYLE_FILL_AREA(#17);
#19=SURFACE_SIDE_STYLE('',(#18));
#20=SURFACE_STYLE_USAGE(.BOTH.,#19);
#21=PRESENTATION_STYLE_ASSIGNMENT((#20));
#22=MECHANICAL_DESIGN_GEOMETRIC_PRESENTATION_REPRESENTATION('NONE',(#23),#8);
#23=STYLED_ITEM('',(#21),#13);
#24=ADVANCED_BREP_SHAPE_REPRESENTATION('NONE',(#13),#8);
#25=SHAPE_REPRESENTATION_RELATIONSHIP('','',#3,#24);
#26=PRODUCT_DEFINITION_SHAPE('NONE','NONE',#1);
#27=MECHANICAL_CONTEXT('NONE',#32,'mechanical');
#28=PRODUCT_DEFINITION_FORMATION_WITH_SPECIFIED_SOURCE('ANY','UNSPECIFIED',#29,.NOT_KNOWN.);
#29=PRODUCT('','itemPillContainerCap','NONE',(#27));
#30=PRODUCT_RELATED_PRODUCT_CATEGORY('detail','',(#29));
#31=DESIGN_CONTEXT('detailed design',#32,'design');
#32=APPLICATION_CONTEXT('configuration controlled 3d designs of mechanical parts and assemblies');
#33=APPLICATION_PROTOCOL_DEFINITION('international standard','config_control_design',
1994,#32);
#34=CC_DESIGN_DATE_AND_TIME_ASSIGNMENT(#35,#39,(#1));
#35=DATE_AND_TIME(#36,#37);
#36=CALENDAR_DATE(0,1,1);
#37=LOCAL_TIME(0,0,0.,#38);
#38=COORDINATED_UNIVERSAL_TIME_OFFSET(0,0,.AHEAD.);
#39=DATE_TIME_ROLE('creation_date');
#40=CC_DESIGN_APPROVAL(#41,(#1));
#41=APPROVAL(#42,'UNSPECIFIED');
#42=APPROVAL_STATUS('not_yet_approved');
#43=APPROVAL_DATE_TIME(#44,#41);
#44=DATE_AND_TIME(#45,#46);
#45=CALENDAR_DATE(0,1,1);
#46=LOCAL_TIME(0,0,0.,#47);
#47=COORDINATED_UNIVERSAL_TIME_OFFSET(0,0,.AHEAD.);
#48=ADVANCED_FACE('',(#71,#73),#75,.T.);
#49=ADVANCED_FACE('',(#80,#82),#84,.F.);
#50=ADVANCED_FACE('',(#89),#91,.F.);
#51=ADVANCED_FACE('',(#96),#98,.T.);
#52=ADVANCED_FACE('',(#103),#105,.T.);
#53=ADVANCED_FACE('',(#110),#112,.T.);
#54=ADVANCED_FACE('',(#117),#119,.T.);
#55=ADVANCED_FACE('',(#124),#126,.T.);
#56=ADVANCED_FACE('',(#131),#133,.T.);
#57=ADVANCED_FACE('',(#138),#140,.T.);
#58=ADVANCED_FACE('',(#145,#147),#149,.T.);
#59=ADVANCED_FACE('',(#154),#156,.F.);
#60=ADVANCED_FACE('',(#161),#163,.F.);
#61=ADVANCED_FACE('',(#168),#170,.F.);
#62=ADVANCED_FACE('',(#175),#177,.F.);
#63=ADVANCED_FACE('',(#182),#184,.F.);
#64=ADVANCED_FACE('',(#189),#191,.F.);
#65=ADVANCED_FACE('',(#196),#198,.T.);
#66=ADVANCED_FACE('',(#203),#205,.T.);
#67=ADVANCED_FACE('',(#210),#212,.T.);
#68=ADVANCED_FACE('',(#217),#219,.T.);
#69=ADVANCED_FACE('',(#224),#226,.T.);
#70=ADVANCED_FACE('',(#231),#233,.T.);
#71=FACE_OUTER_BOUND('',#72,.T.);
#72=EDGE_LOOP('',(#238));
#73=FACE_OUTER_BOUND('',#74,.T.);
#74=EDGE_LOOP('',(#239));
#75=CYLINDRICAL_SURFACE('',#76,12.4);
#76=AXIS2_PLACEMENT_3D('',#77,#78,#79);
#77=CARTESIAN_POINT('',(0.,0.,0.));
#78=DIRECTION('',(0.,0.,1.));
#79=DIRECTION('',(-1.,1.22464679914735E-16,0.));
#80=FACE_BOUND('',#81,.T.);
#81=EDGE_LOOP('',(#240,#241,#242,#243,#244,#245));
#82=FACE_BOUND('',#83,.T.);
#83=EDGE_LOOP('',(#246));
#84=PLANE('',#85);
#85=AXIS2_PLACEMENT_3D('',#86,#87,#88);
#86=CARTESIAN_POINT('',(0.,0.,2.));
#87=DIRECTION('',(0.,0.,1.));
#88=DIRECTION('',(-1.,1.22464679914735E-16,0.));
#89=FACE_BOUND('',#90,.T.);
#90=EDGE_LOOP('',(#247));
#91=PLANE('',#92);
#92=AXIS2_PLACEMENT_3D('',#93,#94,#95);
#93=CARTESIAN_POINT('',(0.,0.,0.));
#94=DIRECTION('',(0.,0.,1.));
#95=DIRECTION('',(-1.,1.22464679914735E-16,0.));
#96=FACE_BOUND('',#97,.T.);
#97=EDGE_LOOP('',(#248,#249,#250,#251));
#98=PLANE('',#99);
#99=AXIS2_PLACEMENT_3D('',#100,#101,#102);
#100=CARTESIAN_POINT('',(-14.5,-8.37157890324957,2.));
#101=DIRECTION('',(-0.5,-0.866025403784439,0.));
#102=DIRECTION('',(0.866025403784439,-0.5,0.));
#103=FACE_BOUND('',#104,.T.);
#104=EDGE_LOOP('',(#252,#253,#254,#255));
#105=PLANE('',#106);
#106=AXIS2_PLACEMENT_3D('',#107,#108,#109);
#107=CARTESIAN_POINT('',(-14.5,8.37157890324959,2.));
#108=DIRECTION('',(-1.,7.42661451292962E-16,0.));
#109=DIRECTION('',(-7.42661451292962E-16,-1.,0.));
#110=FACE_BOUND('',#111,.T.);
#111=EDGE_LOOP('',(#256,#257,#258,#259));
#112=PLANE('',#113);
#113=AXIS2_PLACEMENT_3D('',#114,#115,#116);
#114=CARTESIAN_POINT('',(1.44849433373366E-14,16.7431578064991,2.));
#115=DIRECTION('',(-0.499999999999999,0.866025403784439,0.));
#116=DIRECTION('',(-0.866025403784439,-0.499999999999999,0.));
#117=FACE_BOUND('',#118,.T.);
#118=EDGE_LOOP('',(#260,#261,#262,#263));
#119=PLANE('',#120);
#120=AXIS2_PLACEMENT_3D('',#121,#122,#123);
#121=CARTESIAN_POINT('',(14.5,8.37157890324956,2.));
#122=DIRECTION('',(0.500000000000001,0.866025403784438,0.));
#123=DIRECTION('',(-0.866025403784438,0.500000000000001,0.));
#124=FACE_BOUND('',#125,.T.);
#125=EDGE_LOOP('',(#264,#265,#266,#267));
#126=PLANE('',#127);
#127=AXIS2_PLACEMENT_3D('',#128,#129,#130);
#128=CARTESIAN_POINT('',(14.5,-8.37157890324958,2.));
#129=DIRECTION('',(1.,-7.42661451292963E-16,0.));
#130=DIRECTION('',(7.42661451292963E-16,1.,0.));
#131=FACE_BOUND('',#132,.T.);
#132=EDGE_LOOP('',(#268,#269,#270,#271));
#133=PLANE('',#134);
#134=AXIS2_PLACEMENT_3D('',#135,#136,#137);
#135=CARTESIAN_POINT('',(-5.60315914033532E-15,-16.7431578064991,2.));
#136=DIRECTION('',(0.5,-0.866025403784439,0.));
#137=DIRECTION('',(0.866025403784439,0.5,0.));
#138=FACE_BOUND('',#139,.T.);
#139=EDGE_LOOP('',(#272,#273,#274,#275,#276,#277));
#140=PLANE('',#141);
#141=AXIS2_PLACEMENT_3D('',#142,#143,#144);
#142=CARTESIAN_POINT('',(0.,0.,7.));
#143=DIRECTION('',(0.,0.,1.));
#144=DIRECTION('',(-1.,1.22464679914735E-16,0.));
#145=FACE_OUTER_BOUND('',#146,.T.);
#146=EDGE_LOOP('',(#278));
#147=FACE_OUTER_BOUND('',#148,.T.);
#148=EDGE_LOOP('',(#279));
#149=CONICAL_SURFACE('',#150,12.9,0.785398163397448);
#150=AXIS2_PLACEMENT_3D('',#151,#152,#153);
#151=CARTESIAN_POINT('',(0.,0.,1.5));
#152=DIRECTION('',(0.,0.,1.));
#153=DIRECTION('',(-1.,1.22464679914735E-16,0.));
#154=FACE_BOUND('',#155,.T.);
#155=EDGE_LOOP('',(#280,#281,#282,#283));
#156=PLANE('',#157);
#157=AXIS2_PLACEMENT_3D('',#158,#159,#160);
#158=CARTESIAN_POINT('',(14.5,-12.3715789032496,3.));
#159=DIRECTION('',(-0.70710678118655,5.58409469982367E-16,0.707106781186546));
#160=DIRECTION('',(7.89710245806633E-16,1.,0.));
#161=FACE_BOUND('',#162,.T.);
#162=EDGE_LOOP('',(#284,#285,#286,#287));
#163=PLANE('',#164);
#164=AXIS2_PLACEMENT_3D('',#165,#166,#167);
#165=CARTESIAN_POINT('',(17.9641016151378,6.37157890324956,3.));
#166=DIRECTION('',(-0.353553390593274,-0.612372435695794,0.707106781186548));
#167=DIRECTION('',(-0.866025403784438,0.500000000000001,-2.53822486355621E-17));
#168=FACE_BOUND('',#169,.T.);
#169=EDGE_LOOP('',(#288,#289,#290,#291));
#170=PLANE('',#171);
#171=AXIS2_PLACEMENT_3D('',#172,#173,#174);
#172=CARTESIAN_POINT('',(3.46410161513777,18.7431578064991,3.));
#173=DIRECTION('',(0.353553390593274,-0.612372435695795,0.707106781186547));
#174=DIRECTION('',(-0.866025403784439,-0.499999999999999,-2.53822486355621E-17));
#175=FACE_BOUND('',#176,.T.);
#176=EDGE_LOOP('',(#292,#293,#294,#295));
#177=PLANE('',#178);
#178=AXIS2_PLACEMENT_3D('',#179,#180,#181);
#179=CARTESIAN_POINT('',(-14.5,12.3715789032496,3.));
#180=DIRECTION('',(0.707106781186549,-5.58409469982366E-16,0.707106781186546));
#181=DIRECTION('',(-7.89710245806633E-16,-1.,0.));
#182=FACE_BOUND('',#183,.T.);
#183=EDGE_LOOP('',(#296,#297,#298,#299));
#184=PLANE('',#185);
#185=AXIS2_PLACEMENT_3D('',#186,#187,#188);
#186=CARTESIAN_POINT('',(-17.9641016151378,-6.37157890324957,3.));
#187=DIRECTION('',(0.353553390593274,0.612372435695794,0.707106781186548));
#188=DIRECTION('',(0.866025403784439,-0.5,-2.53822486355621E-17));
#189=FACE_BOUND('',#190,.T.);
#190=EDGE_LOOP('',(#300,#301,#302,#303));
#191=PLANE('',#192);
#192=AXIS2_PLACEMENT_3D('',#193,#194,#195);
#193=CARTESIAN_POINT('',(-3.46410161513776,-18.7431578064991,3.));
#194=DIRECTION('',(-0.353553390593273,0.612372435695794,0.707106781186548));
#195=DIRECTION('',(0.866025403784439,0.5,0.));
#196=FACE_BOUND('',#197,.T.);
#197=EDGE_LOOP('',(#304,#305,#306,#307));
#198=PLANE('',#199);
#199=AXIS2_PLACEMENT_3D('',#200,#201,#202);
#200=CARTESIAN_POINT('',(14.5,-12.3715789032496,6.));
#201=DIRECTION('',(0.70710678118655,-5.58409469982367E-16,0.707106781186546));
#202=DIRECTION('',(7.89710245806633E-16,1.,0.));
#203=FACE_BOUND('',#204,.T.);
#204=EDGE_LOOP('',(#308,#309,#310,#311));
#205=PLANE('',#206);
#206=AXIS2_PLACEMENT_3D('',#207,#208,#209);
#207=CARTESIAN_POINT('',(17.9641016151378,6.37157890324956,6.));
#208=DIRECTION('',(0.353553390593274,0.612372435695794,0.707106781186548));
#209=DIRECTION('',(-0.866025403784438,0.500000000000001,2.53822486355621E-17));
#210=FACE_BOUND('',#211,.T.);
#211=EDGE_LOOP('',(#312,#313,#314,#315));
#212=PLANE('',#213);
#213=AXIS2_PLACEMENT_3D('',#214,#215,#216);
#214=CARTESIAN_POINT('',(3.46410161513777,18.7431578064991,6.));
#215=DIRECTION('',(-0.353553390593274,0.612372435695795,0.707106781186547));
#216=DIRECTION('',(-0.866025403784439,-0.499999999999999,2.53822486355621E-17));
#217=FACE_BOUND('',#218,.T.);
#218=EDGE_LOOP('',(#316,#317,#318,#319));
#219=PLANE('',#220);
#220=AXIS2_PLACEMENT_3D('',#221,#222,#223);
#221=CARTESIAN_POINT('',(-14.5,12.3715789032496,6.));
#222=DIRECTION('',(-0.707106781186549,5.58409469982366E-16,0.707106781186546));
#223=DIRECTION('',(-7.89710245806633E-16,-1.,0.));
#224=FACE_BOUND('',#225,.T.);
#225=EDGE_LOOP('',(#320,#321,#322,#323));
#226=PLANE('',#227);
#227=AXIS2_PLACEMENT_3D('',#228,#229,#230);
#228=CARTESIAN_POINT('',(-17.9641016151378,-6.37157890324957,6.));
#229=DIRECTION('',(-0.353553390593274,-0.612372435695794,0.707106781186548));
#230=DIRECTION('',(0.866025403784439,-0.5,2.53822486355621E-17));
#231=FACE_BOUND('',#232,.T.);
#232=EDGE_LOOP('',(#324,#325,#326,#327));
#233=PLANE('',#234);
#234=AXIS2_PLACEMENT_3D('',#235,#236,#237);
#235=CARTESIAN_POINT('',(-3.46410161513776,-18.7431578064991,6.));
#236=DIRECTION('',(0.353553390593273,-0.612372435695794,0.707106781186548));
#237=DIRECTION('',(0.866025403784439,0.5,0.));
#238=ORIENTED_EDGE('',*,*,#328,.F.);
#239=ORIENTED_EDGE('',*,*,#329,.T.);
#240=ORIENTED_EDGE('',*,*,#330,.F.);
#241=ORIENTED_EDGE('',*,*,#331,.F.);
#242=ORIENTED_EDGE('',*,*,#332,.F.);
#243=ORIENTED_EDGE('',*,*,#333,.F.);
#244=ORIENTED_EDGE('',*,*,#334,.F.);
#245=ORIENTED_EDGE('',*,*,#335,.F.);
#246=ORIENTED_EDGE('',*,*,#336,.T.);
#247=ORIENTED_EDGE('',*,*,#329,.F.);
#248=ORIENTED_EDGE('',*,*,#337,.F.);
#249=ORIENTED_EDGE('',*,*,#338,.F.);
#250=ORIENTED_EDGE('',*,*,#339,.T.);
#251=ORIENTED_EDGE('',*,*,#340,.T.);
#252=ORIENTED_EDGE('',*,*,#341,.F.);
#253=ORIENTED_EDGE('',*,*,#342,.F.);
#254=ORIENTED_EDGE('',*,*,#343,.T.);
#255=ORIENTED_EDGE('',*,*,#338,.T.);
#256=ORIENTED_EDGE('',*,*,#344,.F.);
#257=ORIENTED_EDGE('',*,*,#345,.F.);
#258=ORIENTED_EDGE('',*,*,#346,.T.);
#259=ORIENTED_EDGE('',*,*,#342,.T.);
#260=ORIENTED_EDGE('',*,*,#347,.F.);
#261=ORIENTED_EDGE('',*,*,#348,.F.);
#262=ORIENTED_EDGE('',*,*,#349,.T.);
#263=ORIENTED_EDGE('',*,*,#345,.T.);
#264=ORIENTED_EDGE('',*,*,#350,.F.);
#265=ORIENTED_EDGE('',*,*,#351,.F.);
#266=ORIENTED_EDGE('',*,*,#352,.T.);
#267=ORIENTED_EDGE('',*,*,#348,.T.);
#268=ORIENTED_EDGE('',*,*,#353,.F.);
#269=ORIENTED_EDGE('',*,*,#340,.F.);
#270=ORIENTED_EDGE('',*,*,#354,.T.);
#271=ORIENTED_EDGE('',*,*,#351,.T.);
#272=ORIENTED_EDGE('',*,*,#355,.T.);
#273=ORIENTED_EDGE('',*,*,#356,.T.);
#274=ORIENTED_EDGE('',*,*,#357,.T.);
#275=ORIENTED_EDGE('',*,*,#358,.T.);
#276=ORIENTED_EDGE('',*,*,#359,.T.);
#277=ORIENTED_EDGE('',*,*,#360,.T.);
#278=ORIENTED_EDGE('',*,*,#328,.T.);
#279=ORIENTED_EDGE('',*,*,#336,.F.);
#280=ORIENTED_EDGE('',*,*,#352,.F.);
#281=ORIENTED_EDGE('',*,*,#361,.F.);
#282=ORIENTED_EDGE('',*,*,#330,.T.);
#283=ORIENTED_EDGE('',*,*,#362,.T.);
#284=ORIENTED_EDGE('',*,*,#349,.F.);
#285=ORIENTED_EDGE('',*,*,#362,.F.);
#286=ORIENTED_EDGE('',*,*,#335,.T.);
#287=ORIENTED_EDGE('',*,*,#363,.T.);
#288=ORIENTED_EDGE('',*,*,#346,.F.);
#289=ORIENTED_EDGE('',*,*,#363,.F.);
#290=ORIENTED_EDGE('',*,*,#334,.T.);
#291=ORIENTED_EDGE('',*,*,#364,.T.);
#292=ORIENTED_EDGE('',*,*,#343,.F.);
#293=ORIENTED_EDGE('',*,*,#364,.F.);
#294=ORIENTED_EDGE('',*,*,#333,.T.);
#295=ORIENTED_EDGE('',*,*,#365,.T.);
#296=ORIENTED_EDGE('',*,*,#339,.F.);
#297=ORIENTED_EDGE('',*,*,#365,.F.);
#298=ORIENTED_EDGE('',*,*,#332,.T.);
#299=ORIENTED_EDGE('',*,*,#366,.T.);
#300=ORIENTED_EDGE('',*,*,#354,.F.);
#301=ORIENTED_EDGE('',*,*,#366,.F.);
#302=ORIENTED_EDGE('',*,*,#331,.T.);
#303=ORIENTED_EDGE('',*,*,#361,.T.);
#304=ORIENTED_EDGE('',*,*,#350,.T.);
#305=ORIENTED_EDGE('',*,*,#367,.T.);
#306=ORIENTED_EDGE('',*,*,#355,.F.);
#307=ORIENTED_EDGE('',*,*,#368,.F.);
#308=ORIENTED_EDGE('',*,*,#347,.T.);
#309=ORIENTED_EDGE('',*,*,#369,.T.);
#310=ORIENTED_EDGE('',*,*,#356,.F.);
#311=ORIENTED_EDGE('',*,*,#367,.F.);
#312=ORIENTED_EDGE('',*,*,#344,.T.);
#313=ORIENTED_EDGE('',*,*,#370,.T.);
#314=ORIENTED_EDGE('',*,*,#357,.F.);
#315=ORIENTED_EDGE('',*,*,#369,.F.);
#316=ORIENTED_EDGE('',*,*,#341,.T.);
#317=ORIENTED_EDGE('',*,*,#371,.T.);
#318=ORIENTED_EDGE('',*,*,#358,.F.);
#319=ORIENTED_EDGE('',*,*,#370,.F.);
#320=ORIENTED_EDGE('',*,*,#337,.T.);
#321=ORIENTED_EDGE('',*,*,#372,.T.);
#322=ORIENTED_EDGE('',*,*,#359,.F.);
#323=ORIENTED_EDGE('',*,*,#371,.F.);
#324=ORIENTED_EDGE('',*,*,#353,.T.);
#325=ORIENTED_EDGE('',*,*,#368,.T.);
#326=ORIENTED_EDGE('',*,*,#360,.F.);
#327=ORIENTED_EDGE('',*,*,#372,.F.);
#328=EDGE_CURVE('',#373,#373,#374,.T.);
#329=EDGE_CURVE('',#375,#375,#376,.T.);
#330=EDGE_CURVE('',#377,#378,#379,.T.);
#331=EDGE_CURVE('',#380,#377,#381,.T.);
#332=EDGE_CURVE('',#382,#380,#383,.T.);
#333=EDGE_CURVE('',#384,#382,#385,.T.);
#334=EDGE_CURVE('',#386,#384,#387,.T.);
#335=EDGE_CURVE('',#378,#386,#388,.T.);
#336=EDGE_CURVE('',#389,#389,#390,.T.);
#337=EDGE_CURVE('',#391,#392,#393,.T.);
#338=EDGE_CURVE('',#394,#391,#395,.T.);
#339=EDGE_CURVE('',#394,#396,#397,.T.);
#340=EDGE_CURVE('',#396,#392,#398,.T.);
#341=EDGE_CURVE('',#399,#391,#400,.T.);
#342=EDGE_CURVE('',#401,#399,#402,.T.);
#343=EDGE_CURVE('',#401,#394,#403,.T.);
#344=EDGE_CURVE('',#404,#399,#405,.T.);
#345=EDGE_CURVE('',#406,#404,#407,.T.);
#346=EDGE_CURVE('',#406,#401,#408,.T.);
#347=EDGE_CURVE('',#409,#404,#410,.T.);
#348=EDGE_CURVE('',#411,#409,#412,.T.);
#349=EDGE_CURVE('',#411,#406,#413,.T.);
#350=EDGE_CURVE('',#414,#409,#415,.T.);
#351=EDGE_CURVE('',#416,#414,#417,.T.);
#352=EDGE_CURVE('',#416,#411,#418,.T.);
#353=EDGE_CURVE('',#392,#414,#419,.T.);
#354=EDGE_CURVE('',#396,#416,#420,.T.);
#355=EDGE_CURVE('',#421,#422,#423,.T.);
#356=EDGE_CURVE('',#422,#424,#425,.T.);
#357=EDGE_CURVE('',#424,#426,#427,.T.);
#358=EDGE_CURVE('',#426,#428,#429,.T.);
#359=EDGE_CURVE('',#428,#430,#431,.T.);
#360=EDGE_CURVE('',#430,#421,#432,.T.);
#361=EDGE_CURVE('',#377,#416,#433,.F.);
#362=EDGE_CURVE('',#378,#411,#434,.F.);
#363=EDGE_CURVE('',#386,#406,#435,.F.);
#364=EDGE_CURVE('',#384,#401,#436,.F.);
#365=EDGE_CURVE('',#382,#394,#437,.F.);
#366=EDGE_CURVE('',#380,#396,#438,.F.);
#367=EDGE_CURVE('',#409,#422,#439,.T.);
#368=EDGE_CURVE('',#414,#421,#440,.T.);
#369=EDGE_CURVE('',#404,#424,#441,.T.);
#370=EDGE_CURVE('',#399,#426,#442,.T.);
#371=EDGE_CURVE('',#391,#428,#443,.T.);
#372=EDGE_CURVE('',#392,#430,#444,.T.);
#373=VERTEX_POINT('',#445);
#374=CIRCLE('',#446,12.4);
#375=VERTEX_POINT('',#450);
#376=CIRCLE('',#451,12.4);
#377=VERTEX_POINT('',#455);
#378=VERTEX_POINT('',#456);
#379=LINE('',#457,#458);
#380=VERTEX_POINT('',#460);
#381=LINE('',#461,#462);
#382=VERTEX_POINT('',#464);
#383=LINE('',#465,#466);
#384=VERTEX_POINT('',#468);
#385=LINE('',#469,#470);
#386=VERTEX_POINT('',#472);
#387=LINE('',#473,#474);
#388=LINE('',#476,#477);
#389=VERTEX_POINT('',#479);
#390=CIRCLE('',#480,13.4);
#391=VERTEX_POINT('',#484);
#392=VERTEX_POINT('',#485);
#393=LINE('',#486,#487);
#394=VERTEX_POINT('',#489);
#395=LINE('',#490,#491);
#396=VERTEX_POINT('',#493);
#397=LINE('',#494,#495);
#398=LINE('',#497,#498);
#399=VERTEX_POINT('',#500);
#400=LINE('',#501,#502);
#401=VERTEX_POINT('',#504);
#402=LINE('',#505,#506);
#403=LINE('',#508,#509);
#404=VERTEX_POINT('',#511);
#405=LINE('',#512,#513);
#406=VERTEX_POINT('',#515);
#407=LINE('',#516,#517);
#408=LINE('',#519,#520);
#409=VERTEX_POINT('',#522);
#410=LINE('',#523,#524);
#411=VERTEX_POINT('',#526);
#412=LINE('',#527,#528);
#413=LINE('',#530,#531);
#414=VERTEX_POINT('',#533);
#415=LINE('',#534,#535);
#416=VERTEX_POINT('',#537);
#417=LINE('',#538,#539);
#418=LINE('',#541,#542);
#419=LINE('',#544,#545);
#420=LINE('',#547,#548);
#421=VERTEX_POINT('',#550);
#422=VERTEX_POINT('',#551);
#423=LINE('',#552,#553);
#424=VERTEX_POINT('',#555);
#425=LINE('',#556,#557);
#426=VERTEX_POINT('',#559);
#427=LINE('',#560,#561);
#428=VERTEX_POINT('',#563);
#429=LINE('',#564,#565);
#430=VERTEX_POINT('',#567);
#431=LINE('',#568,#569);
#432=LINE('',#571,#572);
#433=LINE('',#574,#575);
#434=LINE('',#577,#578);
#435=LINE('',#580,#581);
#436=LINE('',#583,#584);
#437=LINE('',#586,#587);
#438=LINE('',#589,#590);
#439=LINE('',#592,#593);
#440=LINE('',#595,#596);
#441=LINE('',#598,#599);
#442=LINE('',#601,#602);
#443=LINE('',#604,#605);
#444=LINE('',#607,#608);
#445=CARTESIAN_POINT('',(-12.4,3.03712406188544E-15,1.));
#446=AXIS2_PLACEMENT_3D('',#447,#448,#449);
#447=CARTESIAN_POINT('',(0.,0.,1.));
#448=DIRECTION('',(0.,0.,1.));
#449=DIRECTION('',(-1.,1.22464679914735E-16,0.));
#450=CARTESIAN_POINT('',(-12.4,1.51856203094272E-15,0.));
#451=AXIS2_PLACEMENT_3D('',#452,#453,#454);
#452=CARTESIAN_POINT('',(0.,0.,0.));
#453=DIRECTION('',(0.,0.,1.));
#454=DIRECTION('',(-1.,1.22464679914735E-16,0.));
#455=CARTESIAN_POINT('',(13.5,-7.79422863405995,2.));
#456=CARTESIAN_POINT('',(13.5,7.79422863405994,2.));
#457=CARTESIAN_POINT('',(13.5,-7.79422863405995,2.));
#458=VECTOR('',#459,1.);
#459=DIRECTION('',(6.83720066269712E-16,1.,0.));
#460=CARTESIAN_POINT('',(-3.24536925110406E-15,-15.5884572681199,2.));
#461=CARTESIAN_POINT('',(-3.61905297395279E-15,-15.5884572681199,2.));
#462=VECTOR('',#463,1.);
#463=DIRECTION('',(0.866025403784439,0.5,0.));
#464=CARTESIAN_POINT('',(-13.5,-7.79422863405994,2.));
#465=CARTESIAN_POINT('',(-13.5,-7.79422863405994,2.));
#466=VECTOR('',#467,1.);
#467=DIRECTION('',(0.866025403784438,-0.5,0.));
#468=CARTESIAN_POINT('',(-13.5,7.79422863405996,2.));
#469=CARTESIAN_POINT('',(-13.5,7.79422863405996,2.));
#470=VECTOR('',#471,1.);
#471=DIRECTION('',(-6.83720066269711E-16,-1.,0.));
#472=CARTESIAN_POINT('',(9.33309216946534E-15,15.5884572681199,2.));
#473=CARTESIAN_POINT('',(1.07244803315538E-14,15.5884572681199,2.));
#474=VECTOR('',#475,1.);
#475=DIRECTION('',(-0.866025403784439,-0.499999999999999,-1.42441680472857E-17));
#476=CARTESIAN_POINT('',(13.5,7.79422863405994,2.));
#477=VECTOR('',#478,1.);
#478=DIRECTION('',(-0.866025403784438,0.500000000000001,-2.84883360945713E-17));
#479=CARTESIAN_POINT('',(-13.4,3.28205342171491E-15,2.));
#480=AXIS2_PLACEMENT_3D('',#481,#482,#483);
#481=CARTESIAN_POINT('',(0.,0.,2.));
#482=DIRECTION('',(0.,0.,1.));
#483=DIRECTION('',(-1.,1.22464679914735E-16,0.));
#484=CARTESIAN_POINT('',(-14.5,-8.37157890324957,6.));
#485=CARTESIAN_POINT('',(-5.84168188358446E-15,-16.7431578064991,6.));
#486=CARTESIAN_POINT('',(-14.5,-8.37157890324957,6.));
#487=VECTOR('',#488,1.);
#488=DIRECTION('',(0.866025403784439,-0.5,0.));
#489=CARTESIAN_POINT('',(-14.5,-8.37157890324957,3.));
#490=CARTESIAN_POINT('',(-14.5,-8.37157890324957,3.));
#491=VECTOR('',#492,1.);
#492=DIRECTION('',(0.,0.,1.));
#493=CARTESIAN_POINT('',(-5.84168188358446E-15,-16.7431578064991,3.));
#494=CARTESIAN_POINT('',(-14.5,-8.37157890324957,3.));
#495=VECTOR('',#496,1.);
#496=DIRECTION('',(0.866025403784439,-0.5,0.));
#497=CARTESIAN_POINT('',(-5.46611482926804E-15,-16.7431578064991,3.));
#498=VECTOR('',#499,1.);
#499=DIRECTION('',(0.,0.,1.));
#500=CARTESIAN_POINT('',(-14.5,8.37157890324958,6.));
#501=CARTESIAN_POINT('',(-14.5,8.37157890324959,6.));
#502=VECTOR('',#503,1.);
#503=DIRECTION('',(-7.42661451292962E-16,-1.,0.));
#504=CARTESIAN_POINT('',(-14.5,8.37157890324958,3.));
#505=CARTESIAN_POINT('',(-14.5,8.37157890324959,3.));
#506=VECTOR('',#507,1.);
#507=DIRECTION('',(0.,0.,1.));
#508=CARTESIAN_POINT('',(-14.5,8.37157890324959,3.));
#509=VECTOR('',#510,1.);
#510=DIRECTION('',(-7.42661451292962E-16,-1.,0.));
#511=CARTESIAN_POINT('',(1.31691538461105E-14,16.7431578064991,6.));
#512=CARTESIAN_POINT('',(1.39038098164192E-14,16.7431578064991,6.));
#513=VECTOR('',#514,1.);
#514=DIRECTION('',(-0.866025403784439,-0.499999999999999,0.));
#515=CARTESIAN_POINT('',(1.31691538461105E-14,16.7431578064991,3.));
#516=CARTESIAN_POINT('',(1.43478990262693E-14,16.7431578064991,3.));
#517=VECTOR('',#518,1.);
#518=DIRECTION('',(0.,0.,1.));
#519=CARTESIAN_POINT('',(1.39038098164192E-14,16.7431578064991,3.));
#520=VECTOR('',#521,1.);
#521=DIRECTION('',(-0.866025403784439,-0.499999999999999,0.));
#522=CARTESIAN_POINT('',(14.5,8.37157890324956,6.));
#523=CARTESIAN_POINT('',(14.5,8.37157890324956,6.));
#524=VECTOR('',#525,1.);
#525=DIRECTION('',(-0.866025403784438,0.500000000000001,0.));
#526=CARTESIAN_POINT('',(14.5,8.37157890324956,3.));
#527=CARTESIAN_POINT('',(14.5,8.37157890324956,3.));
#528=VECTOR('',#529,1.);
#529=DIRECTION('',(0.,0.,1.));
#530=CARTESIAN_POINT('',(14.5,8.37157890324956,3.));
#531=VECTOR('',#532,1.);
#532=DIRECTION('',(-0.866025403784438,0.500000000000001,0.));
#533=CARTESIAN_POINT('',(14.5,-8.37157890324958,6.));
#534=CARTESIAN_POINT('',(14.5,-8.37157890324958,6.));
#535=VECTOR('',#536,1.);
#536=DIRECTION('',(7.42661451292963E-16,1.,0.));
#537=CARTESIAN_POINT('',(14.5,-8.37157890324958,3.));
#538=CARTESIAN_POINT('',(14.5,-8.37157890324958,3.));
#539=VECTOR('',#540,1.);
#540=DIRECTION('',(0.,0.,1.));
#541=CARTESIAN_POINT('',(14.5,-8.37157890324958,3.));
#542=VECTOR('',#543,1.);
#543=DIRECTION('',(7.42661451292963E-16,1.,0.));
#544=CARTESIAN_POINT('',(-5.46611482926804E-15,-16.7431578064991,6.));
#545=VECTOR('',#546,1.);
#546=DIRECTION('',(0.866025403784439,0.5,0.));
#547=CARTESIAN_POINT('',(-5.46611482926804E-15,-16.7431578064991,3.));
#548=VECTOR('',#549,1.);
#549=DIRECTION('',(0.866025403784439,0.5,0.));
#550=CARTESIAN_POINT('',(13.5,-7.79422863405995,7.));
#551=CARTESIAN_POINT('',(13.5,7.79422863405994,7.));
#552=CARTESIAN_POINT('',(13.5,-7.79422863405995,7.));
#553=VECTOR('',#554,1.);
#554=DIRECTION('',(6.83720066269712E-16,1.,0.));
#555=CARTESIAN_POINT('',(9.33309216946534E-15,15.5884572681199,7.));
#556=CARTESIAN_POINT('',(13.5,7.79422863405994,7.));
#557=VECTOR('',#558,1.);
#558=DIRECTION('',(-0.866025403784438,0.500000000000001,0.));
#559=CARTESIAN_POINT('',(-13.5,7.79422863405996,7.));
#560=CARTESIAN_POINT('',(1.07244803315538E-14,15.5884572681199,7.));
#561=VECTOR('',#562,1.);
#562=DIRECTION('',(-0.866025403784439,-0.499999999999999,0.));
#563=CARTESIAN_POINT('',(-13.5,-7.79422863405994,7.));
#564=CARTESIAN_POINT('',(-13.5,7.79422863405996,7.));
#565=VECTOR('',#566,1.);
#566=DIRECTION('',(-6.83720066269711E-16,-1.,0.));
#567=CARTESIAN_POINT('',(-3.24536925110406E-15,-15.5884572681199,7.));
#568=CARTESIAN_POINT('',(-13.5,-7.79422863405994,7.));
#569=VECTOR('',#570,1.);
#570=DIRECTION('',(0.866025403784438,-0.5,0.));
#571=CARTESIAN_POINT('',(-3.61905297395279E-15,-15.5884572681199,7.));
#572=VECTOR('',#573,1.);
#573=DIRECTION('',(0.866025403784439,0.5,0.));
#574=CARTESIAN_POINT('',(14.5,-8.37157890324958,3.));
#575=VECTOR('',#576,1.);
#576=DIRECTION('',(-0.654653670707977,0.377964473009228,-0.654653670707977));
#577=CARTESIAN_POINT('',(14.5,8.37157890324956,3.));
#578=VECTOR('',#579,1.);
#579=DIRECTION('',(-0.654653670707976,-0.377964473009228,-0.654653670707977));
#580=CARTESIAN_POINT('',(1.19904086659517E-14,16.7431578064991,3.));
#581=VECTOR('',#582,1.);
#582=DIRECTION('',(-2.65286226107011E-15,-0.755928946018454,-0.654653670707978));
#583=CARTESIAN_POINT('',(-14.5,8.37157890324958,3.));
#584=VECTOR('',#585,1.);
#585=DIRECTION('',(0.654653670707976,-0.377964473009229,-0.654653670707978));
#586=CARTESIAN_POINT('',(-14.5,-8.37157890324957,3.));
#587=VECTOR('',#588,1.);
#588=DIRECTION('',(0.654653670707977,0.377964473009228,-0.654653670707977));
#589=CARTESIAN_POINT('',(-6.21724893790088E-15,-16.7431578064991,3.));
#590=VECTOR('',#591,1.);
#591=DIRECTION('',(1.99873184053227E-15,0.755928946018455,-0.654653670707977));
#592=CARTESIAN_POINT('',(14.5,8.37157890324956,6.));
#593=VECTOR('',#594,1.);
#594=DIRECTION('',(-0.654653670707976,-0.377964473009228,0.654653670707977));
#595=CARTESIAN_POINT('',(14.5,-8.37157890324958,6.));
#596=VECTOR('',#597,1.);
#597=DIRECTION('',(-0.654653670707977,0.377964473009228,0.654653670707977));
#598=CARTESIAN_POINT('',(1.19904086659517E-14,16.7431578064991,6.));
#599=VECTOR('',#600,1.);
#600=DIRECTION('',(-2.65286226107011E-15,-0.755928946018454,0.654653670707978));
#601=CARTESIAN_POINT('',(-14.5,8.37157890324958,6.));
#602=VECTOR('',#603,1.);
#603=DIRECTION('',(0.654653670707976,-0.377964473009229,0.654653670707977));
#604=CARTESIAN_POINT('',(-14.5,-8.37157890324957,6.));
#605=VECTOR('',#606,1.);
#606=DIRECTION('',(0.654653670707976,0.377964473009228,0.654653670707978));
#607=CARTESIAN_POINT('',(-6.21724893790088E-15,-16.7431578064991,6.));
#608=VECTOR('',#609,1.);
#609=DIRECTION('',(1.99873184053227E-15,0.755928946018455,0.654653670707977));
ENDSEC;
END-ISO-10303-21;
