ISO-10303-21;
HEADER;
FILE_DESCRIPTION(('STEP AP242'),
    '1');
FILE_NAME('itemBackPlankP2',
    '',
    ('UNSPECIFIED'),
    ('UNSPECIFIED'),
    'C3D Converter',
    'C3D Toolkit',
    '');
FILE_SCHEMA(('AP242_MANAGED_MODEL_BASED_3D_ENGINEERING_MIM_LF { 1 0 10303 442 1 1 4 }'));
ENDSEC;

DATA;
#1=PRODUCT_DEFINITION('','UNSPECIFIED',#28,#31);
#2=SHAPE_DEFINITION_REPRESENTATION(#26,#3);
#3=SHAPE_REPRESENTATION('NONE',(#4),#8);
#4=AXIS2_PLACEMENT_3D('',#5,#6,#7);
#5=CARTESIAN_POINT('',(0.,0.,0.));
#6=DIRECTION('',(0.,0.,1.));
#7=DIRECTION('',(1.,0.,0.));
#8=(GEOMETRIC_REPRESENTATION_CONTEXT(3)GLOBAL_UNCERTAINTY_ASSIGNED_CONTEXT((#10))
GLOBAL_UNIT_ASSIGNED_CONTEXT((#9,#11,#12))REPRESENTATION_CONTEXT('NONE','NONE'));
#9=(LENGTH_UNIT()NAMED_UNIT(*)SI_UNIT(.MILLI.,.METRE.));
#10=UNCERTAINTY_MEASURE_WITH_UNIT(LENGTH_MEASURE(1.E-5),#9,'NONE','NONE');
#11=(NAMED_UNIT(*)PLANE_ANGLE_UNIT()SI_UNIT($,.RADIAN.));
#12=(NAMED_UNIT(*)SI_UNIT($,.STERADIAN.)SOLID_ANGLE_UNIT());
#13=MANIFOLD_SOLID_BREP('',#14);
#14=CLOSED_SHELL('',(#48,#49,#50,#51,#52,#53,#54,#55,#56,#57,#58,#59,#60,#61,#62,
#63,#64,#65,#66,#67,#68,#69,#70,#71,#72,#73,#74,#75,#76,#77,#78,#79,#80,#81,#82,
#83,#84,#85,#86,#87,#88,#89));
#15=COLOUR_RGB('',0.564705882352941,0.564705882352941,0.564705882352941);
#16=FILL_AREA_STYLE_COLOUR('',#15);
#17=FILL_AREA_STYLE($,(#16));
#18=SURFACE_STYLE_FILL_AREA(#17);
#19=SURFACE_SIDE_STYLE('',(#18));
#20=SURFACE_STYLE_USAGE(.BOTH.,#19);
#21=PRESENTATION_STYLE_ASSIGNMENT((#20));
#22=MECHANICAL_DESIGN_GEOMETRIC_PRESENTATION_REPRESENTATION('NONE',(#23),#8);
#23=STYLED_ITEM('',(#21),#13);
#24=ADVANCED_BREP_SHAPE_REPRESENTATION('NONE',(#13),#8);
#25=SHAPE_REPRESENTATION_RELATIONSHIP('','',#3,#24);
#26=PRODUCT_DEFINITION_SHAPE('NONE','NONE',#1);
#27=MECHANICAL_CONTEXT('NONE',#32,'mechanical');
#28=PRODUCT_DEFINITION_FORMATION_WITH_SPECIFIED_SOURCE('ANY','UNSPECIFIED',#29,.NOT_KNOWN.);
#29=PRODUCT('','itemBackPlankP2','NONE',(#27));
#30=PRODUCT_RELATED_PRODUCT_CATEGORY('detail','',(#29));
#31=DESIGN_CONTEXT('detailed design',#32,'design');
#32=APPLICATION_CONTEXT('configuration controlled 3d designs of mechanical parts and assemblies');
#33=APPLICATION_PROTOCOL_DEFINITION('international standard','config_control_design',
1994,#32);
#34=CC_DESIGN_DATE_AND_TIME_ASSIGNMENT(#35,#39,(#1));
#35=DATE_AND_TIME(#36,#37);
#36=CALENDAR_DATE(0,1,1);
#37=LOCAL_TIME(0,0,0.,#38);
#38=COORDINATED_UNIVERSAL_TIME_OFFSET(0,0,.AHEAD.);
#39=DATE_TIME_ROLE('creation_date');
#40=CC_DESIGN_APPROVAL(#41,(#1));
#41=APPROVAL(#42,'UNSPECIFIED');
#42=APPROVAL_STATUS('not_yet_approved');
#43=APPROVAL_DATE_TIME(#44,#41);
#44=DATE_AND_TIME(#45,#46);
#45=CALENDAR_DATE(0,1,1);
#46=LOCAL_TIME(0,0,0.,#47);
#47=COORDINATED_UNIVERSAL_TIME_OFFSET(0,0,.AHEAD.);
#48=ADVANCED_FACE('',(#90,#92,#94,#96,#98),#100,.F.);
#49=ADVANCED_FACE('',(#105,#107,#109),#111,.T.);
#50=ADVANCED_FACE('',(#116,#118,#120),#122,.T.);
#51=ADVANCED_FACE('',(#127,#129),#131,.F.);
#52=ADVANCED_FACE('',(#136,#138),#140,.F.);
#53=ADVANCED_FACE('',(#145,#147),#149,.F.);
#54=ADVANCED_FACE('',(#154,#156),#158,.F.);
#55=ADVANCED_FACE('',(#163),#165,.T.);
#56=ADVANCED_FACE('',(#170),#172,.T.);
#57=ADVANCED_FACE('',(#177),#179,.T.);
#58=ADVANCED_FACE('',(#184),#186,.T.);
#59=ADVANCED_FACE('',(#191),#193,.T.);
#60=ADVANCED_FACE('',(#198),#200,.T.);
#61=ADVANCED_FACE('',(#205),#207,.T.);
#62=ADVANCED_FACE('',(#212),#214,.T.);
#63=ADVANCED_FACE('',(#219),#221,.T.);
#64=ADVANCED_FACE('',(#226),#228,.T.);
#65=ADVANCED_FACE('',(#233),#235,.T.);
#66=ADVANCED_FACE('',(#240),#242,.T.);
#67=ADVANCED_FACE('',(#247),#249,.T.);
#68=ADVANCED_FACE('',(#254),#256,.T.);
#69=ADVANCED_FACE('',(#261),#263,.T.);
#70=ADVANCED_FACE('',(#268),#270,.T.);
#71=ADVANCED_FACE('',(#275),#277,.T.);
#72=ADVANCED_FACE('',(#282),#284,.T.);
#73=ADVANCED_FACE('',(#289),#291,.T.);
#74=ADVANCED_FACE('',(#296),#298,.T.);
#75=ADVANCED_FACE('',(#303),#305,.T.);
#76=ADVANCED_FACE('',(#310),#312,.F.);
#77=ADVANCED_FACE('',(#317),#319,.T.);
#78=ADVANCED_FACE('',(#324),#326,.F.);
#79=ADVANCED_FACE('',(#331),#333,.T.);
#80=ADVANCED_FACE('',(#338),#340,.T.);
#81=ADVANCED_FACE('',(#345),#347,.T.);
#82=ADVANCED_FACE('',(#352),#354,.F.);
#83=ADVANCED_FACE('',(#359),#361,.T.);
#84=ADVANCED_FACE('',(#366),#368,.F.);
#85=ADVANCED_FACE('',(#373),#375,.T.);
#86=ADVANCED_FACE('',(#380),#382,.T.);
#87=ADVANCED_FACE('',(#387),#389,.F.);
#88=ADVANCED_FACE('',(#394),#396,.T.);
#89=ADVANCED_FACE('',(#401),#403,.F.);
#90=FACE_BOUND('',#91,.T.);
#91=EDGE_LOOP('',(#408,#409,#410,#411,#412,#413,#414,#415));
#92=FACE_BOUND('',#93,.T.);
#93=EDGE_LOOP('',(#416));
#94=FACE_BOUND('',#95,.T.);
#95=EDGE_LOOP('',(#417));
#96=FACE_BOUND('',#97,.T.);
#97=EDGE_LOOP('',(#418));
#98=FACE_BOUND('',#99,.T.);
#99=EDGE_LOOP('',(#419));
#100=PLANE('',#101);
#101=AXIS2_PLACEMENT_3D('',#102,#103,#104);
#102=CARTESIAN_POINT('',(0.,0.,0.));
#103=DIRECTION('',(0.,0.,1.));
#104=DIRECTION('',(-1.,1.22464679914735E-16,0.));
#105=FACE_BOUND('',#106,.T.);
#106=EDGE_LOOP('',(#420,#421,#422,#423,#424,#425,#426,#427));
#107=FACE_BOUND('',#108,.T.);
#108=EDGE_LOOP('',(#428));
#109=FACE_BOUND('',#110,.T.);
#110=EDGE_LOOP('',(#429));
#111=PLANE('',#112);
#112=AXIS2_PLACEMENT_3D('',#113,#114,#115);
#113=CARTESIAN_POINT('',(0.,0.,1.));
#114=DIRECTION('',(0.,0.,1.));
#115=DIRECTION('',(-1.,1.22464679914735E-16,0.));
#116=FACE_BOUND('',#117,.T.);
#117=EDGE_LOOP('',(#430,#431,#432,#433,#434,#435,#436,#437));
#118=FACE_BOUND('',#119,.T.);
#119=EDGE_LOOP('',(#438));
#120=FACE_BOUND('',#121,.T.);
#121=EDGE_LOOP('',(#439));
#122=PLANE('',#123);
#123=AXIS2_PLACEMENT_3D('',#124,#125,#126);
#124=CARTESIAN_POINT('',(0.,0.,1.));
#125=DIRECTION('',(0.,0.,1.));
#126=DIRECTION('',(-1.,1.22464679914735E-16,0.));
#127=FACE_OUTER_BOUND('',#128,.T.);
#128=EDGE_LOOP('',(#440));
#129=FACE_OUTER_BOUND('',#130,.T.);
#130=EDGE_LOOP('',(#441));
#131=CYLINDRICAL_SURFACE('',#132,0.2);
#132=AXIS2_PLACEMENT_3D('',#133,#134,#135);
#133=CARTESIAN_POINT('',(-28.,-8.00000000000001,1.));
#134=DIRECTION('',(0.,0.,-1.));
#135=DIRECTION('',(1.,1.22464679914735E-16,0.));
#136=FACE_OUTER_BOUND('',#137,.T.);
#137=EDGE_LOOP('',(#442));
#138=FACE_OUTER_BOUND('',#139,.T.);
#139=EDGE_LOOP('',(#443));
#140=CYLINDRICAL_SURFACE('',#141,0.2);
#141=AXIS2_PLACEMENT_3D('',#142,#143,#144);
#142=CARTESIAN_POINT('',(28.,-8.,1.));
#143=DIRECTION('',(0.,0.,-1.));
#144=DIRECTION('',(1.,1.22464679914735E-16,0.));
#145=FACE_OUTER_BOUND('',#146,.T.);
#146=EDGE_LOOP('',(#444));
#147=FACE_OUTER_BOUND('',#148,.T.);
#148=EDGE_LOOP('',(#445));
#149=CYLINDRICAL_SURFACE('',#150,0.2);
#150=AXIS2_PLACEMENT_3D('',#151,#152,#153);
#151=CARTESIAN_POINT('',(28.,8.,1.));
#152=DIRECTION('',(0.,0.,-1.));
#153=DIRECTION('',(1.,1.22464679914735E-16,0.));
#154=FACE_OUTER_BOUND('',#155,.T.);
#155=EDGE_LOOP('',(#446));
#156=FACE_OUTER_BOUND('',#157,.T.);
#157=EDGE_LOOP('',(#447));
#158=CYLINDRICAL_SURFACE('',#159,0.2);
#159=AXIS2_PLACEMENT_3D('',#160,#161,#162);
#160=CARTESIAN_POINT('',(-28.,7.99999999999998,1.));
#161=DIRECTION('',(0.,0.,-1.));
#162=DIRECTION('',(1.,1.22464679914735E-16,0.));
#163=FACE_BOUND('',#164,.T.);
#164=EDGE_LOOP('',(#448,#449,#450,#451));
#165=CYLINDRICAL_SURFACE('',#166,1.);
#166=AXIS2_PLACEMENT_3D('',#167,#168,#169);
#167=CARTESIAN_POINT('',(29.,9.,-4.));
#168=DIRECTION('',(0.,0.,-1.));
#169=DIRECTION('',(0.,1.,0.));
#170=FACE_BOUND('',#171,.T.);
#171=EDGE_LOOP('',(#452,#453,#454,#455));
#172=PLANE('',#173);
#173=AXIS2_PLACEMENT_3D('',#174,#175,#176);
#174=CARTESIAN_POINT('',(30.,-10.,0.));
#175=DIRECTION('',(1.,0.,0.));
#176=DIRECTION('',(0.,1.,0.));
#177=FACE_BOUND('',#178,.T.);
#178=EDGE_LOOP('',(#456,#457,#458,#459));
#179=CYLINDRICAL_SURFACE('',#180,1.);
#180=AXIS2_PLACEMENT_3D('',#181,#182,#183);
#181=CARTESIAN_POINT('',(29.,-9.,-4.));
#182=DIRECTION('',(0.,0.,-1.));
#183=DIRECTION('',(1.,0.,0.));
#184=FACE_BOUND('',#185,.T.);
#185=EDGE_LOOP('',(#460,#461,#462,#463,#464,#465,#466,#467));
#186=PLANE('',#187);
#187=AXIS2_PLACEMENT_3D('',#188,#189,#190);
#188=CARTESIAN_POINT('',(-30.,-10.,0.));
#189=DIRECTION('',(-1.1842378929335E-16,-1.,0.));
#190=DIRECTION('',(1.,-1.1842378929335E-16,0.));
#191=FACE_BOUND('',#192,.T.);
#192=EDGE_LOOP('',(#468,#469,#470,#471));
#193=CYLINDRICAL_SURFACE('',#194,1.);
#194=AXIS2_PLACEMENT_3D('',#195,#196,#197);
#195=CARTESIAN_POINT('',(-29.,-9.,-4.));
#196=DIRECTION('',(0.,0.,-1.));
#197=DIRECTION('',(0.,-1.,0.));
#198=FACE_BOUND('',#199,.T.);
#199=EDGE_LOOP('',(#472,#473,#474,#475));
#200=PLANE('',#201);
#201=AXIS2_PLACEMENT_3D('',#202,#203,#204);
#202=CARTESIAN_POINT('',(-30.,10.,0.));
#203=DIRECTION('',(-1.,0.,0.));
#204=DIRECTION('',(0.,-1.,0.));
#205=FACE_BOUND('',#206,.T.);
#206=EDGE_LOOP('',(#476,#477,#478,#479));
#207=CYLINDRICAL_SURFACE('',#208,1.);
#208=AXIS2_PLACEMENT_3D('',#209,#210,#211);
#209=CARTESIAN_POINT('',(-29.,9.,-4.));
#210=DIRECTION('',(0.,0.,-1.));
#211=DIRECTION('',(-1.,0.,0.));
#212=FACE_BOUND('',#213,.T.);
#213=EDGE_LOOP('',(#480,#481,#482,#483,#484,#485,#486,#487));
#214=PLANE('',#215);
#215=AXIS2_PLACEMENT_3D('',#216,#217,#218);
#216=CARTESIAN_POINT('',(30.,10.,0.));
#217=DIRECTION('',(1.1842378929335E-16,1.,0.));
#218=DIRECTION('',(-1.,1.1842378929335E-16,0.));
#219=FACE_BOUND('',#220,.T.);
#220=EDGE_LOOP('',(#488,#489,#490,#491,#492));
#221=CYLINDRICAL_SURFACE('',#222,0.5);
#222=AXIS2_PLACEMENT_3D('',#223,#224,#225);
#223=CARTESIAN_POINT('',(-25.5,-9.5,-1.));
#224=DIRECTION('',(0.,0.,-1.));
#225=DIRECTION('',(0.,-1.,0.));
#226=FACE_BOUND('',#227,.T.);
#227=EDGE_LOOP('',(#493,#494,#495,#496));
#228=PLANE('',#229);
#229=AXIS2_PLACEMENT_3D('',#230,#231,#232);
#230=CARTESIAN_POINT('',(-26.,10.,1.));
#231=DIRECTION('',(-1.,0.,0.));
#232=DIRECTION('',(0.,-1.,0.));
#233=FACE_BOUND('',#234,.T.);
#234=EDGE_LOOP('',(#497,#498,#499,#500));
#235=CYLINDRICAL_SURFACE('',#236,1.);
#236=AXIS2_PLACEMENT_3D('',#237,#238,#239);
#237=CARTESIAN_POINT('',(-25.,9.,-3.));
#238=DIRECTION('',(0.,0.,-1.));
#239=DIRECTION('',(-1.,0.,0.));
#240=FACE_BOUND('',#241,.T.);
#241=EDGE_LOOP('',(#501,#502,#503,#504,#505));
#242=CYLINDRICAL_SURFACE('',#243,0.5);
#243=AXIS2_PLACEMENT_3D('',#244,#245,#246);
#244=CARTESIAN_POINT('',(25.5,-9.5,-1.));
#245=DIRECTION('',(0.,0.,-1.));
#246=DIRECTION('',(0.,-1.,0.));
#247=FACE_BOUND('',#248,.T.);
#248=EDGE_LOOP('',(#506,#507,#508,#509));
#249=CYLINDRICAL_SURFACE('',#250,1.);
#250=AXIS2_PLACEMENT_3D('',#251,#252,#253);
#251=CARTESIAN_POINT('',(25.,9.,-3.));
#252=DIRECTION('',(0.,0.,-1.));
#253=DIRECTION('',(0.,1.,0.));
#254=FACE_BOUND('',#255,.T.);
#255=EDGE_LOOP('',(#510,#511,#512,#513));
#256=PLANE('',#257);
#257=AXIS2_PLACEMENT_3D('',#258,#259,#260);
#258=CARTESIAN_POINT('',(26.,-10.,1.));
#259=DIRECTION('',(1.,-1.77635683940025E-16,0.));
#260=DIRECTION('',(1.77635683940025E-16,1.,0.));
#261=FACE_BOUND('',#262,.T.);
#262=EDGE_LOOP('',(#514,#515,#516,#517,#518,#519,#520,#521));
#263=PLANE('',#264);
#264=AXIS2_PLACEMENT_3D('',#265,#266,#267);
#265=CARTESIAN_POINT('',(0.,0.,1.));
#266=DIRECTION('',(0.,0.,1.));
#267=DIRECTION('',(-1.,1.22464679914735E-16,0.));
#268=FACE_BOUND('',#269,.T.);
#269=EDGE_LOOP('',(#522,#523,#524,#525,#526,#527,#528,#529));
#270=PLANE('',#271);
#271=AXIS2_PLACEMENT_3D('',#272,#273,#274);
#272=CARTESIAN_POINT('',(0.,0.,1.));
#273=DIRECTION('',(0.,0.,1.));
#274=DIRECTION('',(-1.,1.22464679914735E-16,0.));
#275=FACE_BOUND('',#276,.T.);
#276=EDGE_LOOP('',(#530,#531,#532,#533,#534,#535,#536,#537));
#277=PLANE('',#278);
#278=AXIS2_PLACEMENT_3D('',#279,#280,#281);
#279=CARTESIAN_POINT('',(0.,0.,1.));
#280=DIRECTION('',(0.,0.,1.));
#281=DIRECTION('',(-1.,1.22464679914735E-16,0.));
#282=FACE_BOUND('',#283,.T.);
#283=EDGE_LOOP('',(#538,#539,#540,#541,#542,#543,#544,#545,#546,#547,#548,#549,#550,
#551,#552,#553,#554,#555,#556,#557,#558,#559,#560,#561));
#284=PLANE('',#285);
#285=AXIS2_PLACEMENT_3D('',#286,#287,#288);
#286=CARTESIAN_POINT('',(0.,0.,3.));
#287=DIRECTION('',(0.,0.,1.));
#288=DIRECTION('',(-1.,1.22464679914735E-16,0.));
#289=FACE_BOUND('',#290,.T.);
#290=EDGE_LOOP('',(#562,#563,#564,#565));
#291=PLANE('',#292);
#292=AXIS2_PLACEMENT_3D('',#293,#294,#295);
#293=CARTESIAN_POINT('',(-25.,-10.,1.));
#294=DIRECTION('',(1.,0.,0.));
#295=DIRECTION('',(0.,1.,0.));
#296=FACE_BOUND('',#297,.T.);
#297=EDGE_LOOP('',(#566,#567,#568,#569));
#298=PLANE('',#299);
#299=AXIS2_PLACEMENT_3D('',#300,#301,#302);
#300=CARTESIAN_POINT('',(25.,9.,1.));
#301=DIRECTION('',(-1.,1.86984930463184E-16,0.));
#302=DIRECTION('',(-1.86984930463184E-16,-1.,0.));
#303=FACE_BOUND('',#304,.T.);
#304=EDGE_LOOP('',(#570,#571,#572,#573,#574));
#305=CYLINDRICAL_SURFACE('',#306,0.5);
#306=AXIS2_PLACEMENT_3D('',#307,#308,#309);
#307=CARTESIAN_POINT('',(5.49999999999999,-9.5,-1.));
#308=DIRECTION('',(0.,0.,-1.));
#309=DIRECTION('',(-3.5527136788005E-15,-1.,0.));
#310=FACE_BOUND('',#311,.T.);
#311=EDGE_LOOP('',(#575,#576,#577,#578));
#312=CYLINDRICAL_SURFACE('',#313,1.);
#313=AXIS2_PLACEMENT_3D('',#314,#315,#316);
#314=CARTESIAN_POINT('',(24.,8.,-3.));
#315=DIRECTION('',(0.,0.,1.));
#316=DIRECTION('',(1.,0.,0.));
#317=FACE_BOUND('',#318,.T.);
#318=EDGE_LOOP('',(#579,#580,#581,#582));
#319=PLANE('',#320);
#320=AXIS2_PLACEMENT_3D('',#321,#322,#323);
#321=CARTESIAN_POINT('',(6.,9.,1.));
#322=DIRECTION('',(-1.86984930463184E-16,-1.,0.));
#323=DIRECTION('',(1.,-1.86984930463184E-16,0.));
#324=FACE_BOUND('',#325,.T.);
#325=EDGE_LOOP('',(#583,#584,#585,#586));
#326=CYLINDRICAL_SURFACE('',#327,1.);
#327=AXIS2_PLACEMENT_3D('',#328,#329,#330);
#328=CARTESIAN_POINT('',(7.,8.,-3.));
#329=DIRECTION('',(0.,0.,1.));
#330=DIRECTION('',(0.,1.,0.));
#331=FACE_BOUND('',#332,.T.);
#332=EDGE_LOOP('',(#587,#588,#589,#590));
#333=PLANE('',#334);
#334=AXIS2_PLACEMENT_3D('',#335,#336,#337);
#335=CARTESIAN_POINT('',(6.,-10.,1.));
#336=DIRECTION('',(1.,-1.40238697847388E-16,0.));
#337=DIRECTION('',(1.40238697847388E-16,1.,0.));
#338=FACE_BOUND('',#339,.T.);
#339=EDGE_LOOP('',(#591,#592,#593,#594,#595));
#340=CYLINDRICAL_SURFACE('',#341,0.5);
#341=AXIS2_PLACEMENT_3D('',#342,#343,#344);
#342=CARTESIAN_POINT('',(-5.5,-9.5,-1.));
#343=DIRECTION('',(0.,0.,-1.));
#344=DIRECTION('',(-3.5527136788005E-15,-1.,0.));
#345=FACE_BOUND('',#346,.T.);
#346=EDGE_LOOP('',(#596,#597,#598,#599));
#347=PLANE('',#348);
#348=AXIS2_PLACEMENT_3D('',#349,#350,#351);
#349=CARTESIAN_POINT('',(5.,9.,1.));
#350=DIRECTION('',(-1.,1.40238697847388E-16,0.));
#351=DIRECTION('',(-1.40238697847388E-16,-1.,0.));
#352=FACE_BOUND('',#353,.T.);
#353=EDGE_LOOP('',(#600,#601,#602,#603));
#354=CYLINDRICAL_SURFACE('',#355,1.);
#355=AXIS2_PLACEMENT_3D('',#356,#357,#358);
#356=CARTESIAN_POINT('',(4.,8.,-3.));
#357=DIRECTION('',(0.,0.,1.));
#358=DIRECTION('',(1.,0.,0.));
#359=FACE_BOUND('',#360,.T.);
#360=EDGE_LOOP('',(#604,#605,#606,#607));
#361=PLANE('',#362);
#362=AXIS2_PLACEMENT_3D('',#363,#364,#365);
#363=CARTESIAN_POINT('',(-5.,9.,1.));
#364=DIRECTION('',(0.,-1.,0.));
#365=DIRECTION('',(1.,0.,0.));
#366=FACE_BOUND('',#367,.T.);
#367=EDGE_LOOP('',(#608,#609,#610,#611));
#368=CYLINDRICAL_SURFACE('',#369,1.);
#369=AXIS2_PLACEMENT_3D('',#370,#371,#372);
#370=CARTESIAN_POINT('',(-4.,8.,-3.));
#371=DIRECTION('',(0.,0.,1.));
#372=DIRECTION('',(-4.44089209850063E-16,1.,0.));
#373=FACE_BOUND('',#374,.T.);
#374=EDGE_LOOP('',(#612,#613,#614,#615));
#375=PLANE('',#376);
#376=AXIS2_PLACEMENT_3D('',#377,#378,#379);
#377=CARTESIAN_POINT('',(-5.,-10.,1.));
#378=DIRECTION('',(1.,-1.86984930463184E-16,0.));
#379=DIRECTION('',(1.86984930463184E-16,1.,0.));
#380=FACE_BOUND('',#381,.T.);
#381=EDGE_LOOP('',(#616,#617,#618,#619));
#382=PLANE('',#383);
#383=AXIS2_PLACEMENT_3D('',#384,#385,#386);
#384=CARTESIAN_POINT('',(-6.,9.,1.));
#385=DIRECTION('',(-1.,1.86984930463184E-16,0.));
#386=DIRECTION('',(-1.86984930463184E-16,-1.,0.));
#387=FACE_BOUND('',#388,.T.);
#388=EDGE_LOOP('',(#620,#621,#622,#623));
#389=CYLINDRICAL_SURFACE('',#390,1.);
#390=AXIS2_PLACEMENT_3D('',#391,#392,#393);
#391=CARTESIAN_POINT('',(-6.99999999999999,8.,-3.));
#392=DIRECTION('',(0.,0.,1.));
#393=DIRECTION('',(1.,0.,0.));
#394=FACE_BOUND('',#395,.T.);
#395=EDGE_LOOP('',(#624,#625,#626,#627));
#396=PLANE('',#397);
#397=AXIS2_PLACEMENT_3D('',#398,#399,#400);
#398=CARTESIAN_POINT('',(-25.,9.,1.));
#399=DIRECTION('',(-1.86984930463184E-16,-1.,0.));
#400=DIRECTION('',(1.,-1.86984930463184E-16,0.));
#401=FACE_BOUND('',#402,.T.);
#402=EDGE_LOOP('',(#628,#629,#630,#631));
#403=CYLINDRICAL_SURFACE('',#404,1.);
#404=AXIS2_PLACEMENT_3D('',#405,#406,#407);
#405=CARTESIAN_POINT('',(-24.,8.,-3.));
#406=DIRECTION('',(0.,0.,1.));
#407=DIRECTION('',(0.,1.,0.));
#408=ORIENTED_EDGE('',*,*,#632,.F.);
#409=ORIENTED_EDGE('',*,*,#633,.F.);
#410=ORIENTED_EDGE('',*,*,#634,.F.);
#411=ORIENTED_EDGE('',*,*,#635,.F.);
#412=ORIENTED_EDGE('',*,*,#636,.F.);
#413=ORIENTED_EDGE('',*,*,#637,.F.);
#414=ORIENTED_EDGE('',*,*,#638,.F.);
#415=ORIENTED_EDGE('',*,*,#639,.F.);
#416=ORIENTED_EDGE('',*,*,#640,.T.);
#417=ORIENTED_EDGE('',*,*,#641,.T.);
#418=ORIENTED_EDGE('',*,*,#642,.T.);
#419=ORIENTED_EDGE('',*,*,#643,.T.);
#420=ORIENTED_EDGE('',*,*,#644,.F.);
#421=ORIENTED_EDGE('',*,*,#645,.F.);
#422=ORIENTED_EDGE('',*,*,#646,.F.);
#423=ORIENTED_EDGE('',*,*,#647,.T.);
#424=ORIENTED_EDGE('',*,*,#648,.F.);
#425=ORIENTED_EDGE('',*,*,#649,.T.);
#426=ORIENTED_EDGE('',*,*,#650,.F.);
#427=ORIENTED_EDGE('',*,*,#651,.T.);
#428=ORIENTED_EDGE('',*,*,#652,.T.);
#429=ORIENTED_EDGE('',*,*,#653,.T.);
#430=ORIENTED_EDGE('',*,*,#654,.F.);
#431=ORIENTED_EDGE('',*,*,#655,.T.);
#432=ORIENTED_EDGE('',*,*,#656,.F.);
#433=ORIENTED_EDGE('',*,*,#657,.T.);
#434=ORIENTED_EDGE('',*,*,#658,.F.);
#435=ORIENTED_EDGE('',*,*,#659,.T.);
#436=ORIENTED_EDGE('',*,*,#660,.F.);
#437=ORIENTED_EDGE('',*,*,#661,.F.);
#438=ORIENTED_EDGE('',*,*,#662,.T.);
#439=ORIENTED_EDGE('',*,*,#663,.T.);
#440=ORIENTED_EDGE('',*,*,#653,.F.);
#441=ORIENTED_EDGE('',*,*,#643,.F.);
#442=ORIENTED_EDGE('',*,*,#663,.F.);
#443=ORIENTED_EDGE('',*,*,#642,.F.);
#444=ORIENTED_EDGE('',*,*,#662,.F.);
#445=ORIENTED_EDGE('',*,*,#641,.F.);
#446=ORIENTED_EDGE('',*,*,#652,.F.);
#447=ORIENTED_EDGE('',*,*,#640,.F.);
#448=ORIENTED_EDGE('',*,*,#664,.F.);
#449=ORIENTED_EDGE('',*,*,#632,.T.);
#450=ORIENTED_EDGE('',*,*,#665,.T.);
#451=ORIENTED_EDGE('',*,*,#658,.T.);
#452=ORIENTED_EDGE('',*,*,#664,.T.);
#453=ORIENTED_EDGE('',*,*,#657,.F.);
#454=ORIENTED_EDGE('',*,*,#666,.F.);
#455=ORIENTED_EDGE('',*,*,#633,.T.);
#456=ORIENTED_EDGE('',*,*,#667,.F.);
#457=ORIENTED_EDGE('',*,*,#634,.T.);
#458=ORIENTED_EDGE('',*,*,#666,.T.);
#459=ORIENTED_EDGE('',*,*,#656,.T.);
#460=ORIENTED_EDGE('',*,*,#651,.F.);
#461=ORIENTED_EDGE('',*,*,#668,.F.);
#462=ORIENTED_EDGE('',*,*,#635,.T.);
#463=ORIENTED_EDGE('',*,*,#667,.T.);
#464=ORIENTED_EDGE('',*,*,#655,.F.);
#465=ORIENTED_EDGE('',*,*,#669,.F.);
#466=ORIENTED_EDGE('',*,*,#670,.F.);
#467=ORIENTED_EDGE('',*,*,#671,.F.);
#468=ORIENTED_EDGE('',*,*,#672,.F.);
#469=ORIENTED_EDGE('',*,*,#636,.T.);
#470=ORIENTED_EDGE('',*,*,#668,.T.);
#471=ORIENTED_EDGE('',*,*,#650,.T.);
#472=ORIENTED_EDGE('',*,*,#673,.F.);
#473=ORIENTED_EDGE('',*,*,#637,.T.);
#474=ORIENTED_EDGE('',*,*,#672,.T.);
#475=ORIENTED_EDGE('',*,*,#649,.F.);
#476=ORIENTED_EDGE('',*,*,#674,.F.);
#477=ORIENTED_EDGE('',*,*,#638,.T.);
#478=ORIENTED_EDGE('',*,*,#673,.T.);
#479=ORIENTED_EDGE('',*,*,#648,.T.);
#480=ORIENTED_EDGE('',*,*,#665,.F.);
#481=ORIENTED_EDGE('',*,*,#639,.T.);
#482=ORIENTED_EDGE('',*,*,#674,.T.);
#483=ORIENTED_EDGE('',*,*,#647,.F.);
#484=ORIENTED_EDGE('',*,*,#675,.T.);
#485=ORIENTED_EDGE('',*,*,#676,.F.);
#486=ORIENTED_EDGE('',*,*,#677,.F.);
#487=ORIENTED_EDGE('',*,*,#659,.F.);
#488=ORIENTED_EDGE('',*,*,#678,.F.);
#489=ORIENTED_EDGE('',*,*,#644,.T.);
#490=ORIENTED_EDGE('',*,*,#679,.T.);
#491=ORIENTED_EDGE('',*,*,#680,.T.);
#492=ORIENTED_EDGE('',*,*,#681,.T.);
#493=ORIENTED_EDGE('',*,*,#678,.T.);
#494=ORIENTED_EDGE('',*,*,#682,.F.);
#495=ORIENTED_EDGE('',*,*,#683,.F.);
#496=ORIENTED_EDGE('',*,*,#645,.T.);
#497=ORIENTED_EDGE('',*,*,#675,.F.);
#498=ORIENTED_EDGE('',*,*,#646,.T.);
#499=ORIENTED_EDGE('',*,*,#683,.T.);
#500=ORIENTED_EDGE('',*,*,#684,.T.);
#501=ORIENTED_EDGE('',*,*,#685,.F.);
#502=ORIENTED_EDGE('',*,*,#686,.T.);
#503=ORIENTED_EDGE('',*,*,#654,.T.);
#504=ORIENTED_EDGE('',*,*,#687,.T.);
#505=ORIENTED_EDGE('',*,*,#688,.T.);
#506=ORIENTED_EDGE('',*,*,#689,.F.);
#507=ORIENTED_EDGE('',*,*,#660,.T.);
#508=ORIENTED_EDGE('',*,*,#677,.T.);
#509=ORIENTED_EDGE('',*,*,#690,.T.);
#510=ORIENTED_EDGE('',*,*,#687,.F.);
#511=ORIENTED_EDGE('',*,*,#661,.T.);
#512=ORIENTED_EDGE('',*,*,#689,.T.);
#513=ORIENTED_EDGE('',*,*,#691,.F.);
#514=ORIENTED_EDGE('',*,*,#692,.F.);
#515=ORIENTED_EDGE('',*,*,#669,.T.);
#516=ORIENTED_EDGE('',*,*,#686,.F.);
#517=ORIENTED_EDGE('',*,*,#693,.F.);
#518=ORIENTED_EDGE('',*,*,#694,.F.);
#519=ORIENTED_EDGE('',*,*,#695,.F.);
#520=ORIENTED_EDGE('',*,*,#696,.F.);
#521=ORIENTED_EDGE('',*,*,#697,.F.);
#522=ORIENTED_EDGE('',*,*,#698,.F.);
#523=ORIENTED_EDGE('',*,*,#670,.T.);
#524=ORIENTED_EDGE('',*,*,#699,.F.);
#525=ORIENTED_EDGE('',*,*,#700,.F.);
#526=ORIENTED_EDGE('',*,*,#701,.F.);
#527=ORIENTED_EDGE('',*,*,#702,.F.);
#528=ORIENTED_EDGE('',*,*,#703,.F.);
#529=ORIENTED_EDGE('',*,*,#704,.F.);
#530=ORIENTED_EDGE('',*,*,#679,.F.);
#531=ORIENTED_EDGE('',*,*,#671,.T.);
#532=ORIENTED_EDGE('',*,*,#705,.F.);
#533=ORIENTED_EDGE('',*,*,#706,.F.);
#534=ORIENTED_EDGE('',*,*,#707,.F.);
#535=ORIENTED_EDGE('',*,*,#708,.F.);
#536=ORIENTED_EDGE('',*,*,#709,.F.);
#537=ORIENTED_EDGE('',*,*,#710,.F.);
#538=ORIENTED_EDGE('',*,*,#681,.F.);
#539=ORIENTED_EDGE('',*,*,#711,.T.);
#540=ORIENTED_EDGE('',*,*,#712,.F.);
#541=ORIENTED_EDGE('',*,*,#713,.T.);
#542=ORIENTED_EDGE('',*,*,#714,.F.);
#543=ORIENTED_EDGE('',*,*,#715,.T.);
#544=ORIENTED_EDGE('',*,*,#716,.F.);
#545=ORIENTED_EDGE('',*,*,#717,.T.);
#546=ORIENTED_EDGE('',*,*,#718,.F.);
#547=ORIENTED_EDGE('',*,*,#719,.T.);
#548=ORIENTED_EDGE('',*,*,#720,.F.);
#549=ORIENTED_EDGE('',*,*,#721,.T.);
#550=ORIENTED_EDGE('',*,*,#722,.F.);
#551=ORIENTED_EDGE('',*,*,#723,.T.);
#552=ORIENTED_EDGE('',*,*,#724,.F.);
#553=ORIENTED_EDGE('',*,*,#725,.T.);
#554=ORIENTED_EDGE('',*,*,#726,.F.);
#555=ORIENTED_EDGE('',*,*,#727,.T.);
#556=ORIENTED_EDGE('',*,*,#688,.F.);
#557=ORIENTED_EDGE('',*,*,#691,.T.);
#558=ORIENTED_EDGE('',*,*,#690,.F.);
#559=ORIENTED_EDGE('',*,*,#676,.T.);
#560=ORIENTED_EDGE('',*,*,#684,.F.);
#561=ORIENTED_EDGE('',*,*,#682,.T.);
#562=ORIENTED_EDGE('',*,*,#680,.F.);
#563=ORIENTED_EDGE('',*,*,#710,.T.);
#564=ORIENTED_EDGE('',*,*,#728,.T.);
#565=ORIENTED_EDGE('',*,*,#711,.F.);
#566=ORIENTED_EDGE('',*,*,#685,.T.);
#567=ORIENTED_EDGE('',*,*,#727,.F.);
#568=ORIENTED_EDGE('',*,*,#729,.F.);
#569=ORIENTED_EDGE('',*,*,#693,.T.);
#570=ORIENTED_EDGE('',*,*,#730,.F.);
#571=ORIENTED_EDGE('',*,*,#699,.T.);
#572=ORIENTED_EDGE('',*,*,#692,.T.);
#573=ORIENTED_EDGE('',*,*,#731,.T.);
#574=ORIENTED_EDGE('',*,*,#722,.T.);
#575=ORIENTED_EDGE('',*,*,#732,.F.);
#576=ORIENTED_EDGE('',*,*,#694,.T.);
#577=ORIENTED_EDGE('',*,*,#729,.T.);
#578=ORIENTED_EDGE('',*,*,#726,.T.);
#579=ORIENTED_EDGE('',*,*,#733,.F.);
#580=ORIENTED_EDGE('',*,*,#695,.T.);
#581=ORIENTED_EDGE('',*,*,#732,.T.);
#582=ORIENTED_EDGE('',*,*,#725,.F.);
#583=ORIENTED_EDGE('',*,*,#734,.F.);
#584=ORIENTED_EDGE('',*,*,#696,.T.);
#585=ORIENTED_EDGE('',*,*,#733,.T.);
#586=ORIENTED_EDGE('',*,*,#724,.T.);
#587=ORIENTED_EDGE('',*,*,#731,.F.);
#588=ORIENTED_EDGE('',*,*,#697,.T.);
#589=ORIENTED_EDGE('',*,*,#734,.T.);
#590=ORIENTED_EDGE('',*,*,#723,.F.);
#591=ORIENTED_EDGE('',*,*,#735,.F.);
#592=ORIENTED_EDGE('',*,*,#705,.T.);
#593=ORIENTED_EDGE('',*,*,#698,.T.);
#594=ORIENTED_EDGE('',*,*,#736,.T.);
#595=ORIENTED_EDGE('',*,*,#716,.T.);
#596=ORIENTED_EDGE('',*,*,#730,.T.);
#597=ORIENTED_EDGE('',*,*,#721,.F.);
#598=ORIENTED_EDGE('',*,*,#737,.F.);
#599=ORIENTED_EDGE('',*,*,#700,.T.);
#600=ORIENTED_EDGE('',*,*,#738,.F.);
#601=ORIENTED_EDGE('',*,*,#701,.T.);
#602=ORIENTED_EDGE('',*,*,#737,.T.);
#603=ORIENTED_EDGE('',*,*,#720,.T.);
#604=ORIENTED_EDGE('',*,*,#739,.F.);
#605=ORIENTED_EDGE('',*,*,#702,.T.);
#606=ORIENTED_EDGE('',*,*,#738,.T.);
#607=ORIENTED_EDGE('',*,*,#719,.F.);
#608=ORIENTED_EDGE('',*,*,#740,.F.);
#609=ORIENTED_EDGE('',*,*,#703,.T.);
#610=ORIENTED_EDGE('',*,*,#739,.T.);
#611=ORIENTED_EDGE('',*,*,#718,.T.);
#612=ORIENTED_EDGE('',*,*,#736,.F.);
#613=ORIENTED_EDGE('',*,*,#704,.T.);
#614=ORIENTED_EDGE('',*,*,#740,.T.);
#615=ORIENTED_EDGE('',*,*,#717,.F.);
#616=ORIENTED_EDGE('',*,*,#735,.T.);
#617=ORIENTED_EDGE('',*,*,#715,.F.);
#618=ORIENTED_EDGE('',*,*,#741,.F.);
#619=ORIENTED_EDGE('',*,*,#706,.T.);
#620=ORIENTED_EDGE('',*,*,#742,.F.);
#621=ORIENTED_EDGE('',*,*,#707,.T.);
#622=ORIENTED_EDGE('',*,*,#741,.T.);
#623=ORIENTED_EDGE('',*,*,#714,.T.);
#624=ORIENTED_EDGE('',*,*,#743,.F.);
#625=ORIENTED_EDGE('',*,*,#708,.T.);
#626=ORIENTED_EDGE('',*,*,#742,.T.);
#627=ORIENTED_EDGE('',*,*,#713,.F.);
#628=ORIENTED_EDGE('',*,*,#728,.F.);
#629=ORIENTED_EDGE('',*,*,#709,.T.);
#630=ORIENTED_EDGE('',*,*,#743,.T.);
#631=ORIENTED_EDGE('',*,*,#712,.T.);
#632=EDGE_CURVE('',#744,#745,#746,.F.);
#633=EDGE_CURVE('',#747,#744,#748,.T.);
#634=EDGE_CURVE('',#749,#747,#750,.F.);
#635=EDGE_CURVE('',#751,#749,#752,.T.);
#636=EDGE_CURVE('',#753,#751,#754,.F.);
#637=EDGE_CURVE('',#755,#753,#756,.T.);
#638=EDGE_CURVE('',#757,#755,#758,.F.);
#639=EDGE_CURVE('',#745,#757,#759,.T.);
#640=EDGE_CURVE('',#760,#760,#761,.F.);
#641=EDGE_CURVE('',#762,#762,#763,.F.);
#642=EDGE_CURVE('',#764,#764,#765,.F.);
#643=EDGE_CURVE('',#766,#766,#767,.F.);
#644=EDGE_CURVE('',#768,#769,#770,.F.);
#645=EDGE_CURVE('',#771,#768,#772,.T.);
#646=EDGE_CURVE('',#773,#771,#774,.F.);
#647=EDGE_CURVE('',#773,#775,#776,.T.);
#648=EDGE_CURVE('',#777,#775,#778,.F.);
#649=EDGE_CURVE('',#777,#779,#780,.T.);
#650=EDGE_CURVE('',#781,#779,#782,.F.);
#651=EDGE_CURVE('',#781,#769,#783,.T.);
#652=EDGE_CURVE('',#784,#784,#785,.T.);
#653=EDGE_CURVE('',#786,#786,#787,.T.);
#654=EDGE_CURVE('',#788,#789,#790,.F.);
#655=EDGE_CURVE('',#788,#791,#792,.T.);
#656=EDGE_CURVE('',#793,#791,#794,.F.);
#657=EDGE_CURVE('',#793,#795,#796,.T.);
#658=EDGE_CURVE('',#797,#795,#798,.F.);
#659=EDGE_CURVE('',#797,#799,#800,.T.);
#660=EDGE_CURVE('',#801,#799,#802,.F.);
#661=EDGE_CURVE('',#789,#801,#803,.T.);
#662=EDGE_CURVE('',#804,#804,#805,.T.);
#663=EDGE_CURVE('',#806,#806,#807,.T.);
#664=EDGE_CURVE('',#744,#795,#808,.T.);
#665=EDGE_CURVE('',#745,#797,#809,.T.);
#666=EDGE_CURVE('',#747,#793,#810,.T.);
#667=EDGE_CURVE('',#749,#791,#811,.T.);
#668=EDGE_CURVE('',#751,#781,#812,.T.);
#669=EDGE_CURVE('',#813,#788,#814,.T.);
#670=EDGE_CURVE('',#815,#813,#816,.T.);
#671=EDGE_CURVE('',#769,#815,#817,.T.);
#672=EDGE_CURVE('',#753,#779,#818,.T.);
#673=EDGE_CURVE('',#755,#777,#819,.T.);
#674=EDGE_CURVE('',#757,#775,#820,.T.);
#675=EDGE_CURVE('',#773,#821,#822,.T.);
#676=EDGE_CURVE('',#823,#821,#824,.T.);
#677=EDGE_CURVE('',#799,#823,#825,.T.);
#678=EDGE_CURVE('',#768,#826,#827,.T.);
#679=EDGE_CURVE('',#769,#828,#829,.F.);
#680=EDGE_CURVE('',#828,#830,#831,.T.);
#681=EDGE_CURVE('',#830,#826,#832,.F.);
#682=EDGE_CURVE('',#833,#826,#834,.T.);
#683=EDGE_CURVE('',#771,#833,#835,.T.);
#684=EDGE_CURVE('',#833,#821,#836,.F.);
#685=EDGE_CURVE('',#837,#838,#839,.T.);
#686=EDGE_CURVE('',#837,#788,#840,.F.);
#687=EDGE_CURVE('',#789,#841,#842,.T.);
#688=EDGE_CURVE('',#841,#838,#843,.F.);
#689=EDGE_CURVE('',#801,#844,#845,.T.);
#690=EDGE_CURVE('',#823,#844,#846,.F.);
#691=EDGE_CURVE('',#841,#844,#847,.T.);
#692=EDGE_CURVE('',#813,#848,#849,.F.);
#693=EDGE_CURVE('',#850,#837,#851,.T.);
#694=EDGE_CURVE('',#852,#850,#853,.F.);
#695=EDGE_CURVE('',#854,#852,#855,.T.);
#696=EDGE_CURVE('',#856,#854,#857,.F.);
#697=EDGE_CURVE('',#848,#856,#858,.T.);
#698=EDGE_CURVE('',#815,#859,#860,.F.);
#699=EDGE_CURVE('',#861,#813,#862,.F.);
#700=EDGE_CURVE('',#863,#861,#864,.T.);
#701=EDGE_CURVE('',#865,#863,#866,.F.);
#702=EDGE_CURVE('',#867,#865,#868,.T.);
#703=EDGE_CURVE('',#869,#867,#870,.F.);
#704=EDGE_CURVE('',#859,#869,#871,.T.);
#705=EDGE_CURVE('',#872,#815,#873,.F.);
#706=EDGE_CURVE('',#874,#872,#875,.T.);
#707=EDGE_CURVE('',#876,#874,#877,.F.);
#708=EDGE_CURVE('',#878,#876,#879,.T.);
#709=EDGE_CURVE('',#880,#878,#881,.F.);
#710=EDGE_CURVE('',#828,#880,#882,.T.);
#711=EDGE_CURVE('',#830,#883,#884,.T.);
#712=EDGE_CURVE('',#885,#883,#886,.F.);
#713=EDGE_CURVE('',#885,#887,#888,.T.);
#714=EDGE_CURVE('',#889,#887,#890,.F.);
#715=EDGE_CURVE('',#889,#891,#892,.T.);
#716=EDGE_CURVE('',#893,#891,#894,.F.);
#717=EDGE_CURVE('',#893,#895,#896,.T.);
#718=EDGE_CURVE('',#897,#895,#898,.F.);
#719=EDGE_CURVE('',#897,#899,#900,.T.);
#720=EDGE_CURVE('',#901,#899,#902,.F.);
#721=EDGE_CURVE('',#901,#903,#904,.T.);
#722=EDGE_CURVE('',#905,#903,#906,.F.);
#723=EDGE_CURVE('',#905,#907,#908,.T.);
#724=EDGE_CURVE('',#909,#907,#910,.F.);
#725=EDGE_CURVE('',#909,#911,#912,.T.);
#726=EDGE_CURVE('',#913,#911,#914,.F.);
#727=EDGE_CURVE('',#913,#838,#915,.T.);
#728=EDGE_CURVE('',#880,#883,#916,.T.);
#729=EDGE_CURVE('',#850,#913,#917,.T.);
#730=EDGE_CURVE('',#861,#903,#918,.T.);
#731=EDGE_CURVE('',#848,#905,#919,.T.);
#732=EDGE_CURVE('',#852,#911,#920,.T.);
#733=EDGE_CURVE('',#854,#909,#921,.T.);
#734=EDGE_CURVE('',#856,#907,#922,.T.);
#735=EDGE_CURVE('',#872,#891,#923,.T.);
#736=EDGE_CURVE('',#859,#893,#924,.T.);
#737=EDGE_CURVE('',#863,#901,#925,.T.);
#738=EDGE_CURVE('',#865,#899,#926,.T.);
#739=EDGE_CURVE('',#867,#897,#927,.T.);
#740=EDGE_CURVE('',#869,#895,#928,.T.);
#741=EDGE_CURVE('',#874,#889,#929,.T.);
#742=EDGE_CURVE('',#876,#887,#930,.T.);
#743=EDGE_CURVE('',#878,#885,#931,.T.);
#744=VERTEX_POINT('',#932);
#745=VERTEX_POINT('',#933);
#746=CIRCLE('',#934,1.);
#747=VERTEX_POINT('',#938);
#748=LINE('',#939,#940);
#749=VERTEX_POINT('',#942);
#750=CIRCLE('',#943,1.);
#751=VERTEX_POINT('',#947);
#752=LINE('',#948,#949);
#753=VERTEX_POINT('',#951);
#754=CIRCLE('',#952,1.);
#755=VERTEX_POINT('',#956);
#756=LINE('',#957,#958);
#757=VERTEX_POINT('',#960);
#758=CIRCLE('',#961,1.);
#759=LINE('',#965,#966);
#760=VERTEX_POINT('',#968);
#761=CIRCLE('',#969,0.2);
#762=VERTEX_POINT('',#973);
#763=CIRCLE('',#974,0.2);
#764=VERTEX_POINT('',#978);
#765=CIRCLE('',#979,0.2);
#766=VERTEX_POINT('',#983);
#767=CIRCLE('',#984,0.2);
#768=VERTEX_POINT('',#988);
#769=VERTEX_POINT('',#989);
#770=CIRCLE('',#990,0.5);
#771=VERTEX_POINT('',#994);
#772=LINE('',#995,#996);
#773=VERTEX_POINT('',#998);
#774=CIRCLE('',#999,1.);
#775=VERTEX_POINT('',#1003);
#776=LINE('',#1004,#1005);
#777=VERTEX_POINT('',#1007);
#778=CIRCLE('',#1008,1.);
#779=VERTEX_POINT('',#1012);
#780=LINE('',#1013,#1014);
#781=VERTEX_POINT('',#1016);
#782=CIRCLE('',#1017,1.);
#783=LINE('',#1021,#1022);
#784=VERTEX_POINT('',#1024);
#785=CIRCLE('',#1025,0.2);
#786=VERTEX_POINT('',#1029);
#787=CIRCLE('',#1030,0.2);
#788=VERTEX_POINT('',#1034);
#789=VERTEX_POINT('',#1035);
#790=CIRCLE('',#1036,0.500000000000004);
#791=VERTEX_POINT('',#1040);
#792=LINE('',#1041,#1042);
#793=VERTEX_POINT('',#1044);
#794=CIRCLE('',#1045,1.);
#795=VERTEX_POINT('',#1049);
#796=LINE('',#1050,#1051);
#797=VERTEX_POINT('',#1053);
#798=CIRCLE('',#1054,1.);
#799=VERTEX_POINT('',#1058);
#800=LINE('',#1059,#1060);
#801=VERTEX_POINT('',#1062);
#802=CIRCLE('',#1063,1.);
#803=LINE('',#1067,#1068);
#804=VERTEX_POINT('',#1070);
#805=CIRCLE('',#1071,0.2);
#806=VERTEX_POINT('',#1075);
#807=CIRCLE('',#1076,0.2);
#808=LINE('',#1080,#1081);
#809=LINE('',#1083,#1084);
#810=LINE('',#1086,#1087);
#811=LINE('',#1089,#1090);
#812=LINE('',#1092,#1093);
#813=VERTEX_POINT('',#1095);
#814=LINE('',#1096,#1097);
#815=VERTEX_POINT('',#1099);
#816=LINE('',#1100,#1101);
#817=LINE('',#1103,#1104);
#818=LINE('',#1106,#1107);
#819=LINE('',#1109,#1110);
#820=LINE('',#1112,#1113);
#821=VERTEX_POINT('',#1115);
#822=LINE('',#1116,#1117);
#823=VERTEX_POINT('',#1119);
#824=LINE('',#1120,#1121);
#825=LINE('',#1123,#1124);
#826=VERTEX_POINT('',#1126);
#827=LINE('',#1127,#1128);
#828=VERTEX_POINT('',#1130);
#829=CIRCLE('',#1131,0.500000000000004);
#830=VERTEX_POINT('',#1135);
#831=LINE('',#1136,#1137);
#832=CIRCLE('',#1139,0.5);
#833=VERTEX_POINT('',#1143);
#834=LINE('',#1144,#1145);
#835=LINE('',#1147,#1148);
#836=CIRCLE('',#1150,1.);
#837=VERTEX_POINT('',#1154);
#838=VERTEX_POINT('',#1155);
#839=LINE('',#1156,#1157);
#840=CIRCLE('',#1159,0.5);
#841=VERTEX_POINT('',#1163);
#842=LINE('',#1164,#1165);
#843=CIRCLE('',#1167,0.5);
#844=VERTEX_POINT('',#1171);
#845=LINE('',#1172,#1173);
#846=CIRCLE('',#1175,1.);
#847=LINE('',#1179,#1180);
#848=VERTEX_POINT('',#1182);
#849=CIRCLE('',#1183,0.500000000000002);
#850=VERTEX_POINT('',#1187);
#851=LINE('',#1188,#1189);
#852=VERTEX_POINT('',#1191);
#853=CIRCLE('',#1192,1.);
#854=VERTEX_POINT('',#1196);
#855=LINE('',#1197,#1198);
#856=VERTEX_POINT('',#1200);
#857=CIRCLE('',#1201,1.);
#858=LINE('',#1205,#1206);
#859=VERTEX_POINT('',#1208);
#860=CIRCLE('',#1209,0.5);
#861=VERTEX_POINT('',#1213);
#862=CIRCLE('',#1214,0.5);
#863=VERTEX_POINT('',#1218);
#864=LINE('',#1219,#1220);
#865=VERTEX_POINT('',#1222);
#866=CIRCLE('',#1223,1.);
#867=VERTEX_POINT('',#1227);
#868=LINE('',#1228,#1229);
#869=VERTEX_POINT('',#1231);
#870=CIRCLE('',#1232,1.);
#871=LINE('',#1236,#1237);
#872=VERTEX_POINT('',#1239);
#873=CIRCLE('',#1240,0.5);
#874=VERTEX_POINT('',#1244);
#875=LINE('',#1245,#1246);
#876=VERTEX_POINT('',#1248);
#877=CIRCLE('',#1249,0.999999999999996);
#878=VERTEX_POINT('',#1253);
#879=LINE('',#1254,#1255);
#880=VERTEX_POINT('',#1257);
#881=CIRCLE('',#1258,0.999999999999998);
#882=LINE('',#1262,#1263);
#883=VERTEX_POINT('',#1265);
#884=LINE('',#1266,#1267);
#885=VERTEX_POINT('',#1269);
#886=CIRCLE('',#1270,1.);
#887=VERTEX_POINT('',#1274);
#888=LINE('',#1275,#1276);
#889=VERTEX_POINT('',#1278);
#890=CIRCLE('',#1279,1.);
#891=VERTEX_POINT('',#1283);
#892=LINE('',#1284,#1285);
#893=VERTEX_POINT('',#1287);
#894=CIRCLE('',#1288,0.5);
#895=VERTEX_POINT('',#1292);
#896=LINE('',#1293,#1294);
#897=VERTEX_POINT('',#1296);
#898=CIRCLE('',#1297,1.);
#899=VERTEX_POINT('',#1301);
#900=LINE('',#1302,#1303);
#901=VERTEX_POINT('',#1305);
#902=CIRCLE('',#1306,1.);
#903=VERTEX_POINT('',#1310);
#904=LINE('',#1311,#1312);
#905=VERTEX_POINT('',#1314);
#906=CIRCLE('',#1315,0.5);
#907=VERTEX_POINT('',#1319);
#908=LINE('',#1320,#1321);
#909=VERTEX_POINT('',#1323);
#910=CIRCLE('',#1324,1.);
#911=VERTEX_POINT('',#1328);
#912=LINE('',#1329,#1330);
#913=VERTEX_POINT('',#1332);
#914=CIRCLE('',#1333,1.);
#915=LINE('',#1337,#1338);
#916=LINE('',#1340,#1341);
#917=LINE('',#1343,#1344);
#918=LINE('',#1346,#1347);
#919=LINE('',#1349,#1350);
#920=LINE('',#1352,#1353);
#921=LINE('',#1355,#1356);
#922=LINE('',#1358,#1359);
#923=LINE('',#1361,#1362);
#924=LINE('',#1364,#1365);
#925=LINE('',#1367,#1368);
#926=LINE('',#1370,#1371);
#927=LINE('',#1373,#1374);
#928=LINE('',#1376,#1377);
#929=LINE('',#1379,#1380);
#930=LINE('',#1382,#1383);
#931=LINE('',#1385,#1386);
#932=CARTESIAN_POINT('',(30.,9.,0.));
#933=CARTESIAN_POINT('',(29.,10.,0.));
#934=AXIS2_PLACEMENT_3D('',#935,#936,#937);
#935=CARTESIAN_POINT('',(29.,9.,0.));
#936=DIRECTION('',(0.,0.,-1.));
#937=DIRECTION('',(3.5527136788005E-15,1.,0.));
#938=CARTESIAN_POINT('',(30.,-9.,0.));
#939=CARTESIAN_POINT('',(30.,-9.,0.));
#940=VECTOR('',#941,1.);
#941=DIRECTION('',(0.,1.,0.));
#942=CARTESIAN_POINT('',(29.,-10.,0.));
#943=AXIS2_PLACEMENT_3D('',#944,#945,#946);
#944=CARTESIAN_POINT('',(29.,-9.,0.));
#945=DIRECTION('',(0.,0.,-1.));
#946=DIRECTION('',(1.,0.,0.));
#947=CARTESIAN_POINT('',(-29.,-10.,0.));
#948=CARTESIAN_POINT('',(-29.,-10.,0.));
#949=VECTOR('',#950,1.);
#950=DIRECTION('',(1.,-1.225073682345E-16,0.));
#951=CARTESIAN_POINT('',(-30.,-9.,0.));
#952=AXIS2_PLACEMENT_3D('',#953,#954,#955);
#953=CARTESIAN_POINT('',(-29.,-9.,0.));
#954=DIRECTION('',(0.,0.,-1.));
#955=DIRECTION('',(-3.5527136788005E-15,-1.,0.));
#956=CARTESIAN_POINT('',(-30.,9.,0.));
#957=CARTESIAN_POINT('',(-30.,9.,0.));
#958=VECTOR('',#959,1.);
#959=DIRECTION('',(0.,-1.,0.));
#960=CARTESIAN_POINT('',(-29.,10.,0.));
#961=AXIS2_PLACEMENT_3D('',#962,#963,#964);
#962=CARTESIAN_POINT('',(-29.,9.,0.));
#963=DIRECTION('',(0.,0.,-1.));
#964=DIRECTION('',(-1.,0.,0.));
#965=CARTESIAN_POINT('',(29.,10.,0.));
#966=VECTOR('',#967,1.);
#967=DIRECTION('',(-1.,1.225073682345E-16,0.));
#968=CARTESIAN_POINT('',(-27.8,7.99999999999998,0.));
#969=AXIS2_PLACEMENT_3D('',#970,#971,#972);
#970=CARTESIAN_POINT('',(-28.,7.99999999999998,0.));
#971=DIRECTION('',(0.,0.,-1.));
#972=DIRECTION('',(1.,1.22464679914735E-16,0.));
#973=CARTESIAN_POINT('',(28.2,8.,0.));
#974=AXIS2_PLACEMENT_3D('',#975,#976,#977);
#975=CARTESIAN_POINT('',(28.,8.,0.));
#976=DIRECTION('',(0.,0.,-1.));
#977=DIRECTION('',(1.,1.22464679914735E-16,0.));
#978=CARTESIAN_POINT('',(28.2,-8.,0.));
#979=AXIS2_PLACEMENT_3D('',#980,#981,#982);
#980=CARTESIAN_POINT('',(28.,-8.,0.));
#981=DIRECTION('',(0.,0.,-1.));
#982=DIRECTION('',(1.,1.22464679914735E-16,0.));
#983=CARTESIAN_POINT('',(-27.8,-8.00000000000001,0.));
#984=AXIS2_PLACEMENT_3D('',#985,#986,#987);
#985=CARTESIAN_POINT('',(-28.,-8.00000000000001,0.));
#986=DIRECTION('',(0.,0.,-1.));
#987=DIRECTION('',(1.,1.22464679914735E-16,0.));
#988=CARTESIAN_POINT('',(-26.,-9.5,1.));
#989=CARTESIAN_POINT('',(-25.5,-10.,1.));
#990=AXIS2_PLACEMENT_3D('',#991,#992,#993);
#991=CARTESIAN_POINT('',(-25.5,-9.5,1.));
#992=DIRECTION('',(0.,0.,-1.));
#993=DIRECTION('',(-7.105427357601E-15,-1.,0.));
#994=CARTESIAN_POINT('',(-26.,9.,1.));
#995=CARTESIAN_POINT('',(-26.,9.,1.));
#996=VECTOR('',#997,1.);
#997=DIRECTION('',(0.,-1.,0.));
#998=CARTESIAN_POINT('',(-25.,10.,1.));
#999=AXIS2_PLACEMENT_3D('',#1000,#1001,#1002);
#1000=CARTESIAN_POINT('',(-25.,9.,1.));
#1001=DIRECTION('',(0.,0.,-1.));
#1002=DIRECTION('',(-1.,0.,0.));
#1003=CARTESIAN_POINT('',(-29.,10.,1.));
#1004=CARTESIAN_POINT('',(-25.,10.,1.));
#1005=VECTOR('',#1006,1.);
#1006=DIRECTION('',(-1.,0.,0.));
#1007=CARTESIAN_POINT('',(-30.,9.,1.));
#1008=AXIS2_PLACEMENT_3D('',#1009,#1010,#1011);
#1009=CARTESIAN_POINT('',(-29.,9.,1.));
#1010=DIRECTION('',(0.,0.,1.));
#1011=DIRECTION('',(-7.105427357601E-15,1.,0.));
#1012=CARTESIAN_POINT('',(-30.,-9.,1.));
#1013=CARTESIAN_POINT('',(-30.,9.,1.));
#1014=VECTOR('',#1015,1.);
#1015=DIRECTION('',(0.,-1.,0.));
#1016=CARTESIAN_POINT('',(-29.,-10.,1.));
#1017=AXIS2_PLACEMENT_3D('',#1018,#1019,#1020);
#1018=CARTESIAN_POINT('',(-29.,-9.,1.));
#1019=DIRECTION('',(0.,0.,1.));
#1020=DIRECTION('',(-1.,0.,0.));
#1021=CARTESIAN_POINT('',(-29.,-10.,1.));
#1022=VECTOR('',#1023,1.);
#1023=DIRECTION('',(1.,0.,0.));
#1024=CARTESIAN_POINT('',(-27.8,7.99999999999998,1.));
#1025=AXIS2_PLACEMENT_3D('',#1026,#1027,#1028);
#1026=CARTESIAN_POINT('',(-28.,7.99999999999998,1.));
#1027=DIRECTION('',(0.,0.,-1.));
#1028=DIRECTION('',(1.,1.22464679914735E-16,0.));
#1029=CARTESIAN_POINT('',(-27.8,-8.00000000000001,1.));
#1030=AXIS2_PLACEMENT_3D('',#1031,#1032,#1033);
#1031=CARTESIAN_POINT('',(-28.,-8.00000000000001,1.));
#1032=DIRECTION('',(0.,0.,-1.));
#1033=DIRECTION('',(1.,1.22464679914735E-16,0.));
#1034=CARTESIAN_POINT('',(25.5,-10.,1.));
#1035=CARTESIAN_POINT('',(26.,-9.5,1.));
#1036=AXIS2_PLACEMENT_3D('',#1037,#1038,#1039);
#1037=CARTESIAN_POINT('',(25.5,-9.5,1.));
#1038=DIRECTION('',(0.,0.,-1.));
#1039=DIRECTION('',(1.,0.,0.));
#1040=CARTESIAN_POINT('',(29.,-10.,1.));
#1041=CARTESIAN_POINT('',(25.5,-10.,1.));
#1042=VECTOR('',#1043,1.);
#1043=DIRECTION('',(1.,0.,0.));
#1044=CARTESIAN_POINT('',(30.,-9.,1.));
#1045=AXIS2_PLACEMENT_3D('',#1046,#1047,#1048);
#1046=CARTESIAN_POINT('',(29.,-9.,1.));
#1047=DIRECTION('',(0.,0.,1.));
#1048=DIRECTION('',(-3.5527136788005E-15,-1.,0.));
#1049=CARTESIAN_POINT('',(30.,9.,1.));
#1050=CARTESIAN_POINT('',(30.,-9.,1.));
#1051=VECTOR('',#1052,1.);
#1052=DIRECTION('',(0.,1.,0.));
#1053=CARTESIAN_POINT('',(29.,10.,1.));
#1054=AXIS2_PLACEMENT_3D('',#1055,#1056,#1057);
#1055=CARTESIAN_POINT('',(29.,9.,1.));
#1056=DIRECTION('',(0.,0.,1.));
#1057=DIRECTION('',(1.,1.77635683940025E-15,0.));
#1058=CARTESIAN_POINT('',(25.,10.,1.));
#1059=CARTESIAN_POINT('',(29.,10.,1.));
#1060=VECTOR('',#1061,1.);
#1061=DIRECTION('',(-1.,0.,0.));
#1062=CARTESIAN_POINT('',(26.,9.,1.));
#1063=AXIS2_PLACEMENT_3D('',#1064,#1065,#1066);
#1064=CARTESIAN_POINT('',(25.,9.,1.));
#1065=DIRECTION('',(0.,0.,-1.));
#1066=DIRECTION('',(0.,1.,0.));
#1067=CARTESIAN_POINT('',(26.,-9.5,1.));
#1068=VECTOR('',#1069,1.);
#1069=DIRECTION('',(0.,1.,0.));
#1070=CARTESIAN_POINT('',(28.2,8.,1.));
#1071=AXIS2_PLACEMENT_3D('',#1072,#1073,#1074);
#1072=CARTESIAN_POINT('',(28.,8.,1.));
#1073=DIRECTION('',(0.,0.,-1.));
#1074=DIRECTION('',(1.,1.22464679914735E-16,0.));
#1075=CARTESIAN_POINT('',(28.2,-8.,1.));
#1076=AXIS2_PLACEMENT_3D('',#1077,#1078,#1079);
#1077=CARTESIAN_POINT('',(28.,-8.,1.));
#1078=DIRECTION('',(0.,0.,-1.));
#1079=DIRECTION('',(1.,1.22464679914735E-16,0.));
#1080=CARTESIAN_POINT('',(30.,9.,0.));
#1081=VECTOR('',#1082,1.);
#1082=DIRECTION('',(0.,0.,1.));
#1083=CARTESIAN_POINT('',(29.,10.,0.));
#1084=VECTOR('',#1085,1.);
#1085=DIRECTION('',(0.,0.,1.));
#1086=CARTESIAN_POINT('',(30.,-9.,0.));
#1087=VECTOR('',#1088,1.);
#1088=DIRECTION('',(0.,0.,1.));
#1089=CARTESIAN_POINT('',(29.,-10.,0.));
#1090=VECTOR('',#1091,1.);
#1091=DIRECTION('',(0.,0.,1.));
#1092=CARTESIAN_POINT('',(-29.,-10.,0.));
#1093=VECTOR('',#1094,1.);
#1094=DIRECTION('',(0.,0.,1.));
#1095=CARTESIAN_POINT('',(5.49999999999999,-10.,1.));
#1096=CARTESIAN_POINT('',(5.49999999999999,-10.,1.));
#1097=VECTOR('',#1098,1.);
#1098=DIRECTION('',(1.,-1.77635683940025E-16,0.));
#1099=CARTESIAN_POINT('',(-5.50000000000001,-10.,1.));
#1100=CARTESIAN_POINT('',(-5.5,-10.,1.));
#1101=VECTOR('',#1102,1.);
#1102=DIRECTION('',(1.,0.,0.));
#1103=CARTESIAN_POINT('',(-25.5,-10.,1.));
#1104=VECTOR('',#1105,1.);
#1105=DIRECTION('',(1.,-1.77635683940025E-16,0.));
#1106=CARTESIAN_POINT('',(-30.,-9.,0.));
#1107=VECTOR('',#1108,1.);
#1108=DIRECTION('',(0.,0.,1.));
#1109=CARTESIAN_POINT('',(-30.,9.,0.));
#1110=VECTOR('',#1111,1.);
#1111=DIRECTION('',(0.,0.,1.));
#1112=CARTESIAN_POINT('',(-29.,10.,0.));
#1113=VECTOR('',#1114,1.);
#1114=DIRECTION('',(0.,0.,1.));
#1115=CARTESIAN_POINT('',(-25.,10.,3.));
#1116=CARTESIAN_POINT('',(-25.,10.,1.));
#1117=VECTOR('',#1118,1.);
#1118=DIRECTION('',(0.,0.,1.));
#1119=CARTESIAN_POINT('',(25.,10.,3.));
#1120=CARTESIAN_POINT('',(25.,10.,3.));
#1121=VECTOR('',#1122,1.);
#1122=DIRECTION('',(-1.,1.4210854715202E-16,0.));
#1123=CARTESIAN_POINT('',(25.,10.,1.));
#1124=VECTOR('',#1125,1.);
#1125=DIRECTION('',(0.,0.,1.));
#1126=CARTESIAN_POINT('',(-26.,-9.5,3.));
#1127=CARTESIAN_POINT('',(-26.,-9.5,1.));
#1128=VECTOR('',#1129,1.);
#1129=DIRECTION('',(0.,0.,1.));
#1130=CARTESIAN_POINT('',(-25.,-9.5,1.));
#1131=AXIS2_PLACEMENT_3D('',#1132,#1133,#1134);
#1132=CARTESIAN_POINT('',(-25.5,-9.5,1.));
#1133=DIRECTION('',(0.,0.,-1.));
#1134=DIRECTION('',(1.,0.,0.));
#1135=CARTESIAN_POINT('',(-25.,-9.5,3.));
#1136=CARTESIAN_POINT('',(-25.,-9.5,1.));
#1137=VECTOR('',#1138,1.);
#1138=DIRECTION('',(0.,0.,1.));
#1139=AXIS2_PLACEMENT_3D('',#1140,#1141,#1142);
#1140=CARTESIAN_POINT('',(-25.5,-9.5,3.));
#1141=DIRECTION('',(0.,0.,1.));
#1142=DIRECTION('',(-1.,0.,0.));
#1143=CARTESIAN_POINT('',(-26.,9.,3.));
#1144=CARTESIAN_POINT('',(-26.,9.,3.));
#1145=VECTOR('',#1146,1.);
#1146=DIRECTION('',(0.,-1.,0.));
#1147=CARTESIAN_POINT('',(-26.,9.,1.));
#1148=VECTOR('',#1149,1.);
#1149=DIRECTION('',(0.,0.,1.));
#1150=AXIS2_PLACEMENT_3D('',#1151,#1152,#1153);
#1151=CARTESIAN_POINT('',(-25.,9.,3.));
#1152=DIRECTION('',(0.,0.,1.));
#1153=DIRECTION('',(0.,1.,0.));
#1154=CARTESIAN_POINT('',(25.,-9.5,1.));
#1155=CARTESIAN_POINT('',(25.,-9.5,3.));
#1156=CARTESIAN_POINT('',(25.,-9.5,1.));
#1157=VECTOR('',#1158,1.);
#1158=DIRECTION('',(0.,0.,1.));
#1159=AXIS2_PLACEMENT_3D('',#1160,#1161,#1162);
#1160=CARTESIAN_POINT('',(25.5,-9.5,1.));
#1161=DIRECTION('',(0.,0.,-1.));
#1162=DIRECTION('',(-7.105427357601E-15,-1.,0.));
#1163=CARTESIAN_POINT('',(26.,-9.5,3.));
#1164=CARTESIAN_POINT('',(26.,-9.5,1.));
#1165=VECTOR('',#1166,1.);
#1166=DIRECTION('',(0.,0.,1.));
#1167=AXIS2_PLACEMENT_3D('',#1168,#1169,#1170);
#1168=CARTESIAN_POINT('',(25.5,-9.5,3.));
#1169=DIRECTION('',(0.,0.,1.));
#1170=DIRECTION('',(-1.,0.,0.));
#1171=CARTESIAN_POINT('',(26.,9.,3.));
#1172=CARTESIAN_POINT('',(26.,9.,1.));
#1173=VECTOR('',#1174,1.);
#1174=DIRECTION('',(0.,0.,1.));
#1175=AXIS2_PLACEMENT_3D('',#1176,#1177,#1178);
#1176=CARTESIAN_POINT('',(25.,9.,3.));
#1177=DIRECTION('',(0.,0.,1.));
#1178=DIRECTION('',(1.,0.,0.));
#1179=CARTESIAN_POINT('',(26.,-9.5,3.));
#1180=VECTOR('',#1181,1.);
#1181=DIRECTION('',(0.,1.,0.));
#1182=CARTESIAN_POINT('',(5.99999999999999,-9.5,1.));
#1183=AXIS2_PLACEMENT_3D('',#1184,#1185,#1186);
#1184=CARTESIAN_POINT('',(5.49999999999999,-9.5,1.));
#1185=DIRECTION('',(0.,0.,-1.));
#1186=DIRECTION('',(1.,0.,0.));
#1187=CARTESIAN_POINT('',(25.,8.,1.));
#1188=CARTESIAN_POINT('',(25.,8.,1.));
#1189=VECTOR('',#1190,1.);
#1190=DIRECTION('',(0.,-1.,0.));
#1191=CARTESIAN_POINT('',(24.,9.,1.));
#1192=AXIS2_PLACEMENT_3D('',#1193,#1194,#1195);
#1193=CARTESIAN_POINT('',(24.,8.,1.));
#1194=DIRECTION('',(0.,0.,1.));
#1195=DIRECTION('',(1.,2.66453525910038E-15,0.));
#1196=CARTESIAN_POINT('',(7.,9.,1.));
#1197=CARTESIAN_POINT('',(7.,9.,1.));
#1198=VECTOR('',#1199,1.);
#1199=DIRECTION('',(1.,-2.089831575765E-16,0.));
#1200=CARTESIAN_POINT('',(6.,8.,1.));
#1201=AXIS2_PLACEMENT_3D('',#1202,#1203,#1204);
#1202=CARTESIAN_POINT('',(7.,8.,1.));
#1203=DIRECTION('',(0.,0.,1.));
#1204=DIRECTION('',(0.,1.,0.));
#1205=CARTESIAN_POINT('',(6.,-9.5,1.));
#1206=VECTOR('',#1207,1.);
#1207=DIRECTION('',(1.01506105108586E-16,1.,0.));
#1208=CARTESIAN_POINT('',(-5.,-9.5,1.));
#1209=AXIS2_PLACEMENT_3D('',#1210,#1211,#1212);
#1210=CARTESIAN_POINT('',(-5.5,-9.5,1.));
#1211=DIRECTION('',(0.,0.,-1.));
#1212=DIRECTION('',(1.,0.,0.));
#1213=CARTESIAN_POINT('',(4.99999999999999,-9.5,1.));
#1214=AXIS2_PLACEMENT_3D('',#1215,#1216,#1217);
#1215=CARTESIAN_POINT('',(5.49999999999999,-9.5,1.));
#1216=DIRECTION('',(0.,0.,-1.));
#1217=DIRECTION('',(-8.88178419700125E-15,-1.,0.));
#1218=CARTESIAN_POINT('',(5.,8.,1.));
#1219=CARTESIAN_POINT('',(5.,8.,1.));
#1220=VECTOR('',#1221,1.);
#1221=DIRECTION('',(-1.01506105108586E-16,-1.,0.));
#1222=CARTESIAN_POINT('',(4.,9.,1.));
#1223=AXIS2_PLACEMENT_3D('',#1224,#1225,#1226);
#1224=CARTESIAN_POINT('',(4.,8.,1.));
#1225=DIRECTION('',(0.,0.,1.));
#1226=DIRECTION('',(1.,0.,0.));
#1227=CARTESIAN_POINT('',(-4.,9.,1.));
#1228=CARTESIAN_POINT('',(-4.,9.,1.));
#1229=VECTOR('',#1230,1.);
#1230=DIRECTION('',(1.,0.,0.));
#1231=CARTESIAN_POINT('',(-5.,8.,1.));
#1232=AXIS2_PLACEMENT_3D('',#1233,#1234,#1235);
#1233=CARTESIAN_POINT('',(-4.,8.,1.));
#1234=DIRECTION('',(0.,0.,1.));
#1235=DIRECTION('',(0.,1.,0.));
#1236=CARTESIAN_POINT('',(-5.,-9.5,1.));
#1237=VECTOR('',#1238,1.);
#1238=DIRECTION('',(1.52259157662879E-16,1.,0.));
#1239=CARTESIAN_POINT('',(-6.,-9.5,1.));
#1240=AXIS2_PLACEMENT_3D('',#1241,#1242,#1243);
#1241=CARTESIAN_POINT('',(-5.5,-9.5,1.));
#1242=DIRECTION('',(0.,0.,-1.));
#1243=DIRECTION('',(-1.59872115546023E-14,-1.,0.));
#1244=CARTESIAN_POINT('',(-6.,8.,1.));
#1245=CARTESIAN_POINT('',(-6.,8.,1.));
#1246=VECTOR('',#1247,1.);
#1247=DIRECTION('',(-1.52259157662879E-16,-1.,0.));
#1248=CARTESIAN_POINT('',(-6.99999999999999,9.,1.));
#1249=AXIS2_PLACEMENT_3D('',#1250,#1251,#1252);
#1250=CARTESIAN_POINT('',(-6.99999999999999,8.,1.));
#1251=DIRECTION('',(0.,0.,1.));
#1252=DIRECTION('',(1.,1.77635683940026E-15,0.));
#1253=CARTESIAN_POINT('',(-24.,9.,1.));
#1254=CARTESIAN_POINT('',(-24.,9.,1.));
#1255=VECTOR('',#1256,1.);
#1256=DIRECTION('',(1.,-2.089831575765E-16,0.));
#1257=CARTESIAN_POINT('',(-25.,8.,1.));
#1258=AXIS2_PLACEMENT_3D('',#1259,#1260,#1261);
#1259=CARTESIAN_POINT('',(-24.,8.,1.));
#1260=DIRECTION('',(0.,0.,1.));
#1261=DIRECTION('',(0.,1.,0.));
#1262=CARTESIAN_POINT('',(-25.,-9.5,1.));
#1263=VECTOR('',#1264,1.);
#1264=DIRECTION('',(0.,1.,0.));
#1265=CARTESIAN_POINT('',(-25.,8.,3.));
#1266=CARTESIAN_POINT('',(-25.,-9.5,3.));
#1267=VECTOR('',#1268,1.);
#1268=DIRECTION('',(0.,1.,0.));
#1269=CARTESIAN_POINT('',(-24.,9.,3.));
#1270=AXIS2_PLACEMENT_3D('',#1271,#1272,#1273);
#1271=CARTESIAN_POINT('',(-24.,8.,3.));
#1272=DIRECTION('',(0.,0.,-1.));
#1273=DIRECTION('',(-1.,0.,0.));
#1274=CARTESIAN_POINT('',(-6.99999999999999,9.,3.));
#1275=CARTESIAN_POINT('',(-24.,9.,3.));
#1276=VECTOR('',#1277,1.);
#1277=DIRECTION('',(1.,-2.089831575765E-16,0.));
#1278=CARTESIAN_POINT('',(-6.,8.,3.));
#1279=AXIS2_PLACEMENT_3D('',#1280,#1281,#1282);
#1280=CARTESIAN_POINT('',(-6.99999999999999,8.,3.));
#1281=DIRECTION('',(0.,0.,-1.));
#1282=DIRECTION('',(2.66453525910038E-15,1.,0.));
#1283=CARTESIAN_POINT('',(-6.,-9.5,3.));
#1284=CARTESIAN_POINT('',(-6.,8.,3.));
#1285=VECTOR('',#1286,1.);
#1286=DIRECTION('',(-1.52259157662879E-16,-1.,0.));
#1287=CARTESIAN_POINT('',(-5.,-9.5,3.));
#1288=AXIS2_PLACEMENT_3D('',#1289,#1290,#1291);
#1289=CARTESIAN_POINT('',(-5.5,-9.5,3.));
#1290=DIRECTION('',(0.,0.,1.));
#1291=DIRECTION('',(-1.,0.,0.));
#1292=CARTESIAN_POINT('',(-5.,8.,3.));
#1293=CARTESIAN_POINT('',(-5.,-9.5,3.));
#1294=VECTOR('',#1295,1.);
#1295=DIRECTION('',(2.03012210217171E-16,1.,0.));
#1296=CARTESIAN_POINT('',(-4.,9.,3.));
#1297=AXIS2_PLACEMENT_3D('',#1298,#1299,#1300);
#1298=CARTESIAN_POINT('',(-4.,8.,3.));
#1299=DIRECTION('',(0.,0.,-1.));
#1300=DIRECTION('',(-1.,0.,0.));
#1301=CARTESIAN_POINT('',(4.,9.,3.));
#1302=CARTESIAN_POINT('',(-4.,9.,3.));
#1303=VECTOR('',#1304,1.);
#1304=DIRECTION('',(1.,0.,0.));
#1305=CARTESIAN_POINT('',(5.,8.,3.));
#1306=AXIS2_PLACEMENT_3D('',#1307,#1308,#1309);
#1307=CARTESIAN_POINT('',(4.,8.,3.));
#1308=DIRECTION('',(0.,0.,-1.));
#1309=DIRECTION('',(4.44089209850062E-16,1.,0.));
#1310=CARTESIAN_POINT('',(4.99999999999999,-9.5,3.));
#1311=CARTESIAN_POINT('',(5.,8.,3.));
#1312=VECTOR('',#1313,1.);
#1313=DIRECTION('',(-1.52259157662879E-16,-1.,0.));
#1314=CARTESIAN_POINT('',(5.99999999999999,-9.5,3.));
#1315=AXIS2_PLACEMENT_3D('',#1316,#1317,#1318);
#1316=CARTESIAN_POINT('',(5.49999999999999,-9.5,3.));
#1317=DIRECTION('',(0.,0.,1.));
#1318=DIRECTION('',(-1.,0.,0.));
#1319=CARTESIAN_POINT('',(6.,8.,3.));
#1320=CARTESIAN_POINT('',(6.,-9.5,3.));
#1321=VECTOR('',#1322,1.);
#1322=DIRECTION('',(1.52259157662879E-16,1.,0.));
#1323=CARTESIAN_POINT('',(7.,9.,3.));
#1324=AXIS2_PLACEMENT_3D('',#1325,#1326,#1327);
#1325=CARTESIAN_POINT('',(7.,8.,3.));
#1326=DIRECTION('',(0.,0.,-1.));
#1327=DIRECTION('',(-1.,0.,0.));
#1328=CARTESIAN_POINT('',(24.,9.,3.));
#1329=CARTESIAN_POINT('',(7.,9.,3.));
#1330=VECTOR('',#1331,1.);
#1331=DIRECTION('',(1.,-2.089831575765E-16,0.));
#1332=CARTESIAN_POINT('',(25.,8.,3.));
#1333=AXIS2_PLACEMENT_3D('',#1334,#1335,#1336);
#1334=CARTESIAN_POINT('',(24.,8.,3.));
#1335=DIRECTION('',(0.,0.,-1.));
#1336=DIRECTION('',(0.,1.,0.));
#1337=CARTESIAN_POINT('',(25.,8.,3.));
#1338=VECTOR('',#1339,1.);
#1339=DIRECTION('',(-2.03012210217171E-16,-1.,0.));
#1340=CARTESIAN_POINT('',(-25.,8.,1.));
#1341=VECTOR('',#1342,1.);
#1342=DIRECTION('',(0.,0.,1.));
#1343=CARTESIAN_POINT('',(25.,8.,1.));
#1344=VECTOR('',#1345,1.);
#1345=DIRECTION('',(0.,0.,1.));
#1346=CARTESIAN_POINT('',(4.99999999999999,-9.5,1.));
#1347=VECTOR('',#1348,1.);
#1348=DIRECTION('',(0.,0.,1.));
#1349=CARTESIAN_POINT('',(5.99999999999999,-9.5,1.));
#1350=VECTOR('',#1351,1.);
#1351=DIRECTION('',(0.,0.,1.));
#1352=CARTESIAN_POINT('',(24.,9.,1.));
#1353=VECTOR('',#1354,1.);
#1354=DIRECTION('',(0.,0.,1.));
#1355=CARTESIAN_POINT('',(7.,9.,1.));
#1356=VECTOR('',#1357,1.);
#1357=DIRECTION('',(0.,0.,1.));
#1358=CARTESIAN_POINT('',(6.,8.,1.));
#1359=VECTOR('',#1360,1.);
#1360=DIRECTION('',(0.,0.,1.));
#1361=CARTESIAN_POINT('',(-6.,-9.5,1.));
#1362=VECTOR('',#1363,1.);
#1363=DIRECTION('',(0.,0.,1.));
#1364=CARTESIAN_POINT('',(-5.,-9.5,1.));
#1365=VECTOR('',#1366,1.);
#1366=DIRECTION('',(0.,0.,1.));
#1367=CARTESIAN_POINT('',(5.,8.,1.));
#1368=VECTOR('',#1369,1.);
#1369=DIRECTION('',(0.,0.,1.));
#1370=CARTESIAN_POINT('',(4.,9.,1.));
#1371=VECTOR('',#1372,1.);
#1372=DIRECTION('',(0.,0.,1.));
#1373=CARTESIAN_POINT('',(-4.,9.,1.));
#1374=VECTOR('',#1375,1.);
#1375=DIRECTION('',(0.,0.,1.));
#1376=CARTESIAN_POINT('',(-5.,8.,1.));
#1377=VECTOR('',#1378,1.);
#1378=DIRECTION('',(0.,0.,1.));
#1379=CARTESIAN_POINT('',(-6.,8.,1.));
#1380=VECTOR('',#1381,1.);
#1381=DIRECTION('',(0.,0.,1.));
#1382=CARTESIAN_POINT('',(-6.99999999999999,9.,1.));
#1383=VECTOR('',#1384,1.);
#1384=DIRECTION('',(0.,0.,1.));
#1385=CARTESIAN_POINT('',(-24.,9.,1.));
#1386=VECTOR('',#1387,1.);
#1387=DIRECTION('',(0.,0.,1.));
ENDSEC;
END-ISO-10303-21;
