ISO-10303-21;
HEADER;
FILE_DESCRIPTION(('STEP AP242'),
    '1');
FILE_NAME('itemRod',
    '',
    ('UNSPECIFIED'),
    ('UNSPECIFIED'),
    'C3D Converter',
    'C3D Toolkit',
    '');
FILE_SCHEMA(('AP242_MANAGED_MODEL_BASED_3D_ENGINEERING_MIM_LF { 1 0 10303 442 1 1 4 }'));
ENDSEC;

DATA;
#1=PRODUCT_DEFINITION('','UNSPECIFIED',#28,#31);
#2=SHAPE_DEFINITION_REPRESENTATION(#26,#3);
#3=SHAPE_REPRESENTATION('NONE',(#4),#8);
#4=AXIS2_PLACEMENT_3D('',#5,#6,#7);
#5=CARTESIAN_POINT('',(0.,0.,0.));
#6=DIRECTION('',(0.,0.,1.));
#7=DIRECTION('',(1.,0.,0.));
#8=(GEOMETRIC_REPRESENTATION_CONTEXT(3)GLOBAL_UNCERTAINTY_ASSIGNED_CONTEXT((#10))
GLOBAL_UNIT_ASSIGNED_CONTEXT((#9,#11,#12))REPRESENTATION_CONTEXT('NONE','NONE'));
#9=(LENGTH_UNIT()NAMED_UNIT(*)SI_UNIT(.MILLI.,.METRE.));
#10=UNCERTAINTY_MEASURE_WITH_UNIT(LENGTH_MEASURE(1.E-5),#9,'NONE','NONE');
#11=(NAMED_UNIT(*)PLANE_ANGLE_UNIT()SI_UNIT($,.RADIAN.));
#12=(NAMED_UNIT(*)SI_UNIT($,.STERADIAN.)SOLID_ANGLE_UNIT());
#13=MANIFOLD_SOLID_BREP('',#14);
#14=CLOSED_SHELL('',(#48,#49,#50,#51));
#15=COLOUR_RGB('',0.564705882352941,0.564705882352941,0.564705882352941);
#16=FILL_AREA_STYLE_COLOUR('',#15);
#17=FILL_AREA_STYLE($,(#16));
#18=SURFACE_STYLE_FILL_AREA(#17);
#19=SURFACE_SIDE_STYLE('',(#18));
#20=SURFACE_STYLE_USAGE(.BOTH.,#19);
#21=PRESENTATION_STYLE_ASSIGNMENT((#20));
#22=MECHANICAL_DESIGN_GEOMETRIC_PRESENTATION_REPRESENTATION('NONE',(#23),#8);
#23=STYLED_ITEM('',(#21),#13);
#24=ADVANCED_BREP_SHAPE_REPRESENTATION('NONE',(#13),#8);
#25=SHAPE_REPRESENTATION_RELATIONSHIP('','',#3,#24);
#26=PRODUCT_DEFINITION_SHAPE('NONE','NONE',#1);
#27=MECHANICAL_CONTEXT('NONE',#32,'mechanical');
#28=PRODUCT_DEFINITION_FORMATION_WITH_SPECIFIED_SOURCE('ANY','UNSPECIFIED',#29,.NOT_KNOWN.);
#29=PRODUCT('','itemRod','NONE',(#27));
#30=PRODUCT_RELATED_PRODUCT_CATEGORY('detail','',(#29));
#31=DESIGN_CONTEXT('detailed design',#32,'design');
#32=APPLICATION_CONTEXT('configuration controlled 3d designs of mechanical parts and assemblies');
#33=APPLICATION_PROTOCOL_DEFINITION('international standard','config_control_design',
1994,#32);
#34=CC_DESIGN_DATE_AND_TIME_ASSIGNMENT(#35,#39,(#1));
#35=DATE_AND_TIME(#36,#37);
#36=CALENDAR_DATE(0,1,1);
#37=LOCAL_TIME(0,0,0.,#38);
#38=COORDINATED_UNIVERSAL_TIME_OFFSET(0,0,.AHEAD.);
#39=DATE_TIME_ROLE('creation_date');
#40=CC_DESIGN_APPROVAL(#41,(#1));
#41=APPROVAL(#42,'UNSPECIFIED');
#42=APPROVAL_STATUS('not_yet_approved');
#43=APPROVAL_DATE_TIME(#44,#41);
#44=DATE_AND_TIME(#45,#46);
#45=CALENDAR_DATE(0,1,1);
#46=LOCAL_TIME(0,0,0.,#47);
#47=COORDINATED_UNIVERSAL_TIME_OFFSET(0,0,.AHEAD.);
#48=ADVANCED_FACE('',(#52),#54,.T.);
#49=ADVANCED_FACE('',(#59),#61,.T.);
#50=ADVANCED_FACE('',(#66),#68,.T.);
#51=ADVANCED_FACE('',(#73),#75,.F.);
#52=FACE_BOUND('',#53,.T.);
#53=EDGE_LOOP('',(#80,#81,#82,#83));
#54=PLANE('',#55);
#55=AXIS2_PLACEMENT_3D('',#56,#57,#58);
#56=CARTESIAN_POINT('',(2.49198715887542,3.,0.));
#57=DIRECTION('',(2.67310291869925E-16,1.,0.));
#58=DIRECTION('',(-1.,2.67310291869925E-16,0.));
#59=FACE_BOUND('',#60,.T.);
#60=EDGE_LOOP('',(#84,#85,#86,#87,#88));
#61=CYLINDRICAL_SURFACE('',#62,3.9);
#62=AXIS2_PLACEMENT_3D('',#63,#64,#65);
#63=CARTESIAN_POINT('',(0.,0.,0.));
#64=DIRECTION('',(0.,0.,1.));
#65=DIRECTION('',(-0.638971066378313,0.76923076923077,0.));
#66=FACE_BOUND('',#67,.T.);
#67=EDGE_LOOP('',(#89,#90,#91));
#68=CONICAL_SURFACE('',#69,1.95,0.785398163397448);
#69=AXIS2_PLACEMENT_3D('',#70,#71,#72);
#70=CARTESIAN_POINT('',(0.,0.,98.05));
#71=DIRECTION('',(0.,0.,-1.));
#72=DIRECTION('',(-1.,-8.04723716278126E-16,0.));
#73=FACE_BOUND('',#74,.T.);
#74=EDGE_LOOP('',(#92,#93));
#75=PLANE('',#76);
#76=AXIS2_PLACEMENT_3D('',#77,#78,#79);
#77=CARTESIAN_POINT('',(0.,0.,0.));
#78=DIRECTION('',(0.,0.,1.));
#79=DIRECTION('',(-1.,1.22464679914735E-16,0.));
#80=ORIENTED_EDGE('',*,*,#94,.T.);
#81=ORIENTED_EDGE('',*,*,#95,.F.);
#82=ORIENTED_EDGE('',*,*,#96,.T.);
#83=ORIENTED_EDGE('',*,*,#97,.T.);
#84=ORIENTED_EDGE('',*,*,#98,.T.);
#85=ORIENTED_EDGE('',*,*,#99,.T.);
#86=ORIENTED_EDGE('',*,*,#97,.F.);
#87=ORIENTED_EDGE('',*,*,#100,.T.);
#88=ORIENTED_EDGE('',*,*,#95,.T.);
#89=ORIENTED_EDGE('',*,*,#94,.F.);
#90=ORIENTED_EDGE('',*,*,#99,.F.);
#91=ORIENTED_EDGE('',*,*,#98,.F.);
#92=ORIENTED_EDGE('',*,*,#96,.F.);
#93=ORIENTED_EDGE('',*,*,#100,.F.);
#94=EDGE_CURVE('',#101,#102,#103,.T.);
#95=EDGE_CURVE('',#104,#102,#105,.T.);
#96=EDGE_CURVE('',#104,#106,#107,.T.);
#97=EDGE_CURVE('',#106,#101,#108,.T.);
#98=EDGE_CURVE('',#102,#109,#110,.T.);
#99=EDGE_CURVE('',#109,#101,#111,.T.);
#100=EDGE_CURVE('',#106,#104,#112,.T.);
#101=VERTEX_POINT('',#113);
#102=VERTEX_POINT('',#114);
#103=B_SPLINE_CURVE_WITH_KNOTS('',3,
(#115,#116,#117,#118,#119,#120,#121,#122,#123,#124,#125,#126,#127,#128,#129,#130,
#131,#132,#133,#134,#135,#136,#137,#138,#139,#140,#141,#142,#143,#144,#145,#146,
#147,#148,#149,#150,#151,#152,#153,#154,#155,#156,#157,#158,#159,#160,#161,#162,
#163,#164,#165,#166,#167,#168,#169,#170,#171,#172,#173,#174,#175,#176,#177,#178,
#179,#180,#181,#182,#183,#184,#185,#186,#187,#188,#189,#190,#191,#192,#193,#194,
#195,#196,#197,#198,#199,#200,#201,#202),
.UNSPECIFIED.,.F.,.F.,
(4,1,1,1,1,1,1,1,1,1,1,1,1,1,1,1,1,1,1,1,1,1,1,1,1,1,1,1,1,1,1,1,1,1,1,1,1,1,1,1,
1,1,1,1,1,1,1,1,1,1,1,1,1,1,1,1,1,1,1,1,1,1,1,1,1,1,1,1,1,1,1,1,1,1,1,1,1,1,1,1,
1,1,1,1,1,4),
(0.,0.0211790630064131,0.0420352536417082,0.0605629770385668,0.0627215586296985,
0.083041950981268,0.103178915972805,0.122871269146921,0.14227923751997,0.161287138840099,
0.162858309915712,0.180188630476531,0.198596282326368,0.216634613317998,0.233293473317464,
0.234073521931594,0.251261506790947,0.26781616082828,0.28403510469337,0.299771778392242,
0.300915298337217,0.315334126625878,0.330182431726966,0.344451627548498,0.357962300461033,
0.371238138199239,0.376624553422968,0.383649574741636,0.395489498227388,0.406480508292037,
0.417218114233446,0.427173860362795,0.436601517458707,0.445239697801674,0.452695239299909,
0.453602976142282,0.461448685680269,0.46903190101852,0.476351064312538,0.483643304204416,
0.491005107815308,0.498432570552427,0.499978047551359,0.506060856653904,0.513838910060247,
0.521971456327119,0.529493765589927,0.530340603981012,0.539042044523963,0.547865835250092,
0.557511136826474,0.567879983916307,0.579587691165106,0.591925894158946,0.605569833616227,
0.607282177218398,0.619882709751194,0.634881638286012,0.649851994342585,0.666799362395408,
0.684668720235246,0.685858477977858,0.716112370549786,0.74686866073823,0.755292184140823,
0.778215253042945,0.798737385694666,0.814050979090947,0.816910545532668,0.831332232858844,
0.844342785549454,0.855930874713336,0.867512144316037,0.879130168696946,0.890790348114501,
0.894801062735247,0.902538147578255,0.914330329011772,0.926271394426506,0.938314253028116,
0.950504482407764,0.962739385365084,0.974264478912912,0.975057066292059,0.987454142322389,
1.),
.UNSPECIFIED.);
#104=VERTEX_POINT('',#203);
#105=LINE('',#204,#205);
#106=VERTEX_POINT('',#207);
#107=LINE('',#208,#209);
#108=LINE('',#211,#212);
#109=VERTEX_POINT('',#214);
#110=CIRCLE('',#215,3.9);
#111=CIRCLE('',#219,3.9);
#112=CIRCLE('',#223,3.9);
#113=CARTESIAN_POINT('',(-2.49198715887542,3.,96.1));
#114=CARTESIAN_POINT('',(2.49198715887543,3.,96.1));
#115=CARTESIAN_POINT('',(-2.49198715736693,3.0000000000186,96.1000000009496));
#116=CARTESIAN_POINT('',(-2.46025897557767,3.00000000000704,96.1202729423637));
#117=CARTESIAN_POINT('',(-2.39697541969537,2.99999999999676,96.1602554068059));
#118=CARTESIAN_POINT('',(-2.30492642028267,3.0000000000008,96.2170149766022));
#119=CARTESIAN_POINT('',(-2.24123730789255,2.99999999999998,96.2553306094815));
#120=CARTESIAN_POINT('',(-2.17808857002662,3.00000000000001,96.2927961526789));
#121=CARTESIAN_POINT('',(-2.11214474748766,3.,96.3313253853034));
#122=CARTESIAN_POINT('',(-2.01827361878125,3.,96.3845586001525));
#123=CARTESIAN_POINT('',(-1.9250680627701,3.,96.4357525030819));
#124=CARTESIAN_POINT('',(-1.83291890147296,3.,96.4846694469973));
#125=CARTESIAN_POINT('',(-1.76902615005246,3.,96.5173723834362));
#126=CARTESIAN_POINT('',(-1.70821172312532,3.,96.547848342873));
#127=CARTESIAN_POINT('',(-1.64814141423281,3.,96.5773619740555));
#128=CARTESIAN_POINT('',(-1.56094284431539,3.,96.6185113430351));
#129=CARTESIAN_POINT('',(-1.47419156107246,3.,96.6576531608949));
#130=CARTESIAN_POINT('',(-1.41581307759198,3.,96.6827914660254));
#131=CARTESIAN_POINT('',(-1.35861864010352,3.,96.706802599041));
#132=CARTESIAN_POINT('',(-1.30137486765656,3.,96.730201155597));
#133=CARTESIAN_POINT('',(-1.21790292436786,3.,96.7625099252334));
#134=CARTESIAN_POINT('',(-1.13623793750709,3.,96.7923336993836));
#135=CARTESIAN_POINT('',(-1.08008729262787,3.,96.8115993321822));
#136=CARTESIAN_POINT('',(-1.0267661048536,3.,96.8292484732919));
#137=CARTESIAN_POINT('',(-0.974758472415623,3.,96.8458846799532));
#138=CARTESIAN_POINT('',(-0.899804897767051,3.,96.868242059137));
#139=CARTESIAN_POINT('',(-0.825969913126548,3.,96.8886333894305));
#140=CARTESIAN_POINT('',(-0.754487498359766,3.,96.9068285617936));
#141=CARTESIAN_POINT('',(-0.698218202079607,3.,96.9199513660928));
#142=CARTESIAN_POINT('',(-0.653168364637155,3.,96.9297740438515));
#143=CARTESIAN_POINT('',(-0.610563530152623,3.,96.9386310774599));
#144=CARTESIAN_POINT('',(-0.557986215533902,3.,96.9487424564019));
#145=CARTESIAN_POINT('',(-0.498725085658868,3.,96.9590050297741));
#146=CARTESIAN_POINT('',(-0.442681752309501,3.,96.96767724544));
#147=CARTESIAN_POINT('',(-0.389318281990857,3.,96.9749880422208));
#148=CARTESIAN_POINT('',(-0.339610350854302,3.,96.9809648627447));
#149=CARTESIAN_POINT('',(-0.294291583777953,3.,96.9857008981575));
#150=CARTESIAN_POINT('',(-0.264079077202655,3.,96.9884323836887));
#151=CARTESIAN_POINT('',(-0.235265426052694,3.,96.9908254116699));
#152=CARTESIAN_POINT('',(-0.206215131035362,3.,96.9930144000439));
#153=CARTESIAN_POINT('',(-0.165745161351049,3.,96.9955124210157));
#154=CARTESIAN_POINT('',(-0.126246795081228,3.,96.9974291187504));
#155=CARTESIAN_POINT('',(-0.0871339593855439,3.,96.9988198429916));
#156=CARTESIAN_POINT('',(-0.0478203110129857,3.,96.9997055451503));
#157=CARTESIAN_POINT('',(-0.0187325181399225,3.,96.9999780078187));
#158=CARTESIAN_POINT('',(0.00808058023659307,3.,97.0000149087719));
#159=CARTESIAN_POINT('',(0.0355204894391344,3.,96.9998662849353));
#160=CARTESIAN_POINT('',(0.0746983466756077,3.,96.9991705262369));
#161=CARTESIAN_POINT('',(0.116446788922425,3.,96.9978379576468));
#162=CARTESIAN_POINT('',(0.145850334708364,3.,96.9964902686596));
#163=CARTESIAN_POINT('',(0.176269410880986,3.,96.9948701252317));
#164=CARTESIAN_POINT('',(0.209009899829605,3.,96.9928490329471));
#165=CARTESIAN_POINT('',(0.257435425334195,3.,96.9891088162096));
#166=CARTESIAN_POINT('',(0.308816334355977,3.,96.9843037501069));
#167=CARTESIAN_POINT('',(0.365286253375158,3.,96.9780317394319));
#168=CARTESIAN_POINT('',(0.426455848485269,3.,96.9700620633474));
#169=CARTESIAN_POINT('',(0.493288003180066,3.,96.9599695487674));
#170=CARTESIAN_POINT('',(0.542244298541131,3.,96.9514937139652));
#171=CARTESIAN_POINT('',(0.591556703969136,3.,96.9423229464466));
#172=CARTESIAN_POINT('',(0.643151919197042,3.,96.9321094338625));
#173=CARTESIAN_POINT('',(0.717741622117933,3.,96.9156511676246));
#174=CARTESIAN_POINT('',(0.799479579284868,3.,96.8956466338635));
#175=CARTESIAN_POINT('',(0.885669596262069,3.,96.8723939289253));
#176=CARTESIAN_POINT('',(0.94755426118091,3.,96.8540576244714));
#177=CARTESIAN_POINT('',(1.03196256410243,3.,96.8278675362312));
#178=CARTESIAN_POINT('',(1.1377070708539,3.,96.7925996859024));
#179=CARTESIAN_POINT('',(1.25414737348763,3.,96.7488596197968));
#180=CARTESIAN_POINT('',(1.35738877826695,3.,96.7074808605429));
#181=CARTESIAN_POINT('',(1.4430159902941,3.,96.6714571929216));
#182=CARTESIAN_POINT('',(1.53909086095642,3.,96.6285351712888));
#183=CARTESIAN_POINT('',(1.60186606283266,3.,96.5992064880261));
#184=CARTESIAN_POINT('',(1.65453920677549,3.,96.5740721789021));
#185=CARTESIAN_POINT('',(1.70331011155799,3.,96.5503382637893));
#186=CARTESIAN_POINT('',(1.76577539412884,3.,96.5190369548579));
#187=CARTESIAN_POINT('',(1.82340345247177,3.,96.4894362587945));
#188=CARTESIAN_POINT('',(1.87855710841957,3.,96.4604730103415));
#189=CARTESIAN_POINT('',(1.93357442126575,3.,96.4309667871625));
#190=CARTESIAN_POINT('',(1.97645145613741,3.,96.4075048323579));
#191=CARTESIAN_POINT('',(2.01312249972971,3.,96.3871782642178));
#192=CARTESIAN_POINT('',(2.04991946030385,3.,96.3665875182021));
#193=CARTESIAN_POINT('',(2.09893594804226,3.,96.3387369649922));
#194=CARTESIAN_POINT('',(2.15441732529734,3.,96.3066502387444));
#195=CARTESIAN_POINT('',(2.210271847279,3.,96.2737922784558));
#196=CARTESIAN_POINT('',(2.26633387668787,3.,96.2402660976506));
#197=CARTESIAN_POINT('',(2.3213574882658,3.,96.2068373139837));
#198=CARTESIAN_POINT('',(2.35877695239853,3.00000000000001,96.1837680750683));
#199=CARTESIAN_POINT('',(2.39636101165708,2.99999999999999,96.1604280282206));
#200=CARTESIAN_POINT('',(2.43540537533144,3.00000000000109,96.1359924129072));
#201=CARTESIAN_POINT('',(2.47307973340701,2.99999999999776,96.112081253006));
#202=CARTESIAN_POINT('',(2.49198715881373,2.99999999999333,96.1000000000445));
#203=CARTESIAN_POINT('',(2.49198715887542,3.,0.));
#204=CARTESIAN_POINT('',(2.49198715887543,3.,0.));
#205=VECTOR('',#206,1.);
#206=DIRECTION('',(0.,0.,1.));
#207=CARTESIAN_POINT('',(-2.49198715887542,3.,0.));
#208=CARTESIAN_POINT('',(2.49198715887542,3.,0.));
#209=VECTOR('',#210,1.);
#210=DIRECTION('',(-1.,2.67310291869925E-16,0.));
#211=CARTESIAN_POINT('',(-2.49198715887542,3.,0.));
#212=VECTOR('',#213,1.);
#213=DIRECTION('',(0.,0.,1.));
#214=CARTESIAN_POINT('',(-3.9,-3.61603474515216E-15,96.1));
#215=AXIS2_PLACEMENT_3D('',#216,#217,#218);
#216=CARTESIAN_POINT('',(0.,0.,96.1));
#217=DIRECTION('',(0.,0.,-1.));
#218=DIRECTION('',(0.638971066378313,0.769230769230769,0.));
#219=AXIS2_PLACEMENT_3D('',#220,#221,#222);
#220=CARTESIAN_POINT('',(0.,0.,96.1));
#221=DIRECTION('',(0.,0.,-1.));
#222=DIRECTION('',(-1.,-5.55111512312578E-16,0.));
#223=AXIS2_PLACEMENT_3D('',#224,#225,#226);
#224=CARTESIAN_POINT('',(0.,0.,0.));
#225=DIRECTION('',(0.,0.,1.));
#226=DIRECTION('',(-0.638971066378313,0.76923076923077,0.));
ENDSEC;
END-ISO-10303-21;
