ISO-10303-21;
HEADER;
FILE_DESCRIPTION(('STEP AP242'),
    '1');
FILE_NAME('itemForwardPlankV2',
    '',
    ('UNSPECIFIED'),
    ('UNSPECIFIED'),
    'C3D Converter',
    'C3D Toolkit',
    '');
FILE_SCHEMA(('AP242_MANAGED_MODEL_BASED_3D_ENGINEERING_MIM_LF { 1 0 10303 442 1 1 4 }'));
ENDSEC;

DATA;
#1=PRODUCT_DEFINITION('','UNSPECIFIED',#28,#31);
#2=SHAPE_DEFINITION_REPRESENTATION(#26,#3);
#3=SHAPE_REPRESENTATION('NONE',(#4),#8);
#4=AXIS2_PLACEMENT_3D('',#5,#6,#7);
#5=CARTESIAN_POINT('',(0.,0.,0.));
#6=DIRECTION('',(0.,0.,1.));
#7=DIRECTION('',(1.,0.,0.));
#8=(GEOMETRIC_REPRESENTATION_CONTEXT(3)GLOBAL_UNCERTAINTY_ASSIGNED_CONTEXT((#10))
GLOBAL_UNIT_ASSIGNED_CONTEXT((#9,#11,#12))REPRESENTATION_CONTEXT('NONE','NONE'));
#9=(LENGTH_UNIT()NAMED_UNIT(*)SI_UNIT(.MILLI.,.METRE.));
#10=UNCERTAINTY_MEASURE_WITH_UNIT(LENGTH_MEASURE(1.E-5),#9,'NONE','NONE');
#11=(NAMED_UNIT(*)PLANE_ANGLE_UNIT()SI_UNIT($,.RADIAN.));
#12=(NAMED_UNIT(*)SI_UNIT($,.STERADIAN.)SOLID_ANGLE_UNIT());
#13=MANIFOLD_SOLID_BREP('',#14);
#14=CLOSED_SHELL('',(#48,#49,#50,#51,#52,#53,#54,#55,#56,#57,#58,#59,#60,#61,#62,
#63,#64,#65,#66,#67,#68,#69,#70,#71,#72,#73,#74,#75,#76,#77,#78,#79,#80,#81,#82,
#83,#84,#85,#86,#87,#88,#89,#90,#91,#92,#93,#94,#95,#96,#97,#98,#99,#100,#101,#102,
#103,#104,#105));
#15=COLOUR_RGB('',0.564705882352941,0.564705882352941,0.564705882352941);
#16=FILL_AREA_STYLE_COLOUR('',#15);
#17=FILL_AREA_STYLE($,(#16));
#18=SURFACE_STYLE_FILL_AREA(#17);
#19=SURFACE_SIDE_STYLE('',(#18));
#20=SURFACE_STYLE_USAGE(.BOTH.,#19);
#21=PRESENTATION_STYLE_ASSIGNMENT((#20));
#22=MECHANICAL_DESIGN_GEOMETRIC_PRESENTATION_REPRESENTATION('NONE',(#23),#8);
#23=STYLED_ITEM('',(#21),#13);
#24=ADVANCED_BREP_SHAPE_REPRESENTATION('NONE',(#13),#8);
#25=SHAPE_REPRESENTATION_RELATIONSHIP('','',#3,#24);
#26=PRODUCT_DEFINITION_SHAPE('NONE','NONE',#1);
#27=MECHANICAL_CONTEXT('NONE',#32,'mechanical');
#28=PRODUCT_DEFINITION_FORMATION_WITH_SPECIFIED_SOURCE('ANY','UNSPECIFIED',#29,.NOT_KNOWN.);
#29=PRODUCT('','itemForwardPlank','NONE',(#27));
#30=PRODUCT_RELATED_PRODUCT_CATEGORY('detail','',(#29));
#31=DESIGN_CONTEXT('detailed design',#32,'design');
#32=APPLICATION_CONTEXT('configuration controlled 3d designs of mechanical parts and assemblies');
#33=APPLICATION_PROTOCOL_DEFINITION('international standard','config_control_design',
1994,#32);
#34=CC_DESIGN_DATE_AND_TIME_ASSIGNMENT(#35,#39,(#1));
#35=DATE_AND_TIME(#36,#37);
#36=CALENDAR_DATE(0,1,1);
#37=LOCAL_TIME(0,0,0.,#38);
#38=COORDINATED_UNIVERSAL_TIME_OFFSET(0,0,.AHEAD.);
#39=DATE_TIME_ROLE('creation_date');
#40=CC_DESIGN_APPROVAL(#41,(#1));
#41=APPROVAL(#42,'UNSPECIFIED');
#42=APPROVAL_STATUS('not_yet_approved');
#43=APPROVAL_DATE_TIME(#44,#41);
#44=DATE_AND_TIME(#45,#46);
#45=CALENDAR_DATE(0,1,1);
#46=LOCAL_TIME(0,0,0.,#47);
#47=COORDINATED_UNIVERSAL_TIME_OFFSET(0,0,.AHEAD.);
#48=ADVANCED_FACE('',(#106,#108,#110,#112,#114),#116,.F.);
#49=ADVANCED_FACE('',(#121,#123),#125,.T.);
#50=ADVANCED_FACE('',(#130),#132,.T.);
#51=ADVANCED_FACE('',(#137),#139,.T.);
#52=ADVANCED_FACE('',(#144),#146,.T.);
#53=ADVANCED_FACE('',(#151),#153,.T.);
#54=ADVANCED_FACE('',(#158),#160,.T.);
#55=ADVANCED_FACE('',(#165),#167,.T.);
#56=ADVANCED_FACE('',(#172),#174,.T.);
#57=ADVANCED_FACE('',(#179),#181,.T.);
#58=ADVANCED_FACE('',(#186),#188,.T.);
#59=ADVANCED_FACE('',(#193,#195),#197,.T.);
#60=ADVANCED_FACE('',(#202),#204,.T.);
#61=ADVANCED_FACE('',(#209,#211),#213,.F.);
#62=ADVANCED_FACE('',(#218,#220),#222,.F.);
#63=ADVANCED_FACE('',(#227,#229),#231,.F.);
#64=ADVANCED_FACE('',(#236,#238),#240,.F.);
#65=ADVANCED_FACE('',(#245),#247,.T.);
#66=ADVANCED_FACE('',(#252,#254,#256,#258,#260,#262,#264,#266,#268,#270,#272,#274,
#276,#278,#280,#282,#284,#286),#288,.T.);
#67=ADVANCED_FACE('',(#293),#295,.T.);
#68=ADVANCED_FACE('',(#300),#302,.T.);
#69=ADVANCED_FACE('',(#307),#309,.T.);
#70=ADVANCED_FACE('',(#314,#316),#318,.T.);
#71=ADVANCED_FACE('',(#323),#325,.T.);
#72=ADVANCED_FACE('',(#330),#332,.T.);
#73=ADVANCED_FACE('',(#337,#339),#341,.T.);
#74=ADVANCED_FACE('',(#346,#348),#350,.F.);
#75=ADVANCED_FACE('',(#355,#357),#359,.F.);
#76=ADVANCED_FACE('',(#364,#366),#368,.F.);
#77=ADVANCED_FACE('',(#373,#375),#377,.F.);
#78=ADVANCED_FACE('',(#382,#384),#386,.F.);
#79=ADVANCED_FACE('',(#391,#393),#395,.F.);
#80=ADVANCED_FACE('',(#400,#402),#404,.F.);
#81=ADVANCED_FACE('',(#409,#411),#413,.F.);
#82=ADVANCED_FACE('',(#418,#420),#422,.F.);
#83=ADVANCED_FACE('',(#427,#429),#431,.F.);
#84=ADVANCED_FACE('',(#436,#438),#440,.F.);
#85=ADVANCED_FACE('',(#445,#447),#449,.F.);
#86=ADVANCED_FACE('',(#454,#456),#458,.F.);
#87=ADVANCED_FACE('',(#463,#465),#467,.T.);
#88=ADVANCED_FACE('',(#472,#474),#476,.T.);
#89=ADVANCED_FACE('',(#481),#483,.T.);
#90=ADVANCED_FACE('',(#488),#490,.T.);
#91=ADVANCED_FACE('',(#495),#497,.T.);
#92=ADVANCED_FACE('',(#502),#504,.T.);
#93=ADVANCED_FACE('',(#509),#511,.T.);
#94=ADVANCED_FACE('',(#516),#518,.T.);
#95=ADVANCED_FACE('',(#523),#525,.T.);
#96=ADVANCED_FACE('',(#530),#532,.T.);
#97=ADVANCED_FACE('',(#537),#539,.T.);
#98=ADVANCED_FACE('',(#544),#546,.T.);
#99=ADVANCED_FACE('',(#551),#553,.T.);
#100=ADVANCED_FACE('',(#558),#560,.T.);
#101=ADVANCED_FACE('',(#565),#567,.T.);
#102=ADVANCED_FACE('',(#572,#574),#576,.T.);
#103=ADVANCED_FACE('',(#581,#583),#585,.T.);
#104=ADVANCED_FACE('',(#590),#592,.T.);
#105=ADVANCED_FACE('',(#597),#599,.T.);
#106=FACE_BOUND('',#107,.T.);
#107=EDGE_LOOP('',(#604,#605,#606,#607,#608,#609,#610,#611,#612,#613,#614,#615));
#108=FACE_BOUND('',#109,.T.);
#109=EDGE_LOOP('',(#616));
#110=FACE_BOUND('',#111,.T.);
#111=EDGE_LOOP('',(#617));
#112=FACE_BOUND('',#113,.T.);
#113=EDGE_LOOP('',(#618));
#114=FACE_BOUND('',#115,.T.);
#115=EDGE_LOOP('',(#619));
#116=PLANE('',#117);
#117=AXIS2_PLACEMENT_3D('',#118,#119,#120);
#118=CARTESIAN_POINT('',(0.,0.,0.));
#119=DIRECTION('',(0.,0.,1.));
#120=DIRECTION('',(-1.,1.22464679914735E-16,0.));
#121=FACE_BOUND('',#122,.T.);
#122=EDGE_LOOP('',(#620,#621,#622,#623,#624,#625,#626,#627,#628,#629,#630));
#123=FACE_OUTER_BOUND('',#124,.T.);
#124=EDGE_LOOP('',(#631));
#125=CYLINDRICAL_SURFACE('',#126,6.);
#126=AXIS2_PLACEMENT_3D('',#127,#128,#129);
#127=CARTESIAN_POINT('',(39.,-10.,2.));
#128=DIRECTION('',(0.,0.,1.));
#129=DIRECTION('',(-1.,1.22464679914735E-16,0.));
#130=FACE_BOUND('',#131,.T.);
#131=EDGE_LOOP('',(#632,#633,#634,#635));
#132=PLANE('',#133);
#133=AXIS2_PLACEMENT_3D('',#134,#135,#136);
#134=CARTESIAN_POINT('',(-62.5,-15.,0.));
#135=DIRECTION('',(-1.13686837721616E-16,-1.,0.));
#136=DIRECTION('',(1.,-1.13686837721616E-16,0.));
#137=FACE_BOUND('',#138,.T.);
#138=EDGE_LOOP('',(#636,#637,#638,#639));
#139=PLANE('',#140);
#140=AXIS2_PLACEMENT_3D('',#141,#142,#143);
#141=CARTESIAN_POINT('',(-62.5,-15.,0.));
#142=DIRECTION('',(-1.13686837721616E-16,-1.,0.));
#143=DIRECTION('',(1.,-1.13686837721616E-16,0.));
#144=FACE_BOUND('',#145,.T.);
#145=EDGE_LOOP('',(#640,#641,#642,#643));
#146=CYLINDRICAL_SURFACE('',#147,3.);
#147=AXIS2_PLACEMENT_3D('',#148,#149,#150);
#148=CARTESIAN_POINT('',(-59.5,-12.,-12.));
#149=DIRECTION('',(0.,0.,-1.));
#150=DIRECTION('',(0.,-1.,0.));
#151=FACE_BOUND('',#152,.T.);
#152=EDGE_LOOP('',(#644,#645,#646,#647));
#153=PLANE('',#154);
#154=AXIS2_PLACEMENT_3D('',#155,#156,#157);
#155=CARTESIAN_POINT('',(-62.5,15.,0.));
#156=DIRECTION('',(-1.,0.,0.));
#157=DIRECTION('',(0.,-1.,0.));
#158=FACE_BOUND('',#159,.T.);
#159=EDGE_LOOP('',(#648,#649,#650,#651));
#160=CYLINDRICAL_SURFACE('',#161,3.);
#161=AXIS2_PLACEMENT_3D('',#162,#163,#164);
#162=CARTESIAN_POINT('',(-59.5,12.,-12.));
#163=DIRECTION('',(0.,0.,-1.));
#164=DIRECTION('',(-1.,0.,0.));
#165=FACE_BOUND('',#166,.T.);
#166=EDGE_LOOP('',(#652,#653,#654,#655));
#167=PLANE('',#168);
#168=AXIS2_PLACEMENT_3D('',#169,#170,#171);
#169=CARTESIAN_POINT('',(62.5,15.,0.));
#170=DIRECTION('',(1.13686837721616E-16,1.,0.));
#171=DIRECTION('',(-1.,1.13686837721616E-16,0.));
#172=FACE_BOUND('',#173,.T.);
#173=EDGE_LOOP('',(#656,#657,#658,#659));
#174=CYLINDRICAL_SURFACE('',#175,3.);
#175=AXIS2_PLACEMENT_3D('',#176,#177,#178);
#176=CARTESIAN_POINT('',(59.5,12.,-12.));
#177=DIRECTION('',(0.,0.,-1.));
#178=DIRECTION('',(0.,1.,0.));
#179=FACE_BOUND('',#180,.T.);
#180=EDGE_LOOP('',(#660,#661,#662,#663));
#181=PLANE('',#182);
#182=AXIS2_PLACEMENT_3D('',#183,#184,#185);
#183=CARTESIAN_POINT('',(62.5,-15.,0.));
#184=DIRECTION('',(1.,0.,0.));
#185=DIRECTION('',(0.,1.,0.));
#186=FACE_BOUND('',#187,.T.);
#187=EDGE_LOOP('',(#664,#665,#666,#667));
#188=CYLINDRICAL_SURFACE('',#189,3.);
#189=AXIS2_PLACEMENT_3D('',#190,#191,#192);
#190=CARTESIAN_POINT('',(59.5,-12.,-12.));
#191=DIRECTION('',(0.,0.,-1.));
#192=DIRECTION('',(1.,0.,0.));
#193=FACE_BOUND('',#194,.T.);
#194=EDGE_LOOP('',(#668,#669,#670,#671,#672,#673,#674,#675,#676,#677,#678));
#195=FACE_OUTER_BOUND('',#196,.T.);
#196=EDGE_LOOP('',(#679));
#197=CYLINDRICAL_SURFACE('',#198,6.);
#198=AXIS2_PLACEMENT_3D('',#199,#200,#201);
#199=CARTESIAN_POINT('',(-39.,-9.99999999999999,2.));
#200=DIRECTION('',(0.,0.,1.));
#201=DIRECTION('',(-1.,1.22464679914735E-16,0.));
#202=FACE_BOUND('',#203,.T.);
#203=EDGE_LOOP('',(#680,#681,#682,#683));
#204=PLANE('',#205);
#205=AXIS2_PLACEMENT_3D('',#206,#207,#208);
#206=CARTESIAN_POINT('',(-62.5,-15.,0.));
#207=DIRECTION('',(-1.13686837721616E-16,-1.,0.));
#208=DIRECTION('',(1.,-1.13686837721616E-16,0.));
#209=FACE_OUTER_BOUND('',#210,.T.);
#210=EDGE_LOOP('',(#684));
#211=FACE_OUTER_BOUND('',#212,.T.);
#212=EDGE_LOOP('',(#685));
#213=CYLINDRICAL_SURFACE('',#214,2.5);
#214=AXIS2_PLACEMENT_3D('',#215,#216,#217);
#215=CARTESIAN_POINT('',(51.5,-7.00000000000001,0.));
#216=DIRECTION('',(0.,0.,1.));
#217=DIRECTION('',(-1.,1.22464679914735E-16,0.));
#218=FACE_OUTER_BOUND('',#219,.T.);
#219=EDGE_LOOP('',(#686));
#220=FACE_OUTER_BOUND('',#221,.T.);
#221=EDGE_LOOP('',(#687));
#222=CYLINDRICAL_SURFACE('',#223,2.5);
#223=AXIS2_PLACEMENT_3D('',#224,#225,#226);
#224=CARTESIAN_POINT('',(51.5,6.99999999999999,0.));
#225=DIRECTION('',(0.,0.,1.));
#226=DIRECTION('',(-1.,1.22464679914735E-16,0.));
#227=FACE_OUTER_BOUND('',#228,.T.);
#228=EDGE_LOOP('',(#688));
#229=FACE_OUTER_BOUND('',#230,.T.);
#230=EDGE_LOOP('',(#689));
#231=CYLINDRICAL_SURFACE('',#232,2.5);
#232=AXIS2_PLACEMENT_3D('',#233,#234,#235);
#233=CARTESIAN_POINT('',(-51.5,-6.99999999999998,0.));
#234=DIRECTION('',(0.,0.,1.));
#235=DIRECTION('',(-1.,1.22464679914735E-16,0.));
#236=FACE_OUTER_BOUND('',#237,.T.);
#237=EDGE_LOOP('',(#690));
#238=FACE_OUTER_BOUND('',#239,.T.);
#239=EDGE_LOOP('',(#691));
#240=CYLINDRICAL_SURFACE('',#241,2.5);
#241=AXIS2_PLACEMENT_3D('',#242,#243,#244);
#242=CARTESIAN_POINT('',(-51.5,7.00000000000001,0.));
#243=DIRECTION('',(0.,0.,1.));
#244=DIRECTION('',(-1.,1.22464679914735E-16,0.));
#245=FACE_BOUND('',#246,.T.);
#246=EDGE_LOOP('',(#692,#693,#694,#695));
#247=PLANE('',#248);
#248=AXIS2_PLACEMENT_3D('',#249,#250,#251);
#249=CARTESIAN_POINT('',(0.,0.,2.));
#250=DIRECTION('',(0.,0.,1.));
#251=DIRECTION('',(-1.,1.22464679914735E-16,0.));
#252=FACE_BOUND('',#253,.T.);
#253=EDGE_LOOP('',(#696,#697,#698,#699,#700,#701,#702,#703,#704,#705,#706,#707,#708));
#254=FACE_BOUND('',#255,.T.);
#255=EDGE_LOOP('',(#709));
#256=FACE_BOUND('',#257,.T.);
#257=EDGE_LOOP('',(#710));
#258=FACE_BOUND('',#259,.T.);
#259=EDGE_LOOP('',(#711));
#260=FACE_BOUND('',#261,.T.);
#261=EDGE_LOOP('',(#712));
#262=FACE_BOUND('',#263,.T.);
#263=EDGE_LOOP('',(#713));
#264=FACE_BOUND('',#265,.T.);
#265=EDGE_LOOP('',(#714));
#266=FACE_BOUND('',#267,.T.);
#267=EDGE_LOOP('',(#715));
#268=FACE_BOUND('',#269,.T.);
#269=EDGE_LOOP('',(#716));
#270=FACE_BOUND('',#271,.T.);
#271=EDGE_LOOP('',(#717));
#272=FACE_BOUND('',#273,.T.);
#273=EDGE_LOOP('',(#718));
#274=FACE_BOUND('',#275,.T.);
#275=EDGE_LOOP('',(#719));
#276=FACE_BOUND('',#277,.T.);
#277=EDGE_LOOP('',(#720));
#278=FACE_BOUND('',#279,.T.);
#279=EDGE_LOOP('',(#721));
#280=FACE_BOUND('',#281,.T.);
#281=EDGE_LOOP('',(#722));
#282=FACE_BOUND('',#283,.T.);
#283=EDGE_LOOP('',(#723));
#284=FACE_BOUND('',#285,.T.);
#285=EDGE_LOOP('',(#724));
#286=FACE_BOUND('',#287,.T.);
#287=EDGE_LOOP('',(#725));
#288=PLANE('',#289);
#289=AXIS2_PLACEMENT_3D('',#290,#291,#292);
#290=CARTESIAN_POINT('',(0.,0.,2.));
#291=DIRECTION('',(0.,0.,1.));
#292=DIRECTION('',(-1.,1.22464679914735E-16,0.));
#293=FACE_BOUND('',#294,.T.);
#294=EDGE_LOOP('',(#726,#727,#728,#729));
#295=PLANE('',#296);
#296=AXIS2_PLACEMENT_3D('',#297,#298,#299);
#297=CARTESIAN_POINT('',(39.,-7.,0.));
#298=DIRECTION('',(1.13869028166683E-16,1.,0.));
#299=DIRECTION('',(-1.,1.13869028166683E-16,0.));
#300=FACE_BOUND('',#301,.T.);
#301=EDGE_LOOP('',(#730,#731,#732,#733));
#302=CYLINDRICAL_SURFACE('',#303,2.);
#303=AXIS2_PLACEMENT_3D('',#304,#305,#306);
#304=CARTESIAN_POINT('',(47.,-9.,8.));
#305=DIRECTION('',(-1.,9.44870659255452E-17,0.));
#306=DIRECTION('',(0.,0.,1.));
#307=FACE_BOUND('',#308,.T.);
#308=EDGE_LOOP('',(#734,#735,#736,#737,#738));
#309=PLANE('',#310);
#310=AXIS2_PLACEMENT_3D('',#311,#312,#313);
#311=CARTESIAN_POINT('',(0.,0.,10.));
#312=DIRECTION('',(0.,0.,1.));
#313=DIRECTION('',(-1.,1.22464679914735E-16,0.));
#314=FACE_BOUND('',#315,.T.);
#315=EDGE_LOOP('',(#739));
#316=FACE_BOUND('',#317,.T.);
#317=EDGE_LOOP('',(#740));
#318=PLANE('',#319);
#319=AXIS2_PLACEMENT_3D('',#320,#321,#322);
#320=CARTESIAN_POINT('',(0.,0.,63.));
#321=DIRECTION('',(0.,0.,1.));
#322=DIRECTION('',(-1.,1.22464679914735E-16,0.));
#323=FACE_BOUND('',#324,.T.);
#324=EDGE_LOOP('',(#741,#742,#743,#744));
#325=CYLINDRICAL_SURFACE('',#326,2.);
#326=AXIS2_PLACEMENT_3D('',#327,#328,#329);
#327=CARTESIAN_POINT('',(-47.,-11.,8.));
#328=DIRECTION('',(1.,-1.32281892295763E-16,0.));
#329=DIRECTION('',(-1.17489922054193E-31,-8.88178419700125E-16,1.));
#330=FACE_BOUND('',#331,.T.);
#331=EDGE_LOOP('',(#745,#746,#747,#748));
#332=PLANE('',#333);
#333=AXIS2_PLACEMENT_3D('',#334,#335,#336);
#334=CARTESIAN_POINT('',(-39.,-13.,0.));
#335=DIRECTION('',(-1.36642833800019E-16,-1.,0.));
#336=DIRECTION('',(1.,-1.36642833800019E-16,0.));
#337=FACE_BOUND('',#338,.T.);
#338=EDGE_LOOP('',(#749));
#339=FACE_BOUND('',#340,.T.);
#340=EDGE_LOOP('',(#750));
#341=PLANE('',#342);
#342=AXIS2_PLACEMENT_3D('',#343,#344,#345);
#343=CARTESIAN_POINT('',(0.,0.,63.));
#344=DIRECTION('',(0.,0.,1.));
#345=DIRECTION('',(-1.,1.22464679914735E-16,0.));
#346=FACE_OUTER_BOUND('',#347,.T.);
#347=EDGE_LOOP('',(#751));
#348=FACE_OUTER_BOUND('',#349,.T.);
#349=EDGE_LOOP('',(#752));
#350=CONICAL_SURFACE('',#351,3.,0.785398163397448);
#351=AXIS2_PLACEMENT_3D('',#352,#353,#354);
#352=CARTESIAN_POINT('',(6.,6.,1.5));
#353=DIRECTION('',(0.,0.,1.));
#354=DIRECTION('',(-1.,2.96059473233375E-16,0.));
#355=FACE_OUTER_BOUND('',#356,.T.);
#356=EDGE_LOOP('',(#753));
#357=FACE_OUTER_BOUND('',#358,.T.);
#358=EDGE_LOOP('',(#754));
#359=CONICAL_SURFACE('',#360,3.,0.785398163397448);
#360=AXIS2_PLACEMENT_3D('',#361,#362,#363);
#361=CARTESIAN_POINT('',(-30.,6.00000000000001,1.5));
#362=DIRECTION('',(0.,0.,1.));
#363=DIRECTION('',(-1.,0.,0.));
#364=FACE_OUTER_BOUND('',#365,.T.);
#365=EDGE_LOOP('',(#755));
#366=FACE_OUTER_BOUND('',#367,.T.);
#367=EDGE_LOOP('',(#756));
#368=CONICAL_SURFACE('',#369,3.,0.785398163397448);
#369=AXIS2_PLACEMENT_3D('',#370,#371,#372);
#370=CARTESIAN_POINT('',(-24.,5.87830463590729E-15,1.5));
#371=DIRECTION('',(0.,0.,1.));
#372=DIRECTION('',(-1.,1.22464679914735E-16,0.));
#373=FACE_OUTER_BOUND('',#374,.T.);
#374=EDGE_LOOP('',(#757));
#375=FACE_OUTER_BOUND('',#376,.T.);
#376=EDGE_LOOP('',(#758));
#377=CONICAL_SURFACE('',#378,3.,0.785398163397448);
#378=AXIS2_PLACEMENT_3D('',#379,#380,#381);
#379=CARTESIAN_POINT('',(42.,5.99999999999999,1.5));
#380=DIRECTION('',(0.,0.,1.));
#381=DIRECTION('',(-1.,0.,0.));
#382=FACE_OUTER_BOUND('',#383,.T.);
#383=EDGE_LOOP('',(#759));
#384=FACE_OUTER_BOUND('',#385,.T.);
#385=EDGE_LOOP('',(#760));
#386=CONICAL_SURFACE('',#387,3.,0.785398163397448);
#387=AXIS2_PLACEMENT_3D('',#388,#389,#390);
#388=CARTESIAN_POINT('',(18.,6.,1.5));
#389=DIRECTION('',(0.,0.,1.));
#390=DIRECTION('',(-1.,0.,0.));
#391=FACE_OUTER_BOUND('',#392,.T.);
#392=EDGE_LOOP('',(#761));
#393=FACE_OUTER_BOUND('',#394,.T.);
#394=EDGE_LOOP('',(#762));
#395=CONICAL_SURFACE('',#396,3.,0.785398163397448);
#396=AXIS2_PLACEMENT_3D('',#397,#398,#399);
#397=CARTESIAN_POINT('',(12.,-1.46957615897682E-15,1.5));
#398=DIRECTION('',(0.,0.,1.));
#399=DIRECTION('',(-1.,1.22464679914735E-16,0.));
#400=FACE_OUTER_BOUND('',#401,.T.);
#401=EDGE_LOOP('',(#763));
#402=FACE_OUTER_BOUND('',#403,.T.);
#403=EDGE_LOOP('',(#764));
#404=CONICAL_SURFACE('',#405,3.,0.785398163397448);
#405=AXIS2_PLACEMENT_3D('',#406,#407,#408);
#406=CARTESIAN_POINT('',(0.,0.,1.5));
#407=DIRECTION('',(0.,0.,1.));
#408=DIRECTION('',(-1.,1.22464679914735E-16,0.));
#409=FACE_OUTER_BOUND('',#410,.T.);
#410=EDGE_LOOP('',(#765));
#411=FACE_OUTER_BOUND('',#412,.T.);
#412=EDGE_LOOP('',(#766));
#413=CONICAL_SURFACE('',#414,3.,0.785398163397448);
#414=AXIS2_PLACEMENT_3D('',#415,#416,#417);
#415=CARTESIAN_POINT('',(24.,-2.93915231795365E-15,1.5));
#416=DIRECTION('',(0.,0.,1.));
#417=DIRECTION('',(-1.,1.22464679914735E-16,0.));
#418=FACE_OUTER_BOUND('',#419,.T.);
#419=EDGE_LOOP('',(#767));
#420=FACE_OUTER_BOUND('',#421,.T.);
#421=EDGE_LOOP('',(#768));
#422=CONICAL_SURFACE('',#423,3.,0.785398163397448);
#423=AXIS2_PLACEMENT_3D('',#424,#425,#426);
#424=CARTESIAN_POINT('',(30.,6.,1.5));
#425=DIRECTION('',(0.,0.,1.));
#426=DIRECTION('',(-1.,0.,0.));
#427=FACE_OUTER_BOUND('',#428,.T.);
#428=EDGE_LOOP('',(#769));
#429=FACE_OUTER_BOUND('',#430,.T.);
#430=EDGE_LOOP('',(#770));
#431=CONICAL_SURFACE('',#432,3.,0.785398163397448);
#432=AXIS2_PLACEMENT_3D('',#433,#434,#435);
#433=CARTESIAN_POINT('',(-12.,2.93915231795365E-15,1.5));
#434=DIRECTION('',(0.,0.,1.));
#435=DIRECTION('',(-1.,1.22464679914735E-16,0.));
#436=FACE_OUTER_BOUND('',#437,.T.);
#437=EDGE_LOOP('',(#771));
#438=FACE_OUTER_BOUND('',#439,.T.);
#439=EDGE_LOOP('',(#772));
#440=CONICAL_SURFACE('',#441,3.,0.785398163397448);
#441=AXIS2_PLACEMENT_3D('',#442,#443,#444);
#442=CARTESIAN_POINT('',(-18.,6.,1.5));
#443=DIRECTION('',(0.,0.,1.));
#444=DIRECTION('',(-1.,0.,0.));
#445=FACE_OUTER_BOUND('',#446,.T.);
#446=EDGE_LOOP('',(#773));
#447=FACE_OUTER_BOUND('',#448,.T.);
#448=EDGE_LOOP('',(#774));
#449=CONICAL_SURFACE('',#450,3.,0.785398163397448);
#450=AXIS2_PLACEMENT_3D('',#451,#452,#453);
#451=CARTESIAN_POINT('',(-42.,6.00000000000001,1.5));
#452=DIRECTION('',(0.,0.,1.));
#453=DIRECTION('',(-1.,0.,0.));
#454=FACE_OUTER_BOUND('',#455,.T.);
#455=EDGE_LOOP('',(#775));
#456=FACE_OUTER_BOUND('',#457,.T.);
#457=EDGE_LOOP('',(#776));
#458=CONICAL_SURFACE('',#459,3.,0.785398163397448);
#459=AXIS2_PLACEMENT_3D('',#460,#461,#462);
#460=CARTESIAN_POINT('',(-6.,6.,1.5));
#461=DIRECTION('',(0.,0.,1.));
#462=DIRECTION('',(-1.,0.,0.));
#463=FACE_OUTER_BOUND('',#464,.T.);
#464=EDGE_LOOP('',(#777));
#465=FACE_OUTER_BOUND('',#466,.T.);
#466=EDGE_LOOP('',(#778));
#467=CYLINDRICAL_SURFACE('',#468,4.);
#468=AXIS2_PLACEMENT_3D('',#469,#470,#471);
#469=CARTESIAN_POINT('',(39.,-10.,63.));
#470=DIRECTION('',(0.,0.,1.));
#471=DIRECTION('',(-1.,1.22464679914735E-16,0.));
#472=FACE_OUTER_BOUND('',#473,.T.);
#473=EDGE_LOOP('',(#779));
#474=FACE_OUTER_BOUND('',#475,.T.);
#475=EDGE_LOOP('',(#780));
#476=CYLINDRICAL_SURFACE('',#477,4.);
#477=AXIS2_PLACEMENT_3D('',#478,#479,#480);
#478=CARTESIAN_POINT('',(-39.,-10.,63.));
#479=DIRECTION('',(0.,0.,1.));
#480=DIRECTION('',(-1.,1.22464679914735E-16,0.));
#481=FACE_BOUND('',#482,.T.);
#482=EDGE_LOOP('',(#781));
#483=PLANE('',#484);
#484=AXIS2_PLACEMENT_3D('',#485,#486,#487);
#485=CARTESIAN_POINT('',(0.,0.,1.));
#486=DIRECTION('',(0.,0.,1.));
#487=DIRECTION('',(-1.,1.22464679914735E-16,0.));
#488=FACE_BOUND('',#489,.T.);
#489=EDGE_LOOP('',(#782));
#490=PLANE('',#491);
#491=AXIS2_PLACEMENT_3D('',#492,#493,#494);
#492=CARTESIAN_POINT('',(0.,0.,1.));
#493=DIRECTION('',(0.,0.,1.));
#494=DIRECTION('',(-1.,1.22464679914735E-16,0.));
#495=FACE_BOUND('',#496,.T.);
#496=EDGE_LOOP('',(#783));
#497=PLANE('',#498);
#498=AXIS2_PLACEMENT_3D('',#499,#500,#501);
#499=CARTESIAN_POINT('',(0.,0.,1.));
#500=DIRECTION('',(0.,0.,1.));
#501=DIRECTION('',(-1.,1.22464679914735E-16,0.));
#502=FACE_BOUND('',#503,.T.);
#503=EDGE_LOOP('',(#784));
#504=PLANE('',#505);
#505=AXIS2_PLACEMENT_3D('',#506,#507,#508);
#506=CARTESIAN_POINT('',(0.,0.,1.));
#507=DIRECTION('',(0.,0.,1.));
#508=DIRECTION('',(-1.,1.22464679914735E-16,0.));
#509=FACE_BOUND('',#510,.T.);
#510=EDGE_LOOP('',(#785));
#511=PLANE('',#512);
#512=AXIS2_PLACEMENT_3D('',#513,#514,#515);
#513=CARTESIAN_POINT('',(0.,0.,1.));
#514=DIRECTION('',(0.,0.,1.));
#515=DIRECTION('',(-1.,1.22464679914735E-16,0.));
#516=FACE_BOUND('',#517,.T.);
#517=EDGE_LOOP('',(#786));
#518=PLANE('',#519);
#519=AXIS2_PLACEMENT_3D('',#520,#521,#522);
#520=CARTESIAN_POINT('',(0.,0.,1.));
#521=DIRECTION('',(0.,0.,1.));
#522=DIRECTION('',(-1.,1.22464679914735E-16,0.));
#523=FACE_BOUND('',#524,.T.);
#524=EDGE_LOOP('',(#787));
#525=PLANE('',#526);
#526=AXIS2_PLACEMENT_3D('',#527,#528,#529);
#527=CARTESIAN_POINT('',(0.,0.,1.));
#528=DIRECTION('',(0.,0.,1.));
#529=DIRECTION('',(-1.,1.22464679914735E-16,0.));
#530=FACE_BOUND('',#531,.T.);
#531=EDGE_LOOP('',(#788));
#532=PLANE('',#533);
#533=AXIS2_PLACEMENT_3D('',#534,#535,#536);
#534=CARTESIAN_POINT('',(0.,0.,1.));
#535=DIRECTION('',(0.,0.,1.));
#536=DIRECTION('',(-1.,1.22464679914735E-16,0.));
#537=FACE_BOUND('',#538,.T.);
#538=EDGE_LOOP('',(#789));
#539=PLANE('',#540);
#540=AXIS2_PLACEMENT_3D('',#541,#542,#543);
#541=CARTESIAN_POINT('',(0.,0.,1.));
#542=DIRECTION('',(0.,0.,1.));
#543=DIRECTION('',(-1.,1.22464679914735E-16,0.));
#544=FACE_BOUND('',#545,.T.);
#545=EDGE_LOOP('',(#790));
#546=PLANE('',#547);
#547=AXIS2_PLACEMENT_3D('',#548,#549,#550);
#548=CARTESIAN_POINT('',(0.,0.,1.));
#549=DIRECTION('',(0.,0.,1.));
#550=DIRECTION('',(-1.,1.22464679914735E-16,0.));
#551=FACE_BOUND('',#552,.T.);
#552=EDGE_LOOP('',(#791));
#553=PLANE('',#554);
#554=AXIS2_PLACEMENT_3D('',#555,#556,#557);
#555=CARTESIAN_POINT('',(0.,0.,1.));
#556=DIRECTION('',(0.,0.,1.));
#557=DIRECTION('',(-1.,1.22464679914735E-16,0.));
#558=FACE_BOUND('',#559,.T.);
#559=EDGE_LOOP('',(#792));
#560=PLANE('',#561);
#561=AXIS2_PLACEMENT_3D('',#562,#563,#564);
#562=CARTESIAN_POINT('',(0.,0.,1.));
#563=DIRECTION('',(0.,0.,1.));
#564=DIRECTION('',(-1.,1.22464679914735E-16,0.));
#565=FACE_BOUND('',#566,.T.);
#566=EDGE_LOOP('',(#793));
#567=PLANE('',#568);
#568=AXIS2_PLACEMENT_3D('',#569,#570,#571);
#569=CARTESIAN_POINT('',(0.,0.,1.));
#570=DIRECTION('',(0.,0.,1.));
#571=DIRECTION('',(-1.,1.22464679914735E-16,0.));
#572=FACE_OUTER_BOUND('',#573,.T.);
#573=EDGE_LOOP('',(#794));
#574=FACE_OUTER_BOUND('',#575,.T.);
#575=EDGE_LOOP('',(#795));
#576=CONICAL_SURFACE('',#577,2.20000000000001,0.178092938231197);
#577=AXIS2_PLACEMENT_3D('',#578,#579,#580);
#578=CARTESIAN_POINT('',(39.,-10.,80.));
#579=DIRECTION('',(0.,0.,-1.));
#580=DIRECTION('',(-1.,-1.33226762955019E-15,0.));
#581=FACE_OUTER_BOUND('',#582,.T.);
#582=EDGE_LOOP('',(#796));
#583=FACE_OUTER_BOUND('',#584,.T.);
#584=EDGE_LOOP('',(#797));
#585=CONICAL_SURFACE('',#586,2.20000000000001,0.178092938231197);
#586=AXIS2_PLACEMENT_3D('',#587,#588,#589);
#587=CARTESIAN_POINT('',(-39.,-10.,80.));
#588=DIRECTION('',(0.,0.,-1.));
#589=DIRECTION('',(-1.,-1.33226762955019E-15,0.));
#590=FACE_BOUND('',#591,.T.);
#591=EDGE_LOOP('',(#798));
#592=PLANE('',#593);
#593=AXIS2_PLACEMENT_3D('',#594,#595,#596);
#594=CARTESIAN_POINT('',(0.,0.,90.));
#595=DIRECTION('',(0.,0.,1.));
#596=DIRECTION('',(-1.,1.22464679914735E-16,0.));
#597=FACE_BOUND('',#598,.T.);
#598=EDGE_LOOP('',(#799));
#599=PLANE('',#600);
#600=AXIS2_PLACEMENT_3D('',#601,#602,#603);
#601=CARTESIAN_POINT('',(0.,0.,90.));
#602=DIRECTION('',(0.,0.,1.));
#603=DIRECTION('',(-1.,1.22464679914735E-16,0.));
#604=ORIENTED_EDGE('',*,*,#800,.F.);
#605=ORIENTED_EDGE('',*,*,#801,.F.);
#606=ORIENTED_EDGE('',*,*,#802,.F.);
#607=ORIENTED_EDGE('',*,*,#803,.F.);
#608=ORIENTED_EDGE('',*,*,#804,.F.);
#609=ORIENTED_EDGE('',*,*,#805,.F.);
#610=ORIENTED_EDGE('',*,*,#806,.F.);
#611=ORIENTED_EDGE('',*,*,#807,.F.);
#612=ORIENTED_EDGE('',*,*,#808,.F.);
#613=ORIENTED_EDGE('',*,*,#809,.F.);
#614=ORIENTED_EDGE('',*,*,#810,.F.);
#615=ORIENTED_EDGE('',*,*,#811,.F.);
#616=ORIENTED_EDGE('',*,*,#812,.T.);
#617=ORIENTED_EDGE('',*,*,#813,.T.);
#618=ORIENTED_EDGE('',*,*,#814,.T.);
#619=ORIENTED_EDGE('',*,*,#815,.T.);
#620=ORIENTED_EDGE('',*,*,#816,.T.);
#621=ORIENTED_EDGE('',*,*,#817,.T.);
#622=ORIENTED_EDGE('',*,*,#818,.T.);
#623=ORIENTED_EDGE('',*,*,#819,.T.);
#624=ORIENTED_EDGE('',*,*,#820,.T.);
#625=ORIENTED_EDGE('',*,*,#821,.T.);
#626=ORIENTED_EDGE('',*,*,#822,.T.);
#627=ORIENTED_EDGE('',*,*,#823,.T.);
#628=ORIENTED_EDGE('',*,*,#824,.T.);
#629=ORIENTED_EDGE('',*,*,#808,.T.);
#630=ORIENTED_EDGE('',*,*,#825,.T.);
#631=ORIENTED_EDGE('',*,*,#826,.F.);
#632=ORIENTED_EDGE('',*,*,#824,.F.);
#633=ORIENTED_EDGE('',*,*,#827,.F.);
#634=ORIENTED_EDGE('',*,*,#828,.F.);
#635=ORIENTED_EDGE('',*,*,#809,.T.);
#636=ORIENTED_EDGE('',*,*,#825,.F.);
#637=ORIENTED_EDGE('',*,*,#807,.T.);
#638=ORIENTED_EDGE('',*,*,#829,.T.);
#639=ORIENTED_EDGE('',*,*,#830,.F.);
#640=ORIENTED_EDGE('',*,*,#831,.F.);
#641=ORIENTED_EDGE('',*,*,#800,.T.);
#642=ORIENTED_EDGE('',*,*,#832,.T.);
#643=ORIENTED_EDGE('',*,*,#833,.T.);
#644=ORIENTED_EDGE('',*,*,#831,.T.);
#645=ORIENTED_EDGE('',*,*,#834,.F.);
#646=ORIENTED_EDGE('',*,*,#835,.F.);
#647=ORIENTED_EDGE('',*,*,#801,.T.);
#648=ORIENTED_EDGE('',*,*,#836,.F.);
#649=ORIENTED_EDGE('',*,*,#802,.T.);
#650=ORIENTED_EDGE('',*,*,#835,.T.);
#651=ORIENTED_EDGE('',*,*,#837,.T.);
#652=ORIENTED_EDGE('',*,*,#838,.F.);
#653=ORIENTED_EDGE('',*,*,#803,.T.);
#654=ORIENTED_EDGE('',*,*,#836,.T.);
#655=ORIENTED_EDGE('',*,*,#839,.F.);
#656=ORIENTED_EDGE('',*,*,#840,.F.);
#657=ORIENTED_EDGE('',*,*,#804,.T.);
#658=ORIENTED_EDGE('',*,*,#838,.T.);
#659=ORIENTED_EDGE('',*,*,#841,.T.);
#660=ORIENTED_EDGE('',*,*,#842,.F.);
#661=ORIENTED_EDGE('',*,*,#805,.T.);
#662=ORIENTED_EDGE('',*,*,#840,.T.);
#663=ORIENTED_EDGE('',*,*,#843,.F.);
#664=ORIENTED_EDGE('',*,*,#829,.F.);
#665=ORIENTED_EDGE('',*,*,#806,.T.);
#666=ORIENTED_EDGE('',*,*,#842,.T.);
#667=ORIENTED_EDGE('',*,*,#844,.T.);
#668=ORIENTED_EDGE('',*,*,#845,.T.);
#669=ORIENTED_EDGE('',*,*,#846,.T.);
#670=ORIENTED_EDGE('',*,*,#847,.T.);
#671=ORIENTED_EDGE('',*,*,#848,.T.);
#672=ORIENTED_EDGE('',*,*,#849,.T.);
#673=ORIENTED_EDGE('',*,*,#810,.T.);
#674=ORIENTED_EDGE('',*,*,#828,.T.);
#675=ORIENTED_EDGE('',*,*,#850,.T.);
#676=ORIENTED_EDGE('',*,*,#851,.T.);
#677=ORIENTED_EDGE('',*,*,#852,.T.);
#678=ORIENTED_EDGE('',*,*,#853,.T.);
#679=ORIENTED_EDGE('',*,*,#854,.F.);
#680=ORIENTED_EDGE('',*,*,#849,.F.);
#681=ORIENTED_EDGE('',*,*,#855,.F.);
#682=ORIENTED_EDGE('',*,*,#832,.F.);
#683=ORIENTED_EDGE('',*,*,#811,.T.);
#684=ORIENTED_EDGE('',*,*,#856,.F.);
#685=ORIENTED_EDGE('',*,*,#812,.F.);
#686=ORIENTED_EDGE('',*,*,#857,.F.);
#687=ORIENTED_EDGE('',*,*,#813,.F.);
#688=ORIENTED_EDGE('',*,*,#858,.F.);
#689=ORIENTED_EDGE('',*,*,#814,.F.);
#690=ORIENTED_EDGE('',*,*,#859,.F.);
#691=ORIENTED_EDGE('',*,*,#815,.F.);
#692=ORIENTED_EDGE('',*,*,#850,.F.);
#693=ORIENTED_EDGE('',*,*,#827,.T.);
#694=ORIENTED_EDGE('',*,*,#823,.F.);
#695=ORIENTED_EDGE('',*,*,#860,.F.);
#696=ORIENTED_EDGE('',*,*,#848,.F.);
#697=ORIENTED_EDGE('',*,*,#847,.F.);
#698=ORIENTED_EDGE('',*,*,#861,.F.);
#699=ORIENTED_EDGE('',*,*,#816,.F.);
#700=ORIENTED_EDGE('',*,*,#830,.T.);
#701=ORIENTED_EDGE('',*,*,#844,.F.);
#702=ORIENTED_EDGE('',*,*,#843,.T.);
#703=ORIENTED_EDGE('',*,*,#841,.F.);
#704=ORIENTED_EDGE('',*,*,#839,.T.);
#705=ORIENTED_EDGE('',*,*,#837,.F.);
#706=ORIENTED_EDGE('',*,*,#834,.T.);
#707=ORIENTED_EDGE('',*,*,#833,.F.);
#708=ORIENTED_EDGE('',*,*,#855,.T.);
#709=ORIENTED_EDGE('',*,*,#862,.T.);
#710=ORIENTED_EDGE('',*,*,#863,.T.);
#711=ORIENTED_EDGE('',*,*,#864,.T.);
#712=ORIENTED_EDGE('',*,*,#865,.T.);
#713=ORIENTED_EDGE('',*,*,#866,.T.);
#714=ORIENTED_EDGE('',*,*,#867,.T.);
#715=ORIENTED_EDGE('',*,*,#859,.T.);
#716=ORIENTED_EDGE('',*,*,#858,.T.);
#717=ORIENTED_EDGE('',*,*,#857,.T.);
#718=ORIENTED_EDGE('',*,*,#856,.T.);
#719=ORIENTED_EDGE('',*,*,#868,.T.);
#720=ORIENTED_EDGE('',*,*,#869,.T.);
#721=ORIENTED_EDGE('',*,*,#870,.T.);
#722=ORIENTED_EDGE('',*,*,#871,.T.);
#723=ORIENTED_EDGE('',*,*,#872,.T.);
#724=ORIENTED_EDGE('',*,*,#873,.T.);
#725=ORIENTED_EDGE('',*,*,#874,.T.);
#726=ORIENTED_EDGE('',*,*,#846,.F.);
#727=ORIENTED_EDGE('',*,*,#875,.F.);
#728=ORIENTED_EDGE('',*,*,#817,.F.);
#729=ORIENTED_EDGE('',*,*,#861,.T.);
#730=ORIENTED_EDGE('',*,*,#845,.F.);
#731=ORIENTED_EDGE('',*,*,#876,.F.);
#732=ORIENTED_EDGE('',*,*,#818,.F.);
#733=ORIENTED_EDGE('',*,*,#875,.T.);
#734=ORIENTED_EDGE('',*,*,#853,.F.);
#735=ORIENTED_EDGE('',*,*,#877,.T.);
#736=ORIENTED_EDGE('',*,*,#820,.F.);
#737=ORIENTED_EDGE('',*,*,#819,.F.);
#738=ORIENTED_EDGE('',*,*,#876,.T.);
#739=ORIENTED_EDGE('',*,*,#826,.T.);
#740=ORIENTED_EDGE('',*,*,#878,.F.);
#741=ORIENTED_EDGE('',*,*,#852,.F.);
#742=ORIENTED_EDGE('',*,*,#879,.T.);
#743=ORIENTED_EDGE('',*,*,#821,.F.);
#744=ORIENTED_EDGE('',*,*,#877,.F.);
#745=ORIENTED_EDGE('',*,*,#851,.F.);
#746=ORIENTED_EDGE('',*,*,#860,.T.);
#747=ORIENTED_EDGE('',*,*,#822,.F.);
#748=ORIENTED_EDGE('',*,*,#879,.F.);
#749=ORIENTED_EDGE('',*,*,#854,.T.);
#750=ORIENTED_EDGE('',*,*,#880,.F.);
#751=ORIENTED_EDGE('',*,*,#881,.F.);
#752=ORIENTED_EDGE('',*,*,#862,.F.);
#753=ORIENTED_EDGE('',*,*,#882,.F.);
#754=ORIENTED_EDGE('',*,*,#863,.F.);
#755=ORIENTED_EDGE('',*,*,#883,.F.);
#756=ORIENTED_EDGE('',*,*,#864,.F.);
#757=ORIENTED_EDGE('',*,*,#884,.F.);
#758=ORIENTED_EDGE('',*,*,#865,.F.);
#759=ORIENTED_EDGE('',*,*,#885,.F.);
#760=ORIENTED_EDGE('',*,*,#866,.F.);
#761=ORIENTED_EDGE('',*,*,#886,.F.);
#762=ORIENTED_EDGE('',*,*,#867,.F.);
#763=ORIENTED_EDGE('',*,*,#887,.F.);
#764=ORIENTED_EDGE('',*,*,#868,.F.);
#765=ORIENTED_EDGE('',*,*,#888,.F.);
#766=ORIENTED_EDGE('',*,*,#869,.F.);
#767=ORIENTED_EDGE('',*,*,#889,.F.);
#768=ORIENTED_EDGE('',*,*,#870,.F.);
#769=ORIENTED_EDGE('',*,*,#890,.F.);
#770=ORIENTED_EDGE('',*,*,#871,.F.);
#771=ORIENTED_EDGE('',*,*,#891,.F.);
#772=ORIENTED_EDGE('',*,*,#872,.F.);
#773=ORIENTED_EDGE('',*,*,#892,.F.);
#774=ORIENTED_EDGE('',*,*,#873,.F.);
#775=ORIENTED_EDGE('',*,*,#893,.F.);
#776=ORIENTED_EDGE('',*,*,#874,.F.);
#777=ORIENTED_EDGE('',*,*,#894,.T.);
#778=ORIENTED_EDGE('',*,*,#878,.T.);
#779=ORIENTED_EDGE('',*,*,#895,.T.);
#780=ORIENTED_EDGE('',*,*,#880,.T.);
#781=ORIENTED_EDGE('',*,*,#881,.T.);
#782=ORIENTED_EDGE('',*,*,#882,.T.);
#783=ORIENTED_EDGE('',*,*,#883,.T.);
#784=ORIENTED_EDGE('',*,*,#884,.T.);
#785=ORIENTED_EDGE('',*,*,#885,.T.);
#786=ORIENTED_EDGE('',*,*,#886,.T.);
#787=ORIENTED_EDGE('',*,*,#887,.T.);
#788=ORIENTED_EDGE('',*,*,#888,.T.);
#789=ORIENTED_EDGE('',*,*,#889,.T.);
#790=ORIENTED_EDGE('',*,*,#890,.T.);
#791=ORIENTED_EDGE('',*,*,#891,.T.);
#792=ORIENTED_EDGE('',*,*,#892,.T.);
#793=ORIENTED_EDGE('',*,*,#893,.T.);
#794=ORIENTED_EDGE('',*,*,#896,.F.);
#795=ORIENTED_EDGE('',*,*,#894,.F.);
#796=ORIENTED_EDGE('',*,*,#897,.F.);
#797=ORIENTED_EDGE('',*,*,#895,.F.);
#798=ORIENTED_EDGE('',*,*,#896,.T.);
#799=ORIENTED_EDGE('',*,*,#897,.T.);
#800=EDGE_CURVE('',#898,#899,#900,.F.);
#801=EDGE_CURVE('',#901,#898,#902,.T.);
#802=EDGE_CURVE('',#903,#901,#904,.F.);
#803=EDGE_CURVE('',#905,#903,#906,.T.);
#804=EDGE_CURVE('',#907,#905,#908,.F.);
#805=EDGE_CURVE('',#909,#907,#910,.T.);
#806=EDGE_CURVE('',#911,#909,#912,.F.);
#807=EDGE_CURVE('',#913,#911,#914,.T.);
#808=EDGE_CURVE('',#915,#913,#916,.T.);
#809=EDGE_CURVE('',#917,#915,#918,.T.);
#810=EDGE_CURVE('',#919,#917,#920,.T.);
#811=EDGE_CURVE('',#899,#919,#921,.T.);
#812=EDGE_CURVE('',#922,#922,#923,.T.);
#813=EDGE_CURVE('',#924,#924,#925,.T.);
#814=EDGE_CURVE('',#926,#926,#927,.T.);
#815=EDGE_CURVE('',#928,#928,#929,.T.);
#816=EDGE_CURVE('',#930,#931,#932,.T.);
#817=EDGE_CURVE('',#931,#933,#934,.T.);
#818=EDGE_CURVE('',#933,#935,#936,.F.);
#819=EDGE_CURVE('',#935,#937,#938,.T.);
#820=EDGE_CURVE('',#937,#939,#940,.T.);
#821=EDGE_CURVE('',#939,#941,#942,.T.);
#822=EDGE_CURVE('',#941,#943,#944,.F.);
#823=EDGE_CURVE('',#943,#945,#946,.T.);
#824=EDGE_CURVE('',#945,#915,#947,.F.);
#825=EDGE_CURVE('',#913,#930,#948,.T.);
#826=EDGE_CURVE('',#949,#949,#950,.T.);
#827=EDGE_CURVE('',#951,#945,#952,.T.);
#828=EDGE_CURVE('',#917,#951,#953,.T.);
#829=EDGE_CURVE('',#911,#954,#955,.T.);
#830=EDGE_CURVE('',#930,#954,#956,.T.);
#831=EDGE_CURVE('',#898,#957,#958,.T.);
#832=EDGE_CURVE('',#899,#959,#960,.T.);
#833=EDGE_CURVE('',#959,#957,#961,.F.);
#834=EDGE_CURVE('',#962,#957,#963,.T.);
#835=EDGE_CURVE('',#901,#962,#964,.T.);
#836=EDGE_CURVE('',#903,#965,#966,.T.);
#837=EDGE_CURVE('',#962,#965,#967,.F.);
#838=EDGE_CURVE('',#905,#968,#969,.T.);
#839=EDGE_CURVE('',#968,#965,#970,.T.);
#840=EDGE_CURVE('',#907,#971,#972,.T.);
#841=EDGE_CURVE('',#968,#971,#973,.F.);
#842=EDGE_CURVE('',#909,#974,#975,.T.);
#843=EDGE_CURVE('',#974,#971,#976,.T.);
#844=EDGE_CURVE('',#974,#954,#977,.F.);
#845=EDGE_CURVE('',#978,#979,#980,.T.);
#846=EDGE_CURVE('',#979,#981,#982,.F.);
#847=EDGE_CURVE('',#981,#983,#984,.T.);
#848=EDGE_CURVE('',#983,#985,#986,.T.);
#849=EDGE_CURVE('',#985,#919,#987,.F.);
#850=EDGE_CURVE('',#951,#988,#989,.T.);
#851=EDGE_CURVE('',#988,#990,#991,.T.);
#852=EDGE_CURVE('',#990,#992,#993,.F.);
#853=EDGE_CURVE('',#992,#978,#994,.T.);
#854=EDGE_CURVE('',#995,#995,#996,.T.);
#855=EDGE_CURVE('',#959,#985,#997,.T.);
#856=EDGE_CURVE('',#998,#998,#999,.F.);
#857=EDGE_CURVE('',#1000,#1000,#1001,.F.);
#858=EDGE_CURVE('',#1002,#1002,#1003,.F.);
#859=EDGE_CURVE('',#1004,#1004,#1005,.F.);
#860=EDGE_CURVE('',#988,#943,#1006,.T.);
#861=EDGE_CURVE('',#931,#981,#1007,.T.);
#862=EDGE_CURVE('',#1008,#1008,#1009,.F.);
#863=EDGE_CURVE('',#1010,#1010,#1011,.F.);
#864=EDGE_CURVE('',#1012,#1012,#1013,.F.);
#865=EDGE_CURVE('',#1014,#1014,#1015,.F.);
#866=EDGE_CURVE('',#1016,#1016,#1017,.F.);
#867=EDGE_CURVE('',#1018,#1018,#1019,.F.);
#868=EDGE_CURVE('',#1020,#1020,#1021,.F.);
#869=EDGE_CURVE('',#1022,#1022,#1023,.F.);
#870=EDGE_CURVE('',#1024,#1024,#1025,.F.);
#871=EDGE_CURVE('',#1026,#1026,#1027,.F.);
#872=EDGE_CURVE('',#1028,#1028,#1029,.F.);
#873=EDGE_CURVE('',#1030,#1030,#1031,.F.);
#874=EDGE_CURVE('',#1032,#1032,#1033,.F.);
#875=EDGE_CURVE('',#933,#979,#1034,.T.);
#876=EDGE_CURVE('',#935,#978,#1035,.T.);
#877=EDGE_CURVE('',#992,#939,#1036,.T.);
#878=EDGE_CURVE('',#1037,#1037,#1038,.T.);
#879=EDGE_CURVE('',#990,#941,#1039,.T.);
#880=EDGE_CURVE('',#1040,#1040,#1041,.T.);
#881=EDGE_CURVE('',#1042,#1042,#1043,.T.);
#882=EDGE_CURVE('',#1044,#1044,#1045,.T.);
#883=EDGE_CURVE('',#1046,#1046,#1047,.T.);
#884=EDGE_CURVE('',#1048,#1048,#1049,.T.);
#885=EDGE_CURVE('',#1050,#1050,#1051,.T.);
#886=EDGE_CURVE('',#1052,#1052,#1053,.T.);
#887=EDGE_CURVE('',#1054,#1054,#1055,.T.);
#888=EDGE_CURVE('',#1056,#1056,#1057,.T.);
#889=EDGE_CURVE('',#1058,#1058,#1059,.T.);
#890=EDGE_CURVE('',#1060,#1060,#1061,.T.);
#891=EDGE_CURVE('',#1062,#1062,#1063,.T.);
#892=EDGE_CURVE('',#1064,#1064,#1065,.T.);
#893=EDGE_CURVE('',#1066,#1066,#1067,.T.);
#894=EDGE_CURVE('',#1068,#1068,#1069,.T.);
#895=EDGE_CURVE('',#1070,#1070,#1071,.T.);
#896=EDGE_CURVE('',#1072,#1072,#1073,.F.);
#897=EDGE_CURVE('',#1074,#1074,#1075,.F.);
#898=VERTEX_POINT('',#1076);
#899=VERTEX_POINT('',#1077);
#900=CIRCLE('',#1078,3.);
#901=VERTEX_POINT('',#1082);
#902=LINE('',#1083,#1084);
#903=VERTEX_POINT('',#1086);
#904=CIRCLE('',#1087,3.);
#905=VERTEX_POINT('',#1091);
#906=LINE('',#1092,#1093);
#907=VERTEX_POINT('',#1095);
#908=CIRCLE('',#1096,3.);
#909=VERTEX_POINT('',#1100);
#910=LINE('',#1101,#1102);
#911=VERTEX_POINT('',#1104);
#912=CIRCLE('',#1105,2.99999999999999);
#913=VERTEX_POINT('',#1109);
#914=LINE('',#1110,#1111);
#915=VERTEX_POINT('',#1113);
#916=CIRCLE('',#1114,6.);
#917=VERTEX_POINT('',#1118);
#918=LINE('',#1119,#1120);
#919=VERTEX_POINT('',#1122);
#920=CIRCLE('',#1123,6.);
#921=LINE('',#1127,#1128);
#922=VERTEX_POINT('',#1130);
#923=CIRCLE('',#1131,2.5);
#924=VERTEX_POINT('',#1135);
#925=CIRCLE('',#1136,2.5);
#926=VERTEX_POINT('',#1140);
#927=CIRCLE('',#1141,2.5);
#928=VERTEX_POINT('',#1145);
#929=CIRCLE('',#1146,2.5);
#930=VERTEX_POINT('',#1150);
#931=VERTEX_POINT('',#1151);
#932=CIRCLE('',#1152,6.);
#933=VERTEX_POINT('',#1156);
#934=LINE('',#1157,#1158);
#935=VERTEX_POINT('',#1160);
#936=B_SPLINE_CURVE_WITH_KNOTS('',3,
(#1161,#1162,#1163,#1164,#1165,#1166,#1167,#1168,#1169,#1170,#1171,#1172,#1173,#1174,
#1175,#1176,#1177,#1178,#1179,#1180,#1181,#1182,#1183,#1184,#1185,#1186),
.UNSPECIFIED.,.F.,.F.,
(4,1,1,1,1,1,1,1,1,1,1,1,1,1,1,1,1,1,1,1,1,1,1,4),
(0.,0.034176058335063,0.0681912357026484,0.102044449383662,0.135525223111704,0.168798912126475,
0.201800511695148,0.234737688509527,0.278834745324364,0.326447569672085,0.377563281642697,
0.440245605322525,0.525337100253548,0.624093156856633,0.710111266534667,0.774808893693179,
0.819129458790019,0.850171417518335,0.880408323337566,0.909941321542897,0.938768237443078,
0.959541934174349,0.979915020961201,1.),
.UNSPECIFIED.);
#937=VERTEX_POINT('',#1187);
#938=CIRCLE('',#1188,6.);
#939=VERTEX_POINT('',#1192);
#940=CIRCLE('',#1193,6.);
#941=VERTEX_POINT('',#1197);
#942=B_SPLINE_CURVE_WITH_KNOTS('',3,
(#1198,#1199,#1200,#1201,#1202,#1203,#1204,#1205,#1206,#1207,#1208,#1209,#1210,#1211,
#1212,#1213,#1214,#1215,#1216,#1217,#1218,#1219,#1220,#1221,#1222,#1223),
.UNSPECIFIED.,.F.,.F.,
(4,1,1,1,1,1,1,1,1,1,1,1,1,1,1,1,1,1,1,1,1,1,1,4),
(0.,0.0341760583350635,0.068191235702646,0.102044449383661,0.135525223111704,0.168798912126476,
0.201800511695153,0.234737688509531,0.278834745324365,0.326447569672089,0.377563281642697,
0.440245605322525,0.52533710025355,0.624093156856634,0.710111266534673,0.774808893693179,
0.81912945879002,0.850171417518338,0.880408323337569,0.909941321542902,0.938768237443078,
0.959541934174354,0.979915020961205,1.),
.UNSPECIFIED.);
#943=VERTEX_POINT('',#1224);
#944=LINE('',#1225,#1226);
#945=VERTEX_POINT('',#1228);
#946=CIRCLE('',#1229,6.);
#947=LINE('',#1233,#1234);
#948=LINE('',#1236,#1237);
#949=VERTEX_POINT('',#1239);
#950=CIRCLE('',#1240,6.);
#951=VERTEX_POINT('',#1244);
#952=LINE('',#1245,#1246);
#953=LINE('',#1248,#1249);
#954=VERTEX_POINT('',#1251);
#955=LINE('',#1252,#1253);
#956=LINE('',#1255,#1256);
#957=VERTEX_POINT('',#1258);
#958=LINE('',#1259,#1260);
#959=VERTEX_POINT('',#1262);
#960=LINE('',#1263,#1264);
#961=CIRCLE('',#1266,3.);
#962=VERTEX_POINT('',#1270);
#963=LINE('',#1271,#1272);
#964=LINE('',#1274,#1275);
#965=VERTEX_POINT('',#1277);
#966=LINE('',#1278,#1279);
#967=CIRCLE('',#1281,3.);
#968=VERTEX_POINT('',#1285);
#969=LINE('',#1286,#1287);
#970=LINE('',#1289,#1290);
#971=VERTEX_POINT('',#1292);
#972=LINE('',#1293,#1294);
#973=CIRCLE('',#1296,3.);
#974=VERTEX_POINT('',#1300);
#975=LINE('',#1301,#1302);
#976=LINE('',#1304,#1305);
#977=CIRCLE('',#1307,3.);
#978=VERTEX_POINT('',#1311);
#979=VERTEX_POINT('',#1312);
#980=B_SPLINE_CURVE_WITH_KNOTS('',3,
(#1313,#1314,#1315,#1316,#1317,#1318,#1319,#1320,#1321,#1322,#1323,#1324,#1325,#1326,
#1327,#1328,#1329,#1330,#1331,#1332,#1333,#1334,#1335,#1336,#1337,#1338),
.UNSPECIFIED.,.F.,.F.,
(4,1,1,1,1,1,1,1,1,1,1,1,1,1,1,1,1,1,1,1,1,1,1,4),
(0.,0.0341760583359873,0.0681912357033375,0.10204444938402,0.135525223111767,0.168798912126373,
0.201800511695022,0.234737688509445,0.278834745324376,0.326447569672127,0.377563281642721,
0.440245605322522,0.525337100253549,0.624093156856634,0.710111266534674,0.774808893693179,
0.81912945879002,0.850171417518338,0.880408323337569,0.909941321542902,0.938768237443077,
0.959541934174354,0.979915020961203,1.),
.UNSPECIFIED.);
#981=VERTEX_POINT('',#1339);
#982=LINE('',#1340,#1341);
#983=VERTEX_POINT('',#1343);
#984=CIRCLE('',#1344,6.);
#985=VERTEX_POINT('',#1348);
#986=CIRCLE('',#1349,6.);
#987=LINE('',#1353,#1354);
#988=VERTEX_POINT('',#1356);
#989=CIRCLE('',#1357,6.);
#990=VERTEX_POINT('',#1361);
#991=LINE('',#1362,#1363);
#992=VERTEX_POINT('',#1365);
#993=B_SPLINE_CURVE_WITH_KNOTS('',3,
(#1366,#1367,#1368,#1369,#1370,#1371,#1372,#1373,#1374,#1375,#1376,#1377,#1378,#1379,
#1380,#1381,#1382,#1383,#1384,#1385,#1386,#1387,#1388,#1389,#1390,#1391),
.UNSPECIFIED.,.F.,.F.,
(4,1,1,1,1,1,1,1,1,1,1,1,1,1,1,1,1,1,1,1,1,1,1,4),
(0.,0.0341760583359912,0.0681912357033398,0.102044449384025,0.135525223111769,0.168798912126378,
0.201800511695023,0.234737688509444,0.27883474532437,0.326447569672124,0.377563281642718,
0.440245605322519,0.525337100253549,0.624093156856632,0.710111266534669,0.774808893693177,
0.819129458790017,0.850171417518338,0.880408323337571,0.9099413215429,0.938768237443077,
0.959541934174355,0.979915020961205,1.),
.UNSPECIFIED.);
#994=CIRCLE('',#1392,6.);
#995=VERTEX_POINT('',#1396);
#996=CIRCLE('',#1397,6.);
#997=LINE('',#1401,#1402);
#998=VERTEX_POINT('',#1404);
#999=CIRCLE('',#1405,2.5);
#1000=VERTEX_POINT('',#1409);
#1001=CIRCLE('',#1410,2.5);
#1002=VERTEX_POINT('',#1414);
#1003=CIRCLE('',#1415,2.5);
#1004=VERTEX_POINT('',#1419);
#1005=CIRCLE('',#1420,2.5);
#1006=LINE('',#1424,#1425);
#1007=LINE('',#1427,#1428);
#1008=VERTEX_POINT('',#1430);
#1009=CIRCLE('',#1431,3.5);
#1010=VERTEX_POINT('',#1435);
#1011=CIRCLE('',#1436,3.5);
#1012=VERTEX_POINT('',#1440);
#1013=CIRCLE('',#1441,3.5);
#1014=VERTEX_POINT('',#1445);
#1015=CIRCLE('',#1446,3.5);
#1016=VERTEX_POINT('',#1450);
#1017=CIRCLE('',#1451,3.5);
#1018=VERTEX_POINT('',#1455);
#1019=CIRCLE('',#1456,3.5);
#1020=VERTEX_POINT('',#1460);
#1021=CIRCLE('',#1461,3.5);
#1022=VERTEX_POINT('',#1465);
#1023=CIRCLE('',#1466,3.5);
#1024=VERTEX_POINT('',#1470);
#1025=CIRCLE('',#1471,3.5);
#1026=VERTEX_POINT('',#1475);
#1027=CIRCLE('',#1476,3.5);
#1028=VERTEX_POINT('',#1480);
#1029=CIRCLE('',#1481,3.5);
#1030=VERTEX_POINT('',#1485);
#1031=CIRCLE('',#1486,3.5);
#1032=VERTEX_POINT('',#1490);
#1033=CIRCLE('',#1491,3.5);
#1034=LINE('',#1495,#1496);
#1035=LINE('',#1498,#1499);
#1036=LINE('',#1501,#1502);
#1037=VERTEX_POINT('',#1504);
#1038=CIRCLE('',#1505,4.);
#1039=LINE('',#1509,#1510);
#1040=VERTEX_POINT('',#1512);
#1041=CIRCLE('',#1513,4.);
#1042=VERTEX_POINT('',#1517);
#1043=CIRCLE('',#1518,2.5);
#1044=VERTEX_POINT('',#1522);
#1045=CIRCLE('',#1523,2.5);
#1046=VERTEX_POINT('',#1527);
#1047=CIRCLE('',#1528,2.5);
#1048=VERTEX_POINT('',#1532);
#1049=CIRCLE('',#1533,2.5);
#1050=VERTEX_POINT('',#1537);
#1051=CIRCLE('',#1538,2.5);
#1052=VERTEX_POINT('',#1542);
#1053=CIRCLE('',#1543,2.5);
#1054=VERTEX_POINT('',#1547);
#1055=CIRCLE('',#1548,2.5);
#1056=VERTEX_POINT('',#1552);
#1057=CIRCLE('',#1553,2.5);
#1058=VERTEX_POINT('',#1557);
#1059=CIRCLE('',#1558,2.5);
#1060=VERTEX_POINT('',#1562);
#1061=CIRCLE('',#1563,2.5);
#1062=VERTEX_POINT('',#1567);
#1063=CIRCLE('',#1568,2.5);
#1064=VERTEX_POINT('',#1572);
#1065=CIRCLE('',#1573,2.5);
#1066=VERTEX_POINT('',#1577);
#1067=CIRCLE('',#1578,2.5);
#1068=VERTEX_POINT('',#1582);
#1069=CIRCLE('',#1583,4.);
#1070=VERTEX_POINT('',#1587);
#1071=CIRCLE('',#1588,4.);
#1072=VERTEX_POINT('',#1592);
#1073=CIRCLE('',#1593,0.40000000000002);
#1074=VERTEX_POINT('',#1597);
#1075=CIRCLE('',#1598,0.400000000000017);
#1076=CARTESIAN_POINT('',(-62.5,-12.,1.48029736616688E-16));
#1077=CARTESIAN_POINT('',(-59.5,-15.,1.48029736616688E-16));
#1078=AXIS2_PLACEMENT_3D('',#1079,#1080,#1081);
#1079=CARTESIAN_POINT('',(-59.5,-12.,0.));
#1080=DIRECTION('',(0.,0.,-1.));
#1081=DIRECTION('',(2.368475785867E-15,-1.,0.));
#1082=CARTESIAN_POINT('',(-62.5,12.,0.));
#1083=CARTESIAN_POINT('',(-62.5,12.,0.));
#1084=VECTOR('',#1085,1.);
#1085=DIRECTION('',(0.,-1.,0.));
#1086=CARTESIAN_POINT('',(-59.5,15.,0.));
#1087=AXIS2_PLACEMENT_3D('',#1088,#1089,#1090);
#1088=CARTESIAN_POINT('',(-59.5,12.,0.));
#1089=DIRECTION('',(0.,0.,-1.));
#1090=DIRECTION('',(-1.,0.,0.));
#1091=CARTESIAN_POINT('',(59.5,15.,0.));
#1092=CARTESIAN_POINT('',(59.5,15.,0.));
#1093=VECTOR('',#1094,1.);
#1094=DIRECTION('',(-1.,1.19418947186571E-16,0.));
#1095=CARTESIAN_POINT('',(62.5,12.,0.));
#1096=AXIS2_PLACEMENT_3D('',#1097,#1098,#1099);
#1097=CARTESIAN_POINT('',(59.5,12.,0.));
#1098=DIRECTION('',(0.,0.,-1.));
#1099=DIRECTION('',(-2.368475785867E-15,1.,0.));
#1100=CARTESIAN_POINT('',(62.5,-12.,0.));
#1101=CARTESIAN_POINT('',(62.5,-12.,0.));
#1102=VECTOR('',#1103,1.);
#1103=DIRECTION('',(0.,1.,0.));
#1104=CARTESIAN_POINT('',(59.5,-15.,0.));
#1105=AXIS2_PLACEMENT_3D('',#1106,#1107,#1108);
#1106=CARTESIAN_POINT('',(59.5,-12.,0.));
#1107=DIRECTION('',(0.,0.,-1.));
#1108=DIRECTION('',(1.,-5.92118946466752E-16,0.));
#1109=CARTESIAN_POINT('',(42.3166247903554,-15.,0.));
#1110=CARTESIAN_POINT('',(42.3166247903554,-15.,0.));
#1111=VECTOR('',#1112,1.);
#1112=DIRECTION('',(1.,-1.0337647975022E-16,0.));
#1113=CARTESIAN_POINT('',(35.6833752096446,-15.,0.));
#1114=AXIS2_PLACEMENT_3D('',#1115,#1116,#1117);
#1115=CARTESIAN_POINT('',(39.,-10.,0.));
#1116=DIRECTION('',(0.,0.,1.));
#1117=DIRECTION('',(-0.552770798392566,-0.833333333333334,0.));
#1118=CARTESIAN_POINT('',(-35.6833752096446,-15.,0.));
#1119=CARTESIAN_POINT('',(-35.6833752096446,-15.,0.));
#1120=VECTOR('',#1121,1.);
#1121=DIRECTION('',(1.,-9.9562153465804E-17,0.));
#1122=CARTESIAN_POINT('',(-42.3166247903554,-15.,0.));
#1123=AXIS2_PLACEMENT_3D('',#1124,#1125,#1126);
#1124=CARTESIAN_POINT('',(-39.,-9.99999999999999,0.));
#1125=DIRECTION('',(0.,0.,1.));
#1126=DIRECTION('',(-0.552770798392565,-0.833333333333334,0.));
#1127=CARTESIAN_POINT('',(-59.5,-15.,0.));
#1128=VECTOR('',#1129,1.);
#1129=DIRECTION('',(1.,-1.0337647975022E-16,0.));
#1130=CARTESIAN_POINT('',(49.,-7.00000000000001,0.));
#1131=AXIS2_PLACEMENT_3D('',#1132,#1133,#1134);
#1132=CARTESIAN_POINT('',(51.5,-7.00000000000001,0.));
#1133=DIRECTION('',(0.,0.,1.));
#1134=DIRECTION('',(-1.,1.22464679914735E-16,0.));
#1135=CARTESIAN_POINT('',(49.,6.99999999999999,0.));
#1136=AXIS2_PLACEMENT_3D('',#1137,#1138,#1139);
#1137=CARTESIAN_POINT('',(51.5,6.99999999999999,0.));
#1138=DIRECTION('',(0.,0.,1.));
#1139=DIRECTION('',(-1.,1.22464679914735E-16,0.));
#1140=CARTESIAN_POINT('',(-54.,-6.99999999999998,0.));
#1141=AXIS2_PLACEMENT_3D('',#1142,#1143,#1144);
#1142=CARTESIAN_POINT('',(-51.5,-6.99999999999998,0.));
#1143=DIRECTION('',(0.,0.,1.));
#1144=DIRECTION('',(-1.,1.22464679914735E-16,0.));
#1145=CARTESIAN_POINT('',(-54.,7.00000000000001,0.));
#1146=AXIS2_PLACEMENT_3D('',#1147,#1148,#1149);
#1147=CARTESIAN_POINT('',(-51.5,7.00000000000001,0.));
#1148=DIRECTION('',(0.,0.,1.));
#1149=DIRECTION('',(-1.,1.22464679914735E-16,0.));
#1150=CARTESIAN_POINT('',(42.3166247903553,-15.,2.));
#1151=CARTESIAN_POINT('',(33.8038475772934,-7.,2.));
#1152=AXIS2_PLACEMENT_3D('',#1153,#1154,#1155);
#1153=CARTESIAN_POINT('',(39.,-10.,2.));
#1154=DIRECTION('',(0.,0.,1.));
#1155=DIRECTION('',(0.552770798392551,-0.833333333333344,0.));
#1156=CARTESIAN_POINT('',(33.8038475772934,-7.,8.));
#1157=CARTESIAN_POINT('',(33.8038475772934,-7.,2.));
#1158=VECTOR('',#1159,1.);
#1159=DIRECTION('',(0.,-2.96059473233375E-16,1.));
#1160=CARTESIAN_POINT('',(33.0839202169004,-9.,10.));
#1161=CARTESIAN_POINT('',(33.0839202168998,-9.00000000000355,10.));
#1162=CARTESIAN_POINT('',(33.0900700492638,-8.96360839264461,10.0000005258702));
#1163=CARTESIAN_POINT('',(33.1030053560939,-8.89117474481568,9.99801778240075));
#1164=CARTESIAN_POINT('',(33.1242627034801,-8.78357801750516,9.98922377244801));
#1165=CARTESIAN_POINT('',(33.1471766203054,-8.677763672798,9.97482248948911));
#1166=CARTESIAN_POINT('',(33.171599529392,-8.5740042508906,9.95504443181387));
#1167=CARTESIAN_POINT('',(33.1973560374673,-8.47261585173074,9.93014562194659));
#1168=CARTESIAN_POINT('',(33.2243635495054,-8.37351036753801,9.90027588265079));
#1169=CARTESIAN_POINT('',(33.2556939966616,-8.26577408913481,9.861651843211));
#1170=CARTESIAN_POINT('',(33.2927795692177,-8.14695828075885,9.81082190531024));
#1171=CARTESIAN_POINT('',(33.3370057798722,-8.01577733419847,9.74329672366619));
#1172=CARTESIAN_POINT('',(33.3885009352555,-7.87414990140084,9.65613507072958));
#1173=CARTESIAN_POINT('',(33.4531134260579,-7.70995072794279,9.5340212314506));
#1174=CARTESIAN_POINT('',(33.5329895353128,-7.52470502982932,9.36033126923049));
#1175=CARTESIAN_POINT('',(33.61601279377,-7.34980091558388,9.14217958073399));
#1176=CARTESIAN_POINT('',(33.6837629491,-7.21749143412656,8.91738676135586));
#1177=CARTESIAN_POINT('',(33.7281431303434,-7.13484383648352,8.72891255843519));
#1178=CARTESIAN_POINT('',(33.7544642134815,-7.08712041720824,8.58802469310848));
#1179=CARTESIAN_POINT('',(33.7710686974534,-7.05746399082708,8.47934360501588));
#1180=CARTESIAN_POINT('',(33.782925318141,-7.03650882475725,8.38442288915744));
#1181=CARTESIAN_POINT('',(33.7920615220706,-7.020493773809,8.29069438137546));
#1182=CARTESIAN_POINT('',(33.7980149280593,-7.01012081562413,8.20624193211128));
#1183=CARTESIAN_POINT('',(33.8015756763048,-7.00393720805313,8.13117241143927));
#1184=CARTESIAN_POINT('',(33.8034380139005,-7.00070899692742,8.06527741212186));
#1185=CARTESIAN_POINT('',(33.8038480220498,-6.99999970967063,8.0216598069121));
#1186=CARTESIAN_POINT('',(33.8038475772934,-7.00000000000001,8.));
#1187=CARTESIAN_POINT('',(33.,-10.,10.));
#1188=AXIS2_PLACEMENT_3D('',#1189,#1190,#1191);
#1189=CARTESIAN_POINT('',(39.,-10.,10.));
#1190=DIRECTION('',(0.,0.,1.));
#1191=DIRECTION('',(-0.986013297183269,0.166666666666667,0.));
#1192=CARTESIAN_POINT('',(33.0839202169004,-11.,10.));
#1193=AXIS2_PLACEMENT_3D('',#1194,#1195,#1196);
#1194=CARTESIAN_POINT('',(39.,-10.,10.));
#1195=DIRECTION('',(0.,0.,1.));
#1196=DIRECTION('',(-1.,0.,0.));
#1197=CARTESIAN_POINT('',(33.8038475772932,-13.,8.));
#1198=CARTESIAN_POINT('',(33.0839202168998,-10.9999999999965,10.));
#1199=CARTESIAN_POINT('',(33.0900700492638,-11.0363916073554,10.0000005258702));
#1200=CARTESIAN_POINT('',(33.1030053560939,-11.1088252551843,9.99801778240075));
#1201=CARTESIAN_POINT('',(33.12426270348,-11.2164219824948,9.98922377244801));
#1202=CARTESIAN_POINT('',(33.1471766203054,-11.322236327202,9.97482248948912));
#1203=CARTESIAN_POINT('',(33.1715995293919,-11.4259957491094,9.95504443181385));
#1204=CARTESIAN_POINT('',(33.1973560374673,-11.5273841482693,9.9301456219466));
#1205=CARTESIAN_POINT('',(33.2243635495054,-11.626489632462,9.90027588265078));
#1206=CARTESIAN_POINT('',(33.2556939966616,-11.7342259108652,9.861651843211));
#1207=CARTESIAN_POINT('',(33.2927795692177,-11.8530417192412,9.81082190531023));
#1208=CARTESIAN_POINT('',(33.3370057798722,-11.9842226658015,9.7432967236662));
#1209=CARTESIAN_POINT('',(33.3885009352555,-12.1258500985992,9.65613507072957));
#1210=CARTESIAN_POINT('',(33.4531134260579,-12.2900492720572,9.53402123145059));
#1211=CARTESIAN_POINT('',(33.5329895353128,-12.4752949701707,9.36033126923049));
#1212=CARTESIAN_POINT('',(33.61601279377,-12.6501990844161,9.14217958073398));
#1213=CARTESIAN_POINT('',(33.6837629491,-12.7825085658734,8.91738676135586));
#1214=CARTESIAN_POINT('',(33.7281431303434,-12.8651561635165,8.72891255843518));
#1215=CARTESIAN_POINT('',(33.7544642134815,-12.9128795827918,8.58802469310847));
#1216=CARTESIAN_POINT('',(33.7710686974534,-12.9425360091729,8.47934360501588));
#1217=CARTESIAN_POINT('',(33.782925318141,-12.9634911752428,8.38442288915743));
#1218=CARTESIAN_POINT('',(33.7920615220706,-12.979506226191,8.29069438137547));
#1219=CARTESIAN_POINT('',(33.7980149280594,-12.9898791843759,8.20624193211129));
#1220=CARTESIAN_POINT('',(33.8015756763048,-12.9960627919469,8.13117241143926));
#1221=CARTESIAN_POINT('',(33.8034380139005,-12.9992910030726,8.06527741212186));
#1222=CARTESIAN_POINT('',(33.8038480220498,-13.0000002903294,8.0216598069121));
#1223=CARTESIAN_POINT('',(33.8038475772933,-13.,8.));
#1224=CARTESIAN_POINT('',(33.8038475772934,-13.,2.));
#1225=CARTESIAN_POINT('',(33.8038475772932,-12.9999999999999,2.));
#1226=VECTOR('',#1227,1.);
#1227=DIRECTION('',(0.,0.,1.));
#1228=CARTESIAN_POINT('',(35.6833752096447,-15.,2.));
#1229=AXIS2_PLACEMENT_3D('',#1230,#1231,#1232);
#1230=CARTESIAN_POINT('',(39.,-10.,2.));
#1231=DIRECTION('',(0.,0.,1.));
#1232=DIRECTION('',(-0.866025403784438,-0.500000000000001,0.));
#1233=CARTESIAN_POINT('',(35.6833752096446,-15.,0.));
#1234=VECTOR('',#1235,1.);
#1235=DIRECTION('',(0.,0.,1.));
#1236=CARTESIAN_POINT('',(42.3166247903554,-15.,0.));
#1237=VECTOR('',#1238,1.);
#1238=DIRECTION('',(0.,0.,1.));
#1239=CARTESIAN_POINT('',(33.,-10.,63.));
#1240=AXIS2_PLACEMENT_3D('',#1241,#1242,#1243);
#1241=CARTESIAN_POINT('',(39.,-10.,63.));
#1242=DIRECTION('',(0.,0.,1.));
#1243=DIRECTION('',(-1.,1.22464679914735E-16,0.));
#1244=CARTESIAN_POINT('',(-35.6833752096446,-15.,2.));
#1245=CARTESIAN_POINT('',(-35.6833752096446,-15.,2.));
#1246=VECTOR('',#1247,1.);
#1247=DIRECTION('',(1.,-9.95621534658038E-17,0.));
#1248=CARTESIAN_POINT('',(-35.6833752096446,-15.,0.));
#1249=VECTOR('',#1250,1.);
#1250=DIRECTION('',(0.,0.,1.));
#1251=CARTESIAN_POINT('',(59.5,-15.,2.));
#1252=CARTESIAN_POINT('',(59.5,-15.,0.));
#1253=VECTOR('',#1254,1.);
#1254=DIRECTION('',(0.,0.,1.));
#1255=CARTESIAN_POINT('',(42.3166247903553,-15.,2.));
#1256=VECTOR('',#1257,1.);
#1257=DIRECTION('',(1.,-1.03376479750219E-16,0.));
#1258=CARTESIAN_POINT('',(-62.5,-12.,2.));
#1259=CARTESIAN_POINT('',(-62.5,-12.,4.44089209850063E-16));
#1260=VECTOR('',#1261,1.);
#1261=DIRECTION('',(0.,0.,1.));
#1262=CARTESIAN_POINT('',(-59.5,-15.,2.));
#1263=CARTESIAN_POINT('',(-59.5,-15.,4.44089209850063E-16));
#1264=VECTOR('',#1265,1.);
#1265=DIRECTION('',(0.,0.,1.));
#1266=AXIS2_PLACEMENT_3D('',#1267,#1268,#1269);
#1267=CARTESIAN_POINT('',(-59.5,-12.,2.));
#1268=DIRECTION('',(0.,0.,1.));
#1269=DIRECTION('',(-1.,0.,0.));
#1270=CARTESIAN_POINT('',(-62.5,12.,2.));
#1271=CARTESIAN_POINT('',(-62.5,12.,2.));
#1272=VECTOR('',#1273,1.);
#1273=DIRECTION('',(0.,-1.,0.));
#1274=CARTESIAN_POINT('',(-62.5,12.,0.));
#1275=VECTOR('',#1276,1.);
#1276=DIRECTION('',(0.,0.,1.));
#1277=CARTESIAN_POINT('',(-59.5,15.,2.));
#1278=CARTESIAN_POINT('',(-59.5,15.,0.));
#1279=VECTOR('',#1280,1.);
#1280=DIRECTION('',(0.,0.,1.));
#1281=AXIS2_PLACEMENT_3D('',#1282,#1283,#1284);
#1282=CARTESIAN_POINT('',(-59.5,12.,2.));
#1283=DIRECTION('',(0.,0.,1.));
#1284=DIRECTION('',(0.,1.,0.));
#1285=CARTESIAN_POINT('',(59.5,15.,2.));
#1286=CARTESIAN_POINT('',(59.5,15.,0.));
#1287=VECTOR('',#1288,1.);
#1288=DIRECTION('',(0.,0.,1.));
#1289=CARTESIAN_POINT('',(59.5,15.,2.));
#1290=VECTOR('',#1291,1.);
#1291=DIRECTION('',(-1.,1.19418947186571E-16,0.));
#1292=CARTESIAN_POINT('',(62.5,12.,2.));
#1293=CARTESIAN_POINT('',(62.5,12.,0.));
#1294=VECTOR('',#1295,1.);
#1295=DIRECTION('',(0.,0.,1.));
#1296=AXIS2_PLACEMENT_3D('',#1297,#1298,#1299);
#1297=CARTESIAN_POINT('',(59.5,12.,2.));
#1298=DIRECTION('',(0.,0.,1.));
#1299=DIRECTION('',(1.,0.,0.));
#1300=CARTESIAN_POINT('',(62.5,-12.,2.));
#1301=CARTESIAN_POINT('',(62.5,-12.,0.));
#1302=VECTOR('',#1303,1.);
#1303=DIRECTION('',(0.,0.,1.));
#1304=CARTESIAN_POINT('',(62.5,-12.,2.));
#1305=VECTOR('',#1306,1.);
#1306=DIRECTION('',(0.,1.,0.));
#1307=AXIS2_PLACEMENT_3D('',#1308,#1309,#1310);
#1308=CARTESIAN_POINT('',(59.5,-12.,2.));
#1309=DIRECTION('',(0.,0.,1.));
#1310=DIRECTION('',(0.,-1.,0.));
#1311=CARTESIAN_POINT('',(-33.0839202168572,-9.,10.));
#1312=CARTESIAN_POINT('',(-33.8038475772934,-7.,8.));
#1313=CARTESIAN_POINT('',(-33.0839202168782,-9.00000000000354,10.));
#1314=CARTESIAN_POINT('',(-33.0900700492553,-8.96360839264548,10.0000005258703));
#1315=CARTESIAN_POINT('',(-33.1030053560975,-8.89117474481705,9.99801778240083));
#1316=CARTESIAN_POINT('',(-33.1242627034792,-8.78357801750417,9.98922377244793));
#1317=CARTESIAN_POINT('',(-33.1471766203059,-8.6777636727973,9.974822489489));
#1318=CARTESIAN_POINT('',(-33.171599529392,-8.57400425089024,9.95504443181377));
#1319=CARTESIAN_POINT('',(-33.1973560374673,-8.47261585173068,9.93014562194658));
#1320=CARTESIAN_POINT('',(-33.2243635495054,-8.37351036753806,9.9002758826508));
#1321=CARTESIAN_POINT('',(-33.2556939966616,-8.26577408913487,9.86165184321103));
#1322=CARTESIAN_POINT('',(-33.2927795692177,-8.14695828075894,9.81082190531028));
#1323=CARTESIAN_POINT('',(-33.3370057798722,-8.01577733419847,9.7432967236662));
#1324=CARTESIAN_POINT('',(-33.3885009352555,-7.87414990140082,9.65613507072957));
#1325=CARTESIAN_POINT('',(-33.453113426058,-7.70995072794273,9.53402123145056));
#1326=CARTESIAN_POINT('',(-33.5329895353128,-7.52470502982933,9.36033126923051));
#1327=CARTESIAN_POINT('',(-33.61601279377,-7.34980091558386,9.14217958073398));
#1328=CARTESIAN_POINT('',(-33.6837629491,-7.21749143412656,8.91738676135587));
#1329=CARTESIAN_POINT('',(-33.7281431303433,-7.1348438364835,8.72891255843517));
#1330=CARTESIAN_POINT('',(-33.7544642134815,-7.08712041720823,8.58802469310848));
#1331=CARTESIAN_POINT('',(-33.7710686974534,-7.05746399082708,8.47934360501588));
#1332=CARTESIAN_POINT('',(-33.782925318141,-7.03650882475724,8.38442288915743));
#1333=CARTESIAN_POINT('',(-33.7920615220706,-7.02049377380899,8.29069438137547));
#1334=CARTESIAN_POINT('',(-33.7980149280594,-7.01012081562412,8.20624193211128));
#1335=CARTESIAN_POINT('',(-33.8015756763048,-7.00393720805313,8.13117241143927));
#1336=CARTESIAN_POINT('',(-33.8034380139005,-7.00070899692741,8.06527741212186));
#1337=CARTESIAN_POINT('',(-33.8038480220498,-6.99999970967062,8.0216598069121));
#1338=CARTESIAN_POINT('',(-33.8038475772934,-7.,8.));
#1339=CARTESIAN_POINT('',(-33.8038475772932,-7.,2.));
#1340=CARTESIAN_POINT('',(-33.8038475772932,-7.00000000000012,2.));
#1341=VECTOR('',#1342,1.);
#1342=DIRECTION('',(0.,0.,1.));
#1343=CARTESIAN_POINT('',(-45.,-9.99999999999999,2.));
#1344=AXIS2_PLACEMENT_3D('',#1345,#1346,#1347);
#1345=CARTESIAN_POINT('',(-39.,-9.99999999999999,2.));
#1346=DIRECTION('',(0.,0.,1.));
#1347=DIRECTION('',(0.866025403784439,0.5,0.));
#1348=CARTESIAN_POINT('',(-42.3166247903554,-15.,2.));
#1349=AXIS2_PLACEMENT_3D('',#1350,#1351,#1352);
#1350=CARTESIAN_POINT('',(-39.,-9.99999999999999,2.));
#1351=DIRECTION('',(0.,0.,1.));
#1352=DIRECTION('',(-1.,0.,0.));
#1353=CARTESIAN_POINT('',(-42.3166247903554,-15.,0.));
#1354=VECTOR('',#1355,1.);
#1355=DIRECTION('',(0.,0.,1.));
#1356=CARTESIAN_POINT('',(-33.8038475772934,-13.,2.));
#1357=AXIS2_PLACEMENT_3D('',#1358,#1359,#1360);
#1358=CARTESIAN_POINT('',(-39.,-9.99999999999999,2.));
#1359=DIRECTION('',(0.,0.,1.));
#1360=DIRECTION('',(0.552770798392565,-0.833333333333334,0.));
#1361=CARTESIAN_POINT('',(-33.8038475772934,-13.,8.));
#1362=CARTESIAN_POINT('',(-33.8038475772934,-13.,2.));
#1363=VECTOR('',#1364,1.);
#1364=DIRECTION('',(0.,0.,1.));
#1365=CARTESIAN_POINT('',(-33.0839202168572,-11.,10.));
#1366=CARTESIAN_POINT('',(-33.0839202168782,-10.9999999999964,10.));
#1367=CARTESIAN_POINT('',(-33.0900700492553,-11.0363916073545,10.0000005258703));
#1368=CARTESIAN_POINT('',(-33.1030053560975,-11.1088252551829,9.99801778240083));
#1369=CARTESIAN_POINT('',(-33.1242627034792,-11.2164219824958,9.98922377244793));
#1370=CARTESIAN_POINT('',(-33.1471766203059,-11.3222363272027,9.97482248948899));
#1371=CARTESIAN_POINT('',(-33.171599529392,-11.4259957491098,9.95504443181377));
#1372=CARTESIAN_POINT('',(-33.1973560374673,-11.5273841482693,9.93014562194658));
#1373=CARTESIAN_POINT('',(-33.2243635495054,-11.6264896324619,9.90027588265079));
#1374=CARTESIAN_POINT('',(-33.2556939966616,-11.7342259108651,9.86165184321103));
#1375=CARTESIAN_POINT('',(-33.2927795692177,-11.853041719241,9.81082190531028));
#1376=CARTESIAN_POINT('',(-33.3370057798722,-11.9842226658015,9.74329672366621));
#1377=CARTESIAN_POINT('',(-33.3885009352555,-12.1258500985992,9.65613507072956));
#1378=CARTESIAN_POINT('',(-33.453113426058,-12.2900492720573,9.53402123145056));
#1379=CARTESIAN_POINT('',(-33.5329895353128,-12.4752949701707,9.36033126923051));
#1380=CARTESIAN_POINT('',(-33.61601279377,-12.6501990844161,9.14217958073398));
#1381=CARTESIAN_POINT('',(-33.6837629491,-12.7825085658734,8.91738676135586));
#1382=CARTESIAN_POINT('',(-33.7281431303433,-12.8651561635165,8.72891255843518));
#1383=CARTESIAN_POINT('',(-33.7544642134815,-12.9128795827918,8.58802469310847));
#1384=CARTESIAN_POINT('',(-33.7710686974534,-12.9425360091729,8.47934360501588));
#1385=CARTESIAN_POINT('',(-33.782925318141,-12.9634911752428,8.38442288915743));
#1386=CARTESIAN_POINT('',(-33.7920615220706,-12.979506226191,8.29069438137547));
#1387=CARTESIAN_POINT('',(-33.7980149280594,-12.9898791843759,8.20624193211128));
#1388=CARTESIAN_POINT('',(-33.8015756763048,-12.9960627919469,8.13117241143927));
#1389=CARTESIAN_POINT('',(-33.8034380139005,-12.9992910030726,8.06527741212185));
#1390=CARTESIAN_POINT('',(-33.8038480220498,-13.0000002903294,8.0216598069121));
#1391=CARTESIAN_POINT('',(-33.8038475772934,-13.,8.));
#1392=AXIS2_PLACEMENT_3D('',#1393,#1394,#1395);
#1393=CARTESIAN_POINT('',(-39.,-9.99999999999999,10.));
#1394=DIRECTION('',(0.,0.,1.));
#1395=DIRECTION('',(0.986013297183269,-0.166666666666667,0.));
#1396=CARTESIAN_POINT('',(-45.,-9.99999999999999,63.));
#1397=AXIS2_PLACEMENT_3D('',#1398,#1399,#1400);
#1398=CARTESIAN_POINT('',(-39.,-9.99999999999999,63.));
#1399=DIRECTION('',(0.,0.,1.));
#1400=DIRECTION('',(-1.,1.22464679914735E-16,0.));
#1401=CARTESIAN_POINT('',(-59.5,-15.,2.));
#1402=VECTOR('',#1403,1.);
#1403=DIRECTION('',(1.,-1.0337647975022E-16,0.));
#1404=CARTESIAN_POINT('',(49.,-7.00000000000001,2.));
#1405=AXIS2_PLACEMENT_3D('',#1406,#1407,#1408);
#1406=CARTESIAN_POINT('',(51.5,-7.00000000000001,2.));
#1407=DIRECTION('',(0.,0.,1.));
#1408=DIRECTION('',(-1.,1.22464679914735E-16,0.));
#1409=CARTESIAN_POINT('',(49.,6.99999999999999,2.));
#1410=AXIS2_PLACEMENT_3D('',#1411,#1412,#1413);
#1411=CARTESIAN_POINT('',(51.5,6.99999999999999,2.));
#1412=DIRECTION('',(0.,0.,1.));
#1413=DIRECTION('',(-1.,1.22464679914735E-16,0.));
#1414=CARTESIAN_POINT('',(-54.,-6.99999999999998,2.));
#1415=AXIS2_PLACEMENT_3D('',#1416,#1417,#1418);
#1416=CARTESIAN_POINT('',(-51.5,-6.99999999999998,2.));
#1417=DIRECTION('',(0.,0.,1.));
#1418=DIRECTION('',(-1.,1.22464679914735E-16,0.));
#1419=CARTESIAN_POINT('',(-54.,7.00000000000001,2.));
#1420=AXIS2_PLACEMENT_3D('',#1421,#1422,#1423);
#1421=CARTESIAN_POINT('',(-51.5,7.00000000000001,2.));
#1422=DIRECTION('',(0.,0.,1.));
#1423=DIRECTION('',(-1.,1.22464679914735E-16,0.));
#1424=CARTESIAN_POINT('',(-33.8038475772934,-13.,2.));
#1425=VECTOR('',#1426,1.);
#1426=DIRECTION('',(1.,-1.31372385594463E-16,0.));
#1427=CARTESIAN_POINT('',(33.8038475772934,-7.,2.));
#1428=VECTOR('',#1429,1.);
#1429=DIRECTION('',(-1.,1.0509790847557E-16,0.));
#1430=CARTESIAN_POINT('',(2.5,6.,2.));
#1431=AXIS2_PLACEMENT_3D('',#1432,#1433,#1434);
#1432=CARTESIAN_POINT('',(6.,6.,2.));
#1433=DIRECTION('',(0.,0.,1.));
#1434=DIRECTION('',(-1.,1.22464679914735E-16,0.));
#1435=CARTESIAN_POINT('',(-33.5,6.00000000000001,2.));
#1436=AXIS2_PLACEMENT_3D('',#1437,#1438,#1439);
#1437=CARTESIAN_POINT('',(-30.,6.00000000000001,2.));
#1438=DIRECTION('',(0.,0.,1.));
#1439=DIRECTION('',(-1.,1.22464679914735E-16,0.));
#1440=CARTESIAN_POINT('',(-27.5,6.73555739531044E-15,2.));
#1441=AXIS2_PLACEMENT_3D('',#1442,#1443,#1444);
#1442=CARTESIAN_POINT('',(-24.,5.87830463590729E-15,2.));
#1443=DIRECTION('',(0.,0.,1.));
#1444=DIRECTION('',(-1.,1.22464679914735E-16,0.));
#1445=CARTESIAN_POINT('',(38.5,5.99999999999999,2.));
#1446=AXIS2_PLACEMENT_3D('',#1447,#1448,#1449);
#1447=CARTESIAN_POINT('',(42.,5.99999999999999,2.));
#1448=DIRECTION('',(0.,0.,1.));
#1449=DIRECTION('',(-1.,1.22464679914735E-16,0.));
#1450=CARTESIAN_POINT('',(14.5,6.,2.));
#1451=AXIS2_PLACEMENT_3D('',#1452,#1453,#1454);
#1452=CARTESIAN_POINT('',(18.,6.,2.));
#1453=DIRECTION('',(0.,0.,1.));
#1454=DIRECTION('',(-1.,1.22464679914735E-16,0.));
#1455=CARTESIAN_POINT('',(8.5,-6.12323399573677E-16,2.));
#1456=AXIS2_PLACEMENT_3D('',#1457,#1458,#1459);
#1457=CARTESIAN_POINT('',(12.,-1.46957615897682E-15,2.));
#1458=DIRECTION('',(0.,0.,1.));
#1459=DIRECTION('',(-1.,1.22464679914735E-16,0.));
#1460=CARTESIAN_POINT('',(-3.5,8.57252759403147E-16,2.));
#1461=AXIS2_PLACEMENT_3D('',#1462,#1463,#1464);
#1462=CARTESIAN_POINT('',(0.,0.,2.));
#1463=DIRECTION('',(0.,0.,1.));
#1464=DIRECTION('',(-1.,1.22464679914735E-16,0.));
#1465=CARTESIAN_POINT('',(20.5,-2.0818995585505E-15,2.));
#1466=AXIS2_PLACEMENT_3D('',#1467,#1468,#1469);
#1467=CARTESIAN_POINT('',(24.,-2.93915231795365E-15,2.));
#1468=DIRECTION('',(0.,0.,1.));
#1469=DIRECTION('',(-1.,1.22464679914735E-16,0.));
#1470=CARTESIAN_POINT('',(26.5,6.,2.));
#1471=AXIS2_PLACEMENT_3D('',#1472,#1473,#1474);
#1472=CARTESIAN_POINT('',(30.,6.,2.));
#1473=DIRECTION('',(0.,0.,1.));
#1474=DIRECTION('',(-1.,1.22464679914735E-16,0.));
#1475=CARTESIAN_POINT('',(-15.5,3.79640507735679E-15,2.));
#1476=AXIS2_PLACEMENT_3D('',#1477,#1478,#1479);
#1477=CARTESIAN_POINT('',(-12.,2.93915231795365E-15,2.));
#1478=DIRECTION('',(0.,0.,1.));
#1479=DIRECTION('',(-1.,1.22464679914735E-16,0.));
#1480=CARTESIAN_POINT('',(-21.5,6.,2.));
#1481=AXIS2_PLACEMENT_3D('',#1482,#1483,#1484);
#1482=CARTESIAN_POINT('',(-18.,6.,2.));
#1483=DIRECTION('',(0.,0.,1.));
#1484=DIRECTION('',(-1.,1.22464679914735E-16,0.));
#1485=CARTESIAN_POINT('',(-45.5,6.00000000000001,2.));
#1486=AXIS2_PLACEMENT_3D('',#1487,#1488,#1489);
#1487=CARTESIAN_POINT('',(-42.,6.00000000000001,2.));
#1488=DIRECTION('',(0.,0.,1.));
#1489=DIRECTION('',(-1.,1.22464679914735E-16,0.));
#1490=CARTESIAN_POINT('',(-9.5,6.,2.));
#1491=AXIS2_PLACEMENT_3D('',#1492,#1493,#1494);
#1492=CARTESIAN_POINT('',(-6.,6.,2.));
#1493=DIRECTION('',(0.,0.,1.));
#1494=DIRECTION('',(-1.,1.22464679914735E-16,0.));
#1495=CARTESIAN_POINT('',(33.8038475772934,-7.,8.));
#1496=VECTOR('',#1497,1.);
#1497=DIRECTION('',(-1.,7.88234313566776E-17,0.));
#1498=CARTESIAN_POINT('',(33.0839202169004,-9.,10.));
#1499=VECTOR('',#1500,1.);
#1500=DIRECTION('',(-1.,8.05386798672359E-17,0.));
#1501=CARTESIAN_POINT('',(-33.0839202168572,-11.,10.));
#1502=VECTOR('',#1503,1.);
#1503=DIRECTION('',(1.,-1.07384906489648E-16,0.));
#1504=CARTESIAN_POINT('',(35.,-10.,63.));
#1505=AXIS2_PLACEMENT_3D('',#1506,#1507,#1508);
#1506=CARTESIAN_POINT('',(39.,-10.,63.));
#1507=DIRECTION('',(0.,0.,1.));
#1508=DIRECTION('',(-1.,1.22464679914735E-16,0.));
#1509=CARTESIAN_POINT('',(-33.8038475772934,-13.,8.));
#1510=VECTOR('',#1511,1.);
#1511=DIRECTION('',(1.,-1.31372385594463E-16,0.));
#1512=CARTESIAN_POINT('',(-43.,-10.,63.));
#1513=AXIS2_PLACEMENT_3D('',#1514,#1515,#1516);
#1514=CARTESIAN_POINT('',(-39.,-10.,63.));
#1515=DIRECTION('',(0.,0.,1.));
#1516=DIRECTION('',(-1.,1.22464679914735E-16,0.));
#1517=CARTESIAN_POINT('',(3.5,6.,1.));
#1518=AXIS2_PLACEMENT_3D('',#1519,#1520,#1521);
#1519=CARTESIAN_POINT('',(6.,6.,1.));
#1520=DIRECTION('',(0.,0.,1.));
#1521=DIRECTION('',(-1.,1.22464679914735E-16,0.));
#1522=CARTESIAN_POINT('',(-32.5,6.00000000000001,1.));
#1523=AXIS2_PLACEMENT_3D('',#1524,#1525,#1526);
#1524=CARTESIAN_POINT('',(-30.,6.00000000000001,1.));
#1525=DIRECTION('',(0.,0.,1.));
#1526=DIRECTION('',(-1.,1.22464679914735E-16,0.));
#1527=CARTESIAN_POINT('',(-26.5,6.49062803548097E-15,1.));
#1528=AXIS2_PLACEMENT_3D('',#1529,#1530,#1531);
#1529=CARTESIAN_POINT('',(-24.,5.87830463590729E-15,1.));
#1530=DIRECTION('',(0.,0.,1.));
#1531=DIRECTION('',(-1.,1.22464679914735E-16,0.));
#1532=CARTESIAN_POINT('',(39.5,5.99999999999999,1.));
#1533=AXIS2_PLACEMENT_3D('',#1534,#1535,#1536);
#1534=CARTESIAN_POINT('',(42.,5.99999999999999,1.));
#1535=DIRECTION('',(0.,0.,1.));
#1536=DIRECTION('',(-1.,1.22464679914735E-16,0.));
#1537=CARTESIAN_POINT('',(15.5,6.,1.));
#1538=AXIS2_PLACEMENT_3D('',#1539,#1540,#1541);
#1539=CARTESIAN_POINT('',(18.,6.,1.));
#1540=DIRECTION('',(0.,0.,1.));
#1541=DIRECTION('',(-1.,1.22464679914735E-16,0.));
#1542=CARTESIAN_POINT('',(9.5,-8.57252759403148E-16,1.));
#1543=AXIS2_PLACEMENT_3D('',#1544,#1545,#1546);
#1544=CARTESIAN_POINT('',(12.,-1.46957615897682E-15,1.));
#1545=DIRECTION('',(0.,0.,1.));
#1546=DIRECTION('',(-1.,1.22464679914735E-16,0.));
#1547=CARTESIAN_POINT('',(-2.5,6.12323399573677E-16,1.));
#1548=AXIS2_PLACEMENT_3D('',#1549,#1550,#1551);
#1549=CARTESIAN_POINT('',(0.,0.,1.));
#1550=DIRECTION('',(0.,0.,1.));
#1551=DIRECTION('',(-1.,1.22464679914735E-16,0.));
#1552=CARTESIAN_POINT('',(21.5,-2.32682891837997E-15,1.));
#1553=AXIS2_PLACEMENT_3D('',#1554,#1555,#1556);
#1554=CARTESIAN_POINT('',(24.,-2.93915231795365E-15,1.));
#1555=DIRECTION('',(0.,0.,1.));
#1556=DIRECTION('',(-1.,1.22464679914735E-16,0.));
#1557=CARTESIAN_POINT('',(27.5,6.,1.));
#1558=AXIS2_PLACEMENT_3D('',#1559,#1560,#1561);
#1559=CARTESIAN_POINT('',(30.,6.,1.));
#1560=DIRECTION('',(0.,0.,1.));
#1561=DIRECTION('',(-1.,1.22464679914735E-16,0.));
#1562=CARTESIAN_POINT('',(-14.5,3.55147571752732E-15,1.));
#1563=AXIS2_PLACEMENT_3D('',#1564,#1565,#1566);
#1564=CARTESIAN_POINT('',(-12.,2.93915231795365E-15,1.));
#1565=DIRECTION('',(0.,0.,1.));
#1566=DIRECTION('',(-1.,1.22464679914735E-16,0.));
#1567=CARTESIAN_POINT('',(-20.5,6.,1.));
#1568=AXIS2_PLACEMENT_3D('',#1569,#1570,#1571);
#1569=CARTESIAN_POINT('',(-18.,6.,1.));
#1570=DIRECTION('',(0.,0.,1.));
#1571=DIRECTION('',(-1.,1.22464679914735E-16,0.));
#1572=CARTESIAN_POINT('',(-44.5,6.00000000000001,1.));
#1573=AXIS2_PLACEMENT_3D('',#1574,#1575,#1576);
#1574=CARTESIAN_POINT('',(-42.,6.00000000000001,1.));
#1575=DIRECTION('',(0.,0.,1.));
#1576=DIRECTION('',(-1.,1.22464679914735E-16,0.));
#1577=CARTESIAN_POINT('',(-8.5,6.,1.));
#1578=AXIS2_PLACEMENT_3D('',#1579,#1580,#1581);
#1579=CARTESIAN_POINT('',(-6.,6.,1.));
#1580=DIRECTION('',(0.,0.,1.));
#1581=DIRECTION('',(-1.,1.22464679914735E-16,0.));
#1582=CARTESIAN_POINT('',(35.,-10.,70.));
#1583=AXIS2_PLACEMENT_3D('',#1584,#1585,#1586);
#1584=CARTESIAN_POINT('',(39.,-10.,70.));
#1585=DIRECTION('',(0.,0.,-1.));
#1586=DIRECTION('',(-1.,-1.08733826972072E-15,0.));
#1587=CARTESIAN_POINT('',(-43.,-10.,70.));
#1588=AXIS2_PLACEMENT_3D('',#1589,#1590,#1591);
#1589=CARTESIAN_POINT('',(-39.,-10.,70.));
#1590=DIRECTION('',(0.,0.,-1.));
#1591=DIRECTION('',(-1.,-1.08733826972072E-15,0.));
#1592=CARTESIAN_POINT('',(38.6,-10.,90.));
#1593=AXIS2_PLACEMENT_3D('',#1594,#1595,#1596);
#1594=CARTESIAN_POINT('',(39.,-10.,90.));
#1595=DIRECTION('',(0.,0.,-1.));
#1596=DIRECTION('',(-1.,-1.33226762955019E-15,0.));
#1597=CARTESIAN_POINT('',(-39.4,-10.,90.));
#1598=AXIS2_PLACEMENT_3D('',#1599,#1600,#1601);
#1599=CARTESIAN_POINT('',(-39.,-10.,90.));
#1600=DIRECTION('',(0.,0.,-1.));
#1601=DIRECTION('',(-1.,-1.33226762955019E-15,0.));
ENDSEC;
END-ISO-10303-21;
