ISO-10303-21;
HEADER;
FILE_DESCRIPTION(('STEP AP242'),
    '1');
FILE_NAME('itemForwardPlank',
    '',
    ('UNSPECIFIED'),
    ('UNSPECIFIED'),
    'C3D Converter',
    'C3D Toolkit',
    '');
FILE_SCHEMA(('AP242_MANAGED_MODEL_BASED_3D_ENGINEERING_MIM_LF { 1 0 10303 442 1 1 4 }'));
ENDSEC;

DATA;
#1=PRODUCT_DEFINITION('','UNSPECIFIED',#28,#31);
#2=SHAPE_DEFINITION_REPRESENTATION(#26,#3);
#3=SHAPE_REPRESENTATION('NONE',(#4),#8);
#4=AXIS2_PLACEMENT_3D('',#5,#6,#7);
#5=CARTESIAN_POINT('',(0.,0.,0.));
#6=DIRECTION('',(0.,0.,1.));
#7=DIRECTION('',(1.,0.,0.));
#8=(GEOMETRIC_REPRESENTATION_CONTEXT(3)GLOBAL_UNCERTAINTY_ASSIGNED_CONTEXT((#10))
GLOBAL_UNIT_ASSIGNED_CONTEXT((#9,#11,#12))REPRESENTATION_CONTEXT('NONE','NONE'));
#9=(LENGTH_UNIT()NAMED_UNIT(*)SI_UNIT(.MILLI.,.METRE.));
#10=UNCERTAINTY_MEASURE_WITH_UNIT(LENGTH_MEASURE(1.E-5),#9,'NONE','NONE');
#11=(NAMED_UNIT(*)PLANE_ANGLE_UNIT()SI_UNIT($,.RADIAN.));
#12=(NAMED_UNIT(*)SI_UNIT($,.STERADIAN.)SOLID_ANGLE_UNIT());
#13=MANIFOLD_SOLID_BREP('',#14);
#14=CLOSED_SHELL('',(#48,#49,#50,#51,#52,#53,#54,#55,#56,#57,#58,#59,#60,#61,#62,
#63,#64,#65,#66,#67,#68,#69,#70,#71,#72,#73,#74,#75,#76,#77,#78,#79,#80,#81,#82,
#83,#84,#85,#86,#87,#88,#89,#90,#91,#92,#93,#94,#95,#96,#97,#98,#99,#100,#101,#102,
#103,#104,#105,#106,#107,#108,#109,#110,#111,#112,#113,#114,#115,#116,#117,#118,
#119,#120,#121));
#15=COLOUR_RGB('',0.564705882352941,0.564705882352941,0.564705882352941);
#16=FILL_AREA_STYLE_COLOUR('',#15);
#17=FILL_AREA_STYLE($,(#16));
#18=SURFACE_STYLE_FILL_AREA(#17);
#19=SURFACE_SIDE_STYLE('',(#18));
#20=SURFACE_STYLE_USAGE(.BOTH.,#19);
#21=PRESENTATION_STYLE_ASSIGNMENT((#20));
#22=MECHANICAL_DESIGN_GEOMETRIC_PRESENTATION_REPRESENTATION('NONE',(#23),#8);
#23=STYLED_ITEM('',(#21),#13);
#24=ADVANCED_BREP_SHAPE_REPRESENTATION('NONE',(#13),#8);
#25=SHAPE_REPRESENTATION_RELATIONSHIP('','',#3,#24);
#26=PRODUCT_DEFINITION_SHAPE('NONE','NONE',#1);
#27=MECHANICAL_CONTEXT('NONE',#32,'mechanical');
#28=PRODUCT_DEFINITION_FORMATION_WITH_SPECIFIED_SOURCE('ANY','UNSPECIFIED',#29,.NOT_KNOWN.);
#29=PRODUCT('','itemForwardPlank','NONE',(#27));
#30=PRODUCT_RELATED_PRODUCT_CATEGORY('detail','',(#29));
#31=DESIGN_CONTEXT('detailed design',#32,'design');
#32=APPLICATION_CONTEXT('configuration controlled 3d designs of mechanical parts and assemblies');
#33=APPLICATION_PROTOCOL_DEFINITION('international standard','config_control_design',
1994,#32);
#34=CC_DESIGN_DATE_AND_TIME_ASSIGNMENT(#35,#39,(#1));
#35=DATE_AND_TIME(#36,#37);
#36=CALENDAR_DATE(0,1,1);
#37=LOCAL_TIME(0,0,0.,#38);
#38=COORDINATED_UNIVERSAL_TIME_OFFSET(0,0,.AHEAD.);
#39=DATE_TIME_ROLE('creation_date');
#40=CC_DESIGN_APPROVAL(#41,(#1));
#41=APPROVAL(#42,'UNSPECIFIED');
#42=APPROVAL_STATUS('not_yet_approved');
#43=APPROVAL_DATE_TIME(#44,#41);
#44=DATE_AND_TIME(#45,#46);
#45=CALENDAR_DATE(0,1,1);
#46=LOCAL_TIME(0,0,0.,#47);
#47=COORDINATED_UNIVERSAL_TIME_OFFSET(0,0,.AHEAD.);
#48=ADVANCED_FACE('',(#122,#124,#126,#128,#130,#132,#134,#136,#138,#140,#142,#144,
#146,#148,#150,#152,#154,#156,#158,#160,#162,#164,#166,#168,#170,#172,#174,#176,
#178,#180,#182,#184,#186,#188),#190,.T.);
#49=ADVANCED_FACE('',(#195),#197,.T.);
#50=ADVANCED_FACE('',(#202),#204,.T.);
#51=ADVANCED_FACE('',(#209),#211,.T.);
#52=ADVANCED_FACE('',(#216),#218,.T.);
#53=ADVANCED_FACE('',(#223),#225,.T.);
#54=ADVANCED_FACE('',(#230),#232,.T.);
#55=ADVANCED_FACE('',(#237),#239,.T.);
#56=ADVANCED_FACE('',(#244),#246,.T.);
#57=ADVANCED_FACE('',(#251,#253),#255,.F.);
#58=ADVANCED_FACE('',(#260,#262),#264,.F.);
#59=ADVANCED_FACE('',(#269,#271),#273,.F.);
#60=ADVANCED_FACE('',(#278,#280),#282,.F.);
#61=ADVANCED_FACE('',(#287,#289),#291,.T.);
#62=ADVANCED_FACE('',(#296,#298),#300,.T.);
#63=ADVANCED_FACE('',(#305),#307,.T.);
#64=ADVANCED_FACE('',(#312),#314,.T.);
#65=ADVANCED_FACE('',(#319),#321,.T.);
#66=ADVANCED_FACE('',(#326),#328,.T.);
#67=ADVANCED_FACE('',(#333),#335,.T.);
#68=ADVANCED_FACE('',(#340),#342,.T.);
#69=ADVANCED_FACE('',(#347),#349,.T.);
#70=ADVANCED_FACE('',(#354),#356,.T.);
#71=ADVANCED_FACE('',(#361),#363,.T.);
#72=ADVANCED_FACE('',(#368),#370,.T.);
#73=ADVANCED_FACE('',(#375),#377,.T.);
#74=ADVANCED_FACE('',(#382),#384,.T.);
#75=ADVANCED_FACE('',(#389),#391,.T.);
#76=ADVANCED_FACE('',(#396),#398,.T.);
#77=ADVANCED_FACE('',(#403),#405,.T.);
#78=ADVANCED_FACE('',(#410),#412,.T.);
#79=ADVANCED_FACE('',(#417),#419,.T.);
#80=ADVANCED_FACE('',(#424),#426,.T.);
#81=ADVANCED_FACE('',(#431),#433,.T.);
#82=ADVANCED_FACE('',(#438),#440,.T.);
#83=ADVANCED_FACE('',(#445),#447,.T.);
#84=ADVANCED_FACE('',(#452),#454,.T.);
#85=ADVANCED_FACE('',(#459),#461,.T.);
#86=ADVANCED_FACE('',(#466),#468,.T.);
#87=ADVANCED_FACE('',(#473),#475,.T.);
#88=ADVANCED_FACE('',(#480),#482,.T.);
#89=ADVANCED_FACE('',(#487),#489,.T.);
#90=ADVANCED_FACE('',(#494,#496,#498,#500,#502,#504,#506),#508,.F.);
#91=ADVANCED_FACE('',(#513,#515),#517,.T.);
#92=ADVANCED_FACE('',(#522,#524),#526,.T.);
#93=ADVANCED_FACE('',(#531,#533),#535,.F.);
#94=ADVANCED_FACE('',(#540,#542),#544,.F.);
#95=ADVANCED_FACE('',(#549,#551),#553,.F.);
#96=ADVANCED_FACE('',(#558,#560),#562,.F.);
#97=ADVANCED_FACE('',(#567,#569),#571,.F.);
#98=ADVANCED_FACE('',(#576,#578),#580,.F.);
#99=ADVANCED_FACE('',(#585,#587),#589,.F.);
#100=ADVANCED_FACE('',(#594,#596),#598,.F.);
#101=ADVANCED_FACE('',(#603,#605),#607,.F.);
#102=ADVANCED_FACE('',(#612,#614),#616,.F.);
#103=ADVANCED_FACE('',(#621,#623),#625,.F.);
#104=ADVANCED_FACE('',(#630,#632),#634,.F.);
#105=ADVANCED_FACE('',(#639,#641),#643,.F.);
#106=ADVANCED_FACE('',(#648,#650),#652,.F.);
#107=ADVANCED_FACE('',(#657,#659),#661,.F.);
#108=ADVANCED_FACE('',(#666,#668),#670,.F.);
#109=ADVANCED_FACE('',(#675,#677),#679,.F.);
#110=ADVANCED_FACE('',(#684,#686),#688,.F.);
#111=ADVANCED_FACE('',(#693,#695),#697,.F.);
#112=ADVANCED_FACE('',(#702,#704),#706,.F.);
#113=ADVANCED_FACE('',(#711,#713),#715,.F.);
#114=ADVANCED_FACE('',(#720,#722),#724,.F.);
#115=ADVANCED_FACE('',(#729,#731),#733,.F.);
#116=ADVANCED_FACE('',(#738,#740),#742,.F.);
#117=ADVANCED_FACE('',(#747,#749),#751,.F.);
#118=ADVANCED_FACE('',(#756,#758),#760,.F.);
#119=ADVANCED_FACE('',(#765,#767),#769,.F.);
#120=ADVANCED_FACE('',(#774,#776),#778,.F.);
#121=ADVANCED_FACE('',(#783,#785),#787,.F.);
#122=FACE_BOUND('',#123,.T.);
#123=EDGE_LOOP('',(#792,#793,#794,#795,#796,#797,#798,#799));
#124=FACE_BOUND('',#125,.T.);
#125=EDGE_LOOP('',(#800));
#126=FACE_BOUND('',#127,.T.);
#127=EDGE_LOOP('',(#801));
#128=FACE_BOUND('',#129,.T.);
#129=EDGE_LOOP('',(#802));
#130=FACE_BOUND('',#131,.T.);
#131=EDGE_LOOP('',(#803));
#132=FACE_BOUND('',#133,.T.);
#133=EDGE_LOOP('',(#804));
#134=FACE_BOUND('',#135,.T.);
#135=EDGE_LOOP('',(#805));
#136=FACE_BOUND('',#137,.T.);
#137=EDGE_LOOP('',(#806));
#138=FACE_BOUND('',#139,.T.);
#139=EDGE_LOOP('',(#807));
#140=FACE_BOUND('',#141,.T.);
#141=EDGE_LOOP('',(#808));
#142=FACE_BOUND('',#143,.T.);
#143=EDGE_LOOP('',(#809));
#144=FACE_BOUND('',#145,.T.);
#145=EDGE_LOOP('',(#810));
#146=FACE_BOUND('',#147,.T.);
#147=EDGE_LOOP('',(#811));
#148=FACE_BOUND('',#149,.T.);
#149=EDGE_LOOP('',(#812));
#150=FACE_BOUND('',#151,.T.);
#151=EDGE_LOOP('',(#813));
#152=FACE_BOUND('',#153,.T.);
#153=EDGE_LOOP('',(#814));
#154=FACE_BOUND('',#155,.T.);
#155=EDGE_LOOP('',(#815));
#156=FACE_BOUND('',#157,.T.);
#157=EDGE_LOOP('',(#816));
#158=FACE_BOUND('',#159,.T.);
#159=EDGE_LOOP('',(#817));
#160=FACE_BOUND('',#161,.T.);
#161=EDGE_LOOP('',(#818));
#162=FACE_BOUND('',#163,.T.);
#163=EDGE_LOOP('',(#819));
#164=FACE_BOUND('',#165,.T.);
#165=EDGE_LOOP('',(#820));
#166=FACE_BOUND('',#167,.T.);
#167=EDGE_LOOP('',(#821));
#168=FACE_BOUND('',#169,.T.);
#169=EDGE_LOOP('',(#822));
#170=FACE_BOUND('',#171,.T.);
#171=EDGE_LOOP('',(#823));
#172=FACE_BOUND('',#173,.T.);
#173=EDGE_LOOP('',(#824));
#174=FACE_BOUND('',#175,.T.);
#175=EDGE_LOOP('',(#825));
#176=FACE_BOUND('',#177,.T.);
#177=EDGE_LOOP('',(#826));
#178=FACE_BOUND('',#179,.T.);
#179=EDGE_LOOP('',(#827));
#180=FACE_BOUND('',#181,.T.);
#181=EDGE_LOOP('',(#828));
#182=FACE_BOUND('',#183,.T.);
#183=EDGE_LOOP('',(#829));
#184=FACE_BOUND('',#185,.T.);
#185=EDGE_LOOP('',(#830));
#186=FACE_BOUND('',#187,.T.);
#187=EDGE_LOOP('',(#831));
#188=FACE_BOUND('',#189,.T.);
#189=EDGE_LOOP('',(#832));
#190=PLANE('',#191);
#191=AXIS2_PLACEMENT_3D('',#192,#193,#194);
#192=CARTESIAN_POINT('',(0.,0.,2.));
#193=DIRECTION('',(0.,0.,1.));
#194=DIRECTION('',(-1.,1.22464679914735E-16,0.));
#195=FACE_BOUND('',#196,.T.);
#196=EDGE_LOOP('',(#833,#834,#835,#836));
#197=CYLINDRICAL_SURFACE('',#198,3.);
#198=AXIS2_PLACEMENT_3D('',#199,#200,#201);
#199=CARTESIAN_POINT('',(59.5,12.,-12.));
#200=DIRECTION('',(0.,0.,-1.));
#201=DIRECTION('',(0.,1.,0.));
#202=FACE_BOUND('',#203,.T.);
#203=EDGE_LOOP('',(#837,#838,#839,#840));
#204=PLANE('',#205);
#205=AXIS2_PLACEMENT_3D('',#206,#207,#208);
#206=CARTESIAN_POINT('',(62.5,15.,0.));
#207=DIRECTION('',(1.13686837721616E-16,1.,0.));
#208=DIRECTION('',(-1.,1.13686837721616E-16,0.));
#209=FACE_BOUND('',#210,.T.);
#210=EDGE_LOOP('',(#841,#842,#843,#844));
#211=CYLINDRICAL_SURFACE('',#212,3.);
#212=AXIS2_PLACEMENT_3D('',#213,#214,#215);
#213=CARTESIAN_POINT('',(-59.5,12.,-12.));
#214=DIRECTION('',(0.,0.,-1.));
#215=DIRECTION('',(-1.,0.,0.));
#216=FACE_BOUND('',#217,.T.);
#217=EDGE_LOOP('',(#845,#846,#847,#848));
#218=PLANE('',#219);
#219=AXIS2_PLACEMENT_3D('',#220,#221,#222);
#220=CARTESIAN_POINT('',(-62.5,15.,0.));
#221=DIRECTION('',(-1.,0.,0.));
#222=DIRECTION('',(0.,-1.,0.));
#223=FACE_BOUND('',#224,.T.);
#224=EDGE_LOOP('',(#849,#850,#851,#852));
#225=CYLINDRICAL_SURFACE('',#226,3.);
#226=AXIS2_PLACEMENT_3D('',#227,#228,#229);
#227=CARTESIAN_POINT('',(-59.5,-12.,-12.));
#228=DIRECTION('',(0.,0.,-1.));
#229=DIRECTION('',(0.,-1.,0.));
#230=FACE_BOUND('',#231,.T.);
#231=EDGE_LOOP('',(#853,#854,#855,#856));
#232=PLANE('',#233);
#233=AXIS2_PLACEMENT_3D('',#234,#235,#236);
#234=CARTESIAN_POINT('',(-62.5,-15.,0.));
#235=DIRECTION('',(-1.13686837721616E-16,-1.,0.));
#236=DIRECTION('',(1.,-1.13686837721616E-16,0.));
#237=FACE_BOUND('',#238,.T.);
#238=EDGE_LOOP('',(#857,#858,#859,#860));
#239=CYLINDRICAL_SURFACE('',#240,3.);
#240=AXIS2_PLACEMENT_3D('',#241,#242,#243);
#241=CARTESIAN_POINT('',(59.5,-12.,-12.));
#242=DIRECTION('',(0.,0.,-1.));
#243=DIRECTION('',(1.,0.,0.));
#244=FACE_BOUND('',#245,.T.);
#245=EDGE_LOOP('',(#861,#862,#863,#864));
#246=PLANE('',#247);
#247=AXIS2_PLACEMENT_3D('',#248,#249,#250);
#248=CARTESIAN_POINT('',(62.5,-15.,0.));
#249=DIRECTION('',(1.,0.,0.));
#250=DIRECTION('',(0.,1.,0.));
#251=FACE_OUTER_BOUND('',#252,.T.);
#252=EDGE_LOOP('',(#865));
#253=FACE_OUTER_BOUND('',#254,.T.);
#254=EDGE_LOOP('',(#866));
#255=CYLINDRICAL_SURFACE('',#256,2.5);
#256=AXIS2_PLACEMENT_3D('',#257,#258,#259);
#257=CARTESIAN_POINT('',(-51.5,7.00000000000001,0.));
#258=DIRECTION('',(0.,0.,1.));
#259=DIRECTION('',(-1.,1.22464679914735E-16,0.));
#260=FACE_OUTER_BOUND('',#261,.T.);
#261=EDGE_LOOP('',(#867));
#262=FACE_OUTER_BOUND('',#263,.T.);
#263=EDGE_LOOP('',(#868));
#264=CYLINDRICAL_SURFACE('',#265,2.5);
#265=AXIS2_PLACEMENT_3D('',#266,#267,#268);
#266=CARTESIAN_POINT('',(-51.5,-6.99999999999998,0.));
#267=DIRECTION('',(0.,0.,1.));
#268=DIRECTION('',(-1.,1.22464679914735E-16,0.));
#269=FACE_OUTER_BOUND('',#270,.T.);
#270=EDGE_LOOP('',(#869));
#271=FACE_OUTER_BOUND('',#272,.T.);
#272=EDGE_LOOP('',(#870));
#273=CYLINDRICAL_SURFACE('',#274,2.5);
#274=AXIS2_PLACEMENT_3D('',#275,#276,#277);
#275=CARTESIAN_POINT('',(51.5,6.99999999999999,0.));
#276=DIRECTION('',(0.,0.,1.));
#277=DIRECTION('',(-1.,1.22464679914735E-16,0.));
#278=FACE_OUTER_BOUND('',#279,.T.);
#279=EDGE_LOOP('',(#871));
#280=FACE_OUTER_BOUND('',#281,.T.);
#281=EDGE_LOOP('',(#872));
#282=CYLINDRICAL_SURFACE('',#283,2.5);
#283=AXIS2_PLACEMENT_3D('',#284,#285,#286);
#284=CARTESIAN_POINT('',(51.5,-7.00000000000001,0.));
#285=DIRECTION('',(0.,0.,1.));
#286=DIRECTION('',(-1.,1.22464679914735E-16,0.));
#287=FACE_OUTER_BOUND('',#288,.T.);
#288=EDGE_LOOP('',(#873));
#289=FACE_OUTER_BOUND('',#290,.T.);
#290=EDGE_LOOP('',(#874));
#291=CYLINDRICAL_SURFACE('',#292,7.5);
#292=AXIS2_PLACEMENT_3D('',#293,#294,#295);
#293=CARTESIAN_POINT('',(-36.,7.997508296957E-15,2.));
#294=DIRECTION('',(0.,0.,1.));
#295=DIRECTION('',(-1.,1.22464679914735E-16,0.));
#296=FACE_OUTER_BOUND('',#297,.T.);
#297=EDGE_LOOP('',(#875));
#298=FACE_OUTER_BOUND('',#299,.T.);
#299=EDGE_LOOP('',(#876));
#300=CYLINDRICAL_SURFACE('',#301,7.5);
#301=AXIS2_PLACEMENT_3D('',#302,#303,#304);
#302=CARTESIAN_POINT('',(36.,-5.22867713383441E-15,2.));
#303=DIRECTION('',(0.,0.,1.));
#304=DIRECTION('',(-1.,1.22464679914735E-16,0.));
#305=FACE_BOUND('',#306,.T.);
#306=EDGE_LOOP('',(#877));
#307=PLANE('',#308);
#308=AXIS2_PLACEMENT_3D('',#309,#310,#311);
#309=CARTESIAN_POINT('',(0.,0.,1.));
#310=DIRECTION('',(0.,0.,1.));
#311=DIRECTION('',(-1.,1.22464679914735E-16,0.));
#312=FACE_BOUND('',#313,.T.);
#313=EDGE_LOOP('',(#878));
#314=PLANE('',#315);
#315=AXIS2_PLACEMENT_3D('',#316,#317,#318);
#316=CARTESIAN_POINT('',(0.,0.,1.));
#317=DIRECTION('',(0.,0.,1.));
#318=DIRECTION('',(-1.,1.22464679914735E-16,0.));
#319=FACE_BOUND('',#320,.T.);
#320=EDGE_LOOP('',(#879));
#321=PLANE('',#322);
#322=AXIS2_PLACEMENT_3D('',#323,#324,#325);
#323=CARTESIAN_POINT('',(0.,0.,1.));
#324=DIRECTION('',(0.,0.,1.));
#325=DIRECTION('',(-1.,1.22464679914735E-16,0.));
#326=FACE_BOUND('',#327,.T.);
#327=EDGE_LOOP('',(#880));
#328=PLANE('',#329);
#329=AXIS2_PLACEMENT_3D('',#330,#331,#332);
#330=CARTESIAN_POINT('',(0.,0.,1.));
#331=DIRECTION('',(0.,0.,1.));
#332=DIRECTION('',(-1.,1.22464679914735E-16,0.));
#333=FACE_BOUND('',#334,.T.);
#334=EDGE_LOOP('',(#881));
#335=PLANE('',#336);
#336=AXIS2_PLACEMENT_3D('',#337,#338,#339);
#337=CARTESIAN_POINT('',(0.,0.,1.));
#338=DIRECTION('',(0.,0.,1.));
#339=DIRECTION('',(-1.,1.22464679914735E-16,0.));
#340=FACE_BOUND('',#341,.T.);
#341=EDGE_LOOP('',(#882));
#342=PLANE('',#343);
#343=AXIS2_PLACEMENT_3D('',#344,#345,#346);
#344=CARTESIAN_POINT('',(0.,0.,1.));
#345=DIRECTION('',(0.,0.,1.));
#346=DIRECTION('',(-1.,1.22464679914735E-16,0.));
#347=FACE_BOUND('',#348,.T.);
#348=EDGE_LOOP('',(#883));
#349=PLANE('',#350);
#350=AXIS2_PLACEMENT_3D('',#351,#352,#353);
#351=CARTESIAN_POINT('',(0.,0.,1.));
#352=DIRECTION('',(0.,0.,1.));
#353=DIRECTION('',(-1.,1.22464679914735E-16,0.));
#354=FACE_BOUND('',#355,.T.);
#355=EDGE_LOOP('',(#884));
#356=PLANE('',#357);
#357=AXIS2_PLACEMENT_3D('',#358,#359,#360);
#358=CARTESIAN_POINT('',(0.,0.,1.));
#359=DIRECTION('',(0.,0.,1.));
#360=DIRECTION('',(-1.,1.22464679914735E-16,0.));
#361=FACE_BOUND('',#362,.T.);
#362=EDGE_LOOP('',(#885));
#363=PLANE('',#364);
#364=AXIS2_PLACEMENT_3D('',#365,#366,#367);
#365=CARTESIAN_POINT('',(0.,0.,1.));
#366=DIRECTION('',(0.,0.,1.));
#367=DIRECTION('',(-1.,1.22464679914735E-16,0.));
#368=FACE_BOUND('',#369,.T.);
#369=EDGE_LOOP('',(#886));
#370=PLANE('',#371);
#371=AXIS2_PLACEMENT_3D('',#372,#373,#374);
#372=CARTESIAN_POINT('',(0.,0.,1.));
#373=DIRECTION('',(0.,0.,1.));
#374=DIRECTION('',(-1.,1.22464679914735E-16,0.));
#375=FACE_BOUND('',#376,.T.);
#376=EDGE_LOOP('',(#887));
#377=PLANE('',#378);
#378=AXIS2_PLACEMENT_3D('',#379,#380,#381);
#379=CARTESIAN_POINT('',(0.,0.,1.));
#380=DIRECTION('',(0.,0.,1.));
#381=DIRECTION('',(-1.,1.22464679914735E-16,0.));
#382=FACE_BOUND('',#383,.T.);
#383=EDGE_LOOP('',(#888));
#384=PLANE('',#385);
#385=AXIS2_PLACEMENT_3D('',#386,#387,#388);
#386=CARTESIAN_POINT('',(0.,0.,1.));
#387=DIRECTION('',(0.,0.,1.));
#388=DIRECTION('',(-1.,1.22464679914735E-16,0.));
#389=FACE_BOUND('',#390,.T.);
#390=EDGE_LOOP('',(#889));
#391=PLANE('',#392);
#392=AXIS2_PLACEMENT_3D('',#393,#394,#395);
#393=CARTESIAN_POINT('',(0.,0.,1.));
#394=DIRECTION('',(0.,0.,1.));
#395=DIRECTION('',(-1.,1.22464679914735E-16,0.));
#396=FACE_BOUND('',#397,.T.);
#397=EDGE_LOOP('',(#890));
#398=PLANE('',#399);
#399=AXIS2_PLACEMENT_3D('',#400,#401,#402);
#400=CARTESIAN_POINT('',(0.,0.,1.));
#401=DIRECTION('',(0.,0.,1.));
#402=DIRECTION('',(-1.,1.22464679914735E-16,0.));
#403=FACE_BOUND('',#404,.T.);
#404=EDGE_LOOP('',(#891));
#405=PLANE('',#406);
#406=AXIS2_PLACEMENT_3D('',#407,#408,#409);
#407=CARTESIAN_POINT('',(0.,0.,1.));
#408=DIRECTION('',(0.,0.,1.));
#409=DIRECTION('',(-1.,1.22464679914735E-16,0.));
#410=FACE_BOUND('',#411,.T.);
#411=EDGE_LOOP('',(#892));
#412=PLANE('',#413);
#413=AXIS2_PLACEMENT_3D('',#414,#415,#416);
#414=CARTESIAN_POINT('',(0.,0.,1.));
#415=DIRECTION('',(0.,0.,1.));
#416=DIRECTION('',(-1.,1.22464679914735E-16,0.));
#417=FACE_BOUND('',#418,.T.);
#418=EDGE_LOOP('',(#893));
#419=PLANE('',#420);
#420=AXIS2_PLACEMENT_3D('',#421,#422,#423);
#421=CARTESIAN_POINT('',(0.,0.,1.));
#422=DIRECTION('',(0.,0.,1.));
#423=DIRECTION('',(-1.,1.22464679914735E-16,0.));
#424=FACE_BOUND('',#425,.T.);
#425=EDGE_LOOP('',(#894));
#426=PLANE('',#427);
#427=AXIS2_PLACEMENT_3D('',#428,#429,#430);
#428=CARTESIAN_POINT('',(0.,0.,1.));
#429=DIRECTION('',(0.,0.,1.));
#430=DIRECTION('',(-1.,1.22464679914735E-16,0.));
#431=FACE_BOUND('',#432,.T.);
#432=EDGE_LOOP('',(#895));
#433=PLANE('',#434);
#434=AXIS2_PLACEMENT_3D('',#435,#436,#437);
#435=CARTESIAN_POINT('',(0.,0.,1.));
#436=DIRECTION('',(0.,0.,1.));
#437=DIRECTION('',(-1.,1.22464679914735E-16,0.));
#438=FACE_BOUND('',#439,.T.);
#439=EDGE_LOOP('',(#896));
#440=PLANE('',#441);
#441=AXIS2_PLACEMENT_3D('',#442,#443,#444);
#442=CARTESIAN_POINT('',(0.,0.,1.));
#443=DIRECTION('',(0.,0.,1.));
#444=DIRECTION('',(-1.,1.22464679914735E-16,0.));
#445=FACE_BOUND('',#446,.T.);
#446=EDGE_LOOP('',(#897));
#447=PLANE('',#448);
#448=AXIS2_PLACEMENT_3D('',#449,#450,#451);
#449=CARTESIAN_POINT('',(0.,0.,1.));
#450=DIRECTION('',(0.,0.,1.));
#451=DIRECTION('',(-1.,1.22464679914735E-16,0.));
#452=FACE_BOUND('',#453,.T.);
#453=EDGE_LOOP('',(#898));
#454=PLANE('',#455);
#455=AXIS2_PLACEMENT_3D('',#456,#457,#458);
#456=CARTESIAN_POINT('',(0.,0.,1.));
#457=DIRECTION('',(0.,0.,1.));
#458=DIRECTION('',(-1.,1.22464679914735E-16,0.));
#459=FACE_BOUND('',#460,.T.);
#460=EDGE_LOOP('',(#899));
#461=PLANE('',#462);
#462=AXIS2_PLACEMENT_3D('',#463,#464,#465);
#463=CARTESIAN_POINT('',(0.,0.,1.));
#464=DIRECTION('',(0.,0.,1.));
#465=DIRECTION('',(-1.,1.22464679914735E-16,0.));
#466=FACE_BOUND('',#467,.T.);
#467=EDGE_LOOP('',(#900));
#468=PLANE('',#469);
#469=AXIS2_PLACEMENT_3D('',#470,#471,#472);
#470=CARTESIAN_POINT('',(0.,0.,1.));
#471=DIRECTION('',(0.,0.,1.));
#472=DIRECTION('',(-1.,1.22464679914735E-16,0.));
#473=FACE_BOUND('',#474,.T.);
#474=EDGE_LOOP('',(#901));
#475=PLANE('',#476);
#476=AXIS2_PLACEMENT_3D('',#477,#478,#479);
#477=CARTESIAN_POINT('',(0.,0.,1.));
#478=DIRECTION('',(0.,0.,1.));
#479=DIRECTION('',(-1.,1.22464679914735E-16,0.));
#480=FACE_BOUND('',#481,.T.);
#481=EDGE_LOOP('',(#902));
#482=PLANE('',#483);
#483=AXIS2_PLACEMENT_3D('',#484,#485,#486);
#484=CARTESIAN_POINT('',(0.,0.,1.));
#485=DIRECTION('',(0.,0.,1.));
#486=DIRECTION('',(-1.,1.22464679914735E-16,0.));
#487=FACE_BOUND('',#488,.T.);
#488=EDGE_LOOP('',(#903));
#489=PLANE('',#490);
#490=AXIS2_PLACEMENT_3D('',#491,#492,#493);
#491=CARTESIAN_POINT('',(0.,0.,1.));
#492=DIRECTION('',(0.,0.,1.));
#493=DIRECTION('',(-1.,1.22464679914735E-16,0.));
#494=FACE_BOUND('',#495,.T.);
#495=EDGE_LOOP('',(#904,#905,#906,#907,#908,#909,#910,#911));
#496=FACE_BOUND('',#497,.T.);
#497=EDGE_LOOP('',(#912));
#498=FACE_BOUND('',#499,.T.);
#499=EDGE_LOOP('',(#913));
#500=FACE_BOUND('',#501,.T.);
#501=EDGE_LOOP('',(#914));
#502=FACE_BOUND('',#503,.T.);
#503=EDGE_LOOP('',(#915));
#504=FACE_BOUND('',#505,.T.);
#505=EDGE_LOOP('',(#916));
#506=FACE_BOUND('',#507,.T.);
#507=EDGE_LOOP('',(#917));
#508=PLANE('',#509);
#509=AXIS2_PLACEMENT_3D('',#510,#511,#512);
#510=CARTESIAN_POINT('',(0.,0.,0.));
#511=DIRECTION('',(0.,0.,1.));
#512=DIRECTION('',(-1.,1.22464679914735E-16,0.));
#513=FACE_BOUND('',#514,.T.);
#514=EDGE_LOOP('',(#918));
#515=FACE_BOUND('',#516,.T.);
#516=EDGE_LOOP('',(#919));
#517=PLANE('',#518);
#518=AXIS2_PLACEMENT_3D('',#519,#520,#521);
#519=CARTESIAN_POINT('',(0.,0.,5.));
#520=DIRECTION('',(0.,0.,1.));
#521=DIRECTION('',(-1.,1.22464679914735E-16,0.));
#522=FACE_BOUND('',#523,.T.);
#523=EDGE_LOOP('',(#920));
#524=FACE_BOUND('',#525,.T.);
#525=EDGE_LOOP('',(#921));
#526=PLANE('',#527);
#527=AXIS2_PLACEMENT_3D('',#528,#529,#530);
#528=CARTESIAN_POINT('',(0.,0.,5.));
#529=DIRECTION('',(0.,0.,1.));
#530=DIRECTION('',(-1.,1.22464679914735E-16,0.));
#531=FACE_OUTER_BOUND('',#532,.T.);
#532=EDGE_LOOP('',(#922));
#533=FACE_OUTER_BOUND('',#534,.T.);
#534=EDGE_LOOP('',(#923));
#535=CYLINDRICAL_SURFACE('',#536,4.);
#536=AXIS2_PLACEMENT_3D('',#537,#538,#539);
#537=CARTESIAN_POINT('',(36.,-5.22867713383441E-15,0.));
#538=DIRECTION('',(0.,0.,1.));
#539=DIRECTION('',(-1.,1.22464679914735E-16,0.));
#540=FACE_OUTER_BOUND('',#541,.T.);
#541=EDGE_LOOP('',(#924));
#542=FACE_OUTER_BOUND('',#543,.T.);
#543=EDGE_LOOP('',(#925));
#544=CYLINDRICAL_SURFACE('',#545,4.);
#545=AXIS2_PLACEMENT_3D('',#546,#547,#548);
#546=CARTESIAN_POINT('',(-36.,7.997508296957E-15,0.));
#547=DIRECTION('',(0.,0.,1.));
#548=DIRECTION('',(-1.,1.22464679914735E-16,0.));
#549=FACE_OUTER_BOUND('',#550,.T.);
#550=EDGE_LOOP('',(#926));
#551=FACE_OUTER_BOUND('',#552,.T.);
#552=EDGE_LOOP('',(#927));
#553=CONICAL_SURFACE('',#554,3.,0.785398163397448);
#554=AXIS2_PLACEMENT_3D('',#555,#556,#557);
#555=CARTESIAN_POINT('',(-15.,-5.,1.5));
#556=DIRECTION('',(0.,0.,1.));
#557=DIRECTION('',(-1.,2.96059473233375E-16,0.));
#558=FACE_OUTER_BOUND('',#559,.T.);
#559=EDGE_LOOP('',(#928));
#560=FACE_OUTER_BOUND('',#561,.T.);
#561=EDGE_LOOP('',(#929));
#562=CONICAL_SURFACE('',#563,3.,0.785398163397448);
#563=AXIS2_PLACEMENT_3D('',#564,#565,#566);
#564=CARTESIAN_POINT('',(0.,0.,1.5));
#565=DIRECTION('',(0.,0.,1.));
#566=DIRECTION('',(-1.,1.22464679914735E-16,0.));
#567=FACE_OUTER_BOUND('',#568,.T.);
#568=EDGE_LOOP('',(#930));
#569=FACE_OUTER_BOUND('',#570,.T.);
#570=EDGE_LOOP('',(#931));
#571=CONICAL_SURFACE('',#572,3.,0.785398163397448);
#572=AXIS2_PLACEMENT_3D('',#573,#574,#575);
#573=CARTESIAN_POINT('',(10.,-1.22464679914735E-15,1.5));
#574=DIRECTION('',(0.,0.,1.));
#575=DIRECTION('',(-1.,1.22464679914735E-16,0.));
#576=FACE_OUTER_BOUND('',#577,.T.);
#577=EDGE_LOOP('',(#932));
#578=FACE_OUTER_BOUND('',#579,.T.);
#579=EDGE_LOOP('',(#933));
#580=CONICAL_SURFACE('',#581,3.,0.785398163397448);
#581=AXIS2_PLACEMENT_3D('',#582,#583,#584);
#582=CARTESIAN_POINT('',(20.,-2.44929359829471E-15,1.5));
#583=DIRECTION('',(0.,0.,1.));
#584=DIRECTION('',(-1.,1.22464679914735E-16,0.));
#585=FACE_OUTER_BOUND('',#586,.T.);
#586=EDGE_LOOP('',(#934));
#587=FACE_OUTER_BOUND('',#588,.T.);
#588=EDGE_LOOP('',(#935));
#589=CONICAL_SURFACE('',#590,3.,0.785398163397448);
#590=AXIS2_PLACEMENT_3D('',#591,#592,#593);
#591=CARTESIAN_POINT('',(25.,-5.,1.5));
#592=DIRECTION('',(0.,0.,1.));
#593=DIRECTION('',(-1.,0.,0.));
#594=FACE_OUTER_BOUND('',#595,.T.);
#595=EDGE_LOOP('',(#936));
#596=FACE_OUTER_BOUND('',#597,.T.);
#597=EDGE_LOOP('',(#937));
#598=CONICAL_SURFACE('',#599,3.,0.785398163397448);
#599=AXIS2_PLACEMENT_3D('',#600,#601,#602);
#600=CARTESIAN_POINT('',(15.,-5.,1.5));
#601=DIRECTION('',(0.,0.,1.));
#602=DIRECTION('',(-1.,0.,0.));
#603=FACE_OUTER_BOUND('',#604,.T.);
#604=EDGE_LOOP('',(#938));
#605=FACE_OUTER_BOUND('',#606,.T.);
#606=EDGE_LOOP('',(#939));
#607=CONICAL_SURFACE('',#608,3.,0.785398163397448);
#608=AXIS2_PLACEMENT_3D('',#609,#610,#611);
#609=CARTESIAN_POINT('',(5.,-5.,1.5));
#610=DIRECTION('',(0.,0.,1.));
#611=DIRECTION('',(-1.,2.96059473233375E-16,0.));
#612=FACE_OUTER_BOUND('',#613,.T.);
#613=EDGE_LOOP('',(#940));
#614=FACE_OUTER_BOUND('',#615,.T.);
#615=EDGE_LOOP('',(#941));
#616=CONICAL_SURFACE('',#617,3.,0.785398163397448);
#617=AXIS2_PLACEMENT_3D('',#618,#619,#620);
#618=CARTESIAN_POINT('',(4.6759294539109E-16,-10.,1.5));
#619=DIRECTION('',(0.,0.,1.));
#620=DIRECTION('',(-1.,0.,0.));
#621=FACE_OUTER_BOUND('',#622,.T.);
#622=EDGE_LOOP('',(#942));
#623=FACE_OUTER_BOUND('',#624,.T.);
#624=EDGE_LOOP('',(#943));
#625=CONICAL_SURFACE('',#626,3.,0.785398163397448);
#626=AXIS2_PLACEMENT_3D('',#627,#628,#629);
#627=CARTESIAN_POINT('',(10.,-10.,1.5));
#628=DIRECTION('',(0.,0.,1.));
#629=DIRECTION('',(-1.,5.9211894646675E-16,0.));
#630=FACE_OUTER_BOUND('',#631,.T.);
#631=EDGE_LOOP('',(#944));
#632=FACE_OUTER_BOUND('',#633,.T.);
#633=EDGE_LOOP('',(#945));
#634=CONICAL_SURFACE('',#635,3.,0.785398163397448);
#635=AXIS2_PLACEMENT_3D('',#636,#637,#638);
#636=CARTESIAN_POINT('',(20.,-10.,1.5));
#637=DIRECTION('',(0.,0.,1.));
#638=DIRECTION('',(-1.,0.,0.));
#639=FACE_OUTER_BOUND('',#640,.T.);
#640=EDGE_LOOP('',(#946));
#641=FACE_OUTER_BOUND('',#642,.T.);
#642=EDGE_LOOP('',(#947));
#643=CONICAL_SURFACE('',#644,3.,0.785398163397448);
#644=AXIS2_PLACEMENT_3D('',#645,#646,#647);
#645=CARTESIAN_POINT('',(25.,5.,1.5));
#646=DIRECTION('',(0.,0.,1.));
#647=DIRECTION('',(-1.,0.,0.));
#648=FACE_OUTER_BOUND('',#649,.T.);
#649=EDGE_LOOP('',(#948));
#650=FACE_OUTER_BOUND('',#651,.T.);
#651=EDGE_LOOP('',(#949));
#652=CONICAL_SURFACE('',#653,3.,0.785398163397448);
#653=AXIS2_PLACEMENT_3D('',#654,#655,#656);
#654=CARTESIAN_POINT('',(15.,5.,1.5));
#655=DIRECTION('',(0.,0.,1.));
#656=DIRECTION('',(-1.,0.,0.));
#657=FACE_OUTER_BOUND('',#658,.T.);
#658=EDGE_LOOP('',(#950));
#659=FACE_OUTER_BOUND('',#660,.T.);
#660=EDGE_LOOP('',(#951));
#661=CONICAL_SURFACE('',#662,3.,0.785398163397448);
#662=AXIS2_PLACEMENT_3D('',#663,#664,#665);
#663=CARTESIAN_POINT('',(5.,5.,1.5));
#664=DIRECTION('',(0.,0.,1.));
#665=DIRECTION('',(-1.,2.96059473233375E-16,0.));
#666=FACE_OUTER_BOUND('',#667,.T.);
#667=EDGE_LOOP('',(#952));
#668=FACE_OUTER_BOUND('',#669,.T.);
#669=EDGE_LOOP('',(#953));
#670=CONICAL_SURFACE('',#671,3.,0.785398163397448);
#671=AXIS2_PLACEMENT_3D('',#672,#673,#674);
#672=CARTESIAN_POINT('',(2.9168865436858E-15,10.,1.5));
#673=DIRECTION('',(0.,0.,1.));
#674=DIRECTION('',(-1.,0.,0.));
#675=FACE_OUTER_BOUND('',#676,.T.);
#676=EDGE_LOOP('',(#954));
#677=FACE_OUTER_BOUND('',#678,.T.);
#678=EDGE_LOOP('',(#955));
#679=CONICAL_SURFACE('',#680,3.,0.785398163397448);
#680=AXIS2_PLACEMENT_3D('',#681,#682,#683);
#681=CARTESIAN_POINT('',(10.,10.,1.5));
#682=DIRECTION('',(0.,0.,1.));
#683=DIRECTION('',(-1.,5.9211894646675E-16,0.));
#684=FACE_OUTER_BOUND('',#685,.T.);
#685=EDGE_LOOP('',(#956));
#686=FACE_OUTER_BOUND('',#687,.T.);
#687=EDGE_LOOP('',(#957));
#688=CONICAL_SURFACE('',#689,3.,0.785398163397448);
#689=AXIS2_PLACEMENT_3D('',#690,#691,#692);
#690=CARTESIAN_POINT('',(20.,10.,1.5));
#691=DIRECTION('',(0.,0.,1.));
#692=DIRECTION('',(-1.,0.,0.));
#693=FACE_OUTER_BOUND('',#694,.T.);
#694=EDGE_LOOP('',(#958));
#695=FACE_OUTER_BOUND('',#696,.T.);
#696=EDGE_LOOP('',(#959));
#697=CONICAL_SURFACE('',#698,3.,0.785398163397448);
#698=AXIS2_PLACEMENT_3D('',#699,#700,#701);
#699=CARTESIAN_POINT('',(-10.,-1.99159850020592E-15,1.5));
#700=DIRECTION('',(0.,0.,1.));
#701=DIRECTION('',(-1.,1.22464679914735E-16,0.));
#702=FACE_OUTER_BOUND('',#703,.T.);
#703=EDGE_LOOP('',(#960));
#704=FACE_OUTER_BOUND('',#705,.T.);
#705=EDGE_LOOP('',(#961));
#706=CONICAL_SURFACE('',#707,3.,0.785398163397448);
#707=AXIS2_PLACEMENT_3D('',#708,#709,#710);
#708=CARTESIAN_POINT('',(-20.,-3.98319700041184E-15,1.5));
#709=DIRECTION('',(0.,0.,1.));
#710=DIRECTION('',(-1.,1.22464679914735E-16,0.));
#711=FACE_OUTER_BOUND('',#712,.T.);
#712=EDGE_LOOP('',(#962));
#713=FACE_OUTER_BOUND('',#714,.T.);
#714=EDGE_LOOP('',(#963));
#715=CONICAL_SURFACE('',#716,3.,0.785398163397448);
#716=AXIS2_PLACEMENT_3D('',#717,#718,#719);
#717=CARTESIAN_POINT('',(-25.,-5.00000000000001,1.5));
#718=DIRECTION('',(0.,0.,1.));
#719=DIRECTION('',(-1.,0.,0.));
#720=FACE_OUTER_BOUND('',#721,.T.);
#721=EDGE_LOOP('',(#964));
#722=FACE_OUTER_BOUND('',#723,.T.);
#723=EDGE_LOOP('',(#965));
#724=CONICAL_SURFACE('',#725,3.,0.785398163397448);
#725=AXIS2_PLACEMENT_3D('',#726,#727,#728);
#726=CARTESIAN_POINT('',(-5.,-5.,1.5));
#727=DIRECTION('',(0.,0.,1.));
#728=DIRECTION('',(-1.,0.,0.));
#729=FACE_OUTER_BOUND('',#730,.T.);
#730=EDGE_LOOP('',(#966));
#731=FACE_OUTER_BOUND('',#732,.T.);
#732=EDGE_LOOP('',(#967));
#733=CONICAL_SURFACE('',#734,3.,0.785398163397448);
#734=AXIS2_PLACEMENT_3D('',#735,#736,#737);
#735=CARTESIAN_POINT('',(-10.,-10.,1.5));
#736=DIRECTION('',(0.,0.,1.));
#737=DIRECTION('',(-1.,0.,0.));
#738=FACE_OUTER_BOUND('',#739,.T.);
#739=EDGE_LOOP('',(#968));
#740=FACE_OUTER_BOUND('',#741,.T.);
#741=EDGE_LOOP('',(#969));
#742=CONICAL_SURFACE('',#743,3.,0.785398163397448);
#743=AXIS2_PLACEMENT_3D('',#744,#745,#746);
#744=CARTESIAN_POINT('',(-20.,-10.,1.5));
#745=DIRECTION('',(0.,0.,1.));
#746=DIRECTION('',(-1.,5.9211894646675E-16,0.));
#747=FACE_OUTER_BOUND('',#748,.T.);
#748=EDGE_LOOP('',(#970));
#749=FACE_OUTER_BOUND('',#750,.T.);
#750=EDGE_LOOP('',(#971));
#751=CONICAL_SURFACE('',#752,3.,0.785398163397448);
#752=AXIS2_PLACEMENT_3D('',#753,#754,#755);
#753=CARTESIAN_POINT('',(-25.,4.99999999999999,1.5));
#754=DIRECTION('',(0.,0.,1.));
#755=DIRECTION('',(-1.,0.,0.));
#756=FACE_OUTER_BOUND('',#757,.T.);
#757=EDGE_LOOP('',(#972));
#758=FACE_OUTER_BOUND('',#759,.T.);
#759=EDGE_LOOP('',(#973));
#760=CONICAL_SURFACE('',#761,3.,0.785398163397448);
#761=AXIS2_PLACEMENT_3D('',#762,#763,#764);
#762=CARTESIAN_POINT('',(-5.,5.,1.5));
#763=DIRECTION('',(0.,0.,1.));
#764=DIRECTION('',(-1.,0.,0.));
#765=FACE_OUTER_BOUND('',#766,.T.);
#766=EDGE_LOOP('',(#974));
#767=FACE_OUTER_BOUND('',#768,.T.);
#768=EDGE_LOOP('',(#975));
#769=CONICAL_SURFACE('',#770,3.,0.785398163397448);
#770=AXIS2_PLACEMENT_3D('',#771,#772,#773);
#771=CARTESIAN_POINT('',(-10.,10.,1.5));
#772=DIRECTION('',(0.,0.,1.));
#773=DIRECTION('',(-1.,0.,0.));
#774=FACE_OUTER_BOUND('',#775,.T.);
#775=EDGE_LOOP('',(#976));
#776=FACE_OUTER_BOUND('',#777,.T.);
#777=EDGE_LOOP('',(#977));
#778=CONICAL_SURFACE('',#779,3.,0.785398163397448);
#779=AXIS2_PLACEMENT_3D('',#780,#781,#782);
#780=CARTESIAN_POINT('',(-20.,9.99999999999999,1.5));
#781=DIRECTION('',(0.,0.,1.));
#782=DIRECTION('',(-1.,5.9211894646675E-16,0.));
#783=FACE_OUTER_BOUND('',#784,.T.);
#784=EDGE_LOOP('',(#978));
#785=FACE_OUTER_BOUND('',#786,.T.);
#786=EDGE_LOOP('',(#979));
#787=CONICAL_SURFACE('',#788,3.,0.785398163397448);
#788=AXIS2_PLACEMENT_3D('',#789,#790,#791);
#789=CARTESIAN_POINT('',(-15.,5.,1.5));
#790=DIRECTION('',(0.,0.,1.));
#791=DIRECTION('',(-1.,2.96059473233375E-16,0.));
#792=ORIENTED_EDGE('',*,*,#980,.F.);
#793=ORIENTED_EDGE('',*,*,#981,.T.);
#794=ORIENTED_EDGE('',*,*,#982,.F.);
#795=ORIENTED_EDGE('',*,*,#983,.T.);
#796=ORIENTED_EDGE('',*,*,#984,.F.);
#797=ORIENTED_EDGE('',*,*,#985,.T.);
#798=ORIENTED_EDGE('',*,*,#986,.F.);
#799=ORIENTED_EDGE('',*,*,#987,.T.);
#800=ORIENTED_EDGE('',*,*,#988,.T.);
#801=ORIENTED_EDGE('',*,*,#989,.T.);
#802=ORIENTED_EDGE('',*,*,#990,.T.);
#803=ORIENTED_EDGE('',*,*,#991,.T.);
#804=ORIENTED_EDGE('',*,*,#992,.T.);
#805=ORIENTED_EDGE('',*,*,#993,.T.);
#806=ORIENTED_EDGE('',*,*,#994,.T.);
#807=ORIENTED_EDGE('',*,*,#995,.T.);
#808=ORIENTED_EDGE('',*,*,#996,.T.);
#809=ORIENTED_EDGE('',*,*,#997,.T.);
#810=ORIENTED_EDGE('',*,*,#998,.T.);
#811=ORIENTED_EDGE('',*,*,#999,.T.);
#812=ORIENTED_EDGE('',*,*,#1000,.T.);
#813=ORIENTED_EDGE('',*,*,#1001,.T.);
#814=ORIENTED_EDGE('',*,*,#1002,.F.);
#815=ORIENTED_EDGE('',*,*,#1003,.F.);
#816=ORIENTED_EDGE('',*,*,#1004,.T.);
#817=ORIENTED_EDGE('',*,*,#1005,.T.);
#818=ORIENTED_EDGE('',*,*,#1006,.T.);
#819=ORIENTED_EDGE('',*,*,#1007,.T.);
#820=ORIENTED_EDGE('',*,*,#1008,.T.);
#821=ORIENTED_EDGE('',*,*,#1009,.T.);
#822=ORIENTED_EDGE('',*,*,#1010,.T.);
#823=ORIENTED_EDGE('',*,*,#1011,.T.);
#824=ORIENTED_EDGE('',*,*,#1012,.T.);
#825=ORIENTED_EDGE('',*,*,#1013,.T.);
#826=ORIENTED_EDGE('',*,*,#1014,.T.);
#827=ORIENTED_EDGE('',*,*,#1015,.T.);
#828=ORIENTED_EDGE('',*,*,#1016,.T.);
#829=ORIENTED_EDGE('',*,*,#1017,.T.);
#830=ORIENTED_EDGE('',*,*,#1018,.T.);
#831=ORIENTED_EDGE('',*,*,#1019,.T.);
#832=ORIENTED_EDGE('',*,*,#1020,.T.);
#833=ORIENTED_EDGE('',*,*,#1021,.F.);
#834=ORIENTED_EDGE('',*,*,#1022,.T.);
#835=ORIENTED_EDGE('',*,*,#1023,.T.);
#836=ORIENTED_EDGE('',*,*,#980,.T.);
#837=ORIENTED_EDGE('',*,*,#1023,.F.);
#838=ORIENTED_EDGE('',*,*,#1024,.T.);
#839=ORIENTED_EDGE('',*,*,#1025,.T.);
#840=ORIENTED_EDGE('',*,*,#981,.F.);
#841=ORIENTED_EDGE('',*,*,#1025,.F.);
#842=ORIENTED_EDGE('',*,*,#1026,.T.);
#843=ORIENTED_EDGE('',*,*,#1027,.T.);
#844=ORIENTED_EDGE('',*,*,#982,.T.);
#845=ORIENTED_EDGE('',*,*,#1027,.F.);
#846=ORIENTED_EDGE('',*,*,#1028,.T.);
#847=ORIENTED_EDGE('',*,*,#1029,.T.);
#848=ORIENTED_EDGE('',*,*,#983,.F.);
#849=ORIENTED_EDGE('',*,*,#1029,.F.);
#850=ORIENTED_EDGE('',*,*,#1030,.T.);
#851=ORIENTED_EDGE('',*,*,#1031,.T.);
#852=ORIENTED_EDGE('',*,*,#984,.T.);
#853=ORIENTED_EDGE('',*,*,#1032,.T.);
#854=ORIENTED_EDGE('',*,*,#985,.F.);
#855=ORIENTED_EDGE('',*,*,#1031,.F.);
#856=ORIENTED_EDGE('',*,*,#1033,.T.);
#857=ORIENTED_EDGE('',*,*,#1032,.F.);
#858=ORIENTED_EDGE('',*,*,#1034,.T.);
#859=ORIENTED_EDGE('',*,*,#1035,.T.);
#860=ORIENTED_EDGE('',*,*,#986,.T.);
#861=ORIENTED_EDGE('',*,*,#1021,.T.);
#862=ORIENTED_EDGE('',*,*,#987,.F.);
#863=ORIENTED_EDGE('',*,*,#1035,.F.);
#864=ORIENTED_EDGE('',*,*,#1036,.T.);
#865=ORIENTED_EDGE('',*,*,#1007,.F.);
#866=ORIENTED_EDGE('',*,*,#1037,.F.);
#867=ORIENTED_EDGE('',*,*,#1006,.F.);
#868=ORIENTED_EDGE('',*,*,#1038,.F.);
#869=ORIENTED_EDGE('',*,*,#1005,.F.);
#870=ORIENTED_EDGE('',*,*,#1039,.F.);
#871=ORIENTED_EDGE('',*,*,#1004,.F.);
#872=ORIENTED_EDGE('',*,*,#1040,.F.);
#873=ORIENTED_EDGE('',*,*,#1041,.F.);
#874=ORIENTED_EDGE('',*,*,#1003,.T.);
#875=ORIENTED_EDGE('',*,*,#1042,.F.);
#876=ORIENTED_EDGE('',*,*,#1002,.T.);
#877=ORIENTED_EDGE('',*,*,#1043,.T.);
#878=ORIENTED_EDGE('',*,*,#1044,.T.);
#879=ORIENTED_EDGE('',*,*,#1045,.T.);
#880=ORIENTED_EDGE('',*,*,#1046,.T.);
#881=ORIENTED_EDGE('',*,*,#1047,.T.);
#882=ORIENTED_EDGE('',*,*,#1048,.T.);
#883=ORIENTED_EDGE('',*,*,#1049,.T.);
#884=ORIENTED_EDGE('',*,*,#1050,.T.);
#885=ORIENTED_EDGE('',*,*,#1051,.T.);
#886=ORIENTED_EDGE('',*,*,#1052,.T.);
#887=ORIENTED_EDGE('',*,*,#1053,.T.);
#888=ORIENTED_EDGE('',*,*,#1054,.T.);
#889=ORIENTED_EDGE('',*,*,#1055,.T.);
#890=ORIENTED_EDGE('',*,*,#1056,.T.);
#891=ORIENTED_EDGE('',*,*,#1057,.T.);
#892=ORIENTED_EDGE('',*,*,#1058,.T.);
#893=ORIENTED_EDGE('',*,*,#1059,.T.);
#894=ORIENTED_EDGE('',*,*,#1060,.T.);
#895=ORIENTED_EDGE('',*,*,#1061,.T.);
#896=ORIENTED_EDGE('',*,*,#1062,.T.);
#897=ORIENTED_EDGE('',*,*,#1063,.T.);
#898=ORIENTED_EDGE('',*,*,#1064,.T.);
#899=ORIENTED_EDGE('',*,*,#1065,.T.);
#900=ORIENTED_EDGE('',*,*,#1066,.T.);
#901=ORIENTED_EDGE('',*,*,#1067,.T.);
#902=ORIENTED_EDGE('',*,*,#1068,.T.);
#903=ORIENTED_EDGE('',*,*,#1069,.T.);
#904=ORIENTED_EDGE('',*,*,#1022,.F.);
#905=ORIENTED_EDGE('',*,*,#1036,.F.);
#906=ORIENTED_EDGE('',*,*,#1034,.F.);
#907=ORIENTED_EDGE('',*,*,#1033,.F.);
#908=ORIENTED_EDGE('',*,*,#1030,.F.);
#909=ORIENTED_EDGE('',*,*,#1028,.F.);
#910=ORIENTED_EDGE('',*,*,#1026,.F.);
#911=ORIENTED_EDGE('',*,*,#1024,.F.);
#912=ORIENTED_EDGE('',*,*,#1070,.T.);
#913=ORIENTED_EDGE('',*,*,#1071,.T.);
#914=ORIENTED_EDGE('',*,*,#1037,.T.);
#915=ORIENTED_EDGE('',*,*,#1038,.T.);
#916=ORIENTED_EDGE('',*,*,#1039,.T.);
#917=ORIENTED_EDGE('',*,*,#1040,.T.);
#918=ORIENTED_EDGE('',*,*,#1041,.T.);
#919=ORIENTED_EDGE('',*,*,#1072,.T.);
#920=ORIENTED_EDGE('',*,*,#1042,.T.);
#921=ORIENTED_EDGE('',*,*,#1073,.T.);
#922=ORIENTED_EDGE('',*,*,#1073,.F.);
#923=ORIENTED_EDGE('',*,*,#1070,.F.);
#924=ORIENTED_EDGE('',*,*,#1072,.F.);
#925=ORIENTED_EDGE('',*,*,#1071,.F.);
#926=ORIENTED_EDGE('',*,*,#1069,.F.);
#927=ORIENTED_EDGE('',*,*,#1001,.F.);
#928=ORIENTED_EDGE('',*,*,#1068,.F.);
#929=ORIENTED_EDGE('',*,*,#1008,.F.);
#930=ORIENTED_EDGE('',*,*,#1067,.F.);
#931=ORIENTED_EDGE('',*,*,#1000,.F.);
#932=ORIENTED_EDGE('',*,*,#1066,.F.);
#933=ORIENTED_EDGE('',*,*,#1009,.F.);
#934=ORIENTED_EDGE('',*,*,#1065,.F.);
#935=ORIENTED_EDGE('',*,*,#999,.F.);
#936=ORIENTED_EDGE('',*,*,#1064,.F.);
#937=ORIENTED_EDGE('',*,*,#1010,.F.);
#938=ORIENTED_EDGE('',*,*,#1063,.F.);
#939=ORIENTED_EDGE('',*,*,#998,.F.);
#940=ORIENTED_EDGE('',*,*,#1062,.F.);
#941=ORIENTED_EDGE('',*,*,#1011,.F.);
#942=ORIENTED_EDGE('',*,*,#1061,.F.);
#943=ORIENTED_EDGE('',*,*,#997,.F.);
#944=ORIENTED_EDGE('',*,*,#1060,.F.);
#945=ORIENTED_EDGE('',*,*,#1012,.F.);
#946=ORIENTED_EDGE('',*,*,#1059,.F.);
#947=ORIENTED_EDGE('',*,*,#996,.F.);
#948=ORIENTED_EDGE('',*,*,#1058,.F.);
#949=ORIENTED_EDGE('',*,*,#1013,.F.);
#950=ORIENTED_EDGE('',*,*,#1057,.F.);
#951=ORIENTED_EDGE('',*,*,#995,.F.);
#952=ORIENTED_EDGE('',*,*,#1056,.F.);
#953=ORIENTED_EDGE('',*,*,#1014,.F.);
#954=ORIENTED_EDGE('',*,*,#1055,.F.);
#955=ORIENTED_EDGE('',*,*,#994,.F.);
#956=ORIENTED_EDGE('',*,*,#1054,.F.);
#957=ORIENTED_EDGE('',*,*,#1015,.F.);
#958=ORIENTED_EDGE('',*,*,#1053,.F.);
#959=ORIENTED_EDGE('',*,*,#993,.F.);
#960=ORIENTED_EDGE('',*,*,#1052,.F.);
#961=ORIENTED_EDGE('',*,*,#1016,.F.);
#962=ORIENTED_EDGE('',*,*,#1051,.F.);
#963=ORIENTED_EDGE('',*,*,#992,.F.);
#964=ORIENTED_EDGE('',*,*,#1050,.F.);
#965=ORIENTED_EDGE('',*,*,#1017,.F.);
#966=ORIENTED_EDGE('',*,*,#1049,.F.);
#967=ORIENTED_EDGE('',*,*,#991,.F.);
#968=ORIENTED_EDGE('',*,*,#1048,.F.);
#969=ORIENTED_EDGE('',*,*,#1018,.F.);
#970=ORIENTED_EDGE('',*,*,#1047,.F.);
#971=ORIENTED_EDGE('',*,*,#990,.F.);
#972=ORIENTED_EDGE('',*,*,#1046,.F.);
#973=ORIENTED_EDGE('',*,*,#1019,.F.);
#974=ORIENTED_EDGE('',*,*,#1045,.F.);
#975=ORIENTED_EDGE('',*,*,#989,.F.);
#976=ORIENTED_EDGE('',*,*,#1044,.F.);
#977=ORIENTED_EDGE('',*,*,#1020,.F.);
#978=ORIENTED_EDGE('',*,*,#1043,.F.);
#979=ORIENTED_EDGE('',*,*,#988,.F.);
#980=EDGE_CURVE('',#1074,#1075,#1076,.F.);
#981=EDGE_CURVE('',#1074,#1077,#1078,.T.);
#982=EDGE_CURVE('',#1079,#1077,#1080,.F.);
#983=EDGE_CURVE('',#1079,#1081,#1082,.T.);
#984=EDGE_CURVE('',#1083,#1081,#1084,.F.);
#985=EDGE_CURVE('',#1083,#1085,#1086,.T.);
#986=EDGE_CURVE('',#1087,#1085,#1088,.F.);
#987=EDGE_CURVE('',#1087,#1075,#1089,.T.);
#988=EDGE_CURVE('',#1090,#1090,#1091,.F.);
#989=EDGE_CURVE('',#1092,#1092,#1093,.F.);
#990=EDGE_CURVE('',#1094,#1094,#1095,.F.);
#991=EDGE_CURVE('',#1096,#1096,#1097,.F.);
#992=EDGE_CURVE('',#1098,#1098,#1099,.F.);
#993=EDGE_CURVE('',#1100,#1100,#1101,.F.);
#994=EDGE_CURVE('',#1102,#1102,#1103,.F.);
#995=EDGE_CURVE('',#1104,#1104,#1105,.F.);
#996=EDGE_CURVE('',#1106,#1106,#1107,.F.);
#997=EDGE_CURVE('',#1108,#1108,#1109,.F.);
#998=EDGE_CURVE('',#1110,#1110,#1111,.F.);
#999=EDGE_CURVE('',#1112,#1112,#1113,.F.);
#1000=EDGE_CURVE('',#1114,#1114,#1115,.F.);
#1001=EDGE_CURVE('',#1116,#1116,#1117,.F.);
#1002=EDGE_CURVE('',#1118,#1118,#1119,.T.);
#1003=EDGE_CURVE('',#1120,#1120,#1121,.T.);
#1004=EDGE_CURVE('',#1122,#1122,#1123,.F.);
#1005=EDGE_CURVE('',#1124,#1124,#1125,.F.);
#1006=EDGE_CURVE('',#1126,#1126,#1127,.F.);
#1007=EDGE_CURVE('',#1128,#1128,#1129,.F.);
#1008=EDGE_CURVE('',#1130,#1130,#1131,.F.);
#1009=EDGE_CURVE('',#1132,#1132,#1133,.F.);
#1010=EDGE_CURVE('',#1134,#1134,#1135,.F.);
#1011=EDGE_CURVE('',#1136,#1136,#1137,.F.);
#1012=EDGE_CURVE('',#1138,#1138,#1139,.F.);
#1013=EDGE_CURVE('',#1140,#1140,#1141,.F.);
#1014=EDGE_CURVE('',#1142,#1142,#1143,.F.);
#1015=EDGE_CURVE('',#1144,#1144,#1145,.F.);
#1016=EDGE_CURVE('',#1146,#1146,#1147,.F.);
#1017=EDGE_CURVE('',#1148,#1148,#1149,.F.);
#1018=EDGE_CURVE('',#1150,#1150,#1151,.F.);
#1019=EDGE_CURVE('',#1152,#1152,#1153,.F.);
#1020=EDGE_CURVE('',#1154,#1154,#1155,.F.);
#1021=EDGE_CURVE('',#1156,#1075,#1157,.T.);
#1022=EDGE_CURVE('',#1156,#1158,#1159,.F.);
#1023=EDGE_CURVE('',#1158,#1074,#1160,.T.);
#1024=EDGE_CURVE('',#1158,#1161,#1162,.T.);
#1025=EDGE_CURVE('',#1161,#1077,#1163,.T.);
#1026=EDGE_CURVE('',#1161,#1164,#1165,.F.);
#1027=EDGE_CURVE('',#1164,#1079,#1166,.T.);
#1028=EDGE_CURVE('',#1164,#1167,#1168,.T.);
#1029=EDGE_CURVE('',#1167,#1081,#1169,.T.);
#1030=EDGE_CURVE('',#1167,#1170,#1171,.F.);
#1031=EDGE_CURVE('',#1170,#1083,#1172,.T.);
#1032=EDGE_CURVE('',#1173,#1085,#1174,.T.);
#1033=EDGE_CURVE('',#1170,#1173,#1175,.T.);
#1034=EDGE_CURVE('',#1173,#1176,#1177,.F.);
#1035=EDGE_CURVE('',#1176,#1087,#1178,.T.);
#1036=EDGE_CURVE('',#1176,#1156,#1179,.T.);
#1037=EDGE_CURVE('',#1180,#1180,#1181,.T.);
#1038=EDGE_CURVE('',#1182,#1182,#1183,.T.);
#1039=EDGE_CURVE('',#1184,#1184,#1185,.T.);
#1040=EDGE_CURVE('',#1186,#1186,#1187,.T.);
#1041=EDGE_CURVE('',#1188,#1188,#1189,.T.);
#1042=EDGE_CURVE('',#1190,#1190,#1191,.T.);
#1043=EDGE_CURVE('',#1192,#1192,#1193,.T.);
#1044=EDGE_CURVE('',#1194,#1194,#1195,.T.);
#1045=EDGE_CURVE('',#1196,#1196,#1197,.T.);
#1046=EDGE_CURVE('',#1198,#1198,#1199,.T.);
#1047=EDGE_CURVE('',#1200,#1200,#1201,.T.);
#1048=EDGE_CURVE('',#1202,#1202,#1203,.T.);
#1049=EDGE_CURVE('',#1204,#1204,#1205,.T.);
#1050=EDGE_CURVE('',#1206,#1206,#1207,.T.);
#1051=EDGE_CURVE('',#1208,#1208,#1209,.T.);
#1052=EDGE_CURVE('',#1210,#1210,#1211,.T.);
#1053=EDGE_CURVE('',#1212,#1212,#1213,.T.);
#1054=EDGE_CURVE('',#1214,#1214,#1215,.T.);
#1055=EDGE_CURVE('',#1216,#1216,#1217,.T.);
#1056=EDGE_CURVE('',#1218,#1218,#1219,.T.);
#1057=EDGE_CURVE('',#1220,#1220,#1221,.T.);
#1058=EDGE_CURVE('',#1222,#1222,#1223,.T.);
#1059=EDGE_CURVE('',#1224,#1224,#1225,.T.);
#1060=EDGE_CURVE('',#1226,#1226,#1227,.T.);
#1061=EDGE_CURVE('',#1228,#1228,#1229,.T.);
#1062=EDGE_CURVE('',#1230,#1230,#1231,.T.);
#1063=EDGE_CURVE('',#1232,#1232,#1233,.T.);
#1064=EDGE_CURVE('',#1234,#1234,#1235,.T.);
#1065=EDGE_CURVE('',#1236,#1236,#1237,.T.);
#1066=EDGE_CURVE('',#1238,#1238,#1239,.T.);
#1067=EDGE_CURVE('',#1240,#1240,#1241,.T.);
#1068=EDGE_CURVE('',#1242,#1242,#1243,.T.);
#1069=EDGE_CURVE('',#1244,#1244,#1245,.T.);
#1070=EDGE_CURVE('',#1246,#1246,#1247,.T.);
#1071=EDGE_CURVE('',#1248,#1248,#1249,.T.);
#1072=EDGE_CURVE('',#1250,#1250,#1251,.F.);
#1073=EDGE_CURVE('',#1252,#1252,#1253,.F.);
#1074=VERTEX_POINT('',#1254);
#1075=VERTEX_POINT('',#1255);
#1076=CIRCLE('',#1256,3.);
#1077=VERTEX_POINT('',#1260);
#1078=LINE('',#1261,#1262);
#1079=VERTEX_POINT('',#1264);
#1080=CIRCLE('',#1265,3.);
#1081=VERTEX_POINT('',#1269);
#1082=LINE('',#1270,#1271);
#1083=VERTEX_POINT('',#1273);
#1084=CIRCLE('',#1274,3.);
#1085=VERTEX_POINT('',#1278);
#1086=LINE('',#1279,#1280);
#1087=VERTEX_POINT('',#1282);
#1088=CIRCLE('',#1283,3.);
#1089=LINE('',#1287,#1288);
#1090=VERTEX_POINT('',#1290);
#1091=CIRCLE('',#1291,3.5);
#1092=VERTEX_POINT('',#1295);
#1093=CIRCLE('',#1296,3.5);
#1094=VERTEX_POINT('',#1300);
#1095=CIRCLE('',#1301,3.5);
#1096=VERTEX_POINT('',#1305);
#1097=CIRCLE('',#1306,3.5);
#1098=VERTEX_POINT('',#1310);
#1099=CIRCLE('',#1311,3.5);
#1100=VERTEX_POINT('',#1315);
#1101=CIRCLE('',#1316,3.5);
#1102=VERTEX_POINT('',#1320);
#1103=CIRCLE('',#1321,3.5);
#1104=VERTEX_POINT('',#1325);
#1105=CIRCLE('',#1326,3.5);
#1106=VERTEX_POINT('',#1330);
#1107=CIRCLE('',#1331,3.5);
#1108=VERTEX_POINT('',#1335);
#1109=CIRCLE('',#1336,3.5);
#1110=VERTEX_POINT('',#1340);
#1111=CIRCLE('',#1341,3.5);
#1112=VERTEX_POINT('',#1345);
#1113=CIRCLE('',#1346,3.5);
#1114=VERTEX_POINT('',#1350);
#1115=CIRCLE('',#1351,3.5);
#1116=VERTEX_POINT('',#1355);
#1117=CIRCLE('',#1356,3.5);
#1118=VERTEX_POINT('',#1360);
#1119=CIRCLE('',#1361,7.5);
#1120=VERTEX_POINT('',#1365);
#1121=CIRCLE('',#1366,7.5);
#1122=VERTEX_POINT('',#1370);
#1123=CIRCLE('',#1371,2.5);
#1124=VERTEX_POINT('',#1375);
#1125=CIRCLE('',#1376,2.5);
#1126=VERTEX_POINT('',#1380);
#1127=CIRCLE('',#1381,2.5);
#1128=VERTEX_POINT('',#1385);
#1129=CIRCLE('',#1386,2.5);
#1130=VERTEX_POINT('',#1390);
#1131=CIRCLE('',#1391,3.5);
#1132=VERTEX_POINT('',#1395);
#1133=CIRCLE('',#1396,3.5);
#1134=VERTEX_POINT('',#1400);
#1135=CIRCLE('',#1401,3.5);
#1136=VERTEX_POINT('',#1405);
#1137=CIRCLE('',#1406,3.5);
#1138=VERTEX_POINT('',#1410);
#1139=CIRCLE('',#1411,3.5);
#1140=VERTEX_POINT('',#1415);
#1141=CIRCLE('',#1416,3.5);
#1142=VERTEX_POINT('',#1420);
#1143=CIRCLE('',#1421,3.5);
#1144=VERTEX_POINT('',#1425);
#1145=CIRCLE('',#1426,3.5);
#1146=VERTEX_POINT('',#1430);
#1147=CIRCLE('',#1431,3.5);
#1148=VERTEX_POINT('',#1435);
#1149=CIRCLE('',#1436,3.5);
#1150=VERTEX_POINT('',#1440);
#1151=CIRCLE('',#1441,3.5);
#1152=VERTEX_POINT('',#1445);
#1153=CIRCLE('',#1446,3.5);
#1154=VERTEX_POINT('',#1450);
#1155=CIRCLE('',#1451,3.5);
#1156=VERTEX_POINT('',#1455);
#1157=LINE('',#1456,#1457);
#1158=VERTEX_POINT('',#1459);
#1159=CIRCLE('',#1460,3.);
#1160=LINE('',#1464,#1465);
#1161=VERTEX_POINT('',#1467);
#1162=LINE('',#1468,#1469);
#1163=LINE('',#1471,#1472);
#1164=VERTEX_POINT('',#1474);
#1165=CIRCLE('',#1475,2.99999999999999);
#1166=LINE('',#1479,#1480);
#1167=VERTEX_POINT('',#1482);
#1168=LINE('',#1483,#1484);
#1169=LINE('',#1486,#1487);
#1170=VERTEX_POINT('',#1489);
#1171=CIRCLE('',#1490,3.);
#1172=LINE('',#1494,#1495);
#1173=VERTEX_POINT('',#1497);
#1174=LINE('',#1498,#1499);
#1175=LINE('',#1501,#1502);
#1176=VERTEX_POINT('',#1504);
#1177=CIRCLE('',#1505,3.);
#1178=LINE('',#1509,#1510);
#1179=LINE('',#1512,#1513);
#1180=VERTEX_POINT('',#1515);
#1181=CIRCLE('',#1516,2.5);
#1182=VERTEX_POINT('',#1520);
#1183=CIRCLE('',#1521,2.5);
#1184=VERTEX_POINT('',#1525);
#1185=CIRCLE('',#1526,2.5);
#1186=VERTEX_POINT('',#1530);
#1187=CIRCLE('',#1531,2.5);
#1188=VERTEX_POINT('',#1535);
#1189=CIRCLE('',#1536,7.5);
#1190=VERTEX_POINT('',#1540);
#1191=CIRCLE('',#1541,7.5);
#1192=VERTEX_POINT('',#1545);
#1193=CIRCLE('',#1546,2.5);
#1194=VERTEX_POINT('',#1550);
#1195=CIRCLE('',#1551,2.5);
#1196=VERTEX_POINT('',#1555);
#1197=CIRCLE('',#1556,2.5);
#1198=VERTEX_POINT('',#1560);
#1199=CIRCLE('',#1561,2.5);
#1200=VERTEX_POINT('',#1565);
#1201=CIRCLE('',#1566,2.5);
#1202=VERTEX_POINT('',#1570);
#1203=CIRCLE('',#1571,2.5);
#1204=VERTEX_POINT('',#1575);
#1205=CIRCLE('',#1576,2.5);
#1206=VERTEX_POINT('',#1580);
#1207=CIRCLE('',#1581,2.5);
#1208=VERTEX_POINT('',#1585);
#1209=CIRCLE('',#1586,2.5);
#1210=VERTEX_POINT('',#1590);
#1211=CIRCLE('',#1591,2.5);
#1212=VERTEX_POINT('',#1595);
#1213=CIRCLE('',#1596,2.5);
#1214=VERTEX_POINT('',#1600);
#1215=CIRCLE('',#1601,2.5);
#1216=VERTEX_POINT('',#1605);
#1217=CIRCLE('',#1606,2.5);
#1218=VERTEX_POINT('',#1610);
#1219=CIRCLE('',#1611,2.5);
#1220=VERTEX_POINT('',#1615);
#1221=CIRCLE('',#1616,2.5);
#1222=VERTEX_POINT('',#1620);
#1223=CIRCLE('',#1621,2.5);
#1224=VERTEX_POINT('',#1625);
#1225=CIRCLE('',#1626,2.5);
#1226=VERTEX_POINT('',#1630);
#1227=CIRCLE('',#1631,2.5);
#1228=VERTEX_POINT('',#1635);
#1229=CIRCLE('',#1636,2.5);
#1230=VERTEX_POINT('',#1640);
#1231=CIRCLE('',#1641,2.5);
#1232=VERTEX_POINT('',#1645);
#1233=CIRCLE('',#1646,2.5);
#1234=VERTEX_POINT('',#1650);
#1235=CIRCLE('',#1651,2.5);
#1236=VERTEX_POINT('',#1655);
#1237=CIRCLE('',#1656,2.5);
#1238=VERTEX_POINT('',#1660);
#1239=CIRCLE('',#1661,2.5);
#1240=VERTEX_POINT('',#1665);
#1241=CIRCLE('',#1666,2.5);
#1242=VERTEX_POINT('',#1670);
#1243=CIRCLE('',#1671,2.5);
#1244=VERTEX_POINT('',#1675);
#1245=CIRCLE('',#1676,2.5);
#1246=VERTEX_POINT('',#1680);
#1247=CIRCLE('',#1681,4.);
#1248=VERTEX_POINT('',#1685);
#1249=CIRCLE('',#1686,4.);
#1250=VERTEX_POINT('',#1690);
#1251=CIRCLE('',#1691,4.);
#1252=VERTEX_POINT('',#1695);
#1253=CIRCLE('',#1696,4.);
#1254=CARTESIAN_POINT('',(59.5,15.,2.));
#1255=CARTESIAN_POINT('',(62.5,12.,2.));
#1256=AXIS2_PLACEMENT_3D('',#1257,#1258,#1259);
#1257=CARTESIAN_POINT('',(59.5,12.,2.));
#1258=DIRECTION('',(0.,0.,1.));
#1259=DIRECTION('',(1.,-5.9211894646675E-16,0.));
#1260=CARTESIAN_POINT('',(-59.5,15.,2.));
#1261=CARTESIAN_POINT('',(59.5,15.,2.));
#1262=VECTOR('',#1263,1.);
#1263=DIRECTION('',(-1.,1.19418947186571E-16,0.));
#1264=CARTESIAN_POINT('',(-62.5,12.,2.));
#1265=AXIS2_PLACEMENT_3D('',#1266,#1267,#1268);
#1266=CARTESIAN_POINT('',(-59.5,12.,2.));
#1267=DIRECTION('',(0.,0.,1.));
#1268=DIRECTION('',(0.,1.,0.));
#1269=CARTESIAN_POINT('',(-62.5,-12.,2.));
#1270=CARTESIAN_POINT('',(-62.5,12.,2.));
#1271=VECTOR('',#1272,1.);
#1272=DIRECTION('',(0.,-1.,0.));
#1273=CARTESIAN_POINT('',(-59.5,-15.,2.));
#1274=AXIS2_PLACEMENT_3D('',#1275,#1276,#1277);
#1275=CARTESIAN_POINT('',(-59.5,-12.,2.));
#1276=DIRECTION('',(0.,0.,1.));
#1277=DIRECTION('',(-1.,0.,0.));
#1278=CARTESIAN_POINT('',(59.5,-15.,2.));
#1279=CARTESIAN_POINT('',(-59.5,-15.,2.));
#1280=VECTOR('',#1281,1.);
#1281=DIRECTION('',(1.,-1.19418947186571E-16,0.));
#1282=CARTESIAN_POINT('',(62.5,-12.,2.));
#1283=AXIS2_PLACEMENT_3D('',#1284,#1285,#1286);
#1284=CARTESIAN_POINT('',(59.5,-12.,2.));
#1285=DIRECTION('',(0.,0.,1.));
#1286=DIRECTION('',(2.368475785867E-15,-1.,0.));
#1287=CARTESIAN_POINT('',(62.5,-12.,2.));
#1288=VECTOR('',#1289,1.);
#1289=DIRECTION('',(0.,1.,0.));
#1290=CARTESIAN_POINT('',(-18.5,5.,2.));
#1291=AXIS2_PLACEMENT_3D('',#1292,#1293,#1294);
#1292=CARTESIAN_POINT('',(-15.,5.,2.));
#1293=DIRECTION('',(0.,0.,1.));
#1294=DIRECTION('',(-1.,1.22464679914735E-16,0.));
#1295=CARTESIAN_POINT('',(-13.5,10.,2.));
#1296=AXIS2_PLACEMENT_3D('',#1297,#1298,#1299);
#1297=CARTESIAN_POINT('',(-10.,10.,2.));
#1298=DIRECTION('',(0.,0.,1.));
#1299=DIRECTION('',(-1.,1.22464679914735E-16,0.));
#1300=CARTESIAN_POINT('',(-28.5,4.99999999999999,2.));
#1301=AXIS2_PLACEMENT_3D('',#1302,#1303,#1304);
#1302=CARTESIAN_POINT('',(-25.,4.99999999999999,2.));
#1303=DIRECTION('',(0.,0.,1.));
#1304=DIRECTION('',(-1.,1.22464679914735E-16,0.));
#1305=CARTESIAN_POINT('',(-13.5,-10.,2.));
#1306=AXIS2_PLACEMENT_3D('',#1307,#1308,#1309);
#1307=CARTESIAN_POINT('',(-10.,-10.,2.));
#1308=DIRECTION('',(0.,0.,1.));
#1309=DIRECTION('',(-1.,1.22464679914735E-16,0.));
#1310=CARTESIAN_POINT('',(-28.5,-5.,2.));
#1311=AXIS2_PLACEMENT_3D('',#1312,#1313,#1314);
#1312=CARTESIAN_POINT('',(-25.,-5.00000000000001,2.));
#1313=DIRECTION('',(0.,0.,1.));
#1314=DIRECTION('',(-1.,1.22464679914735E-16,0.));
#1315=CARTESIAN_POINT('',(-13.5,-1.13434574080277E-15,2.));
#1316=AXIS2_PLACEMENT_3D('',#1317,#1318,#1319);
#1317=CARTESIAN_POINT('',(-10.,-1.99159850020592E-15,2.));
#1318=DIRECTION('',(0.,0.,1.));
#1319=DIRECTION('',(-1.,1.22464679914735E-16,0.));
#1320=CARTESIAN_POINT('',(6.5,10.,2.));
#1321=AXIS2_PLACEMENT_3D('',#1322,#1323,#1324);
#1322=CARTESIAN_POINT('',(10.,10.,2.));
#1323=DIRECTION('',(0.,0.,1.));
#1324=DIRECTION('',(-1.,1.22464679914735E-16,0.));
#1325=CARTESIAN_POINT('',(1.5,5.,2.));
#1326=AXIS2_PLACEMENT_3D('',#1327,#1328,#1329);
#1327=CARTESIAN_POINT('',(5.,5.,2.));
#1328=DIRECTION('',(0.,0.,1.));
#1329=DIRECTION('',(-1.,1.22464679914735E-16,0.));
#1330=CARTESIAN_POINT('',(21.5,5.,2.));
#1331=AXIS2_PLACEMENT_3D('',#1332,#1333,#1334);
#1332=CARTESIAN_POINT('',(25.,5.,2.));
#1333=DIRECTION('',(0.,0.,1.));
#1334=DIRECTION('',(-1.,1.22464679914735E-16,0.));
#1335=CARTESIAN_POINT('',(6.5,-10.,2.));
#1336=AXIS2_PLACEMENT_3D('',#1337,#1338,#1339);
#1337=CARTESIAN_POINT('',(10.,-10.,2.));
#1338=DIRECTION('',(0.,0.,1.));
#1339=DIRECTION('',(-1.,1.22464679914735E-16,0.));
#1340=CARTESIAN_POINT('',(1.5,-5.,2.));
#1341=AXIS2_PLACEMENT_3D('',#1342,#1343,#1344);
#1342=CARTESIAN_POINT('',(5.,-5.,2.));
#1343=DIRECTION('',(0.,0.,1.));
#1344=DIRECTION('',(-1.,1.22464679914735E-16,0.));
#1345=CARTESIAN_POINT('',(21.5,-5.,2.));
#1346=AXIS2_PLACEMENT_3D('',#1347,#1348,#1349);
#1347=CARTESIAN_POINT('',(25.,-5.,2.));
#1348=DIRECTION('',(0.,0.,1.));
#1349=DIRECTION('',(-1.,1.22464679914735E-16,0.));
#1350=CARTESIAN_POINT('',(6.5,-3.67394039744206E-16,2.));
#1351=AXIS2_PLACEMENT_3D('',#1352,#1353,#1354);
#1352=CARTESIAN_POINT('',(10.,-1.22464679914735E-15,2.));
#1353=DIRECTION('',(0.,0.,1.));
#1354=DIRECTION('',(-1.,1.22464679914735E-16,0.));
#1355=CARTESIAN_POINT('',(-18.5,-5.,2.));
#1356=AXIS2_PLACEMENT_3D('',#1357,#1358,#1359);
#1357=CARTESIAN_POINT('',(-15.,-5.,2.));
#1358=DIRECTION('',(0.,0.,1.));
#1359=DIRECTION('',(-1.,1.22464679914735E-16,0.));
#1360=CARTESIAN_POINT('',(28.5,-4.3101920344739E-15,2.));
#1361=AXIS2_PLACEMENT_3D('',#1362,#1363,#1364);
#1362=CARTESIAN_POINT('',(36.,-5.22867713383441E-15,2.));
#1363=DIRECTION('',(0.,0.,1.));
#1364=DIRECTION('',(-1.,1.22464679914735E-16,0.));
#1365=CARTESIAN_POINT('',(-43.5,8.91599339631752E-15,2.));
#1366=AXIS2_PLACEMENT_3D('',#1367,#1368,#1369);
#1367=CARTESIAN_POINT('',(-36.,7.997508296957E-15,2.));
#1368=DIRECTION('',(0.,0.,1.));
#1369=DIRECTION('',(-1.,1.22464679914735E-16,0.));
#1370=CARTESIAN_POINT('',(49.,-7.00000000000001,2.));
#1371=AXIS2_PLACEMENT_3D('',#1372,#1373,#1374);
#1372=CARTESIAN_POINT('',(51.5,-7.00000000000001,2.));
#1373=DIRECTION('',(0.,0.,1.));
#1374=DIRECTION('',(-1.,1.22464679914735E-16,0.));
#1375=CARTESIAN_POINT('',(49.,6.99999999999999,2.));
#1376=AXIS2_PLACEMENT_3D('',#1377,#1378,#1379);
#1377=CARTESIAN_POINT('',(51.5,6.99999999999999,2.));
#1378=DIRECTION('',(0.,0.,1.));
#1379=DIRECTION('',(-1.,1.22464679914735E-16,0.));
#1380=CARTESIAN_POINT('',(-54.,-6.99999999999998,2.));
#1381=AXIS2_PLACEMENT_3D('',#1382,#1383,#1384);
#1382=CARTESIAN_POINT('',(-51.5,-6.99999999999998,2.));
#1383=DIRECTION('',(0.,0.,1.));
#1384=DIRECTION('',(-1.,1.22464679914735E-16,0.));
#1385=CARTESIAN_POINT('',(-54.,7.00000000000001,2.));
#1386=AXIS2_PLACEMENT_3D('',#1387,#1388,#1389);
#1387=CARTESIAN_POINT('',(-51.5,7.00000000000001,2.));
#1388=DIRECTION('',(0.,0.,1.));
#1389=DIRECTION('',(-1.,1.22464679914735E-16,0.));
#1390=CARTESIAN_POINT('',(-3.5,8.57252759403147E-16,2.));
#1391=AXIS2_PLACEMENT_3D('',#1392,#1393,#1394);
#1392=CARTESIAN_POINT('',(0.,0.,2.));
#1393=DIRECTION('',(0.,0.,1.));
#1394=DIRECTION('',(-1.,1.22464679914735E-16,0.));
#1395=CARTESIAN_POINT('',(16.5,-1.59204083889156E-15,2.));
#1396=AXIS2_PLACEMENT_3D('',#1397,#1398,#1399);
#1397=CARTESIAN_POINT('',(20.,-2.44929359829471E-15,2.));
#1398=DIRECTION('',(0.,0.,1.));
#1399=DIRECTION('',(-1.,1.22464679914735E-16,0.));
#1400=CARTESIAN_POINT('',(11.5,-5.,2.));
#1401=AXIS2_PLACEMENT_3D('',#1402,#1403,#1404);
#1402=CARTESIAN_POINT('',(15.,-5.,2.));
#1403=DIRECTION('',(0.,0.,1.));
#1404=DIRECTION('',(-1.,1.22464679914735E-16,0.));
#1405=CARTESIAN_POINT('',(-3.5,-10.,2.));
#1406=AXIS2_PLACEMENT_3D('',#1407,#1408,#1409);
#1407=CARTESIAN_POINT('',(4.6759294539109E-16,-10.,2.));
#1408=DIRECTION('',(0.,0.,1.));
#1409=DIRECTION('',(-1.,1.22464679914735E-16,0.));
#1410=CARTESIAN_POINT('',(16.5,-10.,2.));
#1411=AXIS2_PLACEMENT_3D('',#1412,#1413,#1414);
#1412=CARTESIAN_POINT('',(20.,-10.,2.));
#1413=DIRECTION('',(0.,0.,1.));
#1414=DIRECTION('',(-1.,1.22464679914735E-16,0.));
#1415=CARTESIAN_POINT('',(11.5,5.,2.));
#1416=AXIS2_PLACEMENT_3D('',#1417,#1418,#1419);
#1417=CARTESIAN_POINT('',(15.,5.,2.));
#1418=DIRECTION('',(0.,0.,1.));
#1419=DIRECTION('',(-1.,1.22464679914735E-16,0.));
#1420=CARTESIAN_POINT('',(-3.5,10.,2.));
#1421=AXIS2_PLACEMENT_3D('',#1422,#1423,#1424);
#1422=CARTESIAN_POINT('',(2.9168865436858E-15,10.,2.));
#1423=DIRECTION('',(0.,0.,1.));
#1424=DIRECTION('',(-1.,1.22464679914735E-16,0.));
#1425=CARTESIAN_POINT('',(16.5,10.,2.));
#1426=AXIS2_PLACEMENT_3D('',#1427,#1428,#1429);
#1427=CARTESIAN_POINT('',(20.,10.,2.));
#1428=DIRECTION('',(0.,0.,1.));
#1429=DIRECTION('',(-1.,1.22464679914735E-16,0.));
#1430=CARTESIAN_POINT('',(-23.5,-3.12594424100869E-15,2.));
#1431=AXIS2_PLACEMENT_3D('',#1432,#1433,#1434);
#1432=CARTESIAN_POINT('',(-20.,-3.98319700041184E-15,2.));
#1433=DIRECTION('',(0.,0.,1.));
#1434=DIRECTION('',(-1.,1.22464679914735E-16,0.));
#1435=CARTESIAN_POINT('',(-8.5,-5.,2.));
#1436=AXIS2_PLACEMENT_3D('',#1437,#1438,#1439);
#1437=CARTESIAN_POINT('',(-5.,-5.,2.));
#1438=DIRECTION('',(0.,0.,1.));
#1439=DIRECTION('',(-1.,1.22464679914735E-16,0.));
#1440=CARTESIAN_POINT('',(-23.5,-10.,2.));
#1441=AXIS2_PLACEMENT_3D('',#1442,#1443,#1444);
#1442=CARTESIAN_POINT('',(-20.,-10.,2.));
#1443=DIRECTION('',(0.,0.,1.));
#1444=DIRECTION('',(-1.,1.22464679914735E-16,0.));
#1445=CARTESIAN_POINT('',(-8.5,5.,2.));
#1446=AXIS2_PLACEMENT_3D('',#1447,#1448,#1449);
#1447=CARTESIAN_POINT('',(-5.,5.,2.));
#1448=DIRECTION('',(0.,0.,1.));
#1449=DIRECTION('',(-1.,1.22464679914735E-16,0.));
#1450=CARTESIAN_POINT('',(-23.5,10.,2.));
#1451=AXIS2_PLACEMENT_3D('',#1452,#1453,#1454);
#1452=CARTESIAN_POINT('',(-20.,9.99999999999999,2.));
#1453=DIRECTION('',(0.,0.,1.));
#1454=DIRECTION('',(-1.,1.22464679914735E-16,0.));
#1455=CARTESIAN_POINT('',(62.5,12.,-2.96059473233375E-16));
#1456=CARTESIAN_POINT('',(62.5,12.,-8.88178419700125E-16));
#1457=VECTOR('',#1458,1.);
#1458=DIRECTION('',(0.,0.,1.));
#1459=CARTESIAN_POINT('',(59.5,15.,-1.48029736616688E-16));
#1460=AXIS2_PLACEMENT_3D('',#1461,#1462,#1463);
#1461=CARTESIAN_POINT('',(59.5,12.,0.));
#1462=DIRECTION('',(0.,0.,-1.));
#1463=DIRECTION('',(-2.368475785867E-15,1.,0.));
#1464=CARTESIAN_POINT('',(59.5,15.,-4.44089209850063E-16));
#1465=VECTOR('',#1466,1.);
#1466=DIRECTION('',(0.,0.,1.));
#1467=CARTESIAN_POINT('',(-59.5,15.,0.));
#1468=CARTESIAN_POINT('',(59.5,15.,0.));
#1469=VECTOR('',#1470,1.);
#1470=DIRECTION('',(-1.,1.19418947186571E-16,0.));
#1471=CARTESIAN_POINT('',(-59.5,15.,0.));
#1472=VECTOR('',#1473,1.);
#1473=DIRECTION('',(0.,0.,1.));
#1474=CARTESIAN_POINT('',(-62.5,12.,0.));
#1475=AXIS2_PLACEMENT_3D('',#1476,#1477,#1478);
#1476=CARTESIAN_POINT('',(-59.5,12.,0.));
#1477=DIRECTION('',(0.,0.,-1.));
#1478=DIRECTION('',(-1.,0.,0.));
#1479=CARTESIAN_POINT('',(-62.5,12.,0.));
#1480=VECTOR('',#1481,1.);
#1481=DIRECTION('',(0.,0.,1.));
#1482=CARTESIAN_POINT('',(-62.5,-12.,0.));
#1483=CARTESIAN_POINT('',(-62.5,12.,0.));
#1484=VECTOR('',#1485,1.);
#1485=DIRECTION('',(0.,-1.,0.));
#1486=CARTESIAN_POINT('',(-62.5,-12.,0.));
#1487=VECTOR('',#1488,1.);
#1488=DIRECTION('',(0.,0.,1.));
#1489=CARTESIAN_POINT('',(-59.5,-15.,0.));
#1490=AXIS2_PLACEMENT_3D('',#1491,#1492,#1493);
#1491=CARTESIAN_POINT('',(-59.5,-12.,0.));
#1492=DIRECTION('',(0.,0.,-1.));
#1493=DIRECTION('',(0.,-1.,0.));
#1494=CARTESIAN_POINT('',(-59.5,-15.,0.));
#1495=VECTOR('',#1496,1.);
#1496=DIRECTION('',(0.,0.,1.));
#1497=CARTESIAN_POINT('',(59.5,-15.,7.40148683083438E-16));
#1498=CARTESIAN_POINT('',(59.5,-15.,1.33226762955019E-15));
#1499=VECTOR('',#1500,1.);
#1500=DIRECTION('',(0.,0.,1.));
#1501=CARTESIAN_POINT('',(-59.5,-15.,0.));
#1502=VECTOR('',#1503,1.);
#1503=DIRECTION('',(1.,-1.19418947186571E-16,0.));
#1504=CARTESIAN_POINT('',(62.5,-12.,8.88178419700125E-16));
#1505=AXIS2_PLACEMENT_3D('',#1506,#1507,#1508);
#1506=CARTESIAN_POINT('',(59.5,-12.,0.));
#1507=DIRECTION('',(0.,0.,-1.));
#1508=DIRECTION('',(1.,0.,0.));
#1509=CARTESIAN_POINT('',(62.5,-12.,1.77635683940025E-15));
#1510=VECTOR('',#1511,1.);
#1511=DIRECTION('',(0.,0.,1.));
#1512=CARTESIAN_POINT('',(62.5,-12.,0.));
#1513=VECTOR('',#1514,1.);
#1514=DIRECTION('',(0.,1.,0.));
#1515=CARTESIAN_POINT('',(-54.,7.00000000000001,0.));
#1516=AXIS2_PLACEMENT_3D('',#1517,#1518,#1519);
#1517=CARTESIAN_POINT('',(-51.5,7.00000000000001,0.));
#1518=DIRECTION('',(0.,0.,1.));
#1519=DIRECTION('',(-1.,1.22464679914735E-16,0.));
#1520=CARTESIAN_POINT('',(-54.,-6.99999999999998,0.));
#1521=AXIS2_PLACEMENT_3D('',#1522,#1523,#1524);
#1522=CARTESIAN_POINT('',(-51.5,-6.99999999999998,0.));
#1523=DIRECTION('',(0.,0.,1.));
#1524=DIRECTION('',(-1.,1.22464679914735E-16,0.));
#1525=CARTESIAN_POINT('',(49.,6.99999999999999,0.));
#1526=AXIS2_PLACEMENT_3D('',#1527,#1528,#1529);
#1527=CARTESIAN_POINT('',(51.5,6.99999999999999,0.));
#1528=DIRECTION('',(0.,0.,1.));
#1529=DIRECTION('',(-1.,1.22464679914735E-16,0.));
#1530=CARTESIAN_POINT('',(49.,-7.00000000000001,0.));
#1531=AXIS2_PLACEMENT_3D('',#1532,#1533,#1534);
#1532=CARTESIAN_POINT('',(51.5,-7.00000000000001,0.));
#1533=DIRECTION('',(0.,0.,1.));
#1534=DIRECTION('',(-1.,1.22464679914735E-16,0.));
#1535=CARTESIAN_POINT('',(-43.5,8.91599339631752E-15,5.));
#1536=AXIS2_PLACEMENT_3D('',#1537,#1538,#1539);
#1537=CARTESIAN_POINT('',(-36.,7.997508296957E-15,5.));
#1538=DIRECTION('',(0.,0.,1.));
#1539=DIRECTION('',(-1.,1.22464679914735E-16,0.));
#1540=CARTESIAN_POINT('',(28.5,-4.3101920344739E-15,5.));
#1541=AXIS2_PLACEMENT_3D('',#1542,#1543,#1544);
#1542=CARTESIAN_POINT('',(36.,-5.22867713383441E-15,5.));
#1543=DIRECTION('',(0.,0.,1.));
#1544=DIRECTION('',(-1.,1.22464679914735E-16,0.));
#1545=CARTESIAN_POINT('',(-17.5,5.,1.));
#1546=AXIS2_PLACEMENT_3D('',#1547,#1548,#1549);
#1547=CARTESIAN_POINT('',(-15.,5.,1.));
#1548=DIRECTION('',(0.,0.,1.));
#1549=DIRECTION('',(-1.,1.22464679914735E-16,0.));
#1550=CARTESIAN_POINT('',(-22.5,10.,1.));
#1551=AXIS2_PLACEMENT_3D('',#1552,#1553,#1554);
#1552=CARTESIAN_POINT('',(-20.,9.99999999999999,1.));
#1553=DIRECTION('',(0.,0.,1.));
#1554=DIRECTION('',(-1.,1.22464679914735E-16,0.));
#1555=CARTESIAN_POINT('',(-12.5,10.,1.));
#1556=AXIS2_PLACEMENT_3D('',#1557,#1558,#1559);
#1557=CARTESIAN_POINT('',(-10.,10.,1.));
#1558=DIRECTION('',(0.,0.,1.));
#1559=DIRECTION('',(-1.,1.22464679914735E-16,0.));
#1560=CARTESIAN_POINT('',(-7.5,5.,1.));
#1561=AXIS2_PLACEMENT_3D('',#1562,#1563,#1564);
#1562=CARTESIAN_POINT('',(-5.,5.,1.));
#1563=DIRECTION('',(0.,0.,1.));
#1564=DIRECTION('',(-1.,1.22464679914735E-16,0.));
#1565=CARTESIAN_POINT('',(-27.5,4.99999999999999,1.));
#1566=AXIS2_PLACEMENT_3D('',#1567,#1568,#1569);
#1567=CARTESIAN_POINT('',(-25.,4.99999999999999,1.));
#1568=DIRECTION('',(0.,0.,1.));
#1569=DIRECTION('',(-1.,1.22464679914735E-16,0.));
#1570=CARTESIAN_POINT('',(-22.5,-10.,1.));
#1571=AXIS2_PLACEMENT_3D('',#1572,#1573,#1574);
#1572=CARTESIAN_POINT('',(-20.,-10.,1.));
#1573=DIRECTION('',(0.,0.,1.));
#1574=DIRECTION('',(-1.,1.22464679914735E-16,0.));
#1575=CARTESIAN_POINT('',(-12.5,-10.,1.));
#1576=AXIS2_PLACEMENT_3D('',#1577,#1578,#1579);
#1577=CARTESIAN_POINT('',(-10.,-10.,1.));
#1578=DIRECTION('',(0.,0.,1.));
#1579=DIRECTION('',(-1.,1.22464679914735E-16,0.));
#1580=CARTESIAN_POINT('',(-7.5,-5.,1.));
#1581=AXIS2_PLACEMENT_3D('',#1582,#1583,#1584);
#1582=CARTESIAN_POINT('',(-5.,-5.,1.));
#1583=DIRECTION('',(0.,0.,1.));
#1584=DIRECTION('',(-1.,1.22464679914735E-16,0.));
#1585=CARTESIAN_POINT('',(-27.5,-5.,1.));
#1586=AXIS2_PLACEMENT_3D('',#1587,#1588,#1589);
#1587=CARTESIAN_POINT('',(-25.,-5.00000000000001,1.));
#1588=DIRECTION('',(0.,0.,1.));
#1589=DIRECTION('',(-1.,1.22464679914735E-16,0.));
#1590=CARTESIAN_POINT('',(-22.5,-3.37087360083816E-15,1.));
#1591=AXIS2_PLACEMENT_3D('',#1592,#1593,#1594);
#1592=CARTESIAN_POINT('',(-20.,-3.98319700041184E-15,1.));
#1593=DIRECTION('',(0.,0.,1.));
#1594=DIRECTION('',(-1.,1.22464679914735E-16,0.));
#1595=CARTESIAN_POINT('',(-12.5,-1.37927510063224E-15,1.));
#1596=AXIS2_PLACEMENT_3D('',#1597,#1598,#1599);
#1597=CARTESIAN_POINT('',(-10.,-1.99159850020592E-15,1.));
#1598=DIRECTION('',(0.,0.,1.));
#1599=DIRECTION('',(-1.,1.22464679914735E-16,0.));
#1600=CARTESIAN_POINT('',(17.5,10.,1.));
#1601=AXIS2_PLACEMENT_3D('',#1602,#1603,#1604);
#1602=CARTESIAN_POINT('',(20.,10.,1.));
#1603=DIRECTION('',(0.,0.,1.));
#1604=DIRECTION('',(-1.,1.22464679914735E-16,0.));
#1605=CARTESIAN_POINT('',(7.5,10.,1.));
#1606=AXIS2_PLACEMENT_3D('',#1607,#1608,#1609);
#1607=CARTESIAN_POINT('',(10.,10.,1.));
#1608=DIRECTION('',(0.,0.,1.));
#1609=DIRECTION('',(-1.,1.22464679914735E-16,0.));
#1610=CARTESIAN_POINT('',(-2.5,10.,1.));
#1611=AXIS2_PLACEMENT_3D('',#1612,#1613,#1614);
#1612=CARTESIAN_POINT('',(2.9168865436858E-15,10.,1.));
#1613=DIRECTION('',(0.,0.,1.));
#1614=DIRECTION('',(-1.,1.22464679914735E-16,0.));
#1615=CARTESIAN_POINT('',(2.5,5.,1.));
#1616=AXIS2_PLACEMENT_3D('',#1617,#1618,#1619);
#1617=CARTESIAN_POINT('',(5.,5.,1.));
#1618=DIRECTION('',(0.,0.,1.));
#1619=DIRECTION('',(-1.,1.22464679914735E-16,0.));
#1620=CARTESIAN_POINT('',(12.5,5.,1.));
#1621=AXIS2_PLACEMENT_3D('',#1622,#1623,#1624);
#1622=CARTESIAN_POINT('',(15.,5.,1.));
#1623=DIRECTION('',(0.,0.,1.));
#1624=DIRECTION('',(-1.,1.22464679914735E-16,0.));
#1625=CARTESIAN_POINT('',(22.5,5.,1.));
#1626=AXIS2_PLACEMENT_3D('',#1627,#1628,#1629);
#1627=CARTESIAN_POINT('',(25.,5.,1.));
#1628=DIRECTION('',(0.,0.,1.));
#1629=DIRECTION('',(-1.,1.22464679914735E-16,0.));
#1630=CARTESIAN_POINT('',(17.5,-10.,1.));
#1631=AXIS2_PLACEMENT_3D('',#1632,#1633,#1634);
#1632=CARTESIAN_POINT('',(20.,-10.,1.));
#1633=DIRECTION('',(0.,0.,1.));
#1634=DIRECTION('',(-1.,1.22464679914735E-16,0.));
#1635=CARTESIAN_POINT('',(7.5,-10.,1.));
#1636=AXIS2_PLACEMENT_3D('',#1637,#1638,#1639);
#1637=CARTESIAN_POINT('',(10.,-10.,1.));
#1638=DIRECTION('',(0.,0.,1.));
#1639=DIRECTION('',(-1.,1.22464679914735E-16,0.));
#1640=CARTESIAN_POINT('',(-2.5,-10.,1.));
#1641=AXIS2_PLACEMENT_3D('',#1642,#1643,#1644);
#1642=CARTESIAN_POINT('',(4.6759294539109E-16,-10.,1.));
#1643=DIRECTION('',(0.,0.,1.));
#1644=DIRECTION('',(-1.,1.22464679914735E-16,0.));
#1645=CARTESIAN_POINT('',(2.5,-5.,1.));
#1646=AXIS2_PLACEMENT_3D('',#1647,#1648,#1649);
#1647=CARTESIAN_POINT('',(5.,-5.,1.));
#1648=DIRECTION('',(0.,0.,1.));
#1649=DIRECTION('',(-1.,1.22464679914735E-16,0.));
#1650=CARTESIAN_POINT('',(12.5,-5.,1.));
#1651=AXIS2_PLACEMENT_3D('',#1652,#1653,#1654);
#1652=CARTESIAN_POINT('',(15.,-5.,1.));
#1653=DIRECTION('',(0.,0.,1.));
#1654=DIRECTION('',(-1.,1.22464679914735E-16,0.));
#1655=CARTESIAN_POINT('',(22.5,-5.,1.));
#1656=AXIS2_PLACEMENT_3D('',#1657,#1658,#1659);
#1657=CARTESIAN_POINT('',(25.,-5.,1.));
#1658=DIRECTION('',(0.,0.,1.));
#1659=DIRECTION('',(-1.,1.22464679914735E-16,0.));
#1660=CARTESIAN_POINT('',(17.5,-1.83697019872103E-15,1.));
#1661=AXIS2_PLACEMENT_3D('',#1662,#1663,#1664);
#1662=CARTESIAN_POINT('',(20.,-2.44929359829471E-15,1.));
#1663=DIRECTION('',(0.,0.,1.));
#1664=DIRECTION('',(-1.,1.22464679914735E-16,0.));
#1665=CARTESIAN_POINT('',(7.5,-6.12323399573677E-16,1.));
#1666=AXIS2_PLACEMENT_3D('',#1667,#1668,#1669);
#1667=CARTESIAN_POINT('',(10.,-1.22464679914735E-15,1.));
#1668=DIRECTION('',(0.,0.,1.));
#1669=DIRECTION('',(-1.,1.22464679914735E-16,0.));
#1670=CARTESIAN_POINT('',(-2.5,6.12323399573677E-16,1.));
#1671=AXIS2_PLACEMENT_3D('',#1672,#1673,#1674);
#1672=CARTESIAN_POINT('',(0.,0.,1.));
#1673=DIRECTION('',(0.,0.,1.));
#1674=DIRECTION('',(-1.,1.22464679914735E-16,0.));
#1675=CARTESIAN_POINT('',(-17.5,-5.,1.));
#1676=AXIS2_PLACEMENT_3D('',#1677,#1678,#1679);
#1677=CARTESIAN_POINT('',(-15.,-5.,1.));
#1678=DIRECTION('',(0.,0.,1.));
#1679=DIRECTION('',(-1.,1.22464679914735E-16,0.));
#1680=CARTESIAN_POINT('',(32.,-4.73881841417547E-15,0.));
#1681=AXIS2_PLACEMENT_3D('',#1682,#1683,#1684);
#1682=CARTESIAN_POINT('',(36.,-5.22867713383441E-15,0.));
#1683=DIRECTION('',(0.,0.,1.));
#1684=DIRECTION('',(-1.,1.22464679914735E-16,0.));
#1685=CARTESIAN_POINT('',(-40.,8.48736701661594E-15,0.));
#1686=AXIS2_PLACEMENT_3D('',#1687,#1688,#1689);
#1687=CARTESIAN_POINT('',(-36.,7.997508296957E-15,0.));
#1688=DIRECTION('',(0.,0.,1.));
#1689=DIRECTION('',(-1.,1.22464679914735E-16,0.));
#1690=CARTESIAN_POINT('',(-40.,8.48736701661594E-15,5.));
#1691=AXIS2_PLACEMENT_3D('',#1692,#1693,#1694);
#1692=CARTESIAN_POINT('',(-36.,7.997508296957E-15,5.));
#1693=DIRECTION('',(0.,0.,1.));
#1694=DIRECTION('',(-1.,1.22464679914735E-16,0.));
#1695=CARTESIAN_POINT('',(32.,-4.73881841417547E-15,5.));
#1696=AXIS2_PLACEMENT_3D('',#1697,#1698,#1699);
#1697=CARTESIAN_POINT('',(36.,-5.22867713383441E-15,5.));
#1698=DIRECTION('',(0.,0.,1.));
#1699=DIRECTION('',(-1.,1.22464679914735E-16,0.));
ENDSEC;
END-ISO-10303-21;
