ISO-10303-21;
HEADER;
FILE_DESCRIPTION(('STEP AP242'),
    '1');
FILE_NAME('itemForwardPlankBridge',
    '',
    ('UNSPECIFIED'),
    ('UNSPECIFIED'),
    'C3D Converter',
    'C3D Toolkit',
    '');
FILE_SCHEMA(('AP242_MANAGED_MODEL_BASED_3D_ENGINEERING_MIM_LF { 1 0 10303 442 1 1 4 }'));
ENDSEC;

DATA;
#1=PRODUCT_DEFINITION('','UNSPECIFIED',#28,#31);
#2=SHAPE_DEFINITION_REPRESENTATION(#26,#3);
#3=SHAPE_REPRESENTATION('NONE',(#4),#8);
#4=AXIS2_PLACEMENT_3D('',#5,#6,#7);
#5=CARTESIAN_POINT('',(0.,0.,0.));
#6=DIRECTION('',(0.,0.,1.));
#7=DIRECTION('',(1.,0.,0.));
#8=(GEOMETRIC_REPRESENTATION_CONTEXT(3)GLOBAL_UNCERTAINTY_ASSIGNED_CONTEXT((#10))
GLOBAL_UNIT_ASSIGNED_CONTEXT((#9,#11,#12))REPRESENTATION_CONTEXT('NONE','NONE'));
#9=(LENGTH_UNIT()NAMED_UNIT(*)SI_UNIT(.MILLI.,.METRE.));
#10=UNCERTAINTY_MEASURE_WITH_UNIT(LENGTH_MEASURE(1.E-5),#9,'NONE','NONE');
#11=(NAMED_UNIT(*)PLANE_ANGLE_UNIT()SI_UNIT($,.RADIAN.));
#12=(NAMED_UNIT(*)SI_UNIT($,.STERADIAN.)SOLID_ANGLE_UNIT());
#13=MANIFOLD_SOLID_BREP('',#14);
#14=CLOSED_SHELL('',(#48,#49,#50,#51,#52,#53,#54,#55,#56,#57,#58,#59,#60));
#15=COLOUR_RGB('',0.564705882352941,0.564705882352941,0.564705882352941);
#16=FILL_AREA_STYLE_COLOUR('',#15);
#17=FILL_AREA_STYLE($,(#16));
#18=SURFACE_STYLE_FILL_AREA(#17);
#19=SURFACE_SIDE_STYLE('',(#18));
#20=SURFACE_STYLE_USAGE(.BOTH.,#19);
#21=PRESENTATION_STYLE_ASSIGNMENT((#20));
#22=MECHANICAL_DESIGN_GEOMETRIC_PRESENTATION_REPRESENTATION('NONE',(#23),#8);
#23=STYLED_ITEM('',(#21),#13);
#24=ADVANCED_BREP_SHAPE_REPRESENTATION('NONE',(#13),#8);
#25=SHAPE_REPRESENTATION_RELATIONSHIP('','',#3,#24);
#26=PRODUCT_DEFINITION_SHAPE('NONE','NONE',#1);
#27=MECHANICAL_CONTEXT('NONE',#32,'mechanical');
#28=PRODUCT_DEFINITION_FORMATION_WITH_SPECIFIED_SOURCE('ANY','UNSPECIFIED',#29,.NOT_KNOWN.);
#29=PRODUCT('','itemForwardPlankBridge','NONE',(#27));
#30=PRODUCT_RELATED_PRODUCT_CATEGORY('detail','',(#29));
#31=DESIGN_CONTEXT('detailed design',#32,'design');
#32=APPLICATION_CONTEXT('configuration controlled 3d designs of mechanical parts and assemblies');
#33=APPLICATION_PROTOCOL_DEFINITION('international standard','config_control_design',
1994,#32);
#34=CC_DESIGN_DATE_AND_TIME_ASSIGNMENT(#35,#39,(#1));
#35=DATE_AND_TIME(#36,#37);
#36=CALENDAR_DATE(0,1,1);
#37=LOCAL_TIME(0,0,0.,#38);
#38=COORDINATED_UNIVERSAL_TIME_OFFSET(0,0,.AHEAD.);
#39=DATE_TIME_ROLE('creation_date');
#40=CC_DESIGN_APPROVAL(#41,(#1));
#41=APPROVAL(#42,'UNSPECIFIED');
#42=APPROVAL_STATUS('not_yet_approved');
#43=APPROVAL_DATE_TIME(#44,#41);
#44=DATE_AND_TIME(#45,#46);
#45=CALENDAR_DATE(0,1,1);
#46=LOCAL_TIME(0,0,0.,#47);
#47=COORDINATED_UNIVERSAL_TIME_OFFSET(0,0,.AHEAD.);
#48=ADVANCED_FACE('',(#61,#63,#65,#67),#69,.T.);
#49=ADVANCED_FACE('',(#74),#76,.T.);
#50=ADVANCED_FACE('',(#81),#83,.T.);
#51=ADVANCED_FACE('',(#88),#90,.T.);
#52=ADVANCED_FACE('',(#95),#97,.T.);
#53=ADVANCED_FACE('',(#102,#104),#106,.F.);
#54=ADVANCED_FACE('',(#111,#113),#115,.F.);
#55=ADVANCED_FACE('',(#120),#122,.T.);
#56=ADVANCED_FACE('',(#127,#129,#131),#133,.F.);
#57=ADVANCED_FACE('',(#138),#140,.T.);
#58=ADVANCED_FACE('',(#145),#147,.F.);
#59=ADVANCED_FACE('',(#152),#154,.T.);
#60=ADVANCED_FACE('',(#159),#161,.F.);
#61=FACE_BOUND('',#62,.T.);
#62=EDGE_LOOP('',(#166,#167,#168,#169));
#63=FACE_BOUND('',#64,.T.);
#64=EDGE_LOOP('',(#170,#171,#172,#173));
#65=FACE_BOUND('',#66,.T.);
#66=EDGE_LOOP('',(#174));
#67=FACE_BOUND('',#68,.T.);
#68=EDGE_LOOP('',(#175));
#69=PLANE('',#70);
#70=AXIS2_PLACEMENT_3D('',#71,#72,#73);
#71=CARTESIAN_POINT('',(0.,0.,2.));
#72=DIRECTION('',(0.,0.,1.));
#73=DIRECTION('',(-1.,1.22464679914735E-16,0.));
#74=FACE_BOUND('',#75,.T.);
#75=EDGE_LOOP('',(#176,#177,#178,#179));
#76=PLANE('',#77);
#77=AXIS2_PLACEMENT_3D('',#78,#79,#80);
#78=CARTESIAN_POINT('',(-47.,-5.99999999999999,0.));
#79=DIRECTION('',(-1.13384479110654E-16,-1.,0.));
#80=DIRECTION('',(1.,-1.13384479110654E-16,0.));
#81=FACE_BOUND('',#82,.T.);
#82=EDGE_LOOP('',(#180,#181,#182,#183));
#83=CYLINDRICAL_SURFACE('',#84,6.);
#84=AXIS2_PLACEMENT_3D('',#85,#86,#87);
#85=CARTESIAN_POINT('',(41.,-4.88498130835069E-15,-14.));
#86=DIRECTION('',(0.,0.,-1.));
#87=DIRECTION('',(1.,-7.40148683083438E-17,0.));
#88=FACE_BOUND('',#89,.T.);
#89=EDGE_LOOP('',(#184,#185,#186,#187));
#90=PLANE('',#91);
#91=AXIS2_PLACEMENT_3D('',#92,#93,#94);
#92=CARTESIAN_POINT('',(47.,5.99999999999999,0.));
#93=DIRECTION('',(1.13384479110654E-16,1.,0.));
#94=DIRECTION('',(-1.,1.13384479110654E-16,0.));
#95=FACE_BOUND('',#96,.T.);
#96=EDGE_LOOP('',(#188,#189,#190,#191));
#97=CYLINDRICAL_SURFACE('',#98,6.);
#98=AXIS2_PLACEMENT_3D('',#99,#100,#101);
#99=CARTESIAN_POINT('',(-41.,4.88498130835069E-15,-14.));
#100=DIRECTION('',(0.,0.,-1.));
#101=DIRECTION('',(-1.,7.40148683083438E-17,0.));
#102=FACE_OUTER_BOUND('',#103,.T.);
#103=EDGE_LOOP('',(#192));
#104=FACE_OUTER_BOUND('',#105,.T.);
#105=EDGE_LOOP('',(#193));
#106=CYLINDRICAL_SURFACE('',#107,4.1);
#107=AXIS2_PLACEMENT_3D('',#108,#109,#110);
#108=CARTESIAN_POINT('',(-41.,5.02105187650415E-15,0.));
#109=DIRECTION('',(0.,0.,1.));
#110=DIRECTION('',(-1.,1.22464679914735E-16,0.));
#111=FACE_OUTER_BOUND('',#112,.T.);
#112=EDGE_LOOP('',(#194));
#113=FACE_OUTER_BOUND('',#114,.T.);
#114=EDGE_LOOP('',(#195));
#115=CYLINDRICAL_SURFACE('',#116,4.1);
#116=AXIS2_PLACEMENT_3D('',#117,#118,#119);
#117=CARTESIAN_POINT('',(41.,-4.99329630088852E-15,0.));
#118=DIRECTION('',(0.,0.,1.));
#119=DIRECTION('',(-1.,1.22464679914735E-16,0.));
#120=FACE_BOUND('',#121,.T.);
#121=EDGE_LOOP('',(#196,#197,#198,#199));
#122=PLANE('',#123);
#123=AXIS2_PLACEMENT_3D('',#124,#125,#126);
#124=CARTESIAN_POINT('',(0.,0.,1.));
#125=DIRECTION('',(0.,0.,1.));
#126=DIRECTION('',(-1.,1.22464679914735E-16,0.));
#127=FACE_BOUND('',#128,.T.);
#128=EDGE_LOOP('',(#200,#201,#202,#203));
#129=FACE_BOUND('',#130,.T.);
#130=EDGE_LOOP('',(#204));
#131=FACE_BOUND('',#132,.T.);
#132=EDGE_LOOP('',(#205));
#133=PLANE('',#134);
#134=AXIS2_PLACEMENT_3D('',#135,#136,#137);
#135=CARTESIAN_POINT('',(0.,0.,0.));
#136=DIRECTION('',(0.,0.,1.));
#137=DIRECTION('',(-1.,1.22464679914735E-16,0.));
#138=FACE_BOUND('',#139,.T.);
#139=EDGE_LOOP('',(#206,#207,#208,#209));
#140=PLANE('',#141);
#141=AXIS2_PLACEMENT_3D('',#142,#143,#144);
#142=CARTESIAN_POINT('',(-31.,-4.,2.));
#143=DIRECTION('',(9.11666588913159E-17,0.707106781186547,0.707106781186548));
#144=DIRECTION('',(1.,-1.28929125440341E-16,0.));
#145=FACE_BOUND('',#146,.T.);
#146=EDGE_LOOP('',(#210,#211,#212,#213));
#147=CONICAL_SURFACE('',#148,3.5,0.785398163397449);
#148=AXIS2_PLACEMENT_3D('',#149,#150,#151);
#149=CARTESIAN_POINT('',(27.,-3.30654635769785E-15,1.5));
#150=DIRECTION('',(0.,0.,1.));
#151=DIRECTION('',(-0.707106781186547,-0.707106781186548,0.));
#152=FACE_BOUND('',#153,.T.);
#153=EDGE_LOOP('',(#214,#215,#216,#217));
#154=PLANE('',#155);
#155=AXIS2_PLACEMENT_3D('',#156,#157,#158);
#156=CARTESIAN_POINT('',(31.,4.,2.));
#157=DIRECTION('',(-9.11666588913159E-17,-0.707106781186547,0.707106781186548));
#158=DIRECTION('',(-1.,1.28929125440341E-16,0.));
#159=FACE_BOUND('',#160,.T.);
#160=EDGE_LOOP('',(#218,#219,#220,#221));
#161=CONICAL_SURFACE('',#162,3.5,0.785398163397449);
#162=AXIS2_PLACEMENT_3D('',#163,#164,#165);
#163=CARTESIAN_POINT('',(-27.,3.30654635769785E-15,1.5));
#164=DIRECTION('',(0.,0.,1.));
#165=DIRECTION('',(0.707106781186547,0.707106781186548,0.));
#166=ORIENTED_EDGE('',*,*,#222,.T.);
#167=ORIENTED_EDGE('',*,*,#223,.F.);
#168=ORIENTED_EDGE('',*,*,#224,.T.);
#169=ORIENTED_EDGE('',*,*,#225,.F.);
#170=ORIENTED_EDGE('',*,*,#226,.T.);
#171=ORIENTED_EDGE('',*,*,#227,.T.);
#172=ORIENTED_EDGE('',*,*,#228,.T.);
#173=ORIENTED_EDGE('',*,*,#229,.T.);
#174=ORIENTED_EDGE('',*,*,#230,.T.);
#175=ORIENTED_EDGE('',*,*,#231,.T.);
#176=ORIENTED_EDGE('',*,*,#232,.F.);
#177=ORIENTED_EDGE('',*,*,#233,.T.);
#178=ORIENTED_EDGE('',*,*,#234,.T.);
#179=ORIENTED_EDGE('',*,*,#222,.F.);
#180=ORIENTED_EDGE('',*,*,#234,.F.);
#181=ORIENTED_EDGE('',*,*,#235,.T.);
#182=ORIENTED_EDGE('',*,*,#236,.T.);
#183=ORIENTED_EDGE('',*,*,#223,.T.);
#184=ORIENTED_EDGE('',*,*,#236,.F.);
#185=ORIENTED_EDGE('',*,*,#237,.T.);
#186=ORIENTED_EDGE('',*,*,#238,.T.);
#187=ORIENTED_EDGE('',*,*,#224,.F.);
#188=ORIENTED_EDGE('',*,*,#238,.F.);
#189=ORIENTED_EDGE('',*,*,#239,.T.);
#190=ORIENTED_EDGE('',*,*,#232,.T.);
#191=ORIENTED_EDGE('',*,*,#225,.T.);
#192=ORIENTED_EDGE('',*,*,#230,.F.);
#193=ORIENTED_EDGE('',*,*,#240,.F.);
#194=ORIENTED_EDGE('',*,*,#231,.F.);
#195=ORIENTED_EDGE('',*,*,#241,.F.);
#196=ORIENTED_EDGE('',*,*,#242,.T.);
#197=ORIENTED_EDGE('',*,*,#243,.T.);
#198=ORIENTED_EDGE('',*,*,#244,.T.);
#199=ORIENTED_EDGE('',*,*,#245,.T.);
#200=ORIENTED_EDGE('',*,*,#239,.F.);
#201=ORIENTED_EDGE('',*,*,#237,.F.);
#202=ORIENTED_EDGE('',*,*,#235,.F.);
#203=ORIENTED_EDGE('',*,*,#233,.F.);
#204=ORIENTED_EDGE('',*,*,#241,.T.);
#205=ORIENTED_EDGE('',*,*,#240,.T.);
#206=ORIENTED_EDGE('',*,*,#226,.F.);
#207=ORIENTED_EDGE('',*,*,#246,.T.);
#208=ORIENTED_EDGE('',*,*,#242,.F.);
#209=ORIENTED_EDGE('',*,*,#247,.F.);
#210=ORIENTED_EDGE('',*,*,#229,.F.);
#211=ORIENTED_EDGE('',*,*,#248,.T.);
#212=ORIENTED_EDGE('',*,*,#243,.F.);
#213=ORIENTED_EDGE('',*,*,#246,.F.);
#214=ORIENTED_EDGE('',*,*,#228,.F.);
#215=ORIENTED_EDGE('',*,*,#249,.T.);
#216=ORIENTED_EDGE('',*,*,#244,.F.);
#217=ORIENTED_EDGE('',*,*,#248,.F.);
#218=ORIENTED_EDGE('',*,*,#227,.F.);
#219=ORIENTED_EDGE('',*,*,#247,.T.);
#220=ORIENTED_EDGE('',*,*,#245,.F.);
#221=ORIENTED_EDGE('',*,*,#249,.F.);
#222=EDGE_CURVE('',#250,#251,#252,.T.);
#223=EDGE_CURVE('',#253,#251,#254,.F.);
#224=EDGE_CURVE('',#253,#255,#256,.T.);
#225=EDGE_CURVE('',#250,#255,#257,.F.);
#226=EDGE_CURVE('',#258,#259,#260,.F.);
#227=EDGE_CURVE('',#259,#261,#262,.F.);
#228=EDGE_CURVE('',#261,#263,#264,.F.);
#229=EDGE_CURVE('',#263,#258,#265,.F.);
#230=EDGE_CURVE('',#266,#266,#267,.F.);
#231=EDGE_CURVE('',#268,#268,#269,.F.);
#232=EDGE_CURVE('',#270,#250,#271,.T.);
#233=EDGE_CURVE('',#270,#272,#273,.T.);
#234=EDGE_CURVE('',#272,#251,#274,.T.);
#235=EDGE_CURVE('',#272,#275,#276,.F.);
#236=EDGE_CURVE('',#275,#253,#277,.T.);
#237=EDGE_CURVE('',#275,#278,#279,.T.);
#238=EDGE_CURVE('',#278,#255,#280,.T.);
#239=EDGE_CURVE('',#278,#270,#281,.F.);
#240=EDGE_CURVE('',#282,#282,#283,.T.);
#241=EDGE_CURVE('',#284,#284,#285,.T.);
#242=EDGE_CURVE('',#286,#287,#288,.T.);
#243=EDGE_CURVE('',#287,#289,#290,.T.);
#244=EDGE_CURVE('',#289,#291,#292,.T.);
#245=EDGE_CURVE('',#291,#286,#293,.T.);
#246=EDGE_CURVE('',#258,#287,#294,.T.);
#247=EDGE_CURVE('',#259,#286,#295,.T.);
#248=EDGE_CURVE('',#263,#289,#296,.T.);
#249=EDGE_CURVE('',#261,#291,#297,.T.);
#250=VERTEX_POINT('',#298);
#251=VERTEX_POINT('',#299);
#252=LINE('',#300,#301);
#253=VERTEX_POINT('',#303);
#254=CIRCLE('',#304,6.);
#255=VERTEX_POINT('',#308);
#256=LINE('',#309,#310);
#257=CIRCLE('',#312,6.);
#258=VERTEX_POINT('',#316);
#259=VERTEX_POINT('',#317);
#260=LINE('',#318,#319);
#261=VERTEX_POINT('',#321);
#262=CIRCLE('',#322,4.);
#263=VERTEX_POINT('',#326);
#264=LINE('',#327,#328);
#265=CIRCLE('',#330,4.);
#266=VERTEX_POINT('',#334);
#267=CIRCLE('',#335,4.1);
#268=VERTEX_POINT('',#339);
#269=CIRCLE('',#340,4.1);
#270=VERTEX_POINT('',#344);
#271=LINE('',#345,#346);
#272=VERTEX_POINT('',#348);
#273=LINE('',#349,#350);
#274=LINE('',#352,#353);
#275=VERTEX_POINT('',#355);
#276=CIRCLE('',#356,6.);
#277=LINE('',#360,#361);
#278=VERTEX_POINT('',#363);
#279=LINE('',#364,#365);
#280=LINE('',#367,#368);
#281=CIRCLE('',#370,6.);
#282=VERTEX_POINT('',#374);
#283=CIRCLE('',#375,4.1);
#284=VERTEX_POINT('',#379);
#285=CIRCLE('',#380,4.1);
#286=VERTEX_POINT('',#384);
#287=VERTEX_POINT('',#385);
#288=LINE('',#386,#387);
#289=VERTEX_POINT('',#389);
#290=CIRCLE('',#390,3.);
#291=VERTEX_POINT('',#394);
#292=LINE('',#395,#396);
#293=CIRCLE('',#398,3.);
#294=LINE('',#402,#403);
#295=LINE('',#405,#406);
#296=LINE('',#408,#409);
#297=LINE('',#411,#412);
#298=CARTESIAN_POINT('',(-41.,-5.99999999999999,2.));
#299=CARTESIAN_POINT('',(41.,-6.,2.));
#300=CARTESIAN_POINT('',(-41.,-5.99999999999999,2.));
#301=VECTOR('',#302,1.);
#302=DIRECTION('',(1.,-1.29977329712213E-16,0.));
#303=CARTESIAN_POINT('',(41.,5.99999999999999,2.));
#304=AXIS2_PLACEMENT_3D('',#305,#306,#307);
#305=CARTESIAN_POINT('',(41.,-4.88498130835069E-15,2.));
#306=DIRECTION('',(0.,0.,1.));
#307=DIRECTION('',(0.,-1.,0.));
#308=CARTESIAN_POINT('',(-41.,6.,2.));
#309=CARTESIAN_POINT('',(41.,5.99999999999999,2.));
#310=VECTOR('',#311,1.);
#311=DIRECTION('',(-1.,1.29977329712213E-16,0.));
#312=AXIS2_PLACEMENT_3D('',#313,#314,#315);
#313=CARTESIAN_POINT('',(-41.,4.88498130835069E-15,2.));
#314=DIRECTION('',(0.,0.,1.));
#315=DIRECTION('',(0.,1.,0.));
#316=CARTESIAN_POINT('',(27.,-4.,2.));
#317=CARTESIAN_POINT('',(-27.,-4.,2.));
#318=CARTESIAN_POINT('',(-27.,-4.,2.));
#319=VECTOR('',#320,1.);
#320=DIRECTION('',(1.,-1.2335811384724E-16,0.));
#321=CARTESIAN_POINT('',(-27.,4.,2.));
#322=AXIS2_PLACEMENT_3D('',#323,#324,#325);
#323=CARTESIAN_POINT('',(-27.,3.30654635769785E-15,2.));
#324=DIRECTION('',(0.,0.,1.));
#325=DIRECTION('',(0.,1.,0.));
#326=CARTESIAN_POINT('',(27.,4.,2.));
#327=CARTESIAN_POINT('',(27.,4.,2.));
#328=VECTOR('',#329,1.);
#329=DIRECTION('',(-1.,1.2335811384724E-16,0.));
#330=AXIS2_PLACEMENT_3D('',#331,#332,#333);
#331=CARTESIAN_POINT('',(27.,-3.30654635769785E-15,2.));
#332=DIRECTION('',(0.,0.,1.));
#333=DIRECTION('',(0.,-1.,0.));
#334=CARTESIAN_POINT('',(-45.1,5.52315706415456E-15,2.));
#335=AXIS2_PLACEMENT_3D('',#336,#337,#338);
#336=CARTESIAN_POINT('',(-41.,5.02105187650415E-15,2.));
#337=DIRECTION('',(0.,0.,1.));
#338=DIRECTION('',(-1.,1.22464679914735E-16,0.));
#339=CARTESIAN_POINT('',(36.9,-4.4911911132381E-15,2.));
#340=AXIS2_PLACEMENT_3D('',#341,#342,#343);
#341=CARTESIAN_POINT('',(41.,-4.99329630088852E-15,2.));
#342=DIRECTION('',(0.,0.,1.));
#343=DIRECTION('',(-1.,1.22464679914735E-16,0.));
#344=CARTESIAN_POINT('',(-41.,-5.99999999999999,0.));
#345=CARTESIAN_POINT('',(-41.,-5.99999999999999,0.));
#346=VECTOR('',#347,1.);
#347=DIRECTION('',(0.,0.,1.));
#348=CARTESIAN_POINT('',(41.,-6.,0.));
#349=CARTESIAN_POINT('',(-41.,-5.99999999999999,0.));
#350=VECTOR('',#351,1.);
#351=DIRECTION('',(1.,-1.29977329712213E-16,0.));
#352=CARTESIAN_POINT('',(41.,-6.00000000000001,0.));
#353=VECTOR('',#354,1.);
#354=DIRECTION('',(0.,0.,1.));
#355=CARTESIAN_POINT('',(41.,5.99999999999999,0.));
#356=AXIS2_PLACEMENT_3D('',#357,#358,#359);
#357=CARTESIAN_POINT('',(41.,-4.88498130835069E-15,0.));
#358=DIRECTION('',(0.,0.,-1.));
#359=DIRECTION('',(0.,1.,0.));
#360=CARTESIAN_POINT('',(41.,5.99999999999999,0.));
#361=VECTOR('',#362,1.);
#362=DIRECTION('',(0.,0.,1.));
#363=CARTESIAN_POINT('',(-41.,6.,0.));
#364=CARTESIAN_POINT('',(41.,5.99999999999999,0.));
#365=VECTOR('',#366,1.);
#366=DIRECTION('',(-1.,1.29977329712213E-16,0.));
#367=CARTESIAN_POINT('',(-41.,6.00000000000001,0.));
#368=VECTOR('',#369,1.);
#369=DIRECTION('',(0.,0.,1.));
#370=AXIS2_PLACEMENT_3D('',#371,#372,#373);
#371=CARTESIAN_POINT('',(-41.,4.88498130835069E-15,0.));
#372=DIRECTION('',(0.,0.,-1.));
#373=DIRECTION('',(1.1842378929335E-15,-1.,0.));
#374=CARTESIAN_POINT('',(-45.1,5.52315706415456E-15,0.));
#375=AXIS2_PLACEMENT_3D('',#376,#377,#378);
#376=CARTESIAN_POINT('',(-41.,5.02105187650415E-15,0.));
#377=DIRECTION('',(0.,0.,1.));
#378=DIRECTION('',(-1.,1.22464679914735E-16,0.));
#379=CARTESIAN_POINT('',(36.9,-4.4911911132381E-15,0.));
#380=AXIS2_PLACEMENT_3D('',#381,#382,#383);
#381=CARTESIAN_POINT('',(41.,-4.99329630088852E-15,0.));
#382=DIRECTION('',(0.,0.,1.));
#383=DIRECTION('',(-1.,1.22464679914735E-16,0.));
#384=CARTESIAN_POINT('',(-27.,-3.,1.));
#385=CARTESIAN_POINT('',(27.,-3.,1.));
#386=CARTESIAN_POINT('',(-27.,-3.,1.));
#387=VECTOR('',#388,1.);
#388=DIRECTION('',(1.,-1.2335811384724E-16,4.11193712824132E-18));
#389=CARTESIAN_POINT('',(27.,3.,1.));
#390=AXIS2_PLACEMENT_3D('',#391,#392,#393);
#391=CARTESIAN_POINT('',(27.,-3.30654635769785E-15,1.));
#392=DIRECTION('',(0.,0.,1.));
#393=DIRECTION('',(0.,-1.,0.));
#394=CARTESIAN_POINT('',(-27.,3.,1.));
#395=CARTESIAN_POINT('',(27.,3.,1.));
#396=VECTOR('',#397,1.);
#397=DIRECTION('',(-1.,1.2335811384724E-16,4.11193712824132E-18));
#398=AXIS2_PLACEMENT_3D('',#399,#400,#401);
#399=CARTESIAN_POINT('',(-27.,3.30654635769785E-15,1.));
#400=DIRECTION('',(0.,0.,1.));
#401=DIRECTION('',(0.,1.,0.));
#402=CARTESIAN_POINT('',(27.,-4.,2.));
#403=VECTOR('',#404,1.);
#404=DIRECTION('',(-2.51214793389404E-15,0.707106781186548,-0.707106781186547));
#405=CARTESIAN_POINT('',(-27.,-4.,2.));
#406=VECTOR('',#407,1.);
#407=DIRECTION('',(0.,0.707106781186548,-0.707106781186547));
#408=CARTESIAN_POINT('',(27.,4.,2.));
#409=VECTOR('',#410,1.);
#410=DIRECTION('',(0.,-0.707106781186548,-0.707106781186547));
#411=CARTESIAN_POINT('',(-27.,4.,2.));
#412=VECTOR('',#413,1.);
#413=DIRECTION('',(2.51214793389404E-15,-0.707106781186548,-0.707106781186547));
ENDSEC;
END-ISO-10303-21;
