ISO-10303-21;
HEADER;
FILE_DESCRIPTION(('STEP AP242'),
    '1');
FILE_NAME('itemMixerAttachmentSpacer11',
    '',
    ('UNSPECIFIED'),
    ('UNSPECIFIED'),
    'C3D Converter',
    'C3D Toolkit',
    '');
FILE_SCHEMA(('AP242_MANAGED_MODEL_BASED_3D_ENGINEERING_MIM_LF { 1 0 10303 442 1 1 4 }'));
ENDSEC;

DATA;
#1=PRODUCT_DEFINITION('','UNSPECIFIED',#28,#31);
#2=SHAPE_DEFINITION_REPRESENTATION(#26,#3);
#3=SHAPE_REPRESENTATION('NONE',(#4),#8);
#4=AXIS2_PLACEMENT_3D('',#5,#6,#7);
#5=CARTESIAN_POINT('',(0.,0.,0.));
#6=DIRECTION('',(0.,0.,1.));
#7=DIRECTION('',(1.,0.,0.));
#8=(GEOMETRIC_REPRESENTATION_CONTEXT(3)GLOBAL_UNCERTAINTY_ASSIGNED_CONTEXT((#10))
GLOBAL_UNIT_ASSIGNED_CONTEXT((#9,#11,#12))REPRESENTATION_CONTEXT('NONE','NONE'));
#9=(LENGTH_UNIT()NAMED_UNIT(*)SI_UNIT(.MILLI.,.METRE.));
#10=UNCERTAINTY_MEASURE_WITH_UNIT(LENGTH_MEASURE(1.E-5),#9,'NONE','NONE');
#11=(NAMED_UNIT(*)PLANE_ANGLE_UNIT()SI_UNIT($,.RADIAN.));
#12=(NAMED_UNIT(*)SI_UNIT($,.STERADIAN.)SOLID_ANGLE_UNIT());
#13=MANIFOLD_SOLID_BREP('',#14);
#14=CLOSED_SHELL('',(#48,#49,#50,#51,#52,#53,#54,#55,#56,#57,#58,#59));
#15=COLOUR_RGB('',0.564705882352941,0.564705882352941,0.564705882352941);
#16=FILL_AREA_STYLE_COLOUR('',#15);
#17=FILL_AREA_STYLE($,(#16));
#18=SURFACE_STYLE_FILL_AREA(#17);
#19=SURFACE_SIDE_STYLE('',(#18));
#20=SURFACE_STYLE_USAGE(.BOTH.,#19);
#21=PRESENTATION_STYLE_ASSIGNMENT((#20));
#22=MECHANICAL_DESIGN_GEOMETRIC_PRESENTATION_REPRESENTATION('NONE',(#23),#8);
#23=STYLED_ITEM('',(#21),#13);
#24=ADVANCED_BREP_SHAPE_REPRESENTATION('NONE',(#13),#8);
#25=SHAPE_REPRESENTATION_RELATIONSHIP('','',#3,#24);
#26=PRODUCT_DEFINITION_SHAPE('NONE','NONE',#1);
#27=MECHANICAL_CONTEXT('NONE',#32,'mechanical');
#28=PRODUCT_DEFINITION_FORMATION_WITH_SPECIFIED_SOURCE('ANY','UNSPECIFIED',#29,.NOT_KNOWN.);
#29=PRODUCT('','itemMixerAttachmentSpacer11','NONE',(#27));
#30=PRODUCT_RELATED_PRODUCT_CATEGORY('detail','',(#29));
#31=DESIGN_CONTEXT('detailed design',#32,'design');
#32=APPLICATION_CONTEXT('configuration controlled 3d designs of mechanical parts and assemblies');
#33=APPLICATION_PROTOCOL_DEFINITION('international standard','config_control_design',
1994,#32);
#34=CC_DESIGN_DATE_AND_TIME_ASSIGNMENT(#35,#39,(#1));
#35=DATE_AND_TIME(#36,#37);
#36=CALENDAR_DATE(0,1,1);
#37=LOCAL_TIME(0,0,0.,#38);
#38=COORDINATED_UNIVERSAL_TIME_OFFSET(0,0,.AHEAD.);
#39=DATE_TIME_ROLE('creation_date');
#40=CC_DESIGN_APPROVAL(#41,(#1));
#41=APPROVAL(#42,'UNSPECIFIED');
#42=APPROVAL_STATUS('not_yet_approved');
#43=APPROVAL_DATE_TIME(#44,#41);
#44=DATE_AND_TIME(#45,#46);
#45=CALENDAR_DATE(0,1,1);
#46=LOCAL_TIME(0,0,0.,#47);
#47=COORDINATED_UNIVERSAL_TIME_OFFSET(0,0,.AHEAD.);
#48=ADVANCED_FACE('',(#60),#62,.T.);
#49=ADVANCED_FACE('',(#67),#69,.T.);
#50=ADVANCED_FACE('',(#74),#76,.T.);
#51=ADVANCED_FACE('',(#81),#83,.T.);
#52=ADVANCED_FACE('',(#88),#90,.F.);
#53=ADVANCED_FACE('',(#95),#97,.T.);
#54=ADVANCED_FACE('',(#102),#104,.T.);
#55=ADVANCED_FACE('',(#109),#111,.F.);
#56=ADVANCED_FACE('',(#116),#118,.T.);
#57=ADVANCED_FACE('',(#123),#125,.T.);
#58=ADVANCED_FACE('',(#130),#132,.F.);
#59=ADVANCED_FACE('',(#137),#139,.T.);
#60=FACE_BOUND('',#61,.T.);
#61=EDGE_LOOP('',(#144,#145,#146,#147,#148,#149,#150,#151));
#62=PLANE('',#63);
#63=AXIS2_PLACEMENT_3D('',#64,#65,#66);
#64=CARTESIAN_POINT('',(0.,0.,11.));
#65=DIRECTION('',(0.,0.,1.));
#66=DIRECTION('',(-1.,1.22464679914735E-16,0.));
#67=FACE_BOUND('',#68,.T.);
#68=EDGE_LOOP('',(#152,#153,#154,#155,#156,#157));
#69=PLANE('',#70);
#70=AXIS2_PLACEMENT_3D('',#71,#72,#73);
#71=CARTESIAN_POINT('',(0.,0.,13.));
#72=DIRECTION('',(0.,0.,1.));
#73=DIRECTION('',(-1.,1.22464679914735E-16,0.));
#74=FACE_BOUND('',#75,.T.);
#75=EDGE_LOOP('',(#158,#159,#160,#161));
#76=CYLINDRICAL_SURFACE('',#77,62.4);
#77=AXIS2_PLACEMENT_3D('',#78,#79,#80);
#78=CARTESIAN_POINT('',(1.99642187486482E-14,60.,11.));
#79=DIRECTION('',(0.,0.,1.));
#80=DIRECTION('',(-1.,1.22464679914735E-16,0.));
#81=FACE_BOUND('',#82,.T.);
#82=EDGE_LOOP('',(#162,#163,#164,#165));
#83=CYLINDRICAL_SURFACE('',#84,62.4);
#84=AXIS2_PLACEMENT_3D('',#85,#86,#87);
#85=CARTESIAN_POINT('',(1.99642187486482E-14,60.,11.));
#86=DIRECTION('',(0.,0.,1.));
#87=DIRECTION('',(-1.,1.22464679914735E-16,0.));
#88=FACE_BOUND('',#89,.T.);
#89=EDGE_LOOP('',(#166,#167,#168,#169));
#90=CYLINDRICAL_SURFACE('',#91,9.1);
#91=AXIS2_PLACEMENT_3D('',#92,#93,#94);
#92=CARTESIAN_POINT('',(0.,0.,11.));
#93=DIRECTION('',(0.,0.,1.));
#94=DIRECTION('',(-1.,1.22464679914735E-16,0.));
#95=FACE_BOUND('',#96,.T.);
#96=EDGE_LOOP('',(#170,#171,#172,#173,#174,#175));
#97=PLANE('',#98);
#98=AXIS2_PLACEMENT_3D('',#99,#100,#101);
#99=CARTESIAN_POINT('',(-11.,1.34711147906209E-15,0.));
#100=DIRECTION('',(-1.,1.61486985400023E-16,0.));
#101=DIRECTION('',(-1.61486985400023E-16,-1.,0.));
#102=FACE_BOUND('',#103,.T.);
#103=EDGE_LOOP('',(#176,#177,#178,#179,#180,#181,#182,#183));
#104=CYLINDRICAL_SURFACE('',#105,11.);
#105=AXIS2_PLACEMENT_3D('',#106,#107,#108);
#106=CARTESIAN_POINT('',(-2.02066721859313E-15,-11.,0.));
#107=DIRECTION('',(0.,0.,1.));
#108=DIRECTION('',(-1.,1.22464679914735E-16,0.));
#109=FACE_BOUND('',#110,.T.);
#110=EDGE_LOOP('',(#184,#185,#186,#187));
#111=CYLINDRICAL_SURFACE('',#112,72.5);
#112=AXIS2_PLACEMENT_3D('',#113,#114,#115);
#113=CARTESIAN_POINT('',(1.99642187486482E-14,60.,11.));
#114=DIRECTION('',(0.,0.,1.));
#115=DIRECTION('',(-1.,1.22464679914735E-16,0.));
#116=FACE_BOUND('',#117,.T.);
#117=EDGE_LOOP('',(#188,#189,#190,#191,#192,#193));
#118=PLANE('',#119);
#119=AXIS2_PLACEMENT_3D('',#120,#121,#122);
#120=CARTESIAN_POINT('',(11.,-11.,0.));
#121=DIRECTION('',(1.,-1.61486985400023E-16,0.));
#122=DIRECTION('',(1.61486985400023E-16,1.,0.));
#123=FACE_BOUND('',#124,.T.);
#124=EDGE_LOOP('',(#194,#195,#196,#197));
#125=CYLINDRICAL_SURFACE('',#126,11.);
#126=AXIS2_PLACEMENT_3D('',#127,#128,#129);
#127=CARTESIAN_POINT('',(0.,0.,0.));
#128=DIRECTION('',(0.,0.,1.));
#129=DIRECTION('',(1.,-2.44929359829471E-16,0.));
#130=FACE_BOUND('',#131,.T.);
#131=EDGE_LOOP('',(#198,#199,#200,#201));
#132=PLANE('',#133);
#133=AXIS2_PLACEMENT_3D('',#134,#135,#136);
#134=CARTESIAN_POINT('',(0.,0.,0.));
#135=DIRECTION('',(0.,0.,1.));
#136=DIRECTION('',(-1.,1.22464679914735E-16,0.));
#137=FACE_BOUND('',#138,.T.);
#138=EDGE_LOOP('',(#202,#203));
#139=PLANE('',#140);
#140=AXIS2_PLACEMENT_3D('',#141,#142,#143);
#141=CARTESIAN_POINT('',(0.,0.,13.));
#142=DIRECTION('',(0.,0.,1.));
#143=DIRECTION('',(-1.,1.22464679914735E-16,0.));
#144=ORIENTED_EDGE('',*,*,#204,.F.);
#145=ORIENTED_EDGE('',*,*,#205,.F.);
#146=ORIENTED_EDGE('',*,*,#206,.T.);
#147=ORIENTED_EDGE('',*,*,#207,.F.);
#148=ORIENTED_EDGE('',*,*,#208,.F.);
#149=ORIENTED_EDGE('',*,*,#209,.F.);
#150=ORIENTED_EDGE('',*,*,#210,.T.);
#151=ORIENTED_EDGE('',*,*,#211,.F.);
#152=ORIENTED_EDGE('',*,*,#212,.T.);
#153=ORIENTED_EDGE('',*,*,#213,.T.);
#154=ORIENTED_EDGE('',*,*,#214,.T.);
#155=ORIENTED_EDGE('',*,*,#215,.T.);
#156=ORIENTED_EDGE('',*,*,#216,.T.);
#157=ORIENTED_EDGE('',*,*,#217,.T.);
#158=ORIENTED_EDGE('',*,*,#218,.T.);
#159=ORIENTED_EDGE('',*,*,#217,.F.);
#160=ORIENTED_EDGE('',*,*,#219,.F.);
#161=ORIENTED_EDGE('',*,*,#211,.T.);
#162=ORIENTED_EDGE('',*,*,#220,.T.);
#163=ORIENTED_EDGE('',*,*,#209,.T.);
#164=ORIENTED_EDGE('',*,*,#221,.F.);
#165=ORIENTED_EDGE('',*,*,#213,.F.);
#166=ORIENTED_EDGE('',*,*,#218,.F.);
#167=ORIENTED_EDGE('',*,*,#210,.F.);
#168=ORIENTED_EDGE('',*,*,#220,.F.);
#169=ORIENTED_EDGE('',*,*,#212,.F.);
#170=ORIENTED_EDGE('',*,*,#204,.T.);
#171=ORIENTED_EDGE('',*,*,#219,.T.);
#172=ORIENTED_EDGE('',*,*,#216,.F.);
#173=ORIENTED_EDGE('',*,*,#222,.F.);
#174=ORIENTED_EDGE('',*,*,#223,.T.);
#175=ORIENTED_EDGE('',*,*,#224,.T.);
#176=ORIENTED_EDGE('',*,*,#205,.T.);
#177=ORIENTED_EDGE('',*,*,#224,.F.);
#178=ORIENTED_EDGE('',*,*,#225,.T.);
#179=ORIENTED_EDGE('',*,*,#226,.T.);
#180=ORIENTED_EDGE('',*,*,#207,.T.);
#181=ORIENTED_EDGE('',*,*,#227,.T.);
#182=ORIENTED_EDGE('',*,*,#228,.F.);
#183=ORIENTED_EDGE('',*,*,#229,.T.);
#184=ORIENTED_EDGE('',*,*,#229,.F.);
#185=ORIENTED_EDGE('',*,*,#230,.F.);
#186=ORIENTED_EDGE('',*,*,#227,.F.);
#187=ORIENTED_EDGE('',*,*,#206,.F.);
#188=ORIENTED_EDGE('',*,*,#208,.T.);
#189=ORIENTED_EDGE('',*,*,#226,.F.);
#190=ORIENTED_EDGE('',*,*,#231,.T.);
#191=ORIENTED_EDGE('',*,*,#232,.T.);
#192=ORIENTED_EDGE('',*,*,#214,.F.);
#193=ORIENTED_EDGE('',*,*,#221,.T.);
#194=ORIENTED_EDGE('',*,*,#233,.T.);
#195=ORIENTED_EDGE('',*,*,#222,.T.);
#196=ORIENTED_EDGE('',*,*,#215,.F.);
#197=ORIENTED_EDGE('',*,*,#232,.F.);
#198=ORIENTED_EDGE('',*,*,#233,.F.);
#199=ORIENTED_EDGE('',*,*,#231,.F.);
#200=ORIENTED_EDGE('',*,*,#225,.F.);
#201=ORIENTED_EDGE('',*,*,#223,.F.);
#202=ORIENTED_EDGE('',*,*,#230,.T.);
#203=ORIENTED_EDGE('',*,*,#228,.T.);
#204=EDGE_CURVE('',#234,#235,#236,.T.);
#205=EDGE_CURVE('',#237,#234,#238,.F.);
#206=EDGE_CURVE('',#237,#239,#240,.T.);
#207=EDGE_CURVE('',#241,#239,#242,.F.);
#208=EDGE_CURVE('',#243,#241,#244,.T.);
#209=EDGE_CURVE('',#245,#243,#246,.T.);
#210=EDGE_CURVE('',#245,#247,#248,.T.);
#211=EDGE_CURVE('',#235,#247,#249,.T.);
#212=EDGE_CURVE('',#250,#251,#252,.F.);
#213=EDGE_CURVE('',#251,#253,#254,.T.);
#214=EDGE_CURVE('',#253,#255,#256,.T.);
#215=EDGE_CURVE('',#255,#257,#258,.T.);
#216=EDGE_CURVE('',#257,#259,#260,.T.);
#217=EDGE_CURVE('',#259,#250,#261,.T.);
#218=EDGE_CURVE('',#247,#250,#262,.T.);
#219=EDGE_CURVE('',#235,#259,#263,.T.);
#220=EDGE_CURVE('',#251,#245,#264,.F.);
#221=EDGE_CURVE('',#253,#243,#265,.F.);
#222=EDGE_CURVE('',#266,#257,#267,.T.);
#223=EDGE_CURVE('',#266,#268,#269,.T.);
#224=EDGE_CURVE('',#268,#234,#270,.T.);
#225=EDGE_CURVE('',#268,#271,#272,.T.);
#226=EDGE_CURVE('',#271,#241,#273,.T.);
#227=EDGE_CURVE('',#239,#274,#275,.T.);
#228=EDGE_CURVE('',#276,#274,#277,.T.);
#229=EDGE_CURVE('',#276,#237,#278,.F.);
#230=EDGE_CURVE('',#274,#276,#279,.F.);
#231=EDGE_CURVE('',#271,#280,#281,.T.);
#232=EDGE_CURVE('',#280,#255,#282,.T.);
#233=EDGE_CURVE('',#280,#266,#283,.T.);
#234=VERTEX_POINT('',#284);
#235=VERTEX_POINT('',#285);
#236=LINE('',#286,#287);
#237=VERTEX_POINT('',#289);
#238=CIRCLE('',#290,11.);
#239=VERTEX_POINT('',#294);
#240=CIRCLE('',#295,72.5);
#241=VERTEX_POINT('',#299);
#242=CIRCLE('',#300,11.);
#243=VERTEX_POINT('',#304);
#244=LINE('',#305,#306);
#245=VERTEX_POINT('',#308);
#246=CIRCLE('',#309,62.4);
#247=VERTEX_POINT('',#313);
#248=CIRCLE('',#314,9.1);
#249=CIRCLE('',#318,62.4);
#250=VERTEX_POINT('',#322);
#251=VERTEX_POINT('',#323);
#252=CIRCLE('',#324,9.1);
#253=VERTEX_POINT('',#328);
#254=CIRCLE('',#329,62.4);
#255=VERTEX_POINT('',#333);
#256=LINE('',#334,#335);
#257=VERTEX_POINT('',#337);
#258=CIRCLE('',#338,11.);
#259=VERTEX_POINT('',#342);
#260=LINE('',#343,#344);
#261=CIRCLE('',#346,62.4);
#262=LINE('',#350,#351);
#263=LINE('',#353,#354);
#264=LINE('',#356,#357);
#265=LINE('',#359,#360);
#266=VERTEX_POINT('',#362);
#267=LINE('',#363,#364);
#268=VERTEX_POINT('',#366);
#269=LINE('',#367,#368);
#270=LINE('',#370,#371);
#271=VERTEX_POINT('',#373);
#272=CIRCLE('',#374,11.);
#273=LINE('',#378,#379);
#274=VERTEX_POINT('',#381);
#275=LINE('',#382,#383);
#276=VERTEX_POINT('',#385);
#277=CIRCLE('',#386,11.);
#278=LINE('',#390,#391);
#279=CIRCLE('',#393,72.5);
#280=VERTEX_POINT('',#397);
#281=LINE('',#398,#399);
#282=LINE('',#401,#402);
#283=CIRCLE('',#404,11.);
#284=CARTESIAN_POINT('',(-11.,-11.,11.));
#285=CARTESIAN_POINT('',(-11.,-1.42279707079449,11.));
#286=CARTESIAN_POINT('',(-11.,-11.,11.));
#287=VECTOR('',#288,1.);
#288=DIRECTION('',(1.85477623532783E-16,1.,0.));
#289=CARTESIAN_POINT('',(-10.9799571633349,-11.6637323943662,11.));
#290=AXIS2_PLACEMENT_3D('',#291,#292,#293);
#291=CARTESIAN_POINT('',(-2.02066721859313E-15,-11.,11.));
#292=DIRECTION('',(0.,0.,1.));
#293=DIRECTION('',(-1.,1.61486985400023E-16,0.));
#294=CARTESIAN_POINT('',(10.9799571633349,-11.6637323943662,11.));
#295=AXIS2_PLACEMENT_3D('',#296,#297,#298);
#296=CARTESIAN_POINT('',(1.99642187486482E-14,60.,11.));
#297=DIRECTION('',(0.,0.,1.));
#298=DIRECTION('',(-0.151447685011516,-0.988465274405051,0.));
#299=CARTESIAN_POINT('',(11.,-11.,11.));
#300=AXIS2_PLACEMENT_3D('',#301,#302,#303);
#301=CARTESIAN_POINT('',(-2.02066721859313E-15,-11.,11.));
#302=DIRECTION('',(0.,0.,1.));
#303=DIRECTION('',(0.998177923939534,-0.0603393085787456,0.));
#304=CARTESIAN_POINT('',(11.,-1.4227970707945,11.));
#305=CARTESIAN_POINT('',(11.,-1.4227970707945,11.));
#306=VECTOR('',#307,1.);
#307=DIRECTION('',(-1.85477623532784E-16,-1.,0.));
#308=CARTESIAN_POINT('',(8.92859053787637,-1.75791666666667,11.));
#309=AXIS2_PLACEMENT_3D('',#310,#311,#312);
#310=CARTESIAN_POINT('',(1.99642187486482E-14,60.,11.));
#311=DIRECTION('',(0.,0.,1.));
#312=DIRECTION('',(0.143086386824942,-0.989710202991453,0.));
#313=CARTESIAN_POINT('',(-8.92859053787638,-1.75791666666667,11.));
#314=AXIS2_PLACEMENT_3D('',#315,#316,#317);
#315=CARTESIAN_POINT('',(0.,0.,11.));
#316=DIRECTION('',(0.,0.,1.));
#317=DIRECTION('',(0.98116379537103,-0.193177655677656,0.));
#318=AXIS2_PLACEMENT_3D('',#319,#320,#321);
#319=CARTESIAN_POINT('',(1.99642187486482E-14,60.,11.));
#320=DIRECTION('',(0.,0.,1.));
#321=DIRECTION('',(-0.176282051282052,-0.984339696647348,0.));
#322=CARTESIAN_POINT('',(-8.92859053787638,-1.75791666666667,13.));
#323=CARTESIAN_POINT('',(8.92859053787637,-1.75791666666667,13.));
#324=AXIS2_PLACEMENT_3D('',#325,#326,#327);
#325=CARTESIAN_POINT('',(0.,0.,13.));
#326=DIRECTION('',(0.,0.,1.));
#327=DIRECTION('',(0.98116379537103,-0.193177655677656,0.));
#328=CARTESIAN_POINT('',(11.,-1.4227970707945,13.));
#329=AXIS2_PLACEMENT_3D('',#330,#331,#332);
#330=CARTESIAN_POINT('',(1.99642187486482E-14,60.,13.));
#331=DIRECTION('',(0.,0.,1.));
#332=DIRECTION('',(0.143086386824941,-0.989710202991453,0.));
#333=CARTESIAN_POINT('',(11.,-2.69422295812418E-15,13.));
#334=CARTESIAN_POINT('',(11.,-1.4227970707945,13.));
#335=VECTOR('',#336,1.);
#336=DIRECTION('',(0.,1.,0.));
#337=CARTESIAN_POINT('',(-11.,1.34711147906209E-15,13.));
#338=AXIS2_PLACEMENT_3D('',#339,#340,#341);
#339=CARTESIAN_POINT('',(0.,0.,13.));
#340=DIRECTION('',(0.,0.,1.));
#341=DIRECTION('',(1.,-2.44929359829471E-16,0.));
#342=CARTESIAN_POINT('',(-11.,-1.42279707079448,13.));
#343=CARTESIAN_POINT('',(-11.,1.34711147906209E-15,13.));
#344=VECTOR('',#345,1.);
#345=DIRECTION('',(0.,-1.,0.));
#346=AXIS2_PLACEMENT_3D('',#347,#348,#349);
#347=CARTESIAN_POINT('',(1.99642187486482E-14,60.,13.));
#348=DIRECTION('',(0.,0.,1.));
#349=DIRECTION('',(-0.176282051282052,-0.984339696647348,0.));
#350=CARTESIAN_POINT('',(-8.92859053787638,-1.75791666666667,11.));
#351=VECTOR('',#352,1.);
#352=DIRECTION('',(0.,0.,1.));
#353=CARTESIAN_POINT('',(-11.,-1.42279707079449,11.));
#354=VECTOR('',#355,1.);
#355=DIRECTION('',(0.,0.,1.));
#356=CARTESIAN_POINT('',(8.92859053787637,-1.75791666666667,11.));
#357=VECTOR('',#358,1.);
#358=DIRECTION('',(0.,0.,1.));
#359=CARTESIAN_POINT('',(11.,-1.42279707079449,11.));
#360=VECTOR('',#361,1.);
#361=DIRECTION('',(0.,0.,1.));
#362=CARTESIAN_POINT('',(-11.,1.34711147906209E-15,0.));
#363=CARTESIAN_POINT('',(-11.,2.69422295812418E-15,0.));
#364=VECTOR('',#365,1.);
#365=DIRECTION('',(0.,0.,1.));
#366=CARTESIAN_POINT('',(-11.,-11.,0.));
#367=CARTESIAN_POINT('',(-11.,1.34711147906209E-15,0.));
#368=VECTOR('',#369,1.);
#369=DIRECTION('',(-1.61486985400023E-16,-1.,0.));
#370=CARTESIAN_POINT('',(-11.,-11.,0.));
#371=VECTOR('',#372,1.);
#372=DIRECTION('',(0.,0.,1.));
#373=CARTESIAN_POINT('',(11.,-11.,0.));
#374=AXIS2_PLACEMENT_3D('',#375,#376,#377);
#375=CARTESIAN_POINT('',(-2.02066721859313E-15,-11.,0.));
#376=DIRECTION('',(0.,0.,1.));
#377=DIRECTION('',(-1.,1.61486985400023E-16,0.));
#378=CARTESIAN_POINT('',(11.,-11.,0.));
#379=VECTOR('',#380,1.);
#380=DIRECTION('',(0.,0.,1.));
#381=CARTESIAN_POINT('',(10.9799571633349,-11.6637323943662,13.));
#382=CARTESIAN_POINT('',(10.9799571633349,-11.6637323943662,11.));
#383=VECTOR('',#384,1.);
#384=DIRECTION('',(0.,0.,1.));
#385=CARTESIAN_POINT('',(-10.9799571633349,-11.6637323943662,13.));
#386=AXIS2_PLACEMENT_3D('',#387,#388,#389);
#387=CARTESIAN_POINT('',(-2.02066721859313E-15,-11.,13.));
#388=DIRECTION('',(0.,0.,1.));
#389=DIRECTION('',(-0.998177923939534,-0.0603393085787448,0.));
#390=CARTESIAN_POINT('',(-10.9799571633349,-11.6637323943662,11.));
#391=VECTOR('',#392,1.);
#392=DIRECTION('',(0.,0.,1.));
#393=AXIS2_PLACEMENT_3D('',#394,#395,#396);
#394=CARTESIAN_POINT('',(1.99642187486482E-14,60.,13.));
#395=DIRECTION('',(0.,0.,1.));
#396=DIRECTION('',(-0.151447685011516,-0.988465274405051,0.));
#397=CARTESIAN_POINT('',(11.,-2.69422295812418E-15,0.));
#398=CARTESIAN_POINT('',(11.,-11.,0.));
#399=VECTOR('',#400,1.);
#400=DIRECTION('',(1.61486985400023E-16,1.,0.));
#401=CARTESIAN_POINT('',(11.,-3.12346831846234E-15,0.));
#402=VECTOR('',#403,1.);
#403=DIRECTION('',(0.,0.,1.));
#404=AXIS2_PLACEMENT_3D('',#405,#406,#407);
#405=CARTESIAN_POINT('',(0.,0.,0.));
#406=DIRECTION('',(0.,0.,1.));
#407=DIRECTION('',(1.,-2.44929359829471E-16,0.));
ENDSEC;
END-ISO-10303-21;
